<?xml version="1.0" encoding="utf-8"?>
<!-- Generator: Adobe Illustrator 23.0.3, SVG Export Plug-In . SVG Version: 6.00 Build 0)  -->
<svg version="1.1" xmlns="http://www.w3.org/2000/svg" xmlns:xlink="http://www.w3.org/1999/xlink" x="0px" y="0px"
	 viewBox="0 0 980 500" style="enable-background:new 0 0 980 500;" xml:space="preserve">
<style type="text/css">
	.st0{fill:#585858;}
	.st1{fill:#BDCCD4;}
</style>
<g id="Layer_1">
	<g>
		<path class="st0" d="M3.08,334.54C32.84,293.13,149.3,130.08,179.71,92.56h53.05v231.63h55.64v47.23h-55.64v102.23h-49.82V371.42
			H3.08V334.54z M182.94,324.19v-61.47c0-49.82,1.29-93.82,2.59-113.23h-0.65C163.53,179.26,76.83,302.83,61.31,324.19H182.94z"/>
		<path class="st0" d="M475.38,89.32c101.58,0,140.4,95.11,140.4,194.1c0,106.76-45.29,196.69-139.75,196.69
			c-89.93,0-142.34-79.58-142.34-196.69C333.68,165.67,389.33,89.32,475.38,89.32z M477.32,431.59c57.58,0,83.46-64.7,83.46-148.16
			c0-92.52-32.35-146.22-87.35-146.22c-49.82,0-86.7,51.76-86.7,144.93C386.74,368.83,418.44,431.59,477.32,431.59z"/>
		<path class="st0" d="M914.68,426.41v47.23H692.12v-47.23h89.93V151.44c-20.06,10.35-55,23.29-74.41,29.12l-6.47-44
			c33-11,74.41-29.76,96.4-44h36.88v333.85H914.68z"/>
	</g>
	<g>
		<path class="st1" d="M343.09,326.74c0.05,9.76-5.8,17.61-14.69,19.47c-3.64,0.76-7.25,0.8-10.76-0.63
			c-3.54-1.44-6.74-3.59-8.52-6.92c-1.68-3.14-2.52-6.74-3.83-10.42c-1,0.89-1.98,1.81-3.01,2.67c-3.7,3.08-7.37,6.2-11.15,9.17
			c-0.61,0.48-1.92,0.68-2.59,0.36c-4.46-2.16-8.81-4.55-13.25-6.77c-3.72-1.86-7.51-3.59-11.59-5.09
			c13.53,14.16,20.07,31.03,20.19,50.32c0.13,19.34-6.59,36.1-19.93,50.17c-21.41,22.57-53.94,28.24-83.31,14.56
			c-27.13-12.64-45.04-44.2-39.17-76.01c-2.11,0.25-4.14,0.48-6.16,0.73c-14.86,1.86-29.04-0.19-41.81-8.33
			c-17.47-11.14-27.69-26.84-29.46-47.84c-0.73-8.59,0.12-16.99,2.49-25.09c3.24-11.07,9.98-20.07,18.91-27.36
			c13.04-10.64,32.87-18.24,55.16-12.83c0-1.18,0.01-2.3,0-3.42c-0.07-9.88-0.17-19.87,3.04-29.29
			c9.17-26.92,27.47-44.51,55.74-49.27c29.9-5.03,54.62,5.24,72.69,29.85c9.3,12.66,12.19,27.49,12.02,42.96
			c-0.17,15.94-5.37,30.09-15.52,42.4c-1.53,1.85-3.06,3.71-4.59,5.56c-0.04,0.05-0.04,0.15-0.15,0.59c1.37-0.5,2.6-0.82,3.72-1.38
			c6.43-3.25,12.9-6.45,19.23-9.89c2.29-1.24,3.75-1.21,5.76,0.66c4.01,3.74,8.38,7.1,12.84,10.82c2.11-6.79,4.24-13.17,10.82-16.51
			c3.45-1.75,7.16-2.05,10.9-1.33c10.06,1.95,15.76,8.77,16.49,19.83H891.2c-0.14,2.99-0.26,5.73-0.42,9.07
			c1.48-0.56,2.79-0.87,3.9-1.53c0.97-0.58,1.84-1.46,2.53-2.37c5.71-7.49,13.44-8.72,21.94-6.8c11.04,2.49,18.07,12.08,17.53,23.38
			c-0.5,10.37-9.3,19.63-19.99,21.14c-7.1,1-13.19-0.95-18.28-5.99c-1.43-1.42-2.8-2.91-4.36-4.19c-0.56-0.46-1.65-0.65-2.33-0.43
			c-0.43,0.14-0.73,1.25-0.76,1.95c-0.1,1.99-0.03,5.77-0.03,5.77s-33.23,0-49.88,0v14.54h52.53c-0.15,1.78-0.37,3.33-0.38,4.89
			c-0.03,5.63,0.01,11.25,0.04,16.88c0,0.42,0.04,0.83,0.07,1.25c0.24,2.73-0.6,4.42-3.36,5.1c-3.02,0.73-5.97,1.79-8.88,2.89
			c-0.76,0.29-1.29,1.24-1.86,1.94c-0.17,0.21-0.13,0.61-0.13,0.93c0,2.52-0.82,5.53,0.26,7.42c0.92,1.61,3.99,2.01,6.16,2.83
			c2.47,0.94,4.99,1.75,7.36,2.56c0,20.25,0,38.88,0,58.74c-15.45,0-30.56,0-45.79,0c-1.4-14.38,1.1-28.56-1.13-42.72
			c-6.44,0-12.55,0-19.21,0c-0.1,7-0.24,13.9-0.29,20.8c-0.05,6.92-0.01,13.83-0.01,21.01c-12.41,0-23.92,0-36.28,0
			c0-14.26,0-28.1,0-41.81c-7.02,0-13.73,0-20.9,0c0,14.26,0,28.68,0,42.72c-15.71,0-30.95,0-46.37,0c-0.09-1.5-0.23-2.73-0.22-3.96
			c0.13-18.15,0.28-36.3,0.4-54.46c0.01-1.19,0.31-1.73,1.59-2.08c3.71-1.01,7.38-2.18,11.01-3.45c0.67-0.23,1.19-1.16,1.55-1.87
			c0.27-0.52,0.17-1.22,0.23-1.84c0.56-6.32,0.21-6.81-5.72-8.7c-2.39-0.77-4.78-1.57-7.08-2.57c-0.67-0.29-1.43-1.26-1.47-1.96
			c-0.22-3.81-0.25-7.63-0.29-11.45c-0.04-4.28-0.01-8.56-0.01-13.09c17.65,0,35,0,52.73,0c0-5.13,0-14.81,0-14.81
			S487.16,327.23,343.09,326.74z M181.08,345.79c-0.2,0.33-0.23,0.4-0.28,0.46c-0.61,0.7-1.23,1.4-1.84,2.11
			c-9.15,10.6-13.82,22.58-11.95,36.84c2.87,21.79,21.89,39.14,44,39.4c18.43,0.21,32.4-8.3,41.26-24.08
			c8.62-15.35,7.43-31.13-1.83-45.96c-7.08-11.34-17.84-17.65-30.91-20.02c-2.25-0.41-3.06-1.11-2.74-3.56
			c0.37-2.77,0.08-5.62,0.08-8.49c-3.31-0.09-4.66,1.8-5.93,3.63c-1.94,2.79-4.43,4.73-7.69,5.7c-6.69,2-13.48-0.32-18.2-6.23
			c-7.83-9.8-7.63-27.26,0.33-36.96c5.56-6.77,17.92-10.85,25.69,0.04c0.87,1.22,2.17,2.2,3.44,3.05c1.29,0.86,2.4,0.68,2.46-1.23
			c0.04-1.32,0.13-2.64,0.07-3.95c-0.29-6.73-0.38-5.7,5.23-6.96c24.45-5.49,40.29-29.46,34.79-53.37
			c-4.08-17.72-15.13-29.65-32.63-34.56c-17.6-4.94-33.05-0.12-45.56,13.15c-8.5,9.02-12.9,19.85-12.04,32.43
			c0.69,10.05,4.61,18.9,10.64,26.87c1.2,1.58,2.46,3.12,3.73,4.73c-8.34,7.14-16.52,14.14-24.82,21.24
			c-1.01-1.31-1.75-2.29-2.51-3.25c-6.73-8.44-15.25-13.5-26.25-13.88c-14.6-0.51-28.25,8.25-33.68,21.63
			c-5.37,13.22-1.85,27.58,9.47,37.55c8.2,7.22,17.73,10.79,28.76,8.95c7.89-1.32,14.12-5.77,19.63-11.32
			c1.67-1.69,3.25-3.47,4.99-5.32C164.96,331.59,172.98,338.66,181.08,345.79z"/>
	</g>
	<rect x="184.5" y="143" class="st0" width="48" height="83"/>
	<path class="st0" d="M343,280"/>
	
		<rect x="97.4" y="286.5" transform="matrix(-1.836970e-16 1 -1 -1.836970e-16 468.5 226.5)" class="st0" width="47.2" height="122"/>
	<path class="st0" d="M335,255c0,0-9,69,14,127s67,17,67,17s-6-7-14.48-27.5C390.27,344.29,382,298,390,239
		C401.75,152.32,335,255,335,255z"/>
	
		<rect x="132.25" y="311.55" transform="matrix(-1.836970e-16 1 -1 -1.836970e-16 503.55 219.55)" class="st0" width="19.5" height="100"/>
</g>
<g id="Layer_2">
</g>
</svg>
