<svg xmlns="http://www.w3.org/2000/svg" width="142.31" height="194.05" viewBox="0 0 142.31 194.05"><defs><style>.a{fill:#ffad00;}.a,.b,.c{stroke:#ee9700;stroke-miterlimit:10;stroke-width:0.5px;}.b,.d{fill:#fc0;}.c{fill:#f49a00;}</style></defs><path class="a" d="M112.63,120l14.78,3.21A59.16,59.16,0,0,0,152.57,7.58L137.8,4.37Z" transform="translate(-66.69 -2.95)"/><circle class="b" cx="126.11" cy="62.37" r="59.16" transform="translate(-80.64 72.73) rotate(-31.74)"/><circle class="a" cx="126.11" cy="62.37" r="47.84" transform="translate(-29.47 168.47) rotate(-77.13)"/><path class="c" d="M136.29,15.64c1.28.28,2.56.61,3.8,1a47.82,47.82,0,0,0-20.28,93.14c-1.28-.16-2.58-.38-3.87-.66a47.83,47.83,0,1,1,20.35-93.48Z" transform="translate(-66.69 -2.95)"/><path class="b" d="M115.85,38.6q5-3.78,12.61-3.68l1.8-8.25,9.22,2-1.71,7.88a40,40,0,0,1,9,3.75,27.47,27.47,0,0,1,6.66,5.11l-7.75,11.71a30.28,30.28,0,0,0-6.58-5.05,25.82,25.82,0,0,0-7.5-3,10.92,10.92,0,0,0-4.73-.29,2.32,2.32,0,0,0-1.83,1.82,2.67,2.67,0,0,0,1.26,2.84,35.55,35.55,0,0,0,5.53,3.08,61.72,61.72,0,0,1,8.24,4.63,15.38,15.38,0,0,1,5.11,6.1q1.91,3.88.67,9.53a16.73,16.73,0,0,1-6.6,10.32c-3.45,2.52-7.85,3.64-13.23,3.36l-1.76,8.1-9.23-2,1.74-8a30.62,30.62,0,0,1-12.34-7.21l7.41-11.7q5.9,5.33,11.91,6.64t6.67-2a2.59,2.59,0,0,0-1.26-2.73,33.68,33.68,0,0,0-5.46-2.94,55.4,55.4,0,0,1-8.27-4.49,15.86,15.86,0,0,1-5.22-6.08q-1.93-3.85-.7-9.5A16.64,16.64,0,0,1,115.85,38.6Z" transform="translate(-66.69 -2.95)"/><path class="d" d="M209,176a28.61,28.61,0,0,0-10.5-6,33,33,0,0,0-3.58-.91,33,33,0,0,0-.91-3.58,28.61,28.61,0,0,0-6-10.5,28.61,28.61,0,0,0-6,10.5c-.37,1.19-.66,2.37-.91,3.56a33.54,33.54,0,0,0-3.58.91,28.26,28.26,0,0,0-10.5,6,28.26,28.26,0,0,0,10.5,6,35.75,35.75,0,0,0,3.56.91,35.75,35.75,0,0,0,.91,3.56,28.26,28.26,0,0,0,6,10.5,28.26,28.26,0,0,0,6-10.5,33.54,33.54,0,0,0,.91-3.58c1.19-.25,2.37-.54,3.56-.91A28.61,28.61,0,0,0,209,176Z" transform="translate(-66.69 -2.95)"/></svg>