<?xml version="1.0" encoding="utf-8"?>
<!-- Generator: Adobe Illustrator 23.0.1, SVG Export Plug-In . SVG Version: 6.00 Build 0)  -->
<svg version="1.1" id="Layer_1" xmlns="http://www.w3.org/2000/svg" xmlns:xlink="http://www.w3.org/1999/xlink" x="0px" y="0px"
	 viewBox="0 0 400 400" style="enable-background:new 0 0 400 400;" xml:space="preserve">
<style type="text/css">
	.st0{fill:#EDEDED;}
	.st1{fill:#D6D6D6;}
</style>
<g>
	<rect x="1" class="st0" width="399" height="399"/>
</g>
<g>
	<path class="st1" d="M111.64,271.06c-19.52-34.42-6.24-88.41,34.14-128.8c45.86-45.85,109.26-56.78,141.63-24.41
		c0.04,0.04,0.07,0.09,0.12,0.13c-6.48,18.85-27.11,58.96-88.96,80.64C141.93,218.5,120.07,250.1,111.64,271.06z M296.52,129.64
		c-4.91,11.45-13.45,26.41-28.16,41.12c-14.79,14.8-35.81,29.33-65.59,39.78c-60.44,21.19-77.32,55.89-82.03,72.7
		c0.22,0.22,0.41,0.46,0.63,0.68c32.37,32.37,95.78,21.44,141.63-24.42C303.79,218.69,316.92,164,296.52,129.64z"/>
</g>
</svg>
