<svg xmlns="http://www.w3.org/2000/svg" xmlns:xlink="http://www.w3.org/1999/xlink" viewBox="0 0 353 285"><defs><style>.cls-1{isolation:isolate;}.cls-10,.cls-11,.cls-12,.cls-2{fill:none;}.cls-2{stroke:#33c1ce;stroke-width:12.93px;}.cls-3{fill:#71c6d0;}.cls-4{fill:#114860;}.cls-5{fill:#03163d;}.cls-6{fill:#f3f4f6;}.cls-7{fill:#1c9da3;}.cls-8{fill:#0b5454;}.cls-9{fill:#cde1f9;}.cls-16,.cls-9{mix-blend-mode:multiply;}.cls-10{stroke:#114860;}.cls-10,.cls-11,.cls-12{stroke-miterlimit:10;}.cls-11{stroke:#f3f4f6;}.cls-11,.cls-12{stroke-width:4px;}.cls-12{stroke:#ff746f;}.cls-13{fill:url(#linear-gradient);}.cls-14{fill:#fff;}.cls-15{fill:url(#linear-gradient-2);}.cls-17{fill:url(#linear-gradient-3);}.cls-18{fill:#fbad18;}.cls-19{fill:url(#linear-gradient-4);}.cls-20{fill:url(#linear-gradient-5);}.cls-21{fill:url(#linear-gradient-6);}.cls-22{fill:url(#linear-gradient-7);}.cls-23{fill:#abdadd;fill-rule:evenodd;}.cls-24{fill:url(#linear-gradient-8);}</style><linearGradient id="linear-gradient" x1="15.64" y1="100.04" x2="31.75" y2="100.04" gradientUnits="userSpaceOnUse"><stop offset="0" stop-color="#5fc8d7"/><stop offset="1" stop-color="#4dacd7"/></linearGradient><linearGradient id="linear-gradient-2" x1="284.75" y1="39.78" x2="319.93" y2="39.78" gradientTransform="translate(272.07 -263.66) rotate(76.81)" gradientUnits="userSpaceOnUse"><stop offset="0" stop-color="#ffeb7e"/><stop offset="0.97" stop-color="#ffc04f"/></linearGradient><linearGradient id="linear-gradient-3" x1="287.91" y1="39.78" x2="316.77" y2="39.78" gradientTransform="matrix(1, 0, 0, 1, 0, 0)" xlink:href="#linear-gradient-2"/><linearGradient id="linear-gradient-4" x1="324.72" y1="103.23" x2="346.25" y2="103.23" gradientTransform="matrix(1, 0, 0, 1, 0, 0)" xlink:href="#linear-gradient-2"/><linearGradient id="linear-gradient-5" x1="69.6" y1="271.17" x2="80.48" y2="271.17" gradientTransform="matrix(1, 0, 0, 1, 0, 0)" xlink:href="#linear-gradient-2"/><linearGradient id="linear-gradient-6" x1="30.17" y1="37.04" x2="50.24" y2="37.04" gradientTransform="matrix(1, 0, 0, 1, 0, 0)" xlink:href="#linear-gradient-2"/><linearGradient id="linear-gradient-7" x1="46.7" y1="251.63" x2="59.86" y2="251.63" gradientTransform="matrix(1, 0, 0, 1, 0, 0)" xlink:href="#linear-gradient-2"/><linearGradient id="linear-gradient-8" x1="279.96" y1="249.16" x2="292.77" y2="249.16" gradientTransform="matrix(1, 0, 0, 1, 0, 0)" xlink:href="#linear-gradient-2"/></defs><title>Artboard 1</title><g class="cls-1"><g id="Layer_1" data-name="Layer 1"><g id="DESIGNED_BY_FREEPIK" data-name="DESIGNED BY FREEPIK"><path class="cls-2" d="M271.83,69.64A117.24,117.24,0,1,1,228,32.78"/><path class="cls-2" d="M294,133.58a117.28,117.28,0,1,1-16.26-54.94"/><circle id="Background_2" data-name="Background 2" class="cls-3" cx="176.64" cy="138.5" r="98.34"/></g><rect class="cls-4" x="125.12" y="71.01" width="104.33" height="138.08" rx="4.76"/><path class="cls-5" d="M125.12,104.65v99.68a4.77,4.77,0,0,0,4.76,4.77h94.81a4.77,4.77,0,0,0,4.76-4.77V184.66Z"/><rect class="cls-6" x="131.18" y="79.33" width="92.2" height="123.39" rx="1.93"/><path class="cls-7" d="M185.19,68.41c0-.13,0-.26,0-.39a7.93,7.93,0,0,0-15.86,0c0,.13,0,.26,0,.39H157.72V80.49h39.13V68.41Z"/><polygon class="cls-8" points="157.72 68.41 157.72 80.49 196.85 80.49 157.72 68.41"/><circle class="cls-3" cx="177.28" cy="68.02" r="4.45" transform="translate(-12.52 73.45) rotate(-22.63)"/><path class="cls-4" d="M174.13,64.87a4.45,4.45,0,0,0,6.3,6.29Z"/><rect class="cls-9" x="157.72" y="80.49" width="39.13" height="0.83"/><rect class="cls-10" x="141.83" y="97.23" width="14.84" height="14.84"/><polyline class="cls-11" points="147.17 106.4 151.71 109.97 160.94 101.08"/><polyline class="cls-12" points="145.17 104.4 149.71 107.97 158.94 99.08"/><path class="cls-7" d="M212.16,101.44H163.8a.56.56,0,0,1-.57-.57h0a.57.57,0,0,1,.57-.57h48.36a.58.58,0,0,1,.57.57h0A.57.57,0,0,1,212.16,101.44Z"/><path class="cls-7" d="M212.16,104H163.8a.56.56,0,0,1-.57-.57h0a.57.57,0,0,1,.57-.57h48.36a.58.58,0,0,1,.57.57h0A.57.57,0,0,1,212.16,104Z"/><path class="cls-7" d="M212.16,106.48H163.8a.56.56,0,0,1-.57-.57h0a.57.57,0,0,1,.57-.57h48.36a.58.58,0,0,1,.57.57h0A.57.57,0,0,1,212.16,106.48Z"/><path class="cls-7" d="M212.16,109H163.8a.56.56,0,0,1-.57-.57h0a.57.57,0,0,1,.57-.57h48.36a.58.58,0,0,1,.57.57h0A.57.57,0,0,1,212.16,109Z"/><rect class="cls-10" x="141.83" y="121.12" width="14.84" height="14.84"/><polyline class="cls-11" points="147.17 130.3 151.71 133.86 160.94 124.97"/><polyline class="cls-12" points="145.17 128.3 149.71 131.86 158.94 122.97"/><path class="cls-7" d="M212.16,125.34H163.8a.57.57,0,0,1-.57-.57h0a.57.57,0,0,1,.57-.58h48.36a.58.58,0,0,1,.57.58h0A.58.58,0,0,1,212.16,125.34Z"/><path class="cls-7" d="M212.16,127.86H163.8a.57.57,0,0,1-.57-.58h0a.57.57,0,0,1,.57-.57h48.36a.58.58,0,0,1,.57.57h0A.58.58,0,0,1,212.16,127.86Z"/><path class="cls-7" d="M212.16,130.38H163.8a.57.57,0,0,1-.57-.58h0a.57.57,0,0,1,.57-.57h48.36a.58.58,0,0,1,.57.57h0A.58.58,0,0,1,212.16,130.38Z"/><path class="cls-7" d="M212.16,132.89H163.8a.56.56,0,0,1-.57-.57h0a.57.57,0,0,1,.57-.57h48.36a.58.58,0,0,1,.57.57h0A.57.57,0,0,1,212.16,132.89Z"/><rect class="cls-10" x="141.83" y="145.02" width="14.84" height="14.84"/><polyline class="cls-11" points="147.17 154.19 151.71 157.75 160.94 148.86"/><polyline class="cls-12" points="145.17 152.19 149.71 155.75 158.94 146.86"/><path class="cls-7" d="M212.16,149.23H163.8a.57.57,0,0,1-.57-.57h0a.56.56,0,0,1,.57-.57h48.36a.57.57,0,0,1,.57.57h0A.58.58,0,0,1,212.16,149.23Z"/><path class="cls-7" d="M212.16,151.75H163.8a.57.57,0,0,1-.57-.57h0a.56.56,0,0,1,.57-.57h48.36a.57.57,0,0,1,.57.57h0A.58.58,0,0,1,212.16,151.75Z"/><path class="cls-7" d="M212.16,154.27H163.8a.57.57,0,0,1-.57-.57h0a.56.56,0,0,1,.57-.57h48.36a.57.57,0,0,1,.57.57h0A.58.58,0,0,1,212.16,154.27Z"/><path class="cls-7" d="M212.16,156.79H163.8a.57.57,0,0,1-.57-.57h0a.57.57,0,0,1,.57-.58h48.36a.58.58,0,0,1,.57.58h0A.58.58,0,0,1,212.16,156.79Z"/><rect class="cls-10" x="141.83" y="168.91" width="14.84" height="14.84"/><polyline class="cls-11" points="147.17 178.08 151.71 181.64 160.94 172.75"/><polyline class="cls-12" points="145.17 176.08 149.71 179.64 158.94 170.75"/><path class="cls-7" d="M212.16,173.12H163.8a.56.56,0,0,1-.57-.57h0a.56.56,0,0,1,.57-.57h48.36a.57.57,0,0,1,.57.57h0A.57.57,0,0,1,212.16,173.12Z"/><path class="cls-7" d="M212.16,175.64H163.8a.57.57,0,0,1-.57-.57h0a.56.56,0,0,1,.57-.57h48.36a.57.57,0,0,1,.57.57h0A.58.58,0,0,1,212.16,175.64Z"/><path class="cls-7" d="M212.16,178.16H163.8a.57.57,0,0,1-.57-.57h0a.56.56,0,0,1,.57-.57h48.36a.57.57,0,0,1,.57.57h0A.58.58,0,0,1,212.16,178.16Z"/><path class="cls-7" d="M212.16,180.68H163.8a.57.57,0,0,1-.57-.57h0a.56.56,0,0,1,.57-.57h48.36a.57.57,0,0,1,.57.57h0A.58.58,0,0,1,212.16,180.68Z"/><rect class="cls-13" x="15.64" y="91.98" width="16.12" height="16.12" rx="2.4"/><path class="cls-14" d="M22.7,103.52l-3-3a.91.91,0,0,1,0-1.29.92.92,0,0,1,1.29,0L22.7,101l4.11-4.12a.92.92,0,0,1,1.29,0,.91.91,0,0,1,0,1.29Z"/><circle class="cls-15" cx="302.34" cy="39.78" r="17.59" transform="translate(194.61 325.06) rotate(-76.81)"/><g class="cls-16"><path class="cls-17" d="M302.34,54.21a14.43,14.43,0,1,1,14.43-14.43A14.44,14.44,0,0,1,302.34,54.21Zm0-28a13.55,13.55,0,1,0,13.54,13.55A13.57,13.57,0,0,0,302.34,26.23Z"/></g><path class="cls-18" d="M301.3,46.52a12.5,12.5,0,0,1-4.38-1V42.06a14.46,14.46,0,0,0,2.61,1,9.25,9.25,0,0,0,2.49.41,3,3,0,0,0,1.29-.21.74.74,0,0,0,.41-.71.73.73,0,0,0-.3-.59,5.21,5.21,0,0,0-1-.54c-.46-.2-1.08-.44-1.87-.72a8.42,8.42,0,0,1-2.13-1.1,3.71,3.71,0,0,1-1.17-1.36,4.15,4.15,0,0,1-.37-1.87,3.36,3.36,0,0,1,1.1-2.68,5.83,5.83,0,0,1,3.3-1.2V31.09h2.15v1.4a12.25,12.25,0,0,1,4.16,1l-1.23,3a9.72,9.72,0,0,0-3.92-1,2.38,2.38,0,0,0-1.17.21.64.64,0,0,0-.33.59.75.75,0,0,0,.24.57,3.31,3.31,0,0,0,.85.5c.4.18,1,.4,1.67.64a7.93,7.93,0,0,1,3.11,1.75,3.48,3.48,0,0,1,.95,2.53,3.8,3.8,0,0,1-1.11,2.83,5.32,5.32,0,0,1-3.22,1.35v2H301.3Z"/><path class="cls-19" d="M345.4,102.08l-6.11-1.85a1.23,1.23,0,0,1-.8-.8l-1.85-6.11a1.2,1.2,0,0,0-2.3,0l-1.86,6.11a1.19,1.19,0,0,1-.8.8l-6.1,1.85a1.2,1.2,0,0,0,0,2.3l6.1,1.86a1.19,1.19,0,0,1,.8.8l1.86,6.1a1.2,1.2,0,0,0,2.3,0l1.85-6.1a1.23,1.23,0,0,1,.8-.8l6.11-1.86A1.2,1.2,0,0,0,345.4,102.08Z"/><path class="cls-20" d="M80.05,270.59,77,269.65a.61.61,0,0,1-.4-.4l-.94-3.09a.61.61,0,0,0-1.16,0l-.94,3.09a.61.61,0,0,1-.41.4l-3.08.94a.6.6,0,0,0,0,1.16l3.08.94a.61.61,0,0,1,.41.4l.94,3.09a.61.61,0,0,0,1.16,0l.94-3.09a.61.61,0,0,1,.4-.4l3.09-.94A.61.61,0,0,0,80.05,270.59Z"/><path class="cls-21" d="M49.45,36l-5.7-1.74a1.1,1.1,0,0,1-.74-.74l-1.73-5.7a1.13,1.13,0,0,0-2.15,0l-1.73,5.7a1.1,1.1,0,0,1-.74.74L31,36a1.12,1.12,0,0,0,0,2.14l5.7,1.73a1.13,1.13,0,0,1,.74.75l1.73,5.69a1.12,1.12,0,0,0,2.15,0L43,40.59a1.13,1.13,0,0,1,.74-.75l5.7-1.73A1.12,1.12,0,0,0,49.45,36Z"/><path class="cls-22" d="M59.34,250.78l-3.73-1.38a.82.82,0,0,1-.49-.59L54,244.27a.7.7,0,0,0-1.4,0l-1.14,4.54a.82.82,0,0,1-.49.59l-3.73,1.38a1,1,0,0,0,0,1.71L51,253.86a.82.82,0,0,1,.49.6L52.58,259a.7.7,0,0,0,1.4,0l1.14-4.53a.82.82,0,0,1,.49-.6l3.73-1.37A1,1,0,0,0,59.34,250.78Z"/><path class="cls-23" d="M313.35,266.26Zm3.37-12.84a6.48,6.48,0,1,1-1.9,4.59,6.49,6.49,0,0,1,1.9-4.59Zm1.4-6.43a11.69,11.69,0,0,0-2.54,1.08,11.85,11.85,0,0,0-2.23,1.68.39.39,0,0,1-.48.06l-3-1.74h0a.75.75,0,0,0-.55-.06.74.74,0,0,0-.45.35v0L306.71,252a.72.72,0,0,0-.08.57.74.74,0,0,0,.35.45h0l3,1.73a.4.4,0,0,1,.19.44h0a10,10,0,0,0-.25,1.37,10.74,10.74,0,0,0-.09,1.4,12.21,12.21,0,0,0,.34,2.77.41.41,0,0,1-.21.45L307,263h0a.76.76,0,0,0-.35.46.73.73,0,0,0,.08.57l2.13,3.69h0a.74.74,0,0,0,.45.35.72.72,0,0,0,.57-.08h0l3-1.73a.39.39,0,0,1,.47.06,11.49,11.49,0,0,0,4.79,2.77.41.41,0,0,1,.29.38v3.48a.75.75,0,0,0,.74.75h4.27a.77.77,0,0,0,.53-.22.79.79,0,0,0,.22-.53v-3.48a.41.41,0,0,1,.3-.39,11.3,11.3,0,0,0,2.55-1.08,11.44,11.44,0,0,0,2.23-1.68.41.41,0,0,1,.49-.05l3,1.73a.7.7,0,0,0,.56.08.76.76,0,0,0,.46-.35v0l2.12-3.68h0a.74.74,0,0,0,.07-.56.78.78,0,0,0-.34-.46l-3-1.73a.41.41,0,0,1-.19-.44h0a12.44,12.44,0,0,0,.25-1.38,12.66,12.66,0,0,0,.08-1.39,12.85,12.85,0,0,0-.08-1.4,11.85,11.85,0,0,0-.25-1.37.38.38,0,0,1,.21-.45l3-1.73a.76.76,0,0,0,.27-1v0l-2.12-3.67h0a.76.76,0,0,0-.46-.35.74.74,0,0,0-.56.07h0l-3,1.74a.39.39,0,0,1-.48-.06,11.22,11.22,0,0,0-4.78-2.76.4.4,0,0,1-.29-.39v-3.47a.76.76,0,0,0-.22-.53.73.73,0,0,0-.53-.22h-4.27a.75.75,0,0,0-.74.75v3.47A.4.4,0,0,1,318.12,247Z"/><path class="cls-24" d="M292.26,248.47l-3.63-1.12a.72.72,0,0,1-.48-.48l-1.1-3.68a.72.72,0,0,0-1.37,0l-1.1,3.68a.72.72,0,0,1-.48.48l-3.63,1.12a.72.72,0,0,0,0,1.38L284.1,251a.72.72,0,0,1,.48.48l1.1,3.68a.72.72,0,0,0,1.37,0l1.1-3.68a.72.72,0,0,1,.48-.48l3.63-1.12A.72.72,0,0,0,292.26,248.47Z"/></g></g></svg>