<svg xmlns="http://www.w3.org/2000/svg" xmlns:xlink="http://www.w3.org/1999/xlink" viewBox="0 0 620.5 530.39"><defs><style>.cls-1,.cls-15,.cls-18,.cls-23{fill:none;}.cls-19,.cls-2{fill:#fff;}.cls-3{fill:#f1f1f1;}.cls-4{fill:#afafaf;}.cls-5{fill:#becbd3;}.cls-23,.cls-5{stroke:#4a5151;stroke-width:5px;}.cls-15,.cls-19,.cls-27,.cls-28,.cls-5{stroke-miterlimit:10;}.cls-6{fill:#6d6e70;}.cls-7{fill:#8e5317;}.cls-16,.cls-8{fill:#f8c997;}.cls-9{fill:#296076;}.cls-10{fill:#599e61;}.cls-11{fill:#a9bfc8;}.cls-12{fill:#f5b67e;}.cls-13{fill:#182e3c;}.cls-14{fill:#7fa0ad;}.cls-15{stroke:#ffdbc5;stroke-width:6px;}.cls-16,.cls-20,.cls-21,.cls-24,.cls-25,.cls-26,.cls-27,.cls-28{fill-rule:evenodd;}.cls-17{fill:#453434;}.cls-18{stroke:#ff9500;stroke-width:2.27px;}.cls-18,.cls-23{stroke-linecap:round;stroke-linejoin:round;}.cls-19{stroke:#fff;stroke-width:1.07px;}.cls-20{fill:#d6825b;}.cls-21{fill:#e5b17d;}.cls-22{fill:#33c1ce;}.cls-24{fill:#13955e;}.cls-25{fill:#f48156;}.cls-26{fill:#f4ad9a;}.cls-27{fill:#c4b89b;}.cls-27,.cls-28{stroke:#b49768;stroke-width:0.93px;}.cls-28{fill:#af8946;}.cls-29{clip-path:url(#clip-path);}.cls-30{fill:#37c0cd;}</style><clipPath id="clip-path"><path class="cls-1" d="M50.17,75.7a36.59,36.59,0,0,0,1.25,13.59c2.68,7.36,7.81,16.23,32.79,39.37,22.8-21.21,30.3-31.91,32.62-39.32A29.33,29.33,0,0,0,118,75.8c-1.46-14.4-16.76-29.47-33.42-29.47s-32.91,14-34.36,29.37"/></clipPath></defs><title>Asset 3</title><g id="Layer_2" data-name="Layer 2"><g id="Layer_4" data-name="Layer 4"><rect class="cls-2" x="20.3" y="12.29" width="579.47" height="373.33"/><path class="cls-3" d="M417.08,520.6s-9.21-10.4-20.79-21.67-9.93-19.57-9.93-19.57l-3.12-45h-146l-3.11,45s1.63,8.29-10,19.57-20.77,21.67-20.77,21.67a14.12,14.12,0,0,0-1.33,6.07c0,3.56,1.92,3.72,9.93,3.72H408.46c8,0,9.94-.16,9.94-3.72A14.21,14.21,0,0,0,417.08,520.6Z"/><path class="cls-4" d="M417.08,520.6s-9.21-10.4-20.79-21.67-9.93-19.57-9.93-19.57l-3.12-45h-146l-3.11,45s1.63,8.29-10,19.57-20.77,21.67-20.77,21.67a14.12,14.12,0,0,0-1.33,6.07c0,3.56,1.92,3.72,9.93,3.72H408.46c8,0,9.94-.16,9.94-3.72A14.21,14.21,0,0,0,417.08,520.6Z"/><path class="cls-5" d="M589.24,7.3h-558c-13.21,0-24,9.24-24,20.59V418.68c0,11.35,10.76,20.59,24,20.59h558c13.21,0,24-9.24,24-20.59V27.89C613.19,16.54,602.45,7.3,589.24,7.3ZM595.11,377H25.4V24.48H595.11Z"/><path class="cls-5" d="M589.24,2.5h-558C15.41,2.5,2.5,13.89,2.5,27.89V418.68c0,14,12.91,25.39,28.77,25.39h558c15.85,0,28.76-11.39,28.76-25.39V27.89C618,13.89,605.09,2.5,589.24,2.5Zm26.35,416.18c0,12.69-11.79,23-26.36,23h-558c-14.57,0-26.37-10.3-26.37-23V27.89c0-12.7,11.8-23,26.37-23h558c14.57,0,26.36,10.29,26.36,23Z"/><path class="cls-6" d="M324.28,405.48A14.25,14.25,0,1,0,310,419.7,14.24,14.24,0,0,0,324.28,405.48Z"/><path class="cls-7" d="M277.29,122.54l1.28,23.58s25.52-6.37,36.58-6.37,35.31,7.46,35.31,7.46l2.17-31.11"/><path class="cls-8" d="M281.06,211.61s4.92,10,7,11.51,2.89-9.77,1.06-15.24-5.34-4.47-5.34-4.47Z"/><path class="cls-9" d="M315.31,221.67v0l-.41,0-.41,0v0l-26.41,1.45,1.55.37c.6,1.82,7.79,51.81,7.79,51.81h12.51s.14-28.41,4.52-30.16c4.4,1.75,5.64,29.34,5.64,29.34h13s6-49.17,6.61-51Z"/><path class="cls-9" d="M338.61,218.14a12.93,12.93,0,0,1-1.11-6c.09-1.46.16-2.92.22-4.38-.45-10.53.17-21.08-.71-31.62H292.46c-.24,2.42-.46,5-.66,7.53a178.51,178.51,0,0,1-1.19,36.52H339a9.52,9.52,0,0,1-.25-1.18C338.68,218.72,338.65,218.43,338.61,218.14Z"/><path class="cls-10" d="M387.15,157l-62.27,4.15-10.43,4.2-10.28-4.2s-29.44-.51-41,23.19c-6.08,15.65,17,29.69,17,29.69l3.65-10.85S269,185.4,290.39,184.26c-1.39,19.29-2,25-1.84,34.72h6.24v-39.5H335.2V219h4.67c-.15-19.83-1.64-41.91-1.64-41.91l48.06-10.35Z"/><path class="cls-11" d="M340.2,225.28c.06-3.73.06-7.53,0-11.25h-52c0,3.31,0,6.77.24,11.25Z"/><path class="cls-12" d="M326.82,159.22a12.37,12.37,0,0,1-12.33,12.55h0a12.37,12.37,0,0,1-12.34-12.55V152.3a12.37,12.37,0,0,1,12.34-12.55h0a12.37,12.37,0,0,1,12.33,12.55Z"/><polygon class="cls-9" points="302.15 193.87 297.21 193.87 297.21 161.7 302.15 160.79 302.15 193.87"/><rect class="cls-9" x="326.82" y="160.97" width="5.76" height="32.9"/><path class="cls-13" d="M302.68,187.08v2.4a12.2,12.2,0,0,0,12.2,12.19h.22a12.2,12.2,0,0,0,12.2-12.19v-2.4Z"/><path class="cls-14" d="M312.16,222.39H340.1c.07-1.81.07-3.66,0-5.46h-51.8a46.2,46.2,0,0,0,.24,5.46h23.59"/><line class="cls-15" x1="304.62" y1="275.3" x2="304.62" y2="288.46"/><path class="cls-11" d="M310.24,291.13c-.05-.46-.28-16.65-.28-16.65H294.75l2.46,11.34c-.09,0-.19.35-.28.39-9.86,4.08-11.11,6.36-9.14,8h21.7A4.37,4.37,0,0,0,310.24,291.13Z"/><path class="cls-14" d="M311.2,276.12a2.47,2.47,0,0,1-2.47,2.47H295.57a2.47,2.47,0,0,1-2.47-2.47h0a2.48,2.48,0,0,1,2.47-2.47h13.16a2.48,2.48,0,0,1,2.47,2.47Z"/><rect class="cls-14" x="296.39" y="283.52" width="9.05" height="3.29"/><line class="cls-15" x1="324.36" y1="275.3" x2="324.36" y2="288.46"/><path class="cls-11" d="M319.56,291.13c0-.46.27-16.65.27-16.65h15.22l-2.47,11.34c.09,0,.19.35.28.39,9.86,4.08,11.12,6.36,9.15,8h-21.7A4.32,4.32,0,0,1,319.56,291.13Z"/><path class="cls-14" d="M335.87,276.12a2.47,2.47,0,0,0-2.47-2.47H320.24a2.47,2.47,0,0,0-2.46,2.47h0a2.46,2.46,0,0,0,2.46,2.47H333.4a2.46,2.46,0,0,0,2.47-2.47Z"/><rect class="cls-14" x="323.53" y="283.52" width="9.05" height="3.29"/><path class="cls-16" d="M352.39,111.63a9.43,9.43,0,0,0-.78-4.68s.34-.33.69-.6a30.35,30.35,0,0,1-.94-7.59,62,62,0,0,1-4.11-9.65c-2.05-3.54-3.22-7.57-5.51-11,0,0,.27-.34.8-.76a78.75,78.75,0,0,0-8.81-6.78c-5.8-3.71-12.42-5.7-18.84-8.11-1.18.87-3.75,3.06-4.05,3.28s-4.46,3.72-4.7,3.54c-1.11-.85-2.32-1.67-3.5-2.52l-2.71,2.1c-.27.21-2,1.71-3.32,2.69l.15.17s-5.22,4.17-7.85,6.16c.47.8.92,1.6,1.36,2.42.11.21-4.26,3.35-4.63,3.63l-.87.65a15.48,15.48,0,0,1,1.34,2.21c.13.26-4.25,3.34-4.63,3.63l-1.28,1a11.47,11.47,0,0,1,.43,4.46c-.49,3.33-2.68,6.12-3.35,9.41-.06.3-1.08.87-1.34,1.08h0c2.1,25.3,16.67,52.58,38.65,52.79,20.51-.19,34.56-24,38.05-47.7C352.49,111.52,352.39,111.6,352.39,111.63Z"/><path class="cls-17" d="M335.84,115.89a3.43,3.43,0,1,0-3.36,3.48A3.43,3.43,0,0,0,335.84,115.89Z"/><path class="cls-17" d="M300.38,116.53A3.43,3.43,0,1,0,297,120,3.42,3.42,0,0,0,300.38,116.53Z"/><path class="cls-18" d="M299.37,134.79c7.77,11.18,24.91,10.87,32.27-.58"/><path class="cls-8" d="M268.47,119.15a7.17,7.17,0,1,0,7-7.3A7.18,7.18,0,0,0,268.47,119.15Z"/><path class="cls-8" d="M346.78,116.11a7.17,7.17,0,1,0,7-7.3A7.17,7.17,0,0,0,346.78,116.11Z"/><path class="cls-7" d="M314.14,56c-17.41,0-42.49,13.67-38,59.24,0,0,2.8-19.64,13.16-26.31,6.28,5.52,20.91,15.46,45.61,16.64l-.85-5.48s3.55,5.58,14.79,3.07a63.87,63.87,0,0,1,3.21,12.08C356.63,69.64,331.55,56,314.14,56Z"/><ellipse class="cls-19" cx="332.42" cy="115.95" rx="4.25" ry="4.18"/><path d="M332.54,118.38a2.13,2.13,0,1,1,2.17-2.13A2.15,2.15,0,0,1,332.54,118.38Z"/><path d="M332.54,114.41a1.84,1.84,0,1,1-1.87,1.84,1.85,1.85,0,0,1,1.87-1.84m0-.59a2.43,2.43,0,1,0,2.47,2.43,2.45,2.45,0,0,0-2.47-2.43Z"/><path class="cls-2" d="M334.19,114.3a.83.83,0,1,1-.83-.82A.82.82,0,0,1,334.19,114.3Z"/><ellipse class="cls-19" cx="296.96" cy="116.59" rx="4.25" ry="4.18"/><path d="M297.08,119a2.13,2.13,0,1,1,2.17-2.13A2.15,2.15,0,0,1,297.08,119Z"/><path d="M297.08,115.05a1.84,1.84,0,1,1-1.87,1.84,1.85,1.85,0,0,1,1.87-1.84m0-.59a2.43,2.43,0,1,0,2.47,2.43,2.45,2.45,0,0,0-2.47-2.43Z"/><path class="cls-2" d="M298.73,114.93a.83.83,0,1,1-.83-.81A.83.83,0,0,1,298.73,114.93Z"/><path class="cls-20" d="M330.18,136.74c-3,3.74-8.43,6.25-14.67,6.25s-11.7-2.51-14.68-6.25c3.63,2.58,8.69,5.18,14.51,5.18S326.56,139.32,330.18,136.74Z"/><path class="cls-21" d="M309.43,132.61s0,0,0-.09a.55.55,0,0,1,.23-.4,59,59,0,0,0,4.48-15.62c1.14.07-1.14,12-2.12,14.81a21.24,21.24,0,0,1,3.51-.27c3.37,0,6.1.67,6.1,1.48s-2.73,1.49-6.1,1.49S309.6,133.39,309.43,132.61Z"/><path class="cls-8" d="M375.72,163.3c-1.59-1.05-2.48-2.35-2.16-3.46a2.75,2.75,0,0,1,2.29-1.66c-1.34-1-2.06-2.17-1.78-3.19.38-1.32,2.32-2,4.74-1.8l.35-.32c-.08-.34-.17-.69-.25-1.06-1.64-7.5,5.29-10.49,5.26-6.43a15.13,15.13,0,0,0,1.15,5.74c3.87.9,6.5,5.37,6,10.4-.58,5.36-4.52,9.33-8.8,8.88a6.4,6.4,0,0,1-1.58-.38,12.43,12.43,0,0,1-1.51-.33c-3.46-1-5.87-3.16-5.38-4.89A2.39,2.39,0,0,1,375.72,163.3Z"/><rect class="cls-2" x="254.6" y="205.51" width="109.51" height="137.27"/><path class="cls-22" d="M364.12,337.78H268c-4.4,0-8.85-.19-13.25,0h-.19l5,5V222.39c0-5.53.22-11.11,0-16.64v-.24l-5,5h96.08c4.4,0,8.85.19,13.24,0h.2l-5-5v120.4c0,5.54-.14,11.09,0,16.63v.24a5,5,0,0,0,10,0V222.39c0-5.54.13-11.1,0-16.64a1.92,1.92,0,0,1,0-.24,5.08,5.08,0,0,0-5-5H268c-4.41,0-8.84-.11-13.25,0h-.19a5.07,5.07,0,0,0-5,5v120.4c0,5.54-.13,11.09,0,16.63a1.92,1.92,0,0,1,0,.24,5.07,5.07,0,0,0,5,5h96.08c4.41,0,8.83.12,13.24,0h.2a5,5,0,0,0,0-10Z"/><line class="cls-23" x1="268.11" y1="317.27" x2="350.61" y2="317.27"/><line class="cls-23" x1="268.11" y1="328.66" x2="350.61" y2="328.66"/><line class="cls-23" x1="268.11" y1="305.87" x2="350.61" y2="305.87"/><path class="cls-24" d="M296.12,247.15,285.25,245c-4.6,5.79-8.52,6.33-2.85-.73-7.36.88-10.49-2.32-.11-2-15.06-10-12.28-10,2.07-2.5,3.92,2.49,7.84,4.94,11.76,7.43l-.09-11.1c6.53-3.42,7.79-7.17-.2-2.92,2.24-7.06-.3-10.76-1.95-.5-7-16.64-7.5-13.91-2.84,1.56,1.69,4.33,3.39,8.63,5.08,13Zm-1.64-1.94c-7-4.42-19.31-14.87-23-19.37-.22-1.08,4,.68,8.08,2.4-5.52-5-8.95-9-7.95-10.71,1.85-.68,5.14,3.45,9.05,9.8-.92-4.34-1.89-8.78-.85-8.39,3.7,4.51,11.66,18.61,14.7,26.27Z"/><path class="cls-25" d="M291.64,241.73c-17.92,14.4,37.6,57.31,46.38,56.06,2.89-8.41-28.89-71-46.38-56.06Z"/><path class="cls-26" d="M306.18,276.92c.41.42.84.82,1.28,1.19L318,269.38l-1.1-1.33Zm15.58,12.76c.49.36,1,.69,1.47,1l6.25-5.17-1.1-1.33Zm8.36-15.54-.81-1.57-5.9,4.88,1.1,1.33ZM321,258.9c-.31-.46-.65-.94-1-1.42l-5.86,4.85,1.1,1.33Zm-13-14.83c-.48-.39-.94-.74-1.41-1.08l-7.25,6,1.1,1.32Zm-.08,6.12L296.1,260l1.1,1.33,11.86-9.82Z"/><path class="cls-27" d="M353.58,86.63c0-27.33-5.31-34.17-35.37-35.92-5.32-.31-3.75-.23-4.92-.33-1.18.1.39,0-4.93.33-28.59,1.66-33,11-33,35.92h78.24Z"/><path class="cls-28" d="M275.34,85.52a19,19,0,0,0,2.1,8.63c2.23,4,5.25,3.23,12.48,2.6,6-.52,14.46-1.34,24.57-1.46h0c10.1.12,18.59.94,24.56,1.46,7.23.63,10.25,1.44,12.48-2.6a18.89,18.89,0,0,0,2.11-8.63C334.07,81.59,294.9,81.59,275.34,85.52Z"/><g class="cls-29"><rect class="cls-30" x="73.54" y="70.24" width="20.97" height="20.97" transform="translate(-32.47 83.06) rotate(-45)"/><rect class="cls-30" x="48.01" y="65.57" width="20.97" height="45.99" transform="translate(-45.49 67.3) rotate(-45)"/><rect class="cls-30" x="56.41" y="52.05" width="20.97" height="23" transform="translate(-25.34 65.91) rotate(-45)"/><rect class="cls-30" x="73.02" y="35.43" width="20.97" height="23" transform="translate(-8.73 72.8) rotate(-45)"/><rect class="cls-30" x="99.47" y="49.94" width="20.97" height="46.88" transform="translate(-19.68 99.24) rotate(-45)"/><rect class="cls-30" x="90.82" y="86.49" width="20.97" height="22.93" transform="translate(-39.59 100.32) rotate(-45)"/><rect class="cls-30" x="74.11" y="103.2" width="20.97" height="22.93" transform="translate(-56.31 93.4) rotate(-45)"/></g></g></g></svg>