<svg id="Layer_1" data-name="Layer 1" xmlns="http://www.w3.org/2000/svg" viewBox="0 0 432.93 432.93"><defs><style>.cls-1{fill:none;stroke:#33c1ce;stroke-width:12.93px;}.cls-2{fill:#71c6d0;}.cls-3{fill:#ff6e98;}.cls-3,.cls-4,.cls-5,.cls-6,.cls-7{fill-rule:evenodd;}.cls-4{fill:#0013a8;}.cls-5{fill:#3969ff;}.cls-6{fill:#e3e3ff;}.cls-7{fill:#097272;}</style></defs><title>Welcome</title><g id="DESIGNED_BY_FREEPIK" data-name="DESIGNED BY FREEPIK"><path class="cls-1" d="M387.32,94A208.09,208.09,0,0,1,427,221.19c-2.59,115.42-98.26,206.89-213.67,204.3S6.38,327.24,9,211.82,107.22,4.92,222.65,7.51a208.27,208.27,0,0,1,86.63,20.9"/><path class="cls-1" d="M426.81,207.75a208,208,0,0,1-37.16,128C323.81,430.54,193.57,454,98.75,388.2S-19.58,192.11,46.26,97.29,242.35-21,337.18,44.8A208.41,208.41,0,0,1,397.89,110"/><circle id="Background_2" data-name="Background 2" class="cls-2" cx="217.96" cy="216.5" r="174.95"/><path class="cls-3" d="M106.08,156c13-9.22,31.41-6.78,42.06,8.47,12.34,17.7,10.61,47.29,6.81,51.1-3.58,3.6-38.79,3.49-53.93-17.7C90.21,182.72,93.08,165.2,106.08,156Z"/><path class="cls-4" d="M154.09,90.76c15.56-3.67,31.7,5.46,35.7,23.55,4.68,21-8.22,47.73-13.19,49.85-4.68,2-37.26-11.26-43.2-36.53C129.17,109.59,138.51,94.44,154.09,90.76Z"/><path class="cls-5" d="M234.49,113.94c16,1.06,28.6,14.53,27,32.93-1.91,21.4-22.34,43.11-27.74,43.67-5.08.53-32.15-21.68-30.15-47.54C205,124.58,218.51,112.88,234.49,113.94Z"/><path class="cls-4" d="M155.52,213.83l.43.18.44.18.43.21.43.19.43.21.43.2.43.2.42.22.42.21.42.21.42.22.42.23.41.23.41.23.42.23.41.24.4.24.41.24.41.24.4.25H164l.33.25.38.27.38.27.38.28.37.28.38.29.36.28.37.3.36.29.37.29.36.3.35.3.36.3.35.31.35.3.36.32.34.31.34.31.35.32.33.32.35.32.33.32.32.32.34.33.33.33.32.33.33.33.31.34.33.33.31.34.31.34.32.33.3.34.31.34.31.35.3.35.3.34.29.35.3.35.29.34.3.36.28.35.3.35.17.23.11.13.19.25.19.24.2.25.19.26.19.25.19.25.19.25.18.25.19.25.19.26.17.25.19.26.18.25.17.25.18.26.18.26.16.26.18.25.17.26.16.26.17.26.17.26.16.26.16.26.17.26.16.26.15.26.16.27.16.26.14.27.16.26.15.26.15.26.15.27.15.26.14.28.14.26.14.27.15.26.14.27.13.26.14.27.14.28.13.27.13.27.13.27.13.27.13.27.12.27.13.27.12.27.13.28.11.27.12.27.12.28.12.27.11.28.11.27.11.27.12.28.11.28.11.28.1.28.1.27.11.28.1.28.1.27.1.28.09.28.1.28.1.28.09.29.09.27.09.28.18.57.17.56.16.56.17.57.16.57.14.57.14.57.14.57.14.57v.11l.11.46.11.58.12.57.11.58.11.58.09.58.09.58.09.58.09.58.08.58.07.58.07.59,0,.59.06.58.05.59v10.06l-.05.6V277l0,.6-.05.6-.07.6-.07.59-.08.6-.08.6-.09.6-.09.61-.09.59-.1.6-.11.6-.14.67-.11.61-.12.6-.1.46V286l-.13.59-.14.6-.13.6-.15.6-.15.6-.16.6-.15.59-.17.6-.17.6-.17.6-.19.59-.19.6-.18.6-.2.59-.19.6-.21.6-.21.6-.21.6-.22.59-.22.59-.23.6-.24.59-.23.59-.25.59-.24.6-.26.59-.25.59-.27.59-.26.58-.27.59-.27.6-.29.59-.28.58-.24.48-.24.48-.11.23-.13.25-.23.48-.24.5-.24.48-.25.49-.25.48-.24.49-.25.48-.5,1-.51,1-.51,1-.51,1-.52,1-.52,1-.53,1-.59,1.09-.46.87-1.05,1.93-.52,1-.52,1-.52,1-.51,1-.51,1-.25.49-.25.49-.25.49-.24.49-.25.49-.24.49-.25.49-.08.18-.16.31-.26.48-.25.49-.25.48-.24.49-.25.49-.25.48-.23.49-.24.48-.23.48-.24.5-.22.48-.23.49-.23.48-.21.5-.22.48-.21.48-.21.49-.21.49-.19.49-.2.49-.19.48-.2.49-.19.49-.17.49-.18.49-.08.22-.1.27-.17.49-.17.48-.17.5-.15.48-.16.5-.15.48-.15.49-.13.5-.14.48-.13.5-.13.49-.11.49-.12.5-.06.24v.25l-.06.24-.05.25v.25l-.05.25,0,.24v4.2h0v9.94l0,.26v.26l.05.27v.26l.05.26.06.26.06.26.06.26.06.26.05.28.07.26.07.26.07.26.08.27.07.26-.45.85-.88-.38-.09-.26-.1-.27-.1-.27-.1-.26-.1-.26-.09-.26-.08-.27-.09-.26-.09-.27-.09-.27-.08-.26-.08-.26-.07-.27-.08-.26-.07-.26-.07-.27-.07-.27-.07-.26-.07-.26-.06-.27,0-.26-.06-.27-.06-.26-.06-.27v-.27l-.06-.26-.05-.26v-.27l0-.26v-6.64h0v-4.67l0-.27v-.26l.05-.26v-.26l0-.27v-.26l.11-.53.1-.52.12-.52.12-.52.13-.53.13-.52.13-.52.14-.53.15-.51.14-.52.16-.53.16-.51.17-.52.08-.27.08-.25.18-.51.19-.51.17-.52.2-.52.19-.51.19-.52.2-.5.2-.51.21-.52.22-.5.21-.51.22-.52.21-.5.23-.5.23-.52.22-.5.24-.5.22-.51.24-.5.24-.5.24-.51.24-.5.25-.5.25-.5.25-.5.16-.33.1-.18.26-.48.28-.49.27-.5.28-.48.27-.5.27-.49.29-.48.55-1,.57-1,.56-1,.57-1,.57-1,1.14-1.93.5-.84.63-1.07.56-1,.56-1,.56-1,.56-1,.55-1,.54-1,.53-1,.27-.47.26-.47.26-.46.26-.48.26-.46.25-.48L181,306l.12-.26.12-.22.24-.46.23-.48L182,304l.27-.56.28-.57.26-.57.27-.58.26-.57.26-.57.24-.58.25-.57.23-.57.25-.57.23-.58.22-.58.23-.58.21-.57.22-.58.21-.58.2-.57.2-.58.19-.58.19-.58.19-.58.17-.58.18-.58.17-.58.16-.58.17-.58.15-.58.16-.58.14-.59.14-.58.14-.58.13-.58v-.12l.09-.46.12-.58.12-.58.12-.58.09-.57.11-.59.1-.58.09-.58.09-.58.08-.58.07-.58.07-.58.07-.58.06-.58.06-.58v-.58l.05-.58V265.35l-.06-.57v-.56l-.07-.57-.06-.57-.08-.56-.07-.57-.08-.56-.09-.56-.09-.56-.1-.56-.11-.56-.1-.56-.12-.55-.09-.45v-.11l-.13-.56-.13-.55-.13-.55-.14-.55-.15-.55-.14-.56-.17-.54-.16-.55-.17-.54-.08-.27-.09-.28-.09-.28-.09-.27-.1-.27-.09-.27-.09-.27-.09-.26-.1-.27-.1-.27-.11-.28-.09-.27-.1-.26-.11-.27-.11-.27-.1-.26-.11-.27-.11-.27-.11-.27-.11-.27-.12-.26-.11-.26-.12-.27-.12-.26-.12-.26-.11-.28-.13-.26-.12-.26-.13-.26-.13-.26-.12-.26-.13-.26-.13-.27-.14-.26-.12-.26-.14-.26-.14-.26-.14-.26-.13-.26-.15-.26-.14-.26-.14-.25-.14-.26-.15-.25-.15-.26-.14-.26-.16-.25-.15-.26-.16-.25-.15-.25-.16-.26-.16-.26-.15-.25-.16-.25-.17-.25-.15-.25-.17-.26-.17-.24-.17-.25-.17-.25-.17-.25-.18-.25-.16-.25-.18-.25-.18-.24-.17-.25-.18-.25-.19-.24-.17-.25-.19-.24-.19-.24-.18-.25-.19-.25-.19-.24-.09-.12-.19-.23-.27-.35-.28-.34-.28-.34-.29-.35-.28-.34-.29-.35-.29-.34-.29-.34-.29-.34-.31-.34-.29-.34-.3-.32-.31-.34-.3-.33-.84-.2-.31-.33-.31-.32-.31-.32-.32-.32-.32-.32-.32-.32-.33-.32-.32-.32-.32-.31-.34-.31-.33-.31-.32-.31L168,224l-.33-.3-.35-.3-.34-.3-.34-.29-.35-.3-.35-.29-.35-.3-.36-.28-.35-.28-.36-.28-.36-.28-.36-.27-.36-.27-.38-.27-.32-.23h0l-.35-.29-.37-.28-.36-.27-.36-.28-.37-.27-.36-.26-.37-.27-.37-.26-.39-.26L159,217l-.38-.25-.39-.25-.39-.24-.38-.24-.4-.24-.4-.23-.4-.22-.4-.24-.4-.21-.42-.22-.17-.62Z"/><path class="cls-4" d="M176.08,158.92l.23.08.25.08.24.08.23.07.25.08.24.08.25.08.24.07.26.08.24.08.26.07.25.07.25.08.26.08.25.07h0l.22.14.22.14.22.15.21.15.23.14.22.16.21.14.23.16.21.15.43.31.44.32.43.33.43.32.42.34.43.34.43.34.42.35.42.35.42.35.41.35.42.37.42.37.41.37.4.37.42.37.4.38.4.39.4.38.41.38.39.4.39.39.39.39.4.4.38.4.39.41.37.4.18.18.21.23.37.42.36.4.37.42.36.42.36.42.36.42.35.41.35.43.35.42.34.42.34.42.35.43.33.41.33.43.33.41.32.43.33.42.32.42.31.42.32.42.3.41.31.42.3.42.3.4.24.35.25.34.24.34.24.34.23.35.24.34.23.34.24.34.24.35.22.35.23.35.23.34.23.35.21.34.23.35.23.35.21.35.22.35.21.35.22.36.22.35.2.34.22.36.2.35.21.36.21.35.2.36.21.35.19.35.21.36.2.36.19.36.2.36.2.35.18.36.2.36.19.36.18.36.19.36.18.35.19.36.19.37.17.36.19.37.18.36.17.36.18.36.17.37.17.36.17.37.18.36.17.37.16.36.17.37.16.37.16.36.16.37.17.37.15.37.16.37.16.37.15.37.15.37.16.37.15.37.14.37.15.37.15.38.15.37.13.38.15.36.14.38.13.37.14.38.14.38.14.36.13.38.13.38.14.38.13.37.12.38.13.37.13.38.13.38.12.38.12.38.12.38.12.38.12.37.11.38.12.38.12.39.11.37.12.38.1.39.11.38.11.37.11.39.11.38.1.39.1.37.11.39.1.39.1.38.09.38.1.39.19.77.18.77.19.77.17.77.17.78.17.77.16.78.16.77.15.78.15.77.14.78.14.78.13.78.13.79.13.77.09.61v.18l.1.78.12.79.1.78.1.79.1.78.09.78.09.8.08.78.08.79.08.79.07.79.07.79,0,.78.06.8.05.79,0,.79v20.64l-.06.79,0,.79-.06.8-.05.79-.07.8-.07.79-.07.79-.07.79v.32l0,.47-.08.8-.08.78-.09.8-.09.79-.1.78-.1.8-.1.78-.1.79-.09.7-.1.69-.1.7-.11.7L221,283l-.11.7-.11.69-.12.7-.11.68-.11.69-.2.67-.12.69-.13.69-.11.68-.12.69-.13.69-.24,1.36-.26,1.37-.25,1.36-.26,1.36-.27,1.37-.25,1.34-.52,2.71-.29,1.38V303l-.24,1.19-.27,1.33-.26,1.34-.26,1.34-.12.66-.13.67-.13.67-.13.67-.11.66-.12.66-.12.67-.12.66-.09.54v.13l-.11.66-.11.67-.12.66-.11.66-.11.66-.1.67-.1.66-.1.66-.1.66-.09.66-.09.66-.08.66-.09.66-.08.67-.08.66-.07.66-.07.65-.06.66-.07.67-.06.66v.66l-.06.66V330l-.05.66V346l.05.32v1l.06.33,0,.34v.33l.06.34.05.34.06.33.06.34V350l.06.34v.34l.06.34.06.34.06.34.07.34.07.34.05.34.07.34.08.33.07.34.08.34.08.35.08.34.07.34.09.34.08.35.09.34.1.33.09.34.09.35.09.34.1.35.11.34.1.35.11.34.1.35.11.33.12.35.11.35.11.34.12.35.13.35.12.35.13.34.12.34.13.35.14.35.14.35.13.35.14.35.15.35.13.34.15.35.16.35.15.35-.2.67-.64-.26-.17-.35-.18-.34-.18-.35-.16-.34-.17-.35-.17-.34-.17-.34-.16-.34-.16-.35-.16-.34-.15-.35-.16-.34-.15-.34-.15-.35L215,361l-.15-.34-.14-.34-.14-.35-.14-.34-.14-.35-.14-.34-.13-.35-.13-.34-.14-.33-.13-.35-.12-.34-.13-.35-.12-.34-.13-.35-.11-.34-.12-.35-.12-.34-.11-.34-.12-.34-.1-.35-.11-.34-.11-.35-.11-.34-.1-.35-.1-.34-.1-.34-.1-.34-.1-.35-.1-.34-.08-.35-.09-.34-.06-.2V350l-.08-.35-.07-.33-.08-.35-.07-.35-.07-.35-.06-.34-.07-.35-.07-.35-.06-.35-.06-.33-.06-.35-.06-.34-.06-.35,0-.35-.05-.35v-.34l-.05-.35v-.33l0-.35-.05-.35V325.58l.05-.69v-.68l0-.68v-.69l.06-.68.06-.69.06-.68.07-.68.07-.68.08-.69.07-.68.09-.68.08-.68L211,316l.09-.68.09-.69.1-.67.09-.68v-.14l.08-.55.09-.68.11-.67.11-.68.11-.68.11-.69.1-.68.12-.67.11-.68.22-1.36.24-1.36.24-1.36.21-1.19v-.17l.26-1.35.52-2.7.25-1.36.27-1.35.25-1.36.26-1.35.24-1.35.25-1.36.12-.68.12-.67.12-.68.12-.68.11-.68.12-.68.1-.67.11-.68.11-.68.11-.68.11-.68.09-.68.1-.68.1-.68.1-.68.09-.68.09-.77.11-.77.09-.77.1-.77.09-.78.09-.77.07-.78.08-.76v-.78L218,271l.07-.78.07-.77.07-.78.07-.77.06-.78,0-.77v-.78l.05-.76V244.69l-.05-.76,0-.77v-.76l-.07-.77-.06-.76-.07-.77-.08-.76-.07-.77-.09-.75-.09-.77-.08-.76-.09-.76-.1-.76-.11-.76-.1-.76v-.17l-.08-.59-.11-.76.14-.76-.12-.76-.13-.75-.14-.75-.13-.75-.14-.76-.15-.74-.15-.75-.15-.76-.16-.74-.17-.75-.17-.74-.17-.75-.18-.69-.09-.36-.09-.37-.09-.38-.09-.37-.1-.37-.1-.36-.1-.37-.09-.37-.1-.37-.11-.37-.1-.37-.11-.37-.1-.37-.1-.36-.11-.37-.11-.36-.12-.37-.1-.37-.12-.37-.11-.36-.12-.36-.12-.37-.11-.36-.12-.37-.12-.37-.13-.36-.11-.36-.13-.36-.12-.37-.13-.36-.12-.36-.13-.36-.14-.36-.13-.36-.13-.36-.13-.37-.14-.36-.14-.35-.13-.36-.14-.36-.15-.36-.14-.36-.14-.36-.15-.35-.14-.35-.15-.36-.15-.36-.15-.36-.15-.36-.15-.34-.15-.36-.16-.35-.16-.36-.15-.35-.17-.36-.16-.35-.16-.35-.16-.35-.17-.35-.16-.35-.17-.35-.17-.36-.17-.35-.17-.34-.18-.35-.18-.35-.14-.42-.18-.35-.19-.34L206,196l-.19-.35-.18-.35-.18-.34-.19-.35-.18-.35-.19-.34-.2-.35-.18-.33-.2-.35-.2-.34-.18-.34-.2-.34-.21-.35-.19-.34-.21-.34-.19-.34-.21-.33-.21-.34-.2-.34-.22-.34-.21-.34-.21-.33-.21-.34-.21-.34-.22-.33-.21-.34-.23-.32-.22-.34-.22-.33-.23-.34-.22-.33-.23-.33-.23-.33-.22-.34-.24-.33-.23-.33-.29-.39-.28-.41-.3-.41-.29-.4-.3-.4-.31-.42-.3-.41-.31-.4-.31-.41-.32-.42-.32-.4-.32-.41-.33-.42-.32-.4-.34-.41-.33-.41-.33-.41-.34-.41-.34-.41-.34-.4-.35-.4-.35-.41-.35-.4-.36-.4-.19-.22-.16-.18-.34-.4-.37-.41-.35-.4-.36-.39-.36-.4-.36-.39-.44-.38-.38-.38-.36-.39-.37-.38-.38-.38L186,169l-.37-.37-.38-.38-.39-.36-.38-.37-.38-.35-.38-.35-.4-.35-.38-.35-.39-.34-.39-.34-.4-.33-.4-.33-.39-.32-.4-.32-.4-.31-.2-.15-.2-.16-.2-.15-.2-.15-.2-.14-.2-.16-.2-.14-.21-.15-.2-.13h0l-.16-.21-.17-.2-.16-.2-.17-.2-.18-.19-.17-.19-.18-.2L177,161l-.18-.18-.19-.18-.18-.17-.18-.17-.2-.17-.19-.17-.19-.15-.22-.64Z"/><path class="cls-4" d="M228,179.3l.15.47.16.45.17.46.17.44.2.44.19.43.21.43.22.43.11.2.05.22.1.45.1.43.11.43.11.43.11.43.12.43.12.42.12.42.12.43.13.41.13.41.14.42.13.4.14.41.14.41.15.39.14.41.15.4.16.38.16.4.15.39.16.39.17.38.16.39.17.38.17.38.17.37.18.38.15.29V195l.18.37.18.37.19.37.18.37.19.36.19.37.19.36.2.35.2.36.19.36.21.36.2.35.21.35.21.34.21.35.21.35.21.34.22.35.23.34.21.34.12.16.11.18.22.34.23.32.23.34.22.33.24.34.23.33.24.33.23.33.24.33.24.32.24.33.25.32.25.32.13.16.11.16.24.33.25.32.25.32.25.31.24.32.26.32.25.32.26.31.26.32.26.31.26.32.26.31.26.31.27.31.27.31.27.31.27.31.27.3.27.31.28.3.27.31.29.3.27.3.29.3.27.3.29.3.28.3.29.3.28.3.3.29.28.31.29.3.29.29.29.29.3.3.59.58.6.59.59.58.6.57.61.58.61.58.61.57.61.58.43.4.19.18.61.57.62.57.63.57.63.57.62.56.63.58.62.57,1.27,1.14,2.53,2.28,1.28,1.14.63.57.63.58.63.57.63.58.64.57.63.59.63.59.61.58.63.59.62.58.63.59.62.6.61.59.61.6.61.6.6.61.31.3.3.31.29.3.31.31.29.31.3.31.3.31.3.31.28.31.3.31.29.32.29.31.29.31.29.32.29.32.28.32.29.32.28.32.29.32.27.33.29.32.27.33.28.33.27.33.28.33.27.32.28.33.26.34.27.33.26.34.27.34.26.34.27.34.25.34.27.35.25.33.26.35.24.35.26.35.24.35.26.36.24.35.24.35.24.36.24.36.24.36.24.36.24.37.22.36.24.36.22.38.23.37.21.37.23.37.22.38.22.38.21.38.21.37.21.39.22.39.19.39.21.38.2.39.2.4.2.4.18.39.2.4.19.4.13.29.13.3.14.29.12.29.12.3.12.29.13.3.12.29.11.3.11.29.11.3.11.3.11.29.1.3.09.3.1.3.1.3.1.3.09.29.08.3.09.31.09.3.08.3.09.3.08.3.07.31.07.3.07.31.08.3.07.3.07.3.06.31.07.3.05.31.06.3.06.31.06.3.05.3,0,.31.06.31.05.3v.62l.05.3v19.89l-.05,1.25-.09,2.5v1.24l-.05,1.25v17.67l.05.29v.3l.05.29v.3l0,.29.05.29.05.3.05.29.05.29.06.3.06.29.06.29.06.3.07.29.07.28.07.29.06.29.07.29.07.29.08.29.08.28.08.29.08.28.08.29.08.28.09.29.09.29.09.28.1.29.09.28.09.28.11.28.1.28.11.28.09.28.11.28.12.28.11.28.12.29.11.27.12.28.1.21v.07l.12.27.12.28.12.28.13.28.13.27.13.28.12.29.14.27.14.28.15.27.13.27.15.28.15.27.15.27.15.28.16.27.17.28.16.27.16.27.18.27.16.27.18.27.18.26.17.27.19.28.19.26.19.27.19.27-.08.61-.62-.1-.2-.26-.21-.26-.21-.26-.2-.27-.2-.26-.2-.28-.19-.26-.19-.27-.18-.27-.19-.27-.18-.26-.18-.27-.17-.28-.18-.28-.17-.27-.17-.27-.17-.27-.16-.28-.16-.27-.16-.28-.15-.28-.15-.27-.15-.28-.15-.29-.15-.28-.14-.28-.14-.28-.14-.28V334l-.1-.21-.12-.29-.13-.28-.12-.29-.12-.29-.11-.29-.11-.28-.12-.29-.11-.29-.1-.3-.1-.29-.11-.29-.1-.29-.1-.3-.09-.29-.09-.29-.09-.29-.09-.3-.09-.29-.09-.29-.08-.3-.08-.3-.08-.29-.07-.3-.08-.29-.07-.3-.08-.3-.07-.29-.07-.3-.05-.3-.07-.3-.06-.3-.06-.3-.06-.3-.06-.3-.06-.3-.05-.3v-.3l-.05-.31,0-.3-.05-.31-.05-.3v-4.88l-.05-.61V301.32l.08-2.5V284l-.05-.61v-3.91l-.05-.29v-.6l-.05-.3-.05-.29,0-.3v-.3l-.05-.29-.05-.3-.06-.29-.05-.3-.06-.29-.06-.29-.06-.3-.06-.3-.07-.29-.07-.29-.07-.29-.06-.29-.07-.29-.08-.29-.07-.29-.08-.29-.08-.29-.09-.28-.07-.29-.09-.29-.09-.28-.09-.29-.09-.28-.1-.3-.08-.28-.1-.28-.1-.29-.11-.28-.1-.28-.1-.28-.11-.28-.11-.28-.12-.28-.12-.28-.1-.28-.12-.29-.13-.27-.12-.28-.13-.28-.13-.27-.13-.28-.13-.27-.19-.39-.19-.38-.2-.37-.19-.39-.21-.37-.2-.38-.2-.38-.21-.36-.2-.37-.22-.37-.21-.36-.21-.37-.22-.35-.21-.36-.23-.36-.23-.36-.22-.36-.23-.35-.22-.34-.24-.36-.23-.34-.24-.35L286,257l-.24-.34-.24-.34-.24-.35-.25-.32-.24-.34-.25-.34-.25-.33-.26-.34-.25-.33-.26-.33-.25-.33L283,253l-.26-.32-.27-.33-.26-.32-.27-.32-.26-.32-.27-.32-.27-.31-.27-.32-.27-.31-.28-.32-.28-.31-.28-.31-.27-.31-.29-.31-.28-.31-.29-.31-.28-.31-.29-.3-.28-.3-.3-.31-.27-.26-.29-.3-.29-.3-.29-.3-.3-.3-.29-.3-.31-.3h0l-.25-.26-.31-.3-.29-.29-.31-.29-.3-.3-.29-.29-.61-.58-.62-.58-.62-.57-.62-.58-.62-.58-.62-.56-.63-.57-.63-.56-.63-.57-.64-.56-.63-.57-.64-.55-.64-.56-.65-.56-.64-.55-.64-.57-1.29-1.1-2.59-2.22-1.3-1.11-.64-.56-.64-.55-.65-.57-.64-.56-.65-.56-.63-.56-.64-.56-.2-.18-.44-.39-.64-.57-.63-.58-.63-.57-.62-.57-.62-.58-.63-.58-.62-.58-.61-.59-.3-.3-.32-.3-.3-.3-.29-.3-.31-.29-.3-.3-.31-.3-.29-.3-.3-.31-.3-.3L245,217l-.3-.31-.29-.31-.3-.3-.28-.31-.3-.31-.29-.31-.29-.31-.28-.32-.29-.31-.28-.32-.28-.31-.28-.32-.28-.32-.28-.31-.27-.32-.28-.33-.27-.32-.28-.33-.27-.33-.27-.32-.26-.34-.27-.33-.26-.33-.27-.34-.13-.15L238,209l-.26-.34-.25-.33-.25-.35-.24-.35-.25-.35-.25-.35-.24-.35-.24-.35-.23-.36-.24-.35-.23-.36-.23-.36-.23-.36-.12-.18-.11-.19-.22-.35-.22-.37L234,203l-.21-.38-.22-.37-.21-.37-.2-.38-.21-.38-.2-.38-.21-.38-.2-.38-.19-.39-.2-.39-.19-.38-.18-.4-.19-.39-.19-.4-.18-.39-.18-.4-.18-.41v-.07l-.13-.32-.17-.41-.17-.41-.15-.41-.17-.41-.16-.42-.14-.41-.16-.42-.15-.43-.14-.49-.14-.43-.14-.42-.14-.43-.13-.43-.13-.43-.12-.44-.13-.43-.12-.45-.11-.43-.12-.45-.11-.44-.11-.46-.11-.45-.09-.45-.1-.46-.1-.45-.09-.47-.09-.45-.09-.47v-1l.05-.5V179.4l.36-.47Z"/><path class="cls-6" d="M65.86,224.79s87,44.84,151.86,37.62c62.6-7,136.78-49.86,136.78-49.86l3.18,29.35s-67.1,74.25-141,80.54c-77.73,6.62-154.26-62.37-154.26-62.37Z"/><path class="cls-7" d="M70.72,251.6l.28.28.08.07.19.2.29.27.27.26.29.28.27.26.29.27.28.26.29.26.29.26.28.26.29.26.29.26.3.25.29.25.3.25.3.25.3.26.3.25.29.24.31.25.3.24.31.25.3.24L78,258l.3.24.62.49.63.47.62.47.62.46.64.47.63.46.64.46.65.45.63.45.65.45.64.45.66.44.65.44.64.44.65.44.66.44.65.42.5.33.8.54,1,.66,1,.65,1,.65.5.32.49.32.5.32.5.31.5.32.5.31.5.32.5.31.5.31.51.31.5.31.5.3.51.31.5.3.52.31.51.3.31.18.2.12.5.3.51.3.51.3.51.3.51.29.51.3.51.29.51.29.51.29.52.29.51.28.52.29.51.28.52.28.52.29.52.28.52.27.52.28.52.27.52.27.52.26.53.27.32.16.2.11.52.28.52.27.53.26.52.27.53.26.52.26.53.26.53.27.53.25.53.25.53.25.53.25.53.25.53.25.54.24.53.24.54.24.54.24.54.23.54.23.54.23.54.23.54.23.54.22.3.12.24.1.55.23.54.21.55.22.54.22.55.21.55.21.55.2.55.21.55.2.56.2.55.2.55.19.56.2.56.19.55.18.56.19.56.18.56.18.56.17.57.17.55.18.57.16.56.17.57.16.57.17.57.15.36.1.21.06.57.14.57.16.57.14.58.15.57.13.58.14.58.14.57.13.57.13.58.12.59.13.58.11.58.12.59.11.58.1.59.11.59.11.58.09.59.1.59.09.59.09.59.08.6.09.6.08.59.07.6.07.59.07.6.07.6.06.6.05.19.21-.22.18-.61-.05h-.6l-.59-.05-.61-.05-.6-.05-.6-.06-.6-.06-.6-.07-.6-.06-.6-.07-.59-.07-.59-.08-.6-.07-.6-.09-.59-.08-.59-.09-.6-.09-.59-.09-.59-.1-.58-.09-.59-.11-.59-.11-.59-.09-.58-.12-.59-.12-.59-.1-.58-.13-.59-.12-.58-.12-.57-.13-.22-.05-.37-.07-.58-.14-.58-.13-.58-.15-.57-.13-.58-.15-.58-.16-.58-.14-.57-.16-.58-.15-.57-.16-.57-.16-.57-.15-.57-.17-.57-.17-.57-.17-.57-.17-.57-.18L131,290l-.56-.18-.57-.18-.57-.18-.56-.2-.57-.18-.56-.19-.56-.2-.55-.19-.27-.1-.3-.11-.55-.2-.57-.21-.56-.22-.55-.2-.56-.22-.55-.21-.56-.23-.55-.22-.55-.22-.56-.23-.54-.23-.56-.22-.54-.23-.55-.24-.55-.24-.55-.23-.54-.24-.55-.24-.54-.25-.55-.25-.54-.25-.54-.24-.54-.25-.54-.27-.21-.09-.33-.17-.53-.26-.53-.27-.54-.27-.53-.27-.53-.27-.53-.27-.53-.28-.53-.29-.52-.28-.53-.28-.52-.28-.53-.29-.52-.28-.52-.29-.53-.29-.52-.29-.52-.3-.52-.29-.51-.3-.52-.3-.52-.29-.52-.31-.19-.11-.32-.19-.51-.31-.51-.31-.51-.31-.51-.32-.5-.31-.51-.32-.51-.32-.5-.32-.51-.32-.5-.32-.5-.32-.51-.33-.5-.32-.5-.33-.5-.33-.5-.33-1-.66-1-.65-1-.67-.81-.56-.49-.33-.65-.46-.64-.45-.65-.46-.65-.45-.67-.53-.64-.46-.65-.47-.64-.46-.64-.47-.65-.47-.62-.49-.64-.47-.63-.48-.64-.5-.62-.48-.63-.5-.61-.5-.31-.25-.31-.25L76,259.1l-.29-.27-.31-.25-.3-.26-.3-.26-.31-.26-.29-.26-.31-.27-.29-.26-.3-.27-.29-.26-.29-.27-.3-.27-.29-.27-.29-.27-.29-.28-.29-.28-.28-.28-.29-.27-.27-.28-.29-.29-.28-.28-.2-.2-.08-.08-.26-.29v-1.33Z"/><path class="cls-7" d="M90.14,248.74l.13.1.36.29.36.29.37.28.36.28.36.28.37.28.37.28.36.28.37.28.38.27.37.27.37.27.38.27.37.26.37.27.38.27.38.26.38.26.37.26.39.26.38.25.38.26.39.26.38.25.38.25.39.25.39.24.39.26.38.24.39.24.4.24.39.24.39.25.39.23.4.23.4.24.39.24.39.23.41.22.4.23.29.17.1.06.4.23.41.22.4.23.4.23.4.21.41.22.4.23.4.21.41.21.41.21.41.22.4.21.41.21.42.21.41.21.41.2.41.21.41.2.42.19.41.21.41.19.42.19.42.21.42.18.41.2.42.19.42.18.43.19.42.19.42.19.42.17.42.18.43.18.42.18.43.18.42.17.43.17.43.18.43.16.42.17.43.17.4.15h0l.42.17.43.17.43.17.42.17.44.16.43.17.43.16.43.16.43.16.43.16.44.16.43.15.44.16h0l.38.14.43.16.45.15.43.15.44.15.43.15.44.14.44.15.44.15.44.14.44.15.44.13.44.14.45.13.24.08.2.06.44.13.44.14.44.13.45.13.45.13.44.12.45.13.44.12.45.12.44.13.46.11.45.12.44.12.45.11.45.11.45.11.46.69-.71.45-.45-.09-.46-.09-.47-.08-.46-.1-.46-.09-.45-.09-.46-.1-.46-.1-.45-.1-.47-.09-.46-.11-.45-.1-.46-.1-.45-.11-.46-.11-.45-.1-.2-.05-.18,0-.45-.11-.45-.11-.45-.12-.46-.12-.45-.12-.46-.13-.45-.11-.45-.13-.45-.12-.45-.14-.45-.13-.45-.13-.45-.13-.4-.11h-.05l-.45-.15-.44-.13-.45-.15-.45-.14-.44-.15-.45-.15-.44-.15-.44-.15-.44-.15-.45-.16-.44-.15-.44-.17-.44-.15h0l-.4-.15-.43-.18-.45-.17-.43-.18-.43-.17-.43-.18-.44-.18-.44-.17-.43-.19-.43-.18-.42-.19-.43-.18-.44-.19-.42-.19-.43-.19-.42-.2-.43-.19-.43-.19-.42-.2L114,266l-.42-.2-.5-.22-.42-.2-.43-.2-.41-.21-.42-.21-.42-.2-.41-.22-.43-.21-.41-.21-.41-.22-.42-.22-.42-.21-.41-.22-.41-.23-.41-.22-.4-.22-.42-.23L106,262l-.4-.23-.41-.23-.41-.24-.1-.05-.3-.18-.4-.24-.4-.24-.41-.24-.4-.25-.4-.24-.39-.24-.41-.25-.39-.24-.39-.26-.39-.25-.4-.25-.39-.26-.39-.25-.39-.26-.4-.26L98,257l-.39-.26-.39-.27-.39-.26-.38-.27-.38-.26-.39-.28-.38-.27-.37-.27-.38-.28-.39-.27-.37-.28-.37-.27-.39-.28-.37-.28-.37-.29-.37-.29-.37-.29-.33-.31-.38-.29-.36-.29-.36-.29-.36-.3-.38-.29-.36-.3-.13-.1L88.7,250l-.13-1.33,1.33-.12Z"/><path class="cls-7" d="M343.7,227.43h0l.6,1.22-.76.08h0l-.45-.18-1.35,1-1.46,1.15-1.48,1.19-1.5,1.18-1.45,1.17-1.51,1.17-1.5,1.18-.23.17-.53.42-.75.58-.77.59-.75.58-.76.58-.77.59-.76.58-.77.58-.76.59-.51.37-.26.2-.77.57-.78.57-.77.57-.78.57-.78.56-.78.57-.79.56-.18.13-.6.42-.8.55-.79.54-.8.55-.79.54-.81.53-.79.53-.81.54-.8.53-.81.52-.81.53-.81.52-.81.51-.81.51-.82.52-.81.5-.82.51-.82.49-.83.5-.82.49-.83.49-.82.48-.84.48-.82.47-.83.48-.94.5-.83.47-.22.11-.63.34-.84.45-.84.44-.85.44-.85.43-.86.43-.86.44-.87.42-.88.42-.87.42-.88.41-.88.41-.88.4-.88.39-.89.4-.16.07-.73.31-.89.38-.9.37-.9.37-.89.37-.91.36-.9.36-.9.34-.91.35-.9.34-.91.34-.91.34-.91.33-.52.19-.4.14-.91.31-.93.31-.92.3-.92.3-.92.3-.93.3-.92.29-.92.29-.93.28-.93.28-.93.28-.89.26h0l-1,.28-.94.26-.93.26-.93.26-.93.25-1,.25-.93.26-.93.25-1,.24-1,.24-1,.24-.93.25-1,.24-.49.12-.44.11-1,.23-1,.24-1,.22-1,.23-1,.22-.93.23-1,.22-.94.22-1,.21-1.87.44-1.88.44-1.87.42-.72-.38.44-.67,1.86-.52,1.84-.51,1.86-.52.92-.26.92-.27.93-.27.92-.26.92-.28.92-.27.93-.27.92-.28.92-.27.43-.14.5-.14.92-.29.92-.28.92-.29.92-.28.92-.29.91-.29.92-.3.92-.29.91-.3.91-.3.92-.31.91-.31.91-.31h0l.88-.29.91-.31.91-.31.9-.32.92-.32.9-.32.9-.32.91-.33.9-.33.89-.34.91-.33.89-.34.39-.16,1.08-.22.9-.33.9-.34.89-.35.89-.34.89-.35.89-.35.88-.36.89-.36.88-.37.88-.37.88-.37.88-.38.72-.31.15-.07.88-.38.87-.39.88-.38.86-.4.86-.4.87-.4.86-.41.86-.41.86-.42.83-.41.85-.43.83-.42.84-.43.83-.43.62-.33.21-.12.84-.44.82-.44.84-.45.83-.45.83-.46.82-.46.82-.47.83-.47.82-.47.82-.48.81-.48.83-.49.81-.48.82-.5.8-.49.82-.5.8-.51.82-.5.8-.51.81-.52.8-.51.81-.52.79-.52.81-.52.79-.53.8-.54.6-.39.19-.13.81-.52.79-.53.81-.53.79-.53.8-.53.79-.54.8-.53.26-.18.53-.36.79-.53.79-.54.8-.54.78-.54.79-.54.78-.55.79-.54.78-.54.55-.39.24-.16,1.56-1.1,1.55-1.1,1.54-1.11,1.55-1.11,1.53-1.11,1.53-1.11,1.33-1-.07-.49h0l.28-.71Z"/><path class="cls-7" d="M231.09,271l-.32.5-.38.1-.36.11-.75.19-.75.19-.76.2-.75.17-.77.18-.75.18-.78.17-.78.18-.77.16-.78.16-.78.15-.79.16-.74.14h0l-.8.14-.79.13-.8.13-.8.13-.8.12-.8.12-.81.11-.81.11-.81.11-.81.09-.82.1h-.81l-.82.08-.82.07-.82.06-.82.06h-.81l-.83.06h-9l-.81-.06-.82-.07-.81-.07-.81-.08-.81-.09-.81-.09-.8-.09-.76-.09h0l-.8-.12-.8-.11-.79-.13-.79-.12-.78-.14-.79-.13-.77-.15-.79-.15-.78-.15-.76-.16-.77-.15-.76-.17-.51-.11-.25-.05-.76-1.09,1.12-.77h.23l.52.07.76.11.76.08.77.1.76.08.78.08.77.07.78.07.78.06.78.06.79.05.78,0h27.15l.8,0,.79-.05.8-.06.78-.08h0l.75-.07.78-.07.79-.08.78-.09.78-.09.77-.09.78-.11.77-.12.76-.11.77-.12.75-.13.76-.13.75-.15.38-.07.37-.07Z"/><path class="cls-4" d="M415.89,182.77h2.21l.27.28-.28.25h-5.83l-.26,0h-.25l-.26.05h-.24l-.26,0h-.24l-.25.05-.25.05H410l-.25.06-.24,0-.25.06-.24.06-.25.06-.24.06-.25.06-.48.13-.48.13-.48.15-.48.14-.47.15-.48.15L405,185h0l-.47.15-.46.17-.47.16-.47.18-.46.17-.46.19-.47.18-.46.18-.46.21-.18.07-.28.11-.46.18-.47.2-.46.19-.46.21-.47.2-.46.2-.46.21-.46.21-.46.22-.45.21-.46.23-.47.22-.46.22-.47.24-.46.23-.46.23-.46.24-.46.23-.46.25-.48.24-1,.49-.93.51-.3.88-.65.34-1,.51-.65.34-.65.35-.64.36-.63.34-.65.36-.64.36-.64.36-.64.37-.63.37-.63.36-.64.37-.63.37-.64.38-.63.38-.62.37-.63.38-.63.38-.63.39-.63.37-.62.39-.32.19-.31.2-.63.39-1.25.77-1.24.78-1.25.8-1.25.78-1.24.8-1.25.79-1.24.81-2.48,1.59-2.48,1.6-1.25.81-1.24.8-1.24.79-1.25.8-1.25.79-1.24.8-1.26.78-1.26.78-.61.39-.64.39-.63.39-.29.17-.34.21-1.31-.3.3-1.29.34-.22.29-.17.63-.39.61-.4.63-.38,1.24-.79,1.25-.78,1.23-.8,1.24-.8,1.25-.79,1.23-.81,1.24-.8,1.24-.82,2.47-1.6,2.47-1.62,1.25-.8,1.24-.81,1.24-.8,1.25-.81,1.25-.79,1.24-.79,1.26-.79.63-.4.31-.19.32-.19.62-.39.63-.39.64-.39.63-.37.64-.39.63-.38.63-.38.64-.37.64-.38.65-.37.63-.38.64-.36.65-.36.64-.37.65-.37.64-.36.65-.36.66-.34.65-.36.65-.35,1-.51.65-.34.29-.16,1-.49,1-.49.48-.24.47-.24.48-.23.47-.24.47-.23.47-.23.47-.23.47-.23.47-.22.47-.22.48-.21.48-.22.47-.21.47-.21.48-.21.47-.2.48-.2.47-.2.48-.19.48-.19.28-.1.21-.07.48-.17.49-.17.49-.15.49-.16.49-.15.49-.15.49-.13.5-.15.49-.14h0L405,184l.5-.12.5-.1.52-.12.5-.1.51-.09.51-.09h7.89Z"/><path class="cls-4" d="M419,199.28l-.18.27-.52.21-.5.16-.49.17-.5.17-.48.17-.49.19-.48.19-.48.2-.48.19-.48.2-.48.21-.47.21h0l-.42.19-.47.22-.46.22-.46.22-.45.22-.47.24-.45.23-.45.24-.45.24-.41.23h0l-.45.24-.45.24-.45.24-.44.25-.44.26-.44.25-.43.26-.18.11-.27.14-.45.24-.44.25-.44.25-.44.25-.44.26-.44.25-.44.26-.44.27-.43.26-.43.26-.44.27-.44.27-.43.27-.43.28-.43.27-.42.29-.44.28-.43.28-.42.28-.43.29-.42.28-.44.29-.42.29-.42.29-.29.2-.56.39-.86.58-.85.6-.85.59-.85.6-1.16.83-1.24.86-1.14.83-1.14.84-1.14.84-.5.39-.57.42-.56.43-.57.42-.56.42-.57.43-.56.42-.22.19L380,223l-.56.43-.56.43-.55.43-.56.42-.56.44-.55.44-.54.43-.55.44-.56.43-.54.44-.55.44-.55.44-.54.45-.54.44-.55.45-.54.44-.54.46-.53.44-.54.46-.54.45-.53.46-.53.45-.53.46-.53.46-.53.47-.52.46-.53.47-.52.46-.53.48-.51.47-.52.48-.52.47-.52.48-.51.48-.51.48-.51.48-.52.49-.51.49-.51.49-.5.5-.5.49-.51.49-.5.5-.49.5-.5.5L356,244l-.26.28h-1.36v-1.34l.28-.28.23-.23.49-.52.5-.51.5-.5.51-.51.5-.5.51-.5.5-.51.51-.49.51-.49.52-.5.51-.49.52-.49.51-.48.52-.49.52-.48.52-.48.53-.48.52-.47.53-.48.53-.47.53-.48.53-.46.53-.47.53-.46.54-.47.53-.46.54-.47.54-.45.54-.46.54-.45.55-.46.54-.45.55-.45.55-.45.55-.45.54-.44.56-.45.55-.44.55-.44.56-.45.55-.43.56-.44.56-.44.56-.44.56-.42.3-.25.23-.17.57-.43.56-.43.56-.43.57-.43.57-.42.57-.43.57-.41,1.15-.85,1.15-.84,1.15-.83,1.16-.83,1.16-.84.86-.6.85-.6.86-.6.86-.6.56-.38.29-.2.44-.29.44-.29.43-.29.44-.28.43-.29.44-.28.44-.29.36-.26.44-.28.44-.27.44-.27.45-.27.44-.27.44-.27.45-.27.45-.27.44-.26.46-.26.46-.21.45-.26.46-.26.45-.25.46-.24.45-.24.28-.15.19-.09.48-.22.47-.22.47-.21.47-.22.48-.2.48-.21.48-.21h0l.45-.18.49-.18.49-.19.49-.18.49-.18.49-.18.49-.16.5-.18.49-.16.45-.15h0l.5-.15.5-.16.5-.14.5-.16.51-.14.51-.14.51-.14.51-.13.51-.14.52-.12.51-.13.51-.11Z"/><path class="cls-4" d="M24.43,205.75h4.78l.29.05h.3l.29,0,.29.06h.55l.3.06.28.07.3.07.29.07.28.08.29.07.29.08.28.08.29.08.29.08.29.09.28.08.28.09L35,207l.28.09.29.1.28.09.29.1.28.1h.1l.17.06.29.12.27.12.28.11.27.12.28.11.27.13.55.24.55.25L40,209l.55.26.54.27.54.26.54.28.54.27.53.28.53.29.53.28.54.3.53.3.24.13.29.17.52.3.52.31.53.31.52.3.52.32,1,.62,1,.62,2.07,1.25.71.44L54,217l.7.41.72.43.65.38h.06l.72.42.71.42.76,1,.73.42.72.42.72.4.72.42.72.41.73.41,1.45.82,1.45.81,1.46.81,1.46.8,1.46.8,2.92,1.59,2.63,1.44.29.16.4,1.26-1.19.42-.29-.14L72.1,230l-3-1.48-1.48-.74-1.5-.75-1.48-.75-1.49-.75-1.49-.76-.74-.38-.75-.39-.75-.39-.74-.38-.73-.38-.74-.39-.74-.4-.74-.39-.73-.39h-.08l-.66-.36-.73-.41-.73-.39-.73-.41-.73-.42-2.1-1.18-1.06-.59-1-.58-.52-.29-.53-.29-.53-.28-.52-.28-.52-.29-.28-.15L44,215.2l-.53-.28-.52-.28-.51-.27-.53-.27-.52-.27-.52-.26-.52-.26-.53-.26-.52-.25-.52-.24-.52-.23-.53-.24-.53-.23-.25-.11-.27-.11-.27-.11-.25-.1-.27-.11-.26-.11-.17-.06h-.09l-.27-.12-.25-.11-.27-.11-.26-.1-.26-.11-.26-.1-.26-.11-.26-.1L33,210.2l-.26-.1-.26-.1-.26-.09-.27-.09-.27-.09-.26-.08-.27-.09-.33-.12-.26-.08-.27-.07-.24-.07h0l-.26-.09-.27-.08-.27-.07L29,208.9l-.27-.07-.26-.08-.28-.06-.27-.07-.27-.06-.27-.06-.28-.07h-.26l-.28-.05-.27,0-.29-.06h-.27l-.28-.05H17l-.31.05L16,207.5l.5-.74.31-.08.31-.08.31-.07.31-.07.31-.07.31-.06.31-.06H19l.3-.06.31-.05h.32l.3,0h4.22Z"/><path class="cls-4" d="M15.71,220.12l.38.06.38.07.38.08.37.08.38.08.37.07.38.09.36.1.37.09.37.1.36.09.36.11.36.1.35.12.36.11.36.11.35.12.35.13.34.12.35.13.35.13.34.14.34.13.2.09.14.05.34.15.33.14.34.15.33.16.32.15.33.16.33.17.32.15.32.17.32.17.32.18.33.17.31.17.32.18.31.18.31.18.31.2.31.18.31.19.31.19.3.19.3.2h0l.28.19.3.2.29.2.29.21.3.21.29.22.3.21.28.22.29.21.29.23.29.22.29.21.28.23.28.23.28.22.28.24.29.22.27.24.28.22.28.24.16.15.1.09.27.25.27.24.27.24.27.26.26.24.26.25.26.25.26.26.53.49.52.52.5.51.51.51.51.52.51.53.5.52.51.52.5.52.49.53.22.23.28.3.49.54,1,1.07,1.94,2.14,1,1.06.49.53.48.53.49.52.49.52.49.52.48.53.33.33.31.33.31.32h0l.32.33.31.32.33.33.32.33.32.32.33.33.32.33.32.32.33.32.33.32.33.32.66.64.66.64.67.63.67.63.68.62.67.63.69.62.68.61.68.62.69.62.7.61.69.62.69.61.7.61.7.6.69.61.7.61.12.11L69.84,263l1.33,1.29,1.37,1.3,1.34,1.29L74,268.1l-1.22.08-1.48-1.12-1.49-1.12-1.49-1.12-1.37-1-.13-.1-.7-.6-.72-.6-.7-.6-.69-.63-.71-.6-.71-.61-.7-.61-.7-.61-.7-.61-.7-.62-.7-.62-.69-.62-.7-.63-.69-.63-.69-.63-.68-.64-.68-.63-.34-.32-.34-.33-.34-.32-.33-.33-.31-.29-.33-.34-.34-.32-.33-.33-.33-.33L51.6,250l-.33-.33h0l-.32-.33-.33-.34-.32-.34-.5-.52-.5-.53-.49-.53-.55-.57-.49-.53-.49-.53-1-1.07-2-2.1-1-1.07-.49-.53-.28-.29-.21-.24-.48-.53-.49-.52-.48-.52-.48-.52-.5-.53-.49-.51-.49-.51-.49-.51-.5-.5-.5-.51-.25-.24-.25-.24-.25-.26-.25-.24-.26-.24L36,233.5l-.26-.24-.25-.24-.1-.09-.15-.15-.25-.24-.25-.25-.25-.24-.25-.24-.26-.23-.26-.24-.25-.23-.26-.24-.26-.22-.26-.23-.26-.22-.27-.23-.26-.23-.26-.21-.27-.23-.27-.22-.27-.21-.26-.21-.28-.21-.25-.19h0l-.28-.21-.27-.21-.31-.24-.27-.21-.28-.2-.28-.2-.28-.2-.29-.2-.28-.2-.28-.19-.3-.19-.28-.18-.3-.19-.29-.19-.3-.18-.29-.17-.3-.18-.31-.17-.3-.17-.31-.17-.3-.17-.31-.16-.13-.06-.18-.1-.32-.16-.31-.16-.32-.16L22,223.3l-.32-.15-.32-.15-.33-.14-.33-.14-.34-.14-.33-.13-.34-.13-.33-.13-.34-.12L18.7,222l-.35-.12-.35-.12-.36-.11-.34-.1-.36-.11-.29-.14-.35-.09-.37-.1-.38-.09-.36-.08-.37-.53.55-.33Z"/><path class="cls-4" d="M16.76,219.5l.27.17.26.18.26.19.27.18.26.18.26.19.25.18.26.19.25.19.25.19.25.2.24.19.25.2.24.2.25.21.23.2.24.21.24.21.23.21.23.21.23.22.23.22.23.22.23.22.22.22.22.22.22.23.22.24.22.23.22.24.21.23.16.19.16.19.17.19.16.18.15.19.15.19.16.18.14.19.15.19.15.19.14.19.15.19.14.19.13.19.14.19.14.19.12.2.13.19.13.19.13.19.12.19.12.19.13.2.11.19.12.19.11.2.12.19.1.19.11.19.11.2.11.19.09.2.1.19.1.2.1.19.1.2.09.19.09.2.09.19.09.2.09.2.08.2.08.19.09.2.08.2.08.19.07.2.07.2.07.2.08.2.07.2.07.2.06.2.06.2.06.2.07.2.06.2.06.2.06.2.05.2.05.2,0,.2.05.2.05.2v.4l.09.41.09.4.06.4.07.41.07.4.06.4,0,.41v9.38l-.06.41-.05.41-.06.41-.06.41L31,253l-.07.41-.07.41-.07.41-.08.41-.07.41-.08.41-.08.41-.09.41-.09.41-.09.41-.08.41-.09.42-.1.41-.1.41-.1.41-.09.41-.21.82-.2.82L29,262l-.21.82-.23.81-.22.81-.23.82-.22.82-.45,1.62L27,269.38l-.22.81-.22.8-.22.81-.21.8-.21.8-.2.8-.2.8-.1.39-.09.4-.1.39-.09.4L25,277l-.08.4-.12.54-.11.54-.11.55-.1.54-.1.55-.1.55-.09.55-.09.56-.08.56-.08.56-.08.55-.07.56-.07.56-.06.58-.05.56,0,.57v.56l-.05.57v13.09l.05.28,0,.27v.28l0,.29,0,.27.05.28.06.28,0,.27L24,303l.06.27.06.28.06.28.06.26.07.28.07.28.07.26.07.28.07.27.07.27.08.27.08.26.08.27.08.28L25,307l.09.26.08.27.09.27.1.26.08.27.1.26.09.26.1.26.1.26.1.26.1.26.11.26.1.26.11.25.12.26.11.25.11.25.12.25L27,312l.12.25.12.24.12.25-.24.73-.75-.25-.12-.26-.13-.26-.13-.24-.11-.27-.13-.26-.12-.25-.12-.26-.11-.27-.12-.26-.11-.26-.11-.27-.1-.27-.11-.26-.11-.27-.1-.27L24.5,309l-.11-.27-.09-.28-.1-.26-.1-.27-.08-.28-.09-.27-.09-.27-.09-.27-.08-.28-.08-.28-.08-.27-.08-.28-.07-.28-.08-.27-.07-.29-.07-.27-.07-.28L23,304l-.06-.27-.07-.29-.07-.27-.05-.29-.06-.29-.06-.27-.05-.29-.06-.28-.05-.29,0-.29v-.28l-.05-.29,0-.28,0-.29V286.72l0-.58,0-.58.06-.58.06-.57.06-.57.07-.57.07-.57.08-.57.08-.57.08-.57.09-.56.06-.57.1-.55.09-.57.11-.55.11-.55.12-.55.08-.4.09-.4.08-.4.1-.4.1-.4.09-.4.2-.8.19-.81.21-.8.21-.81.21-.81.22-.81.21-.82.44-1.62.44-1.63.22-.82.22-.81.21-.82.22-.81.21-.82.2-.81.21-.81.19-.82.09-.4.1-.41.09-.4.08-.41.09-.4.09-.41.09-.4.08-.41.07-.4.08-.4.08-.41.07-.4.07-.4.07-.4.06-.41.06-.4.06-.4.06-.4.05-.4,0-.4.05-.4.05-.4v-8.23l-.05-.38-.06-.38-.06-.39-.06-.38-.07-.38-.08-.38-.07-.38-.09-.37v-.2l-.05-.19-.05-.19-.05-.19,0-.18V238L29,237.8l-.06-.19,0-.18-.06-.19-.06-.19-.06-.18-.06-.19-.07-.18-.06-.19-.06-.19-.07-.19-.07-.18-.08-.19-.07-.18-.08-.19L28,235l-.08-.19-.08-.18-.08-.18-.08-.19-.09-.18-.08-.18-.09-.19-.09-.19-.09-.18-.09-.18L27,233l-.1-.18-.1-.19-.1-.17-.1-.19-.11-.18-.1-.18-.11-.19-.1-.18-.12-.18-.11-.18-.12-.18-.11-.17-.12-.18-.12-.18-.12-.18-.12-.19-.13-.17-.13-.18-.12-.18-.14-.18-.13-.17L24.5,229l-.14-.18-.14-.17-.16-.26-.15-.17-.14-.18-.15-.19-.15-.17-.15-.18-.15-.17-.16-.18-.16-.17-.2-.23-.21-.22-.21-.22-.21-.22-.21-.21-.21-.22-.22-.21-.22-.21-.21-.2-.22-.2-.22-.2-.23-.2-.22-.2-.23-.21-.22-.19-.23-.19-.23-.19-.24-.19-.23-.19-.24-.18-.23-.18-.24-.18-.24-.18-.24-.18-.25-.17-.24-.19-.28-.1-.25-.17-.25-.16-.26-.17-.25-.17-.27-.17-.26-1.27,1.31-.27Z"/><path class="cls-4" d="M416.52,199.43l1.58,1.06.57.48-.19.27-.23.33-.23.34-.24.33-.22.33-.25.32-.47.65-.47.65-.48.64-1,1.29-.47.64-.48.64-.47.64-.46.64-.22.32-.23.32-.23.32-.22.32-.22.31-.22.32-.21.32-.21.33h0l-.21.31-.22.33-.2.32-.22.32-.2.32-.2.32-.2.33-.19.32-.2.33-.19.33-.17.33-.19.33-.18.33-.16.33-.17.33-.17.34-.15.33-.16.34-.15.34-.15.35-.08.34-.14.35-.06.16-.07.18-.06.18-.07.17-.06.18-.05.17-.05.18-.06.18-.06.18v.18l-.06.17,0,.19-.05.18v.37l-.05.17v.38l-.05.19v.18l-.07.44-.08.43-.08.44-.07.43-.07.44-.06.43-.06.43v.44L406,226v.44l0,.43,0,.44V237l0,.9v.88l.06.89,0,.89.06.89.11,1.79.06.9.05.9v.9l.05.91v10l-.05.53-.05.53-.05.53-.06.53-.06.53-.07.53v.21l-.05.33-.07.53-.08.53-.09.53-.09.53-.1.53-.1.52-.09.54-.12.52-.11.52-.12.53-.13.52-.11.52-.14.52-.14.52-.14.52-.14.51-.68.52-.16.51-.15.51-.16.52-.18.5-.16.5-.18.52-.19.49-.18.5-.19.51-.2.49-.2.5-.2.48-.22.49-.21.49-.22.48-.22.49-.23.47-.23.48-.25.47-.24.47-.25.47-.26.47-.12.22-.13.23-.13.23-.14.23-.12.23-.14.22-.14.23-.14.23-.13.22-.14.22,0,.08-.09.14-.15.23-.4.09-.1-.4.13-.23.09-.13v-.09l.13-.22.13-.22.13-.24.13-.22.12-.22.13-.23.12-.24.12-.22.13-.23.12-.23.23-.47.23-.46.22-.48.23-.46.21-.49.21-.47.21-.49.19-.47.2-.49.2-.49.18-.48.18-.5.18-.49.16-.5.17-.5.17-.49.15-.51.15-.5.15-.5.14-.51.13-.51.13-.51.14-.51.12-.51.11-.51.11-.52.11-.51.11-.52.1-.52.09-.51.09-.52.08-.53.08-.51.08-.52.07-.53.06-.52.07-.52v-.51l.06-.53V246.94l-.09-.89-.09-.89-.09-.89-.11-.93-.21-1.78-.09-.89-.1-.9-.09-.89L403,238l-.09-.89v-.45l0-.45V224.78l0-.47.06-.47.06-.47.07-.47.07-.47.08-.48.07-.46v-.44l.05-.21v-.2l.05-.22v-.21l0-.21.05-.21.06-.21.05-.2.06-.21.06-.2.06-.2.05-.21.07-.2.06-.2.07-.21.07-.19.07-.2.07-.21.13-.38.15-.4.16-.39.16-.39.16-.37.17-.39.18-.38.17-.37.18-.37.19-.37.19-.37.19-.36.2-.37.2-.35.2-.36.2-.35.22-.36.21-.35.21-.35L408,210l.22-.33.22-.34h0l.23-.33.23-.34.24-.34.23-.33.24-.33.23-.33L410,207l.24-.33.48-.65.49-.65.48-.63.49-.64,1-1.28.48-.63.47-.63.47-.64.23-.31.23-.32.23-.31.23-.32.22-.32.19-.26Z"/><path class="cls-4" d="M124,286.11h1.08l.13-.05h0l.12-.05h0l.13-.06h0l.1-.05.12,0h0l.11,0,.12-.06h0l.1-.06.12-.06h0l.11-.06.12-.05h0l.12-.06.1-.07h0l.12-.07.11-.07h0l.11-.06.11-.08h0l.1-.08.11-.08h0l.11-.07.11-.08h0l.11-.08.2-.16h0l.16-.14.2-.17.2-.18.2-.19.18-.19.2-.19.19-.19.19-.21.19-.2.18-.2.18-.22.18-.2.18-.21.17-.22.18-.21.17-.21.16-.21L131,281l.16-.21.15-.21.16-.22.22-.29.09-.12.28-.42.27-.4.27-.38.25-.37.24-.35.23-.33.35-.51.35-.51.36-.5.36-.49.36-.51.38-.49.36-.5.37-.48.1-.14.11-.15.27-.38.3-.42.28-.39.14-.19.12-.16.12-.15.08-.11h0l.07-.09.13-.13.1-.06.15-.08.14-.07h.2l.2.05.19.07.17.11.16.14.12.15h0l.09.16.06.16v.48l-.05.21-.05.14v.19l-.22.5L139,274l-.44,1-.45,1-.22.49-.22.49-.22.5-.21.49-.15.36v.14l-.21.49-.2.49-.18.5-.19.49-.09.24-.08.26-.08.24-.09.25-.08.24-.08.25-.08.25-.07.24-.08.24-.06.25-.07.24-.06.25v.2h0l-.08.23-.08.24-.08.24-.08.23-.06.24-.07.23-.07.24-.07.23-.06.24-.06.23v.23l-.06.25-.05.23,0,.23v4.81h0v.1h0l.09.08-.06-.05.09.08-.06-.05.09.08-.06-.05.09.08-.06-.05.1.07h-.07l.1.06h-.06l.1.06h-.07l.11.06h-.07l.11.06h-.07l.12.06h-.07l.11,0h0l.12.05h3.3l.18-.08h-.05l.18-.09h-.05l.17-.1h0L139,292l.15-.08h0l.15-.09.14-.1h0l.16-.09.14-.11h0l.14-.12.14-.11h0l.15-.12.14-.12h0l.13-.13.14-.13h0l.14-.12.13-.14h0l.12-.13.14-.14h0l.13-.13.12-.15h0l.11-.15.13-.14h0l.12-.16.12-.14h0l.12-.16.11-.15h0l.12-.16.1-.14.1-.15.1-.14.09-.16.09-.14.09-.16.09-.14.09-.15.08-.14.07-.16.08-.14.08-.15.07-.14.07-.14.07-.15h0l.07-.15.05-.13.06-.13h0l.13-.29.12-.29.12-.3.1-.31-.61-.14.11-.33.12-.34.12-.34.12-.37.12-.36.11-.38.24-.76.24-.79.25-.8.25-.82.14-.42.14-.42.14-.41.13-.43.15-.42.15-.42.15-.42.15-.43.16-.41.17-.43.16-.41.18-.42.09-.2.09-.22.1-.2.08-.2.1-.21.09-.2.1-.2.11-.21.09-.2.1-.19.11-.21h0l.12-.18.11-.19.12-.19.12-.19.12-.19.13-.18.12-.19.12-.18.14-.17.13-.19.14-.17.12-.18.14-.17.14-.17.14-.17.14-.16.15-.17.15-.15.14-.17.16-.15.15-.16.16-.14.15-.16.17-.14.16-.14.16-.15.17-.13.18-.14.16-.12.18-.13.18-.12.18-.12.18-.12.19-.11.18-.11.2-.11.19-.1.19-.1.2-.1.19-.08.21-.09.21-.08.2-.08.22-.07.21-.07.21-.06.22-.06.22-.05.22-.05.22-.05H157l1,.7-.71,1h-.21l-.19,0h0l-.18.05-.19.07h0l-.19.06-.17.07h0l-.19.07-.17.08h0l-.17.08-.17.07h0l-.17.08-.16.09h0l-.16.09-.16.1h0l-.16.1-.15.1h0l-.15.11-.15.11h0l-.14.1-.15.12h0l-.14.11-.14.12h0l-.13.13-.14.12h0l-.13.13-.13.14h0l-.12.13-.12.13h0l-.12.13-.13.15h0l-.11.14-.12.15h0l-.11.14-.12.16h0l-.12.15-.09.16h0l-.11.15-.11.17h0l-.1.16-.1.17h0l-.09.16-.09.17-.1.16-.09.17-.09.16-.08.17-.08.17-.08.16-.08.18-.09.17-.08.19-.07.17-.08.18h0l-.08.17-.08.18-.08.18-.08.18-.08.19-.08.18-.08.18-.07.2-.07.18-.08.2-.07.19-.15.39-.13.38-.13.4-.14.39-.13.41-.11.39-.13.41-.12.41-.12.4-.11.41-.1.41-.12.4-.22.82-.2.81-.21.79-.21.8-.1.39-.1.38-.11.38-.11.38-.11.38-.1.36-.11.36-.12.36-.12.35-.12.35.2,0h0l-.06.16-.07.17-.07.18-.08.19-.08.18L146,289l-.09.19-.1.19-.09.19-.09.19-.1.19-.11.2-.11.19-.11.18-.1.2-.12.19-.12.2-.13.19-.12.18-.13.2-.13.19-.14.19-.14.19-.14.18-.15.2-.15.18-.15.17-.16.19-.16.18-.16.18-.17.17-.18.17-.17.17-.18.17-.19.17-.18.15-.19.16-.2.15-.19.15-.21.15-.22.14-.2.13-.22.14-.22.13-.23.11-.22.12-.13.06-.12.05-.12,0-.12.05h-.12l-.12.05-.13.05h-4.58l-.19-.05-.2-.06-.19-.07-.19-.06-.18-.08-.18-.08-.18-.09-.17-.09-.17-.1-.17-.11-.16-.1-.14-.12-.16-.11-.14-.12-.13-.13-.05-.05-.09-.08-.13-.13-.12-.13-.11-.15-.11-.13-.1-.15-.1-.15-.1-.14-.09-.15-.08-.15-.08-.15-.08-.15-.07-.15-.07-.15-.06-.16-.06-.14-.06-.16v-.15l0-.15v-5.47l0-.29.06-.28v-.29l.07-.29.06-.28.07-.28.07-.28v-.21l-.06.07-.22.21-.21.23-.22.2-.22.21-.22.21-.24.2-.18.16h0l-.24.2-.12.1-.11.09-.13.1-.12.09-.13.08-.11.09-.29.32-.13.09-.11.08-.13.08-.14.08-.13.08-.12.07-.13.08-.14.07-.13.07-.13.06-.14.07h0l-.14.07-.14.06-.13.06-.15.05-.14.05-.15.06h-.13l-.15,0h-.14l-.14.05-.14.05-.15,0-.15,0h-3.66l-.17,0-.18,0-.18-.06-.16-.05-.15-.07-.16-.07-.16-.07-.14-.08-.15-.09-.14-.09-.14-.11-.12-.11-.13-.1-.12-.13-.12-.12-.1-.13-.06-.08v-.05l-.1-.13-.09-.15-.08-.13-.07-.15-.07-.14,0-.15-.06-.15v-3.78l0-.23V281l.08-.35.07-.25.07-.24.08-.24v-.05l.09-.18.12-.21.11-.22.12-.21.12-.22.13-.2.12-.21.25-.41.25-.41.25-.4.25-.39.25-.39.36-.56.14-.2.26-.38.25-.36.25-.37.23-.36.24-.36.23-.36.11-.17.11-.18.11-.18.1-.17.1-.17.1-.18.1-.17.1-.18.09-.17.1-.18.08-.17.08-.18.09-.17.08-.17.07-.17.09-.19h0l.07-.19.08-.18h0l.07-.19.07-.19h0l.06-.19.07-.2h0l.06-.19v-.19h0l0-.2v-.19h0v-.39h0v-.12h0v-1h0V267h0v-.17h0v-.07h0v-.08h0v-.15h0v-.1h0v-.07h0l0-.07h0v-.07h0l0-.06h0l0-.07h0V266h0l-.06-.07h0l-.06-.06h0l-.06-.05h0l-.06-.06h0l-.06-.06h0l0-.06h0l-.06-.05h0l-.06-.06h0l-.06-.05h0l-.06-.05h0l-.07-.05h0l-.07,0h0l-.07-.05h0l-.07-.05h-2.08l-.09.05h-.07l-.08.05h0l-.09,0h0l-.08.05h0l-.09.06h0l-.09,0h0l-.08.06h0l-.08.06h0l-.08.06h0l-.08.07h0l-.08.06h0l-.08.07h0l-.08.07h0l-.07.07h0l-.08.07h0l-.07.07h-.2l-.13.05h0l-.12.05h0l-.13.05h0l-.13.05h0l-.12.06h0l-.12,0h0l-.12.07h0l-.12.08-1,.34-.34-1.05v-.41l.07-.11.07-.12.08-.1.08-.11.08-.11.09-.1.09-.11.07-.1.09-.09.1-.1.09-.1.09-.09.1-.09.09-.1.1-.08.1-.08.1-.09.11-.08.09-.08.11-.07.11-.07h0l.09-.05.11-.07.11-.05.12-.06.11,0H120l.12-.06h.11l.12-.05h3.93l.12.05.11,0,.12.06h.11l.12.06.11.05.11.07.11.07.11.07.11.06.1.08.11.08.1.09.1.07.11.09.09.09.09.1.1.09.09.1.09.1.09.1.08.1.08.11.08.11.08.11.07.11.07.12.07.13.07.11.06.13.06.12.06.13.05.13.06.13v4.3l0,.25v.26l-.06.26-.06.25-.06.24-.06.25h0l-.07.25-.08.24-.08.24-.09.24-.08.23-.09.25-.08.23-.1.23-.1.22-.09.24-.11.22-.09.22-.1.22-.11.23-.11.22-.11.21-.1.22-.11.22-.22.42-.22.42-.23.41-.23.41-.22.4-.23.41-.12.21-.32.56-.22.39-.22.38-.22.37-.2.36-.2.38-.09.18-.1.18-.08.18-.09.18-.09.18-.08.18-.07.13h0l-.12.16-.11.15-.11.17-.18.25-.09.13-.08.12-.09.15h0l-.09.14-.09.15h0l-.09.14-.08.15v-.05l-.09.16v0l-.07.17v-.06l-.07.17v0h0v.09h0v.09h0v.09h0V285h0v.09h0v.09h0v.44l0-.07h0v.06l0-.06v.08l-.06-.06.06.07-.06-.05.06.07-.07-.05.07.07h-.06l.07.07-.07,0,.08.07h-.06l.08.07h-.07l.09.06h-.06l.09.07h-.06l.09.06h-.05l.13.08h0l.12.07h0l.13.07h0l.13.07h0l.14.06h0l.12.06h0l.13.05h0l.13.05h1.94ZM139.23,273Zm0,0Z"/><path class="cls-4" d="M186.13,301.87h.63l.19-.05h.13l.17,0h.08l.18-.06h0l.18-.07h0l.16-.07h0l.16-.07h0l.17-.06h0l.15-.08h0l.16-.08h0l.16-.08h0l.14-.07.13-.08h0L189,301l.13-.09h0l.13-.08.12-.1h0l.13-.1.13-.09h0l.13-.1.12-.11h0l.13-.1.12-.11h0l.12-.12.12-.11h0l.11-.12.12-.12h0l.12-.13.11-.13h0l.1-.12.12-.14h0l.11-.13.11-.14h0l.11-.13.1-.15h0l.11-.14.1-.14.1-.15.1-.13.08-.15.1-.14.1-.16.09-.14.1-.16.09-.15.09-.16.09-.15.09-.17.09-.16.09-.17.09-.15.17-.34.17-.34.17-.35.16-.35h0l.16-.33.16-.35v-1.69l.05-.19v-.4l0-.19,0-.19v-.19l.06-.19.05-.17h0l.07-.18.08-.19.08-.18.08-.18.08-.18.07-.18.08-.18.09-.18.08-.18.09-.17.09-.17.08-.18.09-.17.09-.17.09-.16.1-.18.09-.16.09-.17.1-.16.1-.17.09-.15.1-.16.09-.16.11-.15.1-.16.1-.15.11-.15.1-.15.1-.15.1-.15.11-.14.11-.14.11-.14.09-.14.11-.13.11-.14.12-.13.11-.14.1-.13.11-.12v-.06l.08-.11.1-.13.11-.15.1-.14.11-.14.12-.14.11-.15.12-.13.11-.14.13-.14.12-.14.13-.14.12-.13.13-.14.14-.13.13-.13.13-.12.14-.13.15-.13.14-.11.07-.07.07-.06.15-.11.16-.12.14-.11.16-.1.16-.11.16-.1.16-.09.17-.1.17-.09.16-.08.18-.08.18-.07.17-.07.18-.07.19-.05.18,0h3.19l.13,0,.12,0,.13.06.11.06.13.06.12.07.12.05.1.07.12.08.11.07.11.07.11.07.1.08.11.09.1.07.11.08.1.09.09.09.09.07.09.09.1.09.09.09.09.08.07.1.09.09.08.08.08.09.08.09h0l.06.07.05,0,0,.07v.07l.05.09.05.1v.59l-.06.12h0l-.07.11-.1.09h0l-.09.07h-1.37l-.15,0-.31-.08-.32-.11-.32-.1-.34-.1h-.16l-.16-.05h-3.25l-.1.05h-.18l-.1,0h-.19l-.1.05h0l-.09.06h-.08l-.09.06h0l-.08.06h0l-.09.06h0l-.09,0h0l-.08.06h0l-.07.06h0l-.08.07h0l-.08.07h0l-.08.06h0l-.08.06h0l-.16.14h0l-.14.14h0l-.15.15h0l-.13.13-.06.06-.07.08h0l-.12.14-.12.15h0l-.12.15-.11.16h0l-.1.16-.11.16h0l-.07.11-.08.12h0l-.07.13-.07.12h0l-.08.13-.06.12h0l-.07.13-.06.13-.07.12-.06.14-.06.12-.07.14-.06.13-.06.13,0,.14v.13l-.06.15-.06.13-.05.15-.06.14v.15l0,.14v.14l-.05.15,0,.15v.3l-.05.16v2.32h0v5.59h0v.3h0V298h0v.29h0v.28h0v.28h0l.05.14v.13h0v.14l.06.12h0v.47h0V300l0,.14v-.05l.05.14v.12h0l.06.13.06.12h0l.06.13.07.12h0l.06.12.07.12h0l.09.13h0l.09.15h0l.09.14h0l.1.13h0l.09.13h0l.1.12h0l.11.14h0l.11.12h0l.11.13h0l.1.13h0l.12.11h0l.13.12h0l.11.11.11.09h0l.11.11.12.1h0l.12.09.13.1h0l.12.1.13.08h0l.14.1.14.09h0l.14.08.14.08h0l.14.08.14.07h0l.13.06.14.07h0l.16.07h0l.15.07h0l.16.06h-.05l.16,0h0l.16.06h0l.16.05h-.82l.16.05H206l.13-.05h.28l.12-.05h0l.13-.06.14,0h0l.14-.06.12-.07h0l.13-.06.14-.07h0l.13-.06.12-.07h0l.14-.07.13-.08h0l.13-.07.12-.08h0l.13-.08.13-.08h0l.13-.08.11-.09h0l.13-.09.13-.08h0l.12-.1.12-.1h0l.13-.1.12-.09.12-.1.12-.09.11-.09.12-.11.12-.1.11-.1.12-.11h0l.24-.22.24-.22.21-.22.23-.22.21-.23.22-.24.21-.23.21-.24.21-.23.19-.24.21-.25.19-.25.19-.24.19-.25.18-.24.17-.26.18-.24-.44-1.32.16-.24.16-.24.16-.24.16-.23.13-.24.11-.16v-4l.05-.18v-.18l0-.18v-.18l.05-.18.06-.18.05-.17,0-.17.06-.18.06-.17.06-.18.06-.16.06-.17.07-.16.06-.17.07-.16.06-.16.07-.16.07-.16.07-.15.07-.16.08-.14.08-.15.06-.14.08-.15.08-.14.08-.14.08-.14.09-.13.05-.09H216l.23,0h.22l.2-.05h.2l.19-.05.13-.05h1l.05.05h0v.06h0v.33l-.05.08-.06.09L218,287l-.09.09-.08.08H218l.07-.05h0v.05h0v.12h0v.16h0l0,.18h0l.07.18h0l.08.19.1.19h0v.13l-.06.12h0l-.06.12v.11h0l-.05.13-.06.13h0l0,.11,0,.13h0l-.05.12v.14h0l-.05.13v.14h0l0,.14v.14h0v6h0v.31h0v.3h0v.3h0v.3h0v.29h0v.27h0V298h0v.27h0v.26h0l0,.14v.12h0l.06.15h0l.06.13h0l.05.14h0l.07.14h0l.07.13h0l.07.13h0l.07.13v-.05l.08.13h0l.08.13h0l.08.12V300l.07.12h0l.08.12h0l.09.11h0l.09.11h0l.1.11h0l.1.1h0l.1.1h-.05l.11.11h-.05l.11.09h-.05l.11.1h-.05l.12.09h-.05l.12.08h-.06l.12.09h0l.13.08h-.06l.12.08h0l.12.07h-.06l.14.07h-.06l.14.07h0l.14.07H220l.15.05h-.06l.14.06h-.05l.15.05h-.06l.16.05h-.06l.16,0h3.72l.14,0h.13l.13-.05h0l.13-.05.13-.06h0l.12-.05.13-.06h0l.13-.06.12-.07h0l.13-.07.11-.05h0l.12-.07.13-.07h0l.12-.07.11-.07h0l.12-.08.11-.08h0l.12-.08.11-.07h0l.1-.08.11-.09h0l.12-.09.11-.07h0l.11-.09.1-.09h0l.11-.09.1-.09h0l.1-.1.1-.1h0l.09-.09.1-.1h0l.1-.1.09-.09h0l.1-.11.08-.1h0l.09-.1.1-.11h0l.09-.12.1-.1h0l.09-.11.08-.11h0l.08-.12.09-.12h0l.08-.11.08-.13h0l.08-.13.08-.11h0l.07-.13.07-.12h0l.07-.13.07-.13h0l.07-.12.07-.13h0l.06-.12.07-.13h0l.05-.12.07-.14h0l.07-.14.06-.12h0l.06-.14.06-.12h0l.06-.14.06-.13h0v-.13l0-.14h0l0-.13.06-.14v-.27h0l.09-.27.07-.2v-.07l.06-.27.06-.27.05-.28v-.28l.05-.27v-3.46h0v-.41h0l-.1.09-.12.08-.11.08-.11.09-.1.08-.12.07-.12.08-.12.08-.11.08-.12.07-.12.07-.12.08-.12.07-.12.06-.13.07-.2.1-.19.1-.2.08-.2.09-.19.08-.2.07-.2.06-.19.07-.19.06-.19,0h-.19l-.2.05h-2.86l-.17-.05-.16,0-.15-.06-.16-.06-.16-.06-.15-.07-.15-.08-.14-.08-.15-.07-.13-.09-.14-.09-.14-.1-.13-.08-.13-.1-.12-.11-.12-.1-.12-.11-.12-.11-.1-.11-.11-.12-.11-.11-.1-.12h0l-.06-.09-.09-.13-.07-.13-.09-.14-.08-.13-.07-.14-.07-.13-.07-.14-.07-.14,0-.14V288l-.06-.15-.05-.13v-3.43l.05-.15V284l.06-.15,0-.14.07-.14.07-.15.08-.13.08-.14.09-.12.09-.14.09-.12.1-.13.11-.12.11-.12.11-.12.12-.1.12-.12.13-.1.14-.1.13-.1.14-.1.15-.09.15-.07.15-.09.16-.07.16-.08.16-.05.17-.07.17-.05.17-.06.18-.05h3.19l.21.05h.19l.19.06.2.06.18.07.19.06.18.08.17.08.18.09.18.08.16.1.17.1.16.1.15.11.16.11.16.11.14.12.15.12.14.12.14.13.13.12.14.13.13.13.13.14.11.14.12.14.12.15.12.13.11.16.1.14.1.15.11.15.1.16.1.15.08.16.09.15.09.16.08.15h0l.06-.08.08-.13h0l.07-.12.07-.12h0l.07-.13.07-.12h0l.07-.13.07-.14h0l.07-.12,0-1.16h0l.06-.13.06-.14h0l.11-.26.11-.26.11-.27.11-.27.88-.44.43.88-.09.29-.08.3-.1.29-.11.29v.14l-.06.15-.06.14-.06.15-.06.14,0,.15-.07.13-.06.15-.07.14-.07.14-.08.15-.07.14-.07.14-.08.13-.08.15-.09.13-.08.14-.09.14-.1.14,0,.08h0v6.07l-.05.31-.06.31-.06.32-.07.31-.08.32-.08.31v.07l-.06.24-.07.32V295l0,.15v.16l-.05.15v.16l-.05.15,0,.17-.06.14-.05.16-.06.15-.06.16-.07.14,0,.16-.07.15-.06.15-.07.15-.07.15-.08.15-.07.15-.07.14-.07.15-.08.14-.08.15-.09.14-.08.15-.09.13-.08.15-.09.14-.09.14-.1.14-.09.13-.1.14-.09.13-.1.14L230,300l-.1.13-.11.14-.1.12-.11.13-.12.12-.12.13-.11.13-.11.11-.13.13-.12.11-.13.12-.12.12-.13.11-.13.11-.13.12-.13.1L228,302l-.14.1-.15.1-.13.11-.15.09-.15.1-.15.1-.14.09-.16.09-.16.09-.15.09-.16.07-.16.09-.16.08-.17.08-.17.06-.17.08-.17.07-.17.07-.18.06-.17.05-.19.06-.18.06-.18.06-.19.05-.18,0h-3.78l-.22,0h-.22l-.2-.06-.22-.06-.19-.07-.21-.07-.2-.07-.19-.08-.19-.1-.19-.08-.18-.11-.18-.11-.18-.1-.17-.12-.17-.12-.16-.12-.15-.13-.16-.13-.15-.14-.14-.14-.14-.15-.14-.15-.13-.15-.12-.16-.12-.15-.12-.16-.12-.16-.11-.17-.1-.17-.1-.16-.1-.18-.09-.17L215,300l-.09-.17-.07-.18h0l-.08-.18-.07-.18-.07-.19-.07-.18-.07-.19-.06-.18h0v.05l-.17.28-.18.28-.19.29-.18.28-.19.29-.2.28-.19.28-.21.29-.21.29-.22.27-.22.28L212,302l-.23.27-.23.27-.12.14-.13.12-.12.14-.11.12-.13.13-.13.14-.13.12-.12.13-.13.11-.13.13-.14.12-.12.12-.14.12-.14.11-.14.12-.13.12-.14.1-.15.12-.15.11-.13.1-.15.11-.15.1-.15.1-.15.1-.16.1-.15.09-.15.09-.16.1-.16.08-.16.08-.16.09-.17.08-.17.07-.16.08-.17.07-.18.07-.17.06H206l-.18.06-.17.06-.19.06h-.18l-.18.05h-3.79l-.21-.05h-.2l-.21,0-.21-.06-.2-.06-.21-.06-.21-.08-.21-.08-.21-.08-.2-.08-.22-.1-.2-.1-.21-.09-.21-.11-.19-.11-.2-.11-.2-.12-.18-.12-.21.14-.17-.13-.19-.13-.17-.14-.17-.13-.17-.14-.17-.14-.16-.15-.15-.15-.16-.15-.15-.15-.14-.17-.14-.15-.14-.17-.14-.16-.12-.18-.13-.16-.12-.18-.12-.17-.11-.18-.11-.18-.11-.18-.11-.19-.1-.18-.09-.18-.09-.19-.09-.19-.09-.2-.07-.14v-.07l-.06.1-.11.17-.11.18-.11.17-.13.18-.12.17-.12.17-.13.17-.13.16-.14.18-.13.16-.14.16-.14.16-.15.16-.14.15-.16.16-.15.14-.15.15-.17.14-.17.15-.17.13-.17.14-.18.13-.18.13-.18.13-.19.11-.18.12-.2.11-.2.11-.2.11-.21.1-.21.1-.21.09-.22.09-.21.08-.23.08-.23.07-.22.07-.24.06-.23.06-.25.05h-5.38l-.15-.05h-.15l-.16-.05-.15,0h-.14l-.15,0-.15-.06-.14-.05-.14-.07h0l-.15-.07-.14-.05-.13-.06-.14-.07-.14-.07-.14-.07-.13-.07L179,305l-.14-.08-.13-.08-.12-.07-.13-.08-.13-.09-.12-.07-.11-.09-.13-.09-.12-.09-.12-.09-.12-.09-.1-.1-.12-.09-.11-.1-.11-.1-.1-.09-.11-.1-.11-.11-.1-.1-.1-.11-.1-.1-.09-.11-.1-.11h0l-.1-.11-.09-.11-.1-.11-.08-.12-.09-.11-.07-.09-.08.05-.25.16-.25.16-.25.15-.25.16-.26.14-.25.15-.27.14-.25.14-.27.14-.26.13-.27.13-.27.12-.27.12-.27.12-.28.11-.28.11-.28.1-.28.1-.29.1h-.1l-.18.06-.28.08-.3.08-.28.08-.3.07-.29.06-.31.06-.29.06h-.31l-.29.05h-4.71l-.33-.05-.32-.05-.32-.06-.34-.06-.32-.07h-.35l-.18,0h-.18l-.16-.05-.18-.06h-.17l-.17-.05-.16-.05-.17-.07-.17-.06-.15-.06-.16-.07-.16-.05-.16-.08-.15-.07h0l-.15-.08-.15-.07-.14-.08-.15-.08L158,304l-.13-.07-.15-.09-.14-.09-.14-.09-.13-.09-.13-.1-.14-.1-.13-.08-.12-.11-.13-.1-.12-.09-.13-.11-.11-.1-.12-.1-.12-.11-.12-.11-.11-.11-.11-.11-.1-.11-.11-.11-.11-.12-.1-.11-.1-.12-.1-.13-.1-.11-.09-.12-.1-.12-.09-.13-.08-.12-.09-.12-.08-.13-.09-.12-.08-.14-.08-.13-.06-.12-.08-.14-.07-.12-.08-.14-.07-.13-.06-.13-.07-.14-.06-.13,0-.14-.06-.13-.06-.14-.06-.14-.05-.14v-.13l0-.15-.05-.13v-1l-.07-.28v-.28l-.05-.29,0-.3v-3.79l0-.29.05-.29.06-.29.06-.29.07-.29.07-.29.08-.29.07-.28.09-.29.09-.28.1-.28.1-.28.11-.28.1-.28.12-.28.12-.27.13-.27.12-.28.14-.27.14-.27.14-.27.14-.26.16-.26.16-.26.16-.26.16-.26.17-.25.17-.24.17-.25.19-.24.18-.25.19-.24.19-.23.19-.23.21-.24.2-.22.21-.22.21-.21.22-.23.22-.21.23-.2.22-.21.23-.2.23-.19.25-.19.23-.19.25-.18.26-.18.25-.17.26-.17.25-.15.27-.17.27-.14.27-.16.27-.14.28-.13.27-.13.16-.06.13-.06.15-.06.14-.06.15-.06.14-.05.15,0h.15l.15-.05.14-.05.14-.05h.16l.14-.05h5.81l.11.05.12.05.12.05.12.06.11.05.12.06.11.06.11.07.11.07.1.06.11.07.1.08.1.08.1.07.09.08.09.09.09.08.1.08.08.09.09.1.08.08.07.1.07.1.08.1.07.09.07.1.06.11.06.09.06.11,0,.11.05.1v.11l0,.1.05.11v3.38l-.05.21,0,.22-.06.2-.06.21-.08.21-.08.2-.08.2-.1.21-.09.2-.1.19-.11.2-.11.19-.12.2-.13.18-.12.19-.13.19-.14.17-.15.19-.14.17-.15.16-.18.2-.17.17-.18.19-.19.16-.18.17-.19.16-.19.17-.19.14-.2.16-.2.14-.19.14-.21.13-.2.14-.21.12-.21.13-.21.13-.21.11L168,291l-.22.1-.23.11-.21.1-.23.09-.21.1-.23.09-.22.09-.23.07-.23.08-.22.08-.24.07-.22.06-.24.06-.22.07-.24.05-.24.06-.23,0-.24.05h-5.13l-.06-.05-.22-.19-.29-.33-.21-.17-.2-.18-.16-.11v.17h0v.47h0v5.58l0,.08v.07l.05.08v.05l.05.08v.06l0,.08v.06l.05.07,0,.06.05.07v.07l.06.07.06.05.06.07.06.06.06.06.06.06.07.06,0,.06.07.06.06.06.07.06.07.05.08.06.07.05.07.06.07.06.08.05.07,0h.09l.07.06.09.05.08.05.08.06h.09l.09.05h.09l.1.06.1,0h0l.1.05.11.06h0l.11.06.12,0h0l.1.05.12.06h.12l.13,0h0l.12.05.12.05h0l.13,0,.13,0h.13l.13.05h0l.14.05H162l.26.08.24.05.26.07h0l.26.06.25.06h0l.27.05.26.05h5.05l.23-.05h.23l.23-.06.22-.06.24-.07.22-.06.23-.07.23-.08.23-.08.23-.08.22-.09.23-.09.22-.09.23-.09.23-.11.22-.1.23-.1.21-.12.23-.11.22-.12.22-.12.23-.12.12-.07v-.07l-.07-.27-.07-.28-.07-.27-.06-.28-.06-.28-.06-.28v-.28l0-.28v-8l0-.28v-.28l.05-.28,0-.28v-.28h0V287l.06-.28.06-.28.06-.27.07-.27.05-.27.07-.27.07-.26.07-.27.07-.26.07-.27.08-.26.06-.25.08-.26.15-.5.16-.5.15-.48.16-.48.17-.46.16-.46.16-.44.17-.44.17-.41.16-.4.17-.4.17-.38.16-.35.17-.35.16-.33.16-.32.06-.13.08-.12.07-.14v-.05l.06-.09.1-.12.09-.14.1-.13.11-.15.11-.14.11-.15.12-.14.11-.15.13-.14.13-.16.13-.15.13-.16.14-.14.14-.16.15-.15.14-.17.15-.15.15-.15.15-.15.16-.16.17-.15.16-.16.16-.14.17-.16.18-.14.16-.15.18-.14.18-.14.17-.14.19-.13.18-.13.18-.12.19-.13.19-.12.19-.11.2-.11.19-.1.2-.1.2-.1.19-.09h3.71l.11.05.1.05h.11l.1.06.09.06.1.06.09.06.1.07.09.07.08.08.08.07.08.08.08.08.07.09.07.08h0l0,.06.07.09.06.09.07.08.06.09.06.1.06.09,0,.1v.1l.05.09,0,.1v7.6l0,.26v.24l-.05.25v.24l0,.24-.05.24-.06.22v.23l-.05.21-.06.23v.21l-.1.4-.11.36-.1.35-.1.32-.1.28v.14l0,.12-.08.22-.08.22-.09.22-.1.24-.09.22-.1.23-.09.22-.1.24-.11.23-.1.23-.11.23-.1.24-.12.23-.11.23-.12.23-.11.25-.12.23-.13.24-.13.23-.12.24-.13.24-.13.24-.14.23-.13.24-.13.24-.15.24-.14.23-.14.24-.15.25-.15.23-.15.24-.15.23-.15.23-.16.25-.16.23-.16.23-.16.24-.17.24-.16.23-.17.23-.18.23-.11.16,0,.08-.18.23-.18.22-.17.23-.18.24-.19.22-.18.22-.19.22-.19.24-.18.21-.2.22-.19.23-.2.21-.2.22-.19.21L180,298l-.21.21-.2.2-.21.22-.18.17v.11l.09.16V299l.11.2h0v.08l.05.08h0l0,.08v.08h0v.07l.05.08h0l.06.08,0,.07h0l.06.08h0l.06.09h0l.07.09h0l.07.09h0l.08.08h0l.07.08h0l.07.08h0l.07.08h0l.07.07h0l.08.08h0l.08.08h0l.08.08h0l.08.07h0l.08.08h0l.09.07h0l.08.07h0l.08.06h0l.09.07h0l.09.07h0l.09.07h0l.09.06h0l.09.07h0l.1.07h0l.09.06h0l.1.07h0l.1,0h0l.1.06h0l.1.06h0l.11.06h0l.09.05.09.05h0l.09,0,.08,0H186Zm.31-29.8h-1.36l-.07.05h0l-.07.05h0l-.08.05h0l-.15.1h0l-.16.11h0l-.15.12h0l-.16.11h0l-.14.12-.13.12h0l-.13.12-.14.14h0l-.13.13-.12.14h0l-.13.14-.12.15h0l-.12.14L183,274h0l-.12.15-.12.16h0l-.12.15-.12.17h0l-.11.16-.1.16.47.33-.1.15-.09.16-.1.15-.08.16-.09.15-.09.15-.08.15-.08.16-.08.14-.07.16-.07.14-.07.14-.06.14-.06.14-.06.14-.06.12-.05.13h0l-.06.12V278h0v.12l0,.1h0l-.05.1,0,.1h0l-.12.28L181,279l-.12.31-.11.32-.12.34-.13.35-.12.37-.12.38-.12.41-.12.4-.12.43-.11.43-.11.44-.11.45-.1.46-.11.48,0,.23-.05.23V288h0v7.52l.1-.09.2-.18.19-.18.2-.2.19-.18.18-.2.19-.19.19-.19.18-.2.19-.19.18-.2.18-.2.18-.2.18-.2v-.07l.12-.14.17-.21.18-.2.16-.21.17-.21.17-.2.16-.22.16-.21.17-.2.16-.22.15-.21.16-.21.15-.23L184,290l.15-.21.15-.22.15-.21.13-.21.15-.22.14-.22.14-.21.13-.22.13-.22.14-.21.13-.21.12-.22.12-.22.13-.21.12-.21.11-.22.12-.21.12-.21.11-.22.11-.2.1-.21.11-.22.1-.2.1-.21.1-.21.09-.2.09-.2.1-.21v-.1h0l0-.12h0l.1-.25.11-.27.1-.31.12-.35.13-.37.06-.19.06-.2.06-.2.05-.21.07-.22.06-.22.06-.22.06-.22.06-.24.06-.23.05-.23.06-.24v-.24l0-.24v-.25l.05-.24v-.24l0-.25v-3.93h0v-.1h0V274h0v-.11h0v-.1h0v-.1h0v-.1h0v-.09h0v-.1h0v-.1h0v-.08h0v-.09h0v-.09h0V273h0v-.08h0v-.09h0v-.09h0v-.09h0v-.07h0v-.08h0l0-.08h0v-.07h0v-.07h0v-.08h0v-.05h0l-.05-.06h0l-.07-.05h0l-.07-.05h0l-.07,0h0l-.07-.05h0l-.08-.05h0l-.08-.05h-1.68Zm-20,9.64h-1.58l-.12.05h-.11l-.11.05-.12,0h-.1l-.11,0h0l-.22.1-.2.12h0l-.21.11-.21.12h0l-.2.11-.21.14h0l-.2.14-.2.13h0l-.2.15-.19.13h0l-.19.15-.2.15h0l-.19.16-.18.16h0l-.19.17-.17.16h0l-.18.18-.18.17h0l-.16.18-.18.18h0l-.17.18-.14.18-.15.17-.15.18.46.43-.14.19-.13.18-.14.19-.13.19-.12.19-.13.19-.12.21-.12.19-.12.2-.1.21-.11.2-.11.2-.1.22-.1.2-.09.21-.09.22v.07l.15-.09.2-.16.22-.16h4.41l.19-.05h0l.19-.05.19-.05h0l.2,0,.19-.05h0l.18-.07.2-.06h0l.18-.07.18-.06h0l.19-.07.18-.08h0l.17-.08.18-.08h0l.17-.07.17-.09h0l.17-.09.17-.09h0l.16-.1.17-.1h0l.17-.09.15-.1h0l.16-.11.16-.1h0l.15-.12.15-.11h0l.15-.11.15-.12h0l.13-.12.15-.12h0l.14-.14.14-.12h0l.12-.14.14-.13h0l.13-.14.13-.15h0l.1-.13h0l.12-.15h0l.11-.14h0l.11-.15h0l.1-.14h0l.09-.15h0l.1-.15h0l.09-.16h0l.08-.14h0l.08-.16v.05l.08-.15h0l.07-.16v0l.06-.16v.05l.06-.15v.05l.06-.17v.06l0-.16V282h0V282h0v-.07h0v-.08h0v-.09h0v-.07h0v-.06h0v-.06h0v-.05h0v-.06h0v-.09h0v-.07h0l0,0h0v-.05h0v0l-.05-.06h0v0l0-.06h0v0h0l-.06-.05h-.06l-.06,0h-.18l-.06-.05h-3.38Zm59.7,6.32h1.25l.18,0h0l.16-.05.17-.05h0l.17-.06.17-.07h0l.19-.08h0l.11,0h.11l.1-.05h.11l.11-.06.11,0h0l.11-.06.1-.05h0l.11-.06.1-.06h0l.11-.07.1-.06h0l.09-.06.11-.07h0l.11-.07.1-.07h0l.1-.07.1-.06h0l.09-.08.1-.07h0l.09-.08.1-.06h0v-.13h0l-.06-.14-.05-.13h0l-.06-.14-.06-.13h0l-.07-.13-.06-.13h0l-.07-.14-.07-.13h0l-.08-.12L230,285h0l-.09-.12-.08-.13h0l-.07-.11-.09-.13h0l-.09-.12-.09-.11h0l-.09-.12-.09-.12h0l-.08-.1-.1-.12h0l-.11-.12h0l-.11-.11h0l-.11-.12h0l-.1-.08-.08-.09-.11-.09-.1-.08-.1-.07-.1-.08-.34.11-.11-.07-.1-.07-.1-.07-.11-.06-.11,0-.11-.06-.11-.05-.11-.05-.11-.05h-3.6l-.06.05h0l-.06.05h-.05v.05l0,.05v.15h0V286l0,.07v.13h0l.07.1h0l.07.1h0l.07.08h0l.07.09h0l.08.09h0l.08.1h0l.09.08h0l.09.09h0l.09.08h0l.09.08h0l.1.07h0l.1.08h0l.1.08h0l.1.07h0l.1.06h0l.1.07h0l.12.07h0l.12.06h0l.12.06h0l.11.05h0l.13.06h0l.12.05h0l.12.05h1.67ZM218,286.55h0v.08h0v.12l.13.15h0v-.12h0v-.1h0v-.09h0v-.07h0v-.06Zm-10-2.71h0v.05h0Z"/><path class="cls-4" d="M291.2,278.55l.26-.06h0l.24-.06.24-.07.23-.07.24-.08.24-.07.24-.09.23-.09.25-.1.24-.09.23-.11.25-.11.23-.1.24-.12.24-.12.13-.07.11-.05.23-.14.24-.12.24-.14.23-.13.23-.15.22-.14.24-.15.22-.15.23-.16.23-.16.21-.17.22-.16.21-.17.22-.17.22-.18.2-.18.21-.17.19-.2.21-.18.2-.2.18-.18.2-.2.19-.2.17-.2.19-.2.17-.21.17-.2.17-.21.16-.22.15-.2.16-.22.15-.21.14-.22.15-.22h0l.14-.22.14-.24h0l.12-.24.13-.23h0l.12-.23.12-.25h0l.11-.24.1-.24h0V269l.05-.11h0v-.13l.05-.11h0v-.25h0v-.25h0v-.24h0v-.24h0v-.25h0v-.25h0v-.25h0v-.25h0v-.05h0v-.25h0v-.25h0v-.25l.77-.75.75.76v3.94l-.1.27-.09.27-.1.28-.11.27-.12.26-.11.27-.13.28-.14.26-.14.26-.13.26-.15.26-.16.26-.16.26-.15.26-.17.25-.18.24-.17.25-.18.25-.19.25-.18.24-.2.23-.2.24-.19.24-.21.23-.2.22-.22.23-.21.23-.22.22-.22.21-.22.21-.23.22-.24.21-.23.2-.24.21-.23.19-.25.19-.24.2-.25.19-.25.19-.25.18-.25.17-.26.18-.12.08-.14.08-.26.17-.26.16-.27.16-.27.15-.27.15-.27.14-.27.14-.27.13-.28.13-.28.13-.28.12-.27.12-.29.1-.28.11-.28.1-.28.1-.29.08-.29.09-.29.08-.28.06-.29.07-.29.06-.29.06-.29.05H288.1l-.11.16-.13.19-.1.31-.14.18-.14.18-.13.19-.13.17-.15.19-.14.17-.14.18-.14.18-.15.17-.14.19-.15.17-.14.17-.16.17-.15.17-.15.17-.15.17-.16.17-.16.16-.15.17-.16.16-.16.17-.15.15-.17.17-.16.15-.16.16-.17.15-.17.16-.16.15-.17.16-.17.14-.17.16-.16.14-.18.15-.17.13-.17.15-.18.14-.17.14-.17.13-.18.14-.18.14-.17.13-.19.13-.18.12-.17.14-.18.11-.19.13-.17.13-.19.11-.19.12-.17.12-.19.11-.19.11-.18.11-.19.11-.18.11-.19.09-.19.11-.18.1-.19.09-.19.1-.19.1-.19.09-.2.08-.18.09-.19.09-.2.07-.19.08-.19.08-.19.08-.2.06-.19.07-.14.06h-.15l-.15.05-.15,0h-4.56l-.12,0h-.12l-.11-.05-.12-.06-.12-.05-.12-.05-.11-.06-.1-.07-.11-.06-.11-.07-.11-.06-.1-.08-.09-.07L269,292l-.1-.07-.1-.08-.09-.08-.09-.08-.08-.08-.09-.09-.08-.09-.08-.09-.09-.08-.08-.1L268,291l-.15-.19-.13-.18-.13-.2-.11-.19-.11-.19-.11-.21-.1-.19-.08-.16h0l-.08-.21-.08-.21-.08-.2-.07-.22-.07-.2-.07-.21-.06-.22-.06-.21-.05-.22-.06-.22-.05-.21-.05-.22v-.21l0-.23v-.89l-.07-.43-.07-.45-.06-.45v-.45l-.06-.45-.09-.89-.1-.89-.06-.43v-.43l-.06-.42-.06-.41-.07-.42V278l0-.17v-.34l-.05-.16,0-.16-.05-.16,0-.14-.06-.15v-.14l-.06-.13-.06-.14-.05-.12-.07-.12-.06-.11-.05-.11-.06-.11-.06-.09-.07-.09-.06-.09-.07-.09h-4.13l-.06,0-.06.05-.07,0h-.06l-.06.06-.05.06-.07.06-.06.07-.07.07-.06.07-.06.08-.07.07-.06.09-.05.07-.07.1-.05.07-.08.12h0l-.07.1v-.34h0l-.08.11-.06.12h0l-.07.11-.06.13h0l-.07.13-.06.13h0l-.06.14-.07.12h0l-.06.14-.06.14h0l-.06.14-.06.14h0l0,.13-.05.14-.05.13-.05.14v.13l-.05.15,0,.13v.29l-.09.3-.08.29-.07.3-.08.3-.07.3-.07.31-.06.31-.06.3-.06.31-.05.31v9.64l0,.22-.05.17-.11.28-.11.17-.14.19-.15.17h0l-.19.17-.22.13h0l-.3.15-.33.08h-.72l-.3-.08-.28-.13-.2-.11-.33-.29-.22-.32-.12-.24-.06-.16-.05-.14v-.51l0-.3v-.41h0v-.12h0l-.11-.37-.12-.36-.11-.36-.06-.17-.06-.18L253,289l-.06-.17-.07-.18-.06-.16-.07-.17-.07-.16-.06-.17-.07-.15-.06-.13h0l-.07-.12-.06-.12-.06-.13-.06-.11-.07-.13-.06-.12-.68-.1-.07-.14-.07-.12-.08-.13-.08-.12-.07-.14-.08-.13-.09-.12-.08-.14-.09-.12-.09-.13-.09-.12-.09-.14h0l-.1-.14-.1-.12h0l-.1-.13-.1-.12h0l-.1-.13-.1-.13h0l-.11-.12-.11-.12h0l-.11-.11-.11-.12h0l-.11-.12-.12-.11h0l-.11-.11-.12-.11h0l-.11-.09-.12-.11h0l-.12-.1-.13-.09h0l-.11-.09-.12-.09h0l-.14-.09h0l-.14-.1h0l-.13-.09h0l-.14-.08h0l-.15-.08h0l-.14-.08h0l-.14-.08h0l-.14-.06h0l-.15-.06h0l-.15-.05h0l-.14,0h.05l-.15-.05h0l-.15-.05h-1.58l-.13.05h.05l-.12.05h0l-.12,0h0l-.12.06h0l-.12.06h0l-.12.07h0l-.1.08h0l-.11.07h0l-.11.08h0l-.1.08h0l-.1.09h0l-.09.09h0l-.1.08h0l-.1.1h0l-.1.1h0l-.09.1h0l-.09.1h0l-.08.12h0l-.09.1h0l-.09.11h0l-.09.12h0l-.08.11h0l-.08.12h0l-.07.12h0l-.07.12-.07.13h0l-.06.12-.07.13h0l-.06.13-.07.13h0l-.06.14-.05.13h0l-.06.14-.06.14h0l-.06.15-.06.14h0l0,.15-.06.15h0l-.05.16v.15h0l0,.16v1.93l-.05.34-.05.35v.52l.07.51.13.83.12.85.12.85.06.45v3.23l.06,1v.73l.06.89v1.33l0,.19h0l-.12.24-.16.22-.2.19-.21.16-.25.11-.26.08h-.54l-.27-.05-.25-.09-.24-.13-.21-.17h0l-.19-.19-.15-.23-.11-.25v-.64l-.06-.35-.18-.86-.09-.42-.07-.34-.17-1-.1-.47-.09-.49-.09-.48-.09-.49-.09-.5-.07-.49-.06-.38v-.45l0-.84-.06-.83-.05-.83-.07-.85-.06-.83-.13-1.67-.13-1.69-.07-.84L237,284l-.06-.85-.07-.85-.06-.84V281l.8-.47,1.55-.16.87.3.06.46.12.82.13.83.07.45.06-.14.09-.15.09-.16.1-.14.09-.15.11-.14.09-.15.11-.14.11-.14.11-.13.11-.13,1.11-.53.12-.13.13-.11.14-.13.13-.11.14-.11.15-.11.15-.11.15-.09.16-.09L244,280l.16-.08.17-.08.18-.07.17-.07.18-.05.19-.06.18-.05h2.3l.21.05h.2l.2.06.2.05.19.07.2.07.18.08.19.08.19.09.18.09.18.09.18.1.17.11.17.1.18.11.16.12.16.11.17.12.16.13.15.12.16.13.15.13.14.13.15.13.15.14.15.15.13.13.14.15.14.14.14.15.12.14.13.15.13.15.12.14v-1.62l.05-.35,0-.35.06-.35.07-.36.07-.36.07-.36.08-.36.08-.36.08-.35.1-.36.1-.35,0-.19.06-.17.34-.16.05-.17.06-.17.07-.18.06-.17.06-.18.07-.17.06-.18.07-.16.07-.17.08-.17.07-.17.08-.17.08-.16.08-.17.08-.16.09-.17.09-.15.09-.17.1-.15.09-.16.1-.15.1-.16.11-.15.11-.15.1-.14.11-.15.12-.14.12-.15.13-.13.12-.14.13-.13.14-.14.14-.13.13-.12.15-.13.15-.11.14-.12.16-.12.17-.1.17-.1.16-.11.17-.08.18-.1.18-.08.17-.07h0l.19-.07.19-.07.2-.07.19-.05h.2l.2,0h2.76l.21.06h.23l.21.07.22.07.22.08.12,0,.12,0h.13l.13.06.11.05.12.06.12.07.11.05.12.07.1.07.12.07.11.06.11.08.09.08.11.08.1.07.1.08.1.08.09.09.09.08.09.09.09.09.09.09.08.08.09.1.07.09.08.09.09.1.14.18.15.2.13.2.13.2.12.21.12.2.1.21.11.21.1.21.1.21.09.22.08.22.08.21.08.23.07.22.07.22.07.22.06.23.06.22.06.22,0,.23.05.23.05.23.05.22v.23l.05.23v.46l.07.46.07.46.07.46.06.45v.46l.1.9.11.88.05.44.06.41.06.42.06.41.06.39v1.9l0,.15v.28l0,.12.05.14v.22h0v.07l.07.15h0l.07.15.05.09.05.08v.08l.05.07.05.07,0,.06h0l0,.06h0l.05.06h0l.06.06h0v0h0l.05.05h0l0,.05h0l.05.06h0l.05.05h0l.06.05h0l.06,0h.11l.06.05h3l.16-.06h0l.16-.06h.17l.16-.06.15-.06.15-.06.16,0,.14-.07.16-.06.15-.07.15-.07.15-.07.16-.08.15-.07.15-.08.16-.08.16-.08.14-.09.16-.08.16-.09.16-.09.15-.1.16-.09.15-.1.15-.1.16-.09.16-.1.15-.11.15-.1.16-.11.15-.11.15-.1.16-.12.15-.11.15-.12.15-.12.16-.11.15-.12.15-.13.15-.11.15-.13.15-.12.15-.13.15-.13.15-.13.14-.14.14-.12.15-.14.15-.13,0-.54.13-.14.14-.14.15-.13.14-.15.13-.14.14-.15.14-.14.14-.15.13-.14.13-.15.14-.14.13-.16.12-.15.14-.15.11-.14h-.12l-.15-.06-.13-.06-.14-.07-.13-.07-.14-.06-.13-.08-.14-.07-.13-.09-.13-.07-.13-.08-.13-.09-.13-.09-.13-.08-.12-.1-.13-.1-.12-.09-.13-.1-.11-.11-.12-.1-.12-.11-.12-.11-.12-.11-.11-.12-.11-.12-.12-.11-.11-.13-.11-.12-.1-.13-.1-.13-.11-.13-.1-.13-.1-.14-.09-.14-.1-.13-.1-.15-.09-.14-.1-.15-.09-.15-.08-.15-.09-.15-.08-.16-.08-.15-.09-.17-.08-.16-.07-.17-.07-.16-.08-.17-.07-.17-.07-.18-.07-.17-.07-.17-.07-.18-.05-.18-.06-.17L278,275l-.08-.24h0l0-.39-.07-.36-.08-.4-.08-.43V265l.05-.16v-.17l.05-.16v-.17l.05-.16.05-.17.06-.16.06-.16.06-.16.07-.16.06-.17.07-.15.08-.17.07-.15.08-.16.09-.15.09-.16.08-.15.09-.16.1-.14.1-.16.1-.14.11-.15.1-.14.12-.15.12-.14.12-.14.11-.14h0l.1-.11.12-.14.13-.14.13-.14.13-.12.14-.14.28-.07.15-.12.16-.13.15-.12.15-.11.16-.12.17-.11L282,259l.18-.11.18-.1.17-.1h0l.19-.1.19-.09.19-.1.2-.09.2-.09.17-.05.17-.07L284,258l.17,0h2.28l.16,0,.16.06.16.06.15.06.16.07.14.08.14.09.14.08.14.09.12.1.13.09.12.11.13.1.1.11.11.11.11.12.11.11.1.12.09.12.1.12.1.13.09.12.09.13.08.13.08.13.08.14.08.13.08.14.07.13.07.14.08.13.06.15.06.14.07.15.06.15.07.14.06.15v.14l.06.16.1.29.11.3.1.31.1.3.09.31.09.31.07.31.08.31.07.31.07.31.07.31.06.31.06.3.05.31,0,.3v.29l.05.29V275l-.05.2,0,.21-.06.21-.06.2-.06.21-.06.21-.07.2-.07.2-.07.21-.06.2-.08.2-.07.21-.06.14v.06l-.09.2-.08.21-.09.2-.08.2-.09.21-.06.12h.49l.24-.05h0Zm-48,20.63h0v.11h0v-.13h0Zm13.69-8.39h0v0Zm0,0Zm25.32-28-.08.12h0l-.08.13h0l-.07.12h0l-.07.13h0l-.06.13h0l-.06.13h0l-.06.14h0l-.07.13h0l-.06.13h0l-.06.13h0l-.06.14h0v.24h0v.25h0V265h0v.27h0v.25h0v.26h0v2.33h0v1.71l.06.24.05.24.06.23.06.24.06.23.06.22.07.22.05.21.07.21.06.2.07.2.06.19.13.37.11.33.12.31.11.28h0l.06.24v.52h0v.27h0V275h0v.26h0v.25h0v.13l.05.11h0l.05.12.05.12h0v.11l.05.11h0l0,.12.06.1h0l.05.11.06.1h0l.05.1.06.11h0l.06.09.06.1h0l.06.09.06.1h0l.07.1h0l.08.11h0l.07.1h0l.07.1h0l.08.1h0l.08.1h0l.08.09h0l.07.1h0l.08.09h0l.09.08h0l.08.09h0l.08.08h0l.09.09h0l.08.07h0l.09.08h0l.09.08h0l.1.07h0l.09.07h0l.09.07h0l.09.07h0l.09.07h0l.1.06h0l.1.07h0l.1.07h0l.09.06h0l.1.06h0l.1,0h0l.11.05h0l.11.05h0l.1.05h.1l.1.05h0l.11,0h.11l.1,0h.21l.1-.16.09-.16.09-.17.08-.16.09-.18.09-.16.09-.17.08-.17.08-.17.07-.16.08-.17.07-.17.08-.16v0l.05-.12.07-.16.06-.18.07-.16.06-.17-.55-1.39.05-.17.06-.17.05-.17.05-.16v-.17l0-.16v-.16l.05-.17v-.17h0l.05-.18v-.17h0v-.35h0v-.35h0v-.35h0v-5.75l-.05-.27-.05-.28,0-.27-.06-.28-.06-.27-.06-.27-.06-.27-.07-.26-.08-.25-.08-.26-.08-.25-.08-.25,0-.11h0v-.08h0l0-.13h0l-.05-.11-.05-.13h0v-.12l-.06-.11h0l0-.11-.05-.11h0l-.06-.11v-.11l-.05-.07-.06-.1-.05-.09,0-.08-.05-.08v-.08l-.05-.07-.06-.07-.05-.06,0-.07v-.06h-.05l-.05-.06-.05-.05v0h-1.18l-.15.06-.13.06-.14.06-.11.07-.12.06-.12.07-.12.07-.11.07-.1.07-.11.07-.1.07-.1.08-.1.08-.08.07-.09.08-.09.09-.09.08-.08.08-.08.08-.08.09-.05.07h0l-.08.12h0l-.09.13Z"/></g></svg>