<svg xmlns="http://www.w3.org/2000/svg" viewBox="0 0 408.87 376.94"><defs><style>.cls-1{fill:none;stroke:#33c1ce;stroke-width:8px;}.cls-2{fill:#71c6d0;}.cls-3{fill:#f9d2a6;}.cls-10,.cls-13,.cls-14,.cls-15,.cls-16,.cls-18,.cls-19,.cls-23,.cls-24,.cls-25,.cls-26,.cls-27,.cls-28,.cls-3,.cls-5,.cls-7,.cls-8{fill-rule:evenodd;}.cls-4{fill:#0c5f8f;}.cls-5{fill:#38a4ac;}.cls-6,.cls-7{fill:#1cbdc7;}.cls-8{fill:#de77a8;}.cls-9{fill:#e5b581;}.cls-10,.cls-12{fill:#d69129;}.cls-11{fill:#c59a6c;}.cls-13{fill:#163a4c;}.cls-14{fill:#095e90;}.cls-15{fill:#daaf81;}.cls-16{fill:#17bcc6;}.cls-17,.cls-18{fill:#f9d2e3;}.cls-19{fill:#af8946;}.cls-20{fill:#b49768;}.cls-21,.cls-22{fill:#fff;}.cls-21{stroke:#fff;stroke-miterlimit:10;stroke-width:1.07px;}.cls-23{fill:#9bb33b;}.cls-24{fill:#7d903a;}.cls-25{fill:#5e7a36;}.cls-26{fill:#4e632d;}.cls-27{fill:#bbd532;}.cls-28{fill:#95ae3c;}</style></defs><title>Asset 3</title><g id="Layer_2" data-name="Layer 2"><g id="Layer_1-2" data-name="Layer 1"><path class="cls-1" d="M344.31,72.65a168.71,168.71,0,0,1,30.17,100.52c-2,91.2-74.82,163.46-162.7,161.42S54.23,257,56.2,165.77,131,2.31,218.91,4.35a154.07,154.07,0,0,1,66,16.51"/><path class="cls-1" d="M374.32,162.41A169.13,169.13,0,0,1,346,263.62c-50.19,75-149.47,93.57-221.75,41.5s-90.19-155.07-40-230.07S233.71-18.53,306,33.54a162.48,162.48,0,0,1,46.28,51.58"/><ellipse id="Background_2" data-name="Background 2" class="cls-2" cx="215.42" cy="170.3" rx="135.88" ry="140.99"/><path class="cls-3" d="M331.42,150.44c-3.24-3.73-8.6-18.46-4.75-19.8,3.06-1.06,2.08,8.38,5.57,6.87,3.87-1.69,2.62-20.44,6.58-19.35,4.49,1.23-2,14.81,1.63,15.17s2.14-19.11,6.82-17.67-3.54,17.05,0,17.86,2.74-15.42,7-14.23c4.78,1.32-4.34,18.12-2,18.47,3.83.6,3.38-12.51,7.17-11.69,2.24.48.82,7.12-1.8,14.06-2.33,6.14-5.69,12.15-9.17,14.42C341.15,159.32,337.24,157.11,331.42,150.44Z"/><path class="cls-3" d="M168.86,279.42c3.87,3,11.81,16.45,8.27,18.51-2.81,1.65-3.57-7.82-6.72-5.65-3.5,2.41,1.14,20.58-2.95,20.29-4.63-.33-.74-14.94-4.36-14.58s1.37,19.19-3.48,18.68.38-17.44-3.25-17.53.1,15.67-4.32,15.34c-4.94-.36,1-18.64-1.35-18.54-3.87.17-1,12.95-4.92,12.89-2.29,0-2.11-6.83-.79-14.16,1.17-6.49,3.38-13,6.39-15.95C157.7,272.6,162,274,168.86,279.42Z"/><path class="cls-4" d="M186.9,228.57q-1.28,2-2.46,4.21c-6.88,12.88-11.65,31.12-14.68,55l-18.65-2.52c3.35-26.32,8.82-46.85,16.9-62,8.78-16.42,20.52-26.57,35.75-30.81l0,.11c8.08-9.4,18.09-15,28.93-15,12.48,0,23.86,7.38,32.46,19.49A55,55,0,0,0,302,191.37c11.31-6.26,21.6-17.47,28.05-35.51l17.69,6.8c-8.23,23-21.81,37.57-36.9,45.91a73.1,73.1,0,0,1-35.36,9.05,110.92,110.92,0,0,1,5.74,35.81A109.71,109.71,0,0,1,274.82,291c-8.35,8.25-24.08,13.81-42.1,13.81S199,299.29,190.61,291a110,110,0,0,1-6.38-37.61A114.89,114.89,0,0,1,186.9,228.57Z"/><path class="cls-5" d="M269.54,295.26h0a33.26,33.26,0,0,0,5.27-4.22q1-2.79,1.9-5.73h-7.18v9.95Zm0-28.11h8.75V279.4a116.95,116.95,0,0,0,0-51.94v1.63h-8.75V239h8.75V257.2h-8.75v9.95Zm0-56.22h8.75v6.64a75.76,75.76,0,0,0,9.59-1v-5.64h17.5v.36c1.83-.82,3.65-1.72,5.45-2.72A72.91,72.91,0,0,0,322,201h-7V182.82h17.49v7.55a88,88,0,0,0,11-17.5h-1.41V160.49l-9.6-3.69v16.07H321.65a57.57,57.57,0,0,1-16.27,16.45V201h-17.5v-4.25a54.4,54.4,0,0,1-9.59,1.31V201h-8.75Zm-27.09,84.33h8.74v7.53a64.23,64.23,0,0,0,9.6-3v-4.53h8.75v-9.95h-8.75V267.15h8.75V257.2h-8.75V239h8.75v-9.95h-8.75V210.93h8.75V201h-8.75v-9.36a47.79,47.79,0,0,0-9.6-8.29V201h-8.74v10h8.74v18.16h-8.74V239h8.74V257.2h-8.74v9.95h8.74v18.16h-8.74v9.95Zm0-112.44h7.93a36.14,36.14,0,0,0-7.93-3.66Zm-27.1,112.44h8.75v9.16a83.76,83.76,0,0,0,8.62.43h1v-9.59h8.75v-9.95H233.7V267.15h8.75V257.2H233.7V239h8.75v-9.95H233.7V210.93h8.75V201H233.7V182.82h8.75v-3.66a32,32,0,0,0-9.73-1.53,33.57,33.57,0,0,0-17.37,5v.18h8.75V201h-8.75v10h8.75v18.16h-8.75V239h8.75V257.2h-8.75v9.95h8.75v18.16h-8.75Zm-19.47,0H197V296a51.93,51.93,0,0,0,9.59,4.56v-5.28h8.75v-9.95H206.6V267.15h8.75V257.2H206.6V239h8.75v-9.95H206.6V210.93h8.75V201H206.6V189.55c-.95,1-1.89,2-2.81,3l0-.11a53.8,53.8,0,0,0-6.75,2.36V201H186.38a63.6,63.6,0,0,0-16.46,18.92v9.19h-4.76q-2.13,4.68-4,9.95h8.73V257.2H156q-1.11,4.8-2.08,9.95h16v18.16h-17.5V276c-.47,3-.9,6.11-1.31,9.29l18.65,2.52c2.25-17.68,5.44-32.28,9.75-43.9V239h1.93q1.42-3.31,3-6.26,1-1.93,2.13-3.69h-7.06V210.93H197v18.16H186.78c-.7,3.22-1.26,6.55-1.68,9.95H197V257.2H184.28q.16,5.07.74,9.95h12v18.16h-8.3c.58,2,1.22,3.87,1.9,5.73a33.72,33.72,0,0,0,5.27,4.22Zm19.47-112.62-.3.18h.3Z"/><rect class="cls-6" x="224.1" y="200.98" width="9.6" height="9.96"/><rect class="cls-6" x="224.1" y="229.09" width="9.6" height="9.96"/><rect class="cls-6" x="224.1" y="257.2" width="9.6" height="9.96"/><rect class="cls-6" x="224.1" y="285.31" width="9.6" height="9.96"/><path class="cls-7" d="M224.1,182.82h9.6v-5.17l-1,0a32,32,0,0,0-8.62,1.2Z"/><rect class="cls-6" x="197.01" y="200.98" width="9.6" height="9.96"/><rect class="cls-6" x="197.01" y="229.09" width="9.6" height="9.96"/><rect class="cls-6" x="197.01" y="257.2" width="9.6" height="9.96"/><rect class="cls-6" x="197.01" y="285.31" width="9.6" height="9.96"/><path class="cls-7" d="M176.12,210.93h3.39v-3.85C178.35,208.29,177.21,209.58,176.12,210.93Z"/><rect class="cls-6" x="169.92" y="229.09" width="9.6" height="9.96"/><path class="cls-7" d="M169.92,267.15h3.18q1.07-5.22,2.28-9.95h-5.46Z"/><polygon class="cls-7" points="170.08 285.31 169.92 285.31 169.92 286.55 170.08 285.31"/><polygon class="cls-8" points="152.42 285.43 152.42 285.31 151.55 285.31 152.42 285.43"/><path class="cls-7" d="M305.38,210.93h.79q2.35-1.08,4.66-2.36,2.1-1.15,4.15-2.47V201h-9.6Z"/><path class="cls-7" d="M313.44,182.82H315v-1.55C314.47,181.8,314,182.32,313.44,182.82Z"/><rect class="cls-6" x="278.29" y="200.98" width="9.6" height="9.96"/><path class="cls-7" d="M278.29,239h2c-.42-3.4-1-6.73-1.69-9.95h-.36Z"/><path class="cls-7" d="M278.29,267.15h2.13q.57-4.87.73-9.95h-2.86Z"/><rect class="cls-6" x="251.19" y="200.98" width="9.6" height="9.96"/><rect class="cls-6" x="251.19" y="229.09" width="9.6" height="9.96"/><rect class="cls-6" x="251.19" y="257.2" width="9.6" height="9.96"/><rect class="cls-6" x="251.19" y="285.31" width="9.6" height="9.96"/><path class="cls-7" d="M332.47,182.82h5.46c1.45-2.25,2.83-4.62,4.14-7.13v-2.82h-9.6Z"/><rect class="cls-9" x="211.38" y="142.71" width="42.3" height="48"/><path class="cls-10" d="M232.53,39.23c33.88,0,61.35,29.1,61.35,65s-27.47,65-61.35,65-61.35-29.09-61.35-65S198.65,39.23,232.53,39.23Z"/><path class="cls-3" d="M234.59,64.63c27.06,0,48.32,15.23,44.93,51.72-1,10.4,8.77,4.91,8.77,8.66a55.76,55.76,0,1,1-111.52,0c6.57,9.92,7.58-2.66,7.28-8.47C181.62,69,206.22,64.63,234.59,64.63Z"/><path class="cls-10" d="M251.31,56.26c21.58,9,39.07,22.26,39.07,29.65S272.89,92,251.31,83.05s-39.08-22.26-39.08-29.66S229.73,47.28,251.31,56.26Z"/><path class="cls-3" d="M294.81,105.91c-4-1.37-9.32,4-11.88,12.1s-1.4,15.69,2.61,17.06,9.32-4,11.88-12.1S298.82,107.28,294.81,105.91Z"/><path class="cls-3" d="M171.45,105.91c4-1.37,9.32,4,11.88,12.1s1.4,15.69-2.6,17.06-9.33-4-11.89-12.1S167.45,107.28,171.45,105.91Z"/><path class="cls-10" d="M194.13,61.19c-12,7.88-12.62,21.46-12.62,25.38s9.74.71,21.75-7.18S225,61.93,225,58,206.14,53.3,194.13,61.19Z"/><path class="cls-11" d="M239,135.61c1.61-1.15,4,0,2.4,1.11a16.17,16.17,0,0,1-17.64,0c-1.61-1.15.56-2.06,2.4-1.11A15.66,15.66,0,0,0,239,135.61Z"/><path class="cls-10" d="M253,85.27c-12.17,4.32-49-6.41-52.54-41.28C209.08,69.83,237.49,80.69,253,85.27Z"/><path class="cls-12" d="M203,94.06c-1.6,2.27,1.56,3.31,3.17,1,2.77-3.91,8.95-3.75,12.92-1.33,2.34,1.42,4.43-2.26,2.09-3.69C215.37,86.59,207,88.4,203,94.06Z"/><path class="cls-12" d="M232.65,140.7h.17c14.22,0,19.66-6.36,28.42-.6,18.78,12.35,19.35-38.84,19-45.39-.58-14.06,13.2-2.47,8,4.05s-5.85,16.12-3.89,39.42-31.87,45.38-50.47,45.38l-1.18,0V164.75c3.63.27,6.14,4,10,3.15,13.05-2.94,19.21-14.17,19.23-19.81,0-7.69-14.31-3.38-29.12-3.24h-.13Zm-29.68.24c7.89-6.4,21.72-.33,29.68-.24v4.15c-14,.11-28.52-4.24-29.2,2.37-.58,5.71,4.59,17.58,18.36,20.68,4,.9,6.59-3.16,10.44-3.16h.4v18.79l-.4,0c-.51,0-1,0-1.58,0-18.6,0-52.44-22.07-50.47-45.38s1.34-32.89-3.89-39.42,8.55-18.11,8-4.05C183.31,111.88,187.6,148.55,203,140.94Z"/><path class="cls-13" d="M232.92,193l-19.23,16.62c-6-6.5-7.73-16.46-9.9-24,6.05-3.17,6.22-1.4,7.66-7.3-1,15.57,43.87,17.56,42.19-.25,1.36,6.15,4.68,10.16,11.54,12.08-2.16,7.45-6.69,13.12-12.59,19.51Z"/><path class="cls-14" d="M233.19,190.64l-19.5,14.63c-6-5-7.76-13.94-9.93-19.79,2.17-4.09,5-4.94,7.69-7.19-.76,15.81,44.08,17.2,42.19-.25,3.34,3.25,9.17,6.89,11.54,12.08-2.16,5.76-6.69,10.21-12.59,15.15Z"/><path class="cls-15" d="M257,149.2c-1.68,7.14-49.69,6.45-48.82,0A110.05,110.05,0,0,0,257,149.2Z"/><path class="cls-15" d="M243.16,156.85c-.73,4.86-21.63,4.39-21.25,0A31.16,31.16,0,0,0,243.16,156.85Z"/><path class="cls-5" d="M233.19,190.64l-8.6,6.45h-14.8v3.62c-3-4.87-4.42-10.89-6-15.23,1.73-3.26,3.86-4.46,6-5.95v7.6h7.75c8.39,4.57,23.33,4.79,31.12,0h5.72v-8.4c3.41,3.08,8.6,6.56,10.8,11.39-1.93,5.16-5.77,9.27-10.8,13.63v-6.66H241.74Z"/><path class="cls-16" d="M236.89,193.43v-2.92a42.8,42.8,0,0,1-9.6-.33v4.88l5.9-4.42Z"/><path class="cls-16" d="M207.88,197.09h1.91v-10h-5.45C205.36,190.15,206.37,193.72,207.88,197.09Z"/><path class="cls-16" d="M254.38,197.09h6.68a27.8,27.8,0,0,0,2.92-4.32V188c-.2-.3-.41-.59-.63-.88h-9Z"/><ellipse class="cls-17" cx="232.53" cy="200.87" rx="2.72" ry="2.83"/><ellipse class="cls-17" cx="232.53" cy="221.89" rx="2.72" ry="2.83"/><path class="cls-18" d="M232.53,245.75a2.83,2.83,0,1,0-2.72-2.83A2.79,2.79,0,0,0,232.53,245.75Z"/><path class="cls-18" d="M232.53,266.77a2.83,2.83,0,1,0-2.72-2.82A2.79,2.79,0,0,0,232.53,266.77Z"/><path class="cls-18" d="M232.53,287.8a2.83,2.83,0,1,0-2.72-2.83A2.79,2.79,0,0,0,232.53,287.8Z"/><polygon class="cls-19" points="259.83 85.26 232.52 85.26 205.23 85.26 130.87 85.26 179.72 71.87 210.67 26.45 232.49 30.46 254.39 26.45 285.34 71.87 334.19 85.26 259.83 85.26"/><path class="cls-20" d="M259.83,82.93H139.35c-2.68,0-5.4-.12-8.09,0h-.39l.62,4.58,17.87-4.9,26.76-7.33c1.69-.47,4.53-.72,5.63-2.25s2.14-3.14,3.2-4.71L200.7,45.21,208.36,34c1.37-2,2.87-4,4.12-6.05.06-.1.13-.19.2-.29l-2.63,1.07,19.28,3.55c.84.16,1.67.33,2.52.46a8.33,8.33,0,0,0,2.84-.28l11.2-2.06L255,28.69l-2.63-1.07,9.89,14.52,16.38,24L283,72.61a3.41,3.41,0,0,0,1.82,1.54c.71.24,1.46.41,2.19.6l25,6.86,13.64,3.73c2.5.69,5,1.51,7.54,2.07l.36.1.62-4.58H259.83c-3,0-3,4.66,0,4.66h74.36a2.34,2.34,0,0,0,.62-4.57L318.33,78.5,292,71.29,286,69.63l1.39,1.07L276.86,55.3,260.23,30.88l-3.82-5.61a2.45,2.45,0,0,0-2.64-1.07l-19.18,3.52-2.72.5h1.24L214,24.7l-2.7-.5a2.43,2.43,0,0,0-2.63,1.07l-10.49,15.4L181.54,65.08l-3.83,5.62,1.39-1.07-16.48,4.51-26.3,7.21L130.25,83a2.34,2.34,0,0,0,.62,4.57h129C262.83,87.59,262.84,82.93,259.83,82.93Z"/><path class="cls-12" d="M261.5,94.06c1.6,2.27-1.55,3.31-3.17,1-2.77-3.91-8.95-3.75-12.92-1.33-2.34,1.42-4.43-2.26-2.08-3.69C249.09,86.59,257.46,88.4,261.5,94.06Z"/><circle class="cls-21" cx="252.43" cy="110.66" r="5.81"/><path d="M252.6,114a3,3,0,1,1,3-3A3,3,0,0,1,252.6,114Z"/><path d="M252.6,108.53a2.55,2.55,0,1,1-2.55,2.55,2.55,2.55,0,0,1,2.55-2.55m0-.82a3.37,3.37,0,1,0,3.37,3.37,3.37,3.37,0,0,0-3.37-3.37Z"/><path class="cls-22" d="M254.85,108.37a1.13,1.13,0,1,1-1.13-1.13A1.13,1.13,0,0,1,254.85,108.37Z"/><circle class="cls-21" cx="212.64" cy="110.66" r="5.81"/><path d="M212.8,114a3,3,0,1,1,3-3A3,3,0,0,1,212.8,114Z"/><path d="M212.8,108.53a2.55,2.55,0,1,1-2.55,2.55,2.55,2.55,0,0,1,2.55-2.55m0-.82a3.37,3.37,0,1,0,3.37,3.37,3.38,3.38,0,0,0-3.37-3.37Z"/><path class="cls-22" d="M215.06,108.37a1.13,1.13,0,1,1-1.13-1.13A1.13,1.13,0,0,1,215.06,108.37Z"/><path class="cls-23" d="M200,322.9a4.31,4.31,0,0,0,4.31-4.1c0-.9.07-1.8.07-2.71,0-41.55-45.76-75.22-102.19-75.22S0,274.54,0,316.09c0,.91,0,1.81.07,2.71a4.3,4.3,0,0,0,4.3,4.1Z"/><path class="cls-24" d="M141.55,269.05c-16.29,0-29.47,3.48-29.47,7.78s13.18,7.77,29.47,7.77S171,281.13,171,276.83s-13.18-7.78-29.49-7.78Zm-83,13.62c-21.32,0-38.59,4.54-38.59,10.19S37.2,303,58.52,303s38.58-4.55,38.58-10.16-17.27-10.19-38.58-10.19Zm39.09-34c-15.37,0-27.82,3.27-27.82,7.32s12.45,7.34,27.82,7.34,27.8-3.28,27.8-7.34S113,248.7,97.61,248.7Z"/><path class="cls-25" d="M403.84,347.13a5,5,0,0,0,5-4.94c0-.26,0-.53,0-.8,0-35-38.55-63.35-86.07-63.35s-86.05,28.36-86.05,63.35v.8a5,5,0,0,0,5,4.94Z"/><path class="cls-26" d="M334.65,334.23c27.19,0,49.38-4.57,49.38-10.19s-22.19-10.16-49.38-10.16-49.37,4.57-49.37,10.16,22.17,10.19,49.37,10.19Z"/><path class="cls-27" d="M311.87,376.94a5,5,0,0,0,5-4.79c0-.77,0-1.55,0-2.32,0-43.26-47.62-78.3-106.37-78.3s-106.39,35-106.39,78.3h0a7.13,7.13,0,0,0,7.11,7.11Z"/><path class="cls-28" d="M173.21,324.47c6.32,0,11.46,2.11,11.46,4.69s-5.14,4.7-11.46,4.7-11.44-2.11-11.44-4.7,5.12-4.69,11.44-4.69Zm62.6-3.68c6.33,0,11.47,2.11,11.47,4.7s-5.14,4.69-11.47,4.69-11.46-2.11-11.46-4.69,5.14-4.7,11.46-4.7Zm28.32,31.46c8.88,0,16.09,3,16.09,6.59s-7.21,6.61-16.09,6.61-16.09-3-16.09-6.61,7.21-6.59,16.09-6.59Zm-59.78,0c8.88,0,16.09,3,16.09,6.59s-7.21,6.61-16.09,6.61-16.09-3-16.09-6.61,7.21-6.59,16.09-6.59Zm-57.91-6.59c8.88,0,16.09,2.94,16.09,6.59s-7.21,6.59-16.09,6.59-16.11-2.94-16.11-6.59,7.21-6.59,16.11-6.59Z"/></g></g></svg>