<svg id="Layer_1" data-name="Layer 1" xmlns="http://www.w3.org/2000/svg" viewBox="0 0 500 500"><defs><style>.cls-1{fill:#df002d;}</style></defs><title>v4 Icons for loan application</title><path class="cls-1" d="M248.35,70.08a179.48,179.48,0,0,1,49,6.32A177.1,177.1,0,0,1,361.93,109a178.92,178.92,0,0,1,49.41,60.81c1.28,2.53,1.47,3.84-1.7,5-4.63,1.77-9,4.25-13.47,6.4-1.3.62-2.06.74-3-1.06a165.78,165.78,0,0,0-17.89-28.3A160.94,160.94,0,0,0,350,126.17a152.92,152.92,0,0,0-33.33-20.43,173.29,173.29,0,0,0-36.34-11.61c-14-2.93-28.12-3-42.18-2.25a147,147,0,0,0-38.72,7.73,162.16,162.16,0,0,0-39.22,19.45,152.87,152.87,0,0,0-47.31,50.84c-2,3.48-3.9,7.06-5.7,10.67-.6,1.21-1,1.34-2.25.78-5.1-2.38-10.24-4.7-15.42-6.9-1.87-.79-1.82-1.71-1-3.29a184.16,184.16,0,0,1,23.82-36.5,181.06,181.06,0,0,1,42.33-37,175.94,175.94,0,0,1,56.71-23.38C224.21,71.52,237.1,69.56,248.35,70.08Z"/><path class="cls-1" d="M106.49,317.64a154.45,154.45,0,0,0,35.92,49,157.52,157.52,0,0,0,48.76,30.56,172.61,172.61,0,0,0,36.1,9.69A55.26,55.26,0,0,0,237.85,408c7.34-.23,14.63.77,22.06.13a183.21,183.21,0,0,0,41.21-7.92,155.4,155.4,0,0,0,46.35-24.63,153.12,153.12,0,0,0,24.62-23.74A156.45,156.45,0,0,0,392.84,320c.66-1.35,1.18-2.28,3-1.39,5,2.38,10,4.57,15.06,6.76,1.69.73,1.67,1.51.93,3.11-5.46,11.81-12.61,22.56-20.54,32.79a155.66,155.66,0,0,1-17.44,19.13,187.9,187.9,0,0,1-54,35.2,197.83,197.83,0,0,1-36.07,11.2c-16.2,3.47-32.83,3.76-49.2,2.42a172.86,172.86,0,0,1-68.73-20.56,179.63,179.63,0,0,1-30.43-20.6,195.79,195.79,0,0,1-34.3-37.69c-4.85-7-8.71-14.46-12.79-21.86-1.12-2,0-2.24,1.33-2.88C95.29,323.05,100.85,320.35,106.49,317.64Z"/><path class="cls-1" d="M312.51,231.49c-10.32-1.56-20.38-3.18-30.6-1.18-2.91.57-3.77,2.81-4,5.38s-.06,4.53,3,5.49a17.54,17.54,0,0,0,6,.72,63.79,63.79,0,0,1,17.81,1.8c7.43,2,11.6,7.38,12.77,14.5,1.27,7.77.29,15.42-6.36,21a24.23,24.23,0,0,1-15.1,5.71c-9.64.25-19.25.53-28.92-2-5.16-1.33-3.91-4.68-4.83-7.36-.72-2.12-.33-4.62-.38-7,0-2,1.61-1.05,2.15-.87,8.88,3.07,18.08,2.41,27.2,2.29,3.18,0,6.86-.42,8.15-4.08,1.74-4.91.77-9.89-7.6-9.92-6.69,0-13.36.07-19.91-1.67-4.85-1.27-10.85-6.81-11.5-13.29-1.41-14,5-23.21,19.2-25.76,10.11-1.82,20-.78,29.9,1.6,1.54.37,1.56,1,1.67,2.17C311.54,223.24,312,227.36,312.51,231.49Z"/><path class="cls-1" d="M82.58,189.72c5.14,1.86,10.84,3.84,16.46,6,1.33.52,1.17,1.73.69,3.15-7.12,20.64-9,42-7.74,63.61a143.39,143.39,0,0,0,7.6,37.93c.93,2.73.38,3.49-2,4.29-4.82,1.59-9.65,3.21-14.3,5.25-2.32,1-3-.06-3.44-1.67-2.65-9.15-5.34-18.28-7.11-27.66a173.23,173.23,0,0,1-2.26-43.4,162.57,162.57,0,0,1,9.7-46.1C80.56,190,80.89,189.51,82.58,189.72Z"/><path class="cls-1" d="M429.72,250.21c1.39,18.11-2.65,35.66-7.34,53.12-.07.26-.21.5-.3.76-2.4,6.41-2.41,6.44-9.13,4.21-2-.67-4-1.65-6-2.34-2.35-.79-6-.72-6.62-2.75s1.44-4.68,2.07-7.14c2.9-11.38,5.38-22.81,6-34.63.25-4.64.86-9.28.64-13.92-.77-16.1-2.56-32.05-8.08-47.33-1.08-3-.72-4.37,2.53-5.42a96.44,96.44,0,0,0,13.57-5c1.15-.57,3-1.35,3.54,1.17,2.05,9,5.22,17.73,6.84,26.89A134.07,134.07,0,0,1,429.72,250.21Z"/><path class="cls-1" d="M248.7,238.1c-1.51-7.78-4.55-15-12-19.34-9.14-5.37-19-5.22-28.78-3.11-3.87.84-3.14-.76-3.14-2.82,0-11.46,0-22.93,0-34.53-4.75.49-9.07.83-13.36,1.42-2.15.29-5-.37-5,3.56q.12,47.49,0,95c0,1.86.56,2.43,2.29,3a81.82,81.82,0,0,0,37.45,3c11.54-1.65,19.05-9.69,21.8-20.26A58.22,58.22,0,0,0,248.7,238.1Zm-18.64,20.15c-1.83,8.23-5.27,11.2-13.64,11.62-10.6.52-11.4-.21-11.4-10.53v-9.12c0-5.25.2-10.51-.08-15.74-.14-2.78,1-3.71,3.42-3.89.28,0,.55-.06.83-.1,16-2.1,21.39,2.55,21.53,18.69A40.69,40.69,0,0,1,230.06,258.25Z"/><path class="cls-1" d="M173.12,237.36c-.37-9.36-3.39-17.24-15.07-20.85-11.36-3.5-22.8-2.56-34.16.47-1.22.33-2.06.78-2.11,2.09-.17,4.08-1.57,8.08-.56,12.59,4.65-1.56,9.61-1.52,14.43-2a40.08,40.08,0,0,1,14.7.67c3.87,1,5,3.14,4.65,8.62-.23,3.76-3.49,2.66-5.16,2.84-5,.52-10.1.15-15.16.94-6.32,1-12.76,2.43-16,8.15-8.25,14.43-2.35,32.44,17.91,34.14a88.23,88.23,0,0,0,33.2-3.24c2.3-.7,3.61-1.73,3.57-4.58C173.15,263.89,173.63,250.61,173.12,237.36ZM154.43,257.8a27.22,27.22,0,0,0,0,4.14c0,8.16,0,8.17-8.37,8.27a23.82,23.82,0,0,1-7-.78c-4.06-1.15-5.38-4.07-5.32-7.84.07-4,2.46-6,6.25-6.38,3.58-.36,7.19-.36,10.75-.81C153.57,254,154.88,254.73,154.43,257.8Z"/><path class="cls-1" d="M385,256.54V245.75c0-3.6.16-7.2,0-10.79-.42-7.63-4.72-15.09-13.3-18-11.4-3.9-22.73-2.87-34.13-.28-1.86.43-2.9.71-3.47,3.28-.79,3.48.29,7.08-1.27,10.46-.71,1.54.65.9,1.54.8,7.87-.82,15.72-2.3,23.68-1.71,7,.53,9.15,2.22,9.55,8.83.1,1.65-.06,2.45-2.22,2.93-5.94,1.32-12,.33-17.93,1.38-6.53,1.15-12.72,2.46-16.7,8.34-3.24,4.77-3.66,10.31-2.92,15.7,1.25,9.08,5.49,14.42,13.36,16.56,13.83,3.76,27.72,2.37,41.37-1.84,2.19-.67,2.56-1.66,2.53-3.69C385,270.64,385,263.59,385,256.54Zm-18.17,5.26c0,8.32,0,8.31-8.63,8.43a20.79,20.79,0,0,1-7.35-1c-3.87-1.39-5.1-4.36-4.85-8.17s2.59-5.43,5.91-5.82c4.25-.48,8.54-.57,12.8-.94,1.67-.14,2.22.47,2.14,2.07C366.8,258.2,366.87,260,366.87,261.8Z"/></svg>