<svg id="Layer_1" data-name="Layer 1" xmlns="http://www.w3.org/2000/svg" viewBox="0 0 500 500"><defs><style>.cls-1{fill:#5b6c7c;}.cls-2{fill:#37c1ce;}</style></defs><title>V2 Icons for loan application</title><path class="cls-1" d="M370.08,354.37c3.93-26.59,4.52-55.64,1.74-86.41a428.1,428.1,0,0,0-13-73.19,18.29,18.29,0,0,0-2-36.47h-9.59c-2.3-10.88-13-19.57-26.74-21.5-2.41-14-17.31-24.82-35.44-25.21C277.27,104.2,265.86,100,253.48,100s-23.85,4.22-31.71,11.64c-.81,0-1.62-.06-2.44-.06-18.56,0-34,11-36.44,25.22-13.73,1.93-24.44,10.61-26.74,21.5h-8.89c-9.88,0-18.34,7.63-18.76,17.49a18.32,18.32,0,0,0,12.85,18.26A426.41,426.41,0,0,0,128.18,268c-2.78,30.77-2.19,59.82,1.74,86.41-9.25,6.81-13.89,18.3-11.13,28.35,1.43,5.19,7.14,17.28,29.3,17.28H351.91c22.16,0,27.87-12.09,29.3-17.28C384,372.67,379.33,361.18,370.08,354.37ZM187.14,145.22a4.43,4.43,0,0,0,4.2-4.42c0-11.27,12.55-20.44,28-20.44,1.25,0,2.5.06,3.69.18a4.42,4.42,0,0,0,3.64-1.36c6.12-6.51,16.15-10.39,26.82-10.39s20.64,3.86,26.76,10.33a4.32,4.32,0,0,0,3.37,1.25h.51c15.44,0,28,9.16,28,20.42v.05a4.38,4.38,0,0,0,4.19,4.39c10.63.49,19.33,5.92,21.9,13.08h-173C167.82,151.14,176.52,145.71,187.14,145.22ZM372.72,380.39c-1.91,7-9.3,10.82-20.81,10.82H148.09c-11.51,0-18.9-3.84-20.82-10.82-1.85-6.75,1.86-14.95,8.69-19.52h35.86a4.4,4.4,0,0,0,4.39-4.39h0a4.4,4.4,0,0,0-4.39-4.4H138.48c-6.91-48.05-2.55-106.24,11.77-157.21h21.57a4.39,4.39,0,0,0,4.39-4.39h0a4.39,4.39,0,0,0-4.39-4.39H147.13a9.74,9.74,0,0,1-9.83-8.86,9.5,9.5,0,0,1,9.49-10.14H356.9a9.51,9.51,0,0,1,9.48,10.13,9.72,9.72,0,0,1-9.8,8.87h-26a4.39,4.39,0,0,0-4.39,4.39h0a4.39,4.39,0,0,0,4.39,4.39h19.15c14.32,51,18.68,109.16,11.77,157.21H330.6a4.4,4.4,0,0,0-4.39,4.39h0a4.4,4.4,0,0,0,4.39,4.39H364C370.87,365.44,374.58,373.64,372.72,380.39Z"/><path class="cls-1" d="M351.91,404H148.09c-8.3,0-28.14-2-33.15-20.22-3-10.9,1.28-23.12,10.69-31.12-3.67-26.27-4.16-54.87-1.44-85.06a433.71,433.71,0,0,1,12.38-71.2,22.29,22.29,0,0,1,10.69-42.1h5.86c3.62-10.32,13.72-18.37,26.47-21,4.29-15.1,21.25-26.09,40.7-25.72C228.81,100.2,240.8,96,253.48,96s24.73,4.23,33.25,11.64c18.14.93,33.16,11.4,37.15,25.68,12.74,2.62,22.84,10.66,26.46,21h6.56a22.29,22.29,0,0,1,6.89,43.49,436.3,436.3,0,0,1,12,69.81c2.72,30.19,2.23,58.79-1.44,85.06,9.41,8,13.69,20.22,10.69,31.12C380.05,402,360.21,404,351.91,404ZM147.26,162.3c-7.82,0-14.44,6.13-14.77,13.67a14.31,14.31,0,0,0,10,14.26l3.69,1.15-1,3.73a423.33,423.33,0,0,0-13,73.21c-2.74,30.44-2.17,59.2,1.72,85.47l.35,2.38-1.94,1.42c-8,5.86-11.92,15.76-9.64,24.07,3.56,12.94,19,14.34,25.44,14.34H351.91c6.46,0,21.88-1.4,25.44-14.34,2.28-8.31-1.68-18.21-9.64-24.07l-1.94-1.42.35-2.38c3.89-26.28,4.46-55,1.72-85.47A424.88,424.88,0,0,0,355,195.82l-1.24-4.53,4.67-.5a14.29,14.29,0,0,0-1.52-28.49H344.07l-.67-3.17c-2-9.3-11.37-16.68-23.39-18.37l-2.89-.4-.49-2.88c-2.09-12.14-15.67-21.55-31.58-21.89l-1.54,0-1.12-1c-7.1-6.67-17.64-10.5-28.91-10.5s-21.86,3.84-29,10.55l-1.24,1.17-1.7-.09c-.74,0-1.49,0-2.24,0-16.35,0-30.33,9.42-32.5,21.91l-.49,2.87-2.89.4c-12,1.69-21.42,9.07-23.39,18.37l-.67,3.17ZM351.91,395.21H148.09c-18.18,0-23.26-8.62-24.67-13.76-2.29-8.32,2-18.38,10.32-23.91l1-.67h37.07a.4.4,0,0,0,0-.79H135l-.49-3.43C127.58,304.34,132,245,146.4,193.79l.82-2.92h24.6a.39.39,0,1,0,0-.78H147.13A13.74,13.74,0,0,1,133.3,177.5a13.37,13.37,0,0,1,3.61-10.12,13.56,13.56,0,0,1,9.88-4.29H356.9a13.5,13.5,0,0,1,13.47,14.38,13.69,13.69,0,0,1-13.79,12.62h-26a.39.39,0,1,0,0,.78h22.18l.82,2.92C368,245,372.42,304.35,365.48,352.65l-.5,3.43H330.6a.4.4,0,0,0,0,.79h34.65l1,.67c8.27,5.53,12.61,15.59,10.32,23.91C375.17,386.59,370.09,395.21,351.91,395.21ZM137.25,364.87c-4.81,3.7-7.42,9.74-6.12,14.46,1.88,6.86,11.43,7.88,17,7.88H351.91c5.52,0,15.08-1,17-7.88h0c1.3-4.72-1.31-10.76-6.12-14.46H330.6a8.4,8.4,0,0,1,0-16.79H358c6-45.69,1.8-100.94-11.33-149.21H330.6a8.39,8.39,0,0,1,0-16.78h26a5.75,5.75,0,0,0,5.81-5.13,5.51,5.51,0,0,0-1.48-4.13,5.43,5.43,0,0,0-4-1.74H146.79a5.49,5.49,0,0,0-4,1.75,5.42,5.42,0,0,0-1.46,4.12,5.71,5.71,0,0,0,5.84,5.13h24.69a8.39,8.39,0,1,1,0,16.78H153.3C140.17,247.13,136,302.38,142,348.08h29.85a8.4,8.4,0,0,1,0,16.79ZM343.9,162.3H159.56l1.92-5.35c3.19-8.86,13.42-15.17,25.48-15.72h0a.45.45,0,0,0,.38-.42A20.81,20.81,0,0,1,193.87,126c6.09-6.1,15.37-9.6,25.46-9.6,1.38,0,2.75.07,4.08.2a.39.39,0,0,0,.33-.12c6.87-7.3,18-11.65,29.74-11.65s22.81,4.33,29.67,11.58c0,0,.06,0,.2,0h.06c.21,0,.42,0,.63,0,17.72,0,32.08,11,32.08,24.42a.41.41,0,0,0,.37.45c12.06.54,22.3,6.86,25.48,15.72ZM173,154.3H330.5a24.53,24.53,0,0,0-14.37-5.08,8.38,8.38,0,0,1-8-8.39c0-9-11-16.47-24-16.47h-.31a8.31,8.31,0,0,1-6.47-2.5c-5.38-5.69-14.3-9.08-23.86-9.08s-18.53,3.41-23.91,9.13a8.42,8.42,0,0,1-6.94,2.6c-1.07-.1-2.18-.16-3.3-.16-7.87,0-15.27,2.71-19.8,7.25a13.21,13.21,0,0,0-4.19,9.19,8.39,8.39,0,0,1-8,8.42h0A24.5,24.5,0,0,0,173,154.3Z"/><path class="cls-2" d="M317.46,240.13H306.19a23.91,23.91,0,0,0-.35-2.4l1.21-.6a18.08,18.08,0,0,0,10.05-16.26,14.73,14.73,0,0,0-16.59-14.59,18.54,18.54,0,0,0-36.25,0,14.73,14.73,0,0,0-16.6,14.6,18.07,18.07,0,0,0,10.06,16.25l1.21.6a24,24,0,0,0-.48,4.74v5.41a13.83,13.83,0,0,1-13.82,13.81h-23L185,240.8a5,5,0,0,0-7.54,4.37v8.54a23.28,23.28,0,0,0,6.87,16.57l3.89,3.88a.11.11,0,0,1,0,.08v3.26a59,59,0,0,0,49.32,58.12l3.55,17.69h-4.65a5,5,0,1,0,0,10.06h32.38a5,5,0,1,0,0-10.06H251.43l-3.38-16.9a59,59,0,0,0,58.26-58.91V250.2h11.15a5,5,0,1,0,0-10.07Zm-55.24-12a8.07,8.07,0,0,1-4.48-7.26,4.65,4.65,0,0,1,6.12-4.41l3.44,1.14a5,5,0,0,0,6.63-4.77v-2.7a8.46,8.46,0,0,1,16.91,0v2.69a5,5,0,0,0,6.63,4.77l3.43-1.14a4.66,4.66,0,0,1,6.13,4.42,8.06,8.06,0,0,1-4.49,7.25l-.76.38a23.92,23.92,0,0,0-38.8,0Zm34,49.37a48.93,48.93,0,0,1-97.86,0v-3.26a10.24,10.24,0,0,0-3-7.19l-3.89-3.89a13.24,13.24,0,0,1-3.92-9.32l27.82,15.87a37.44,37.44,0,0,0,37.29,34.38h10.8a5,5,0,1,0,0-10.07h-10.8a27.36,27.36,0,0,1-26.86-22.27h18.79a23.87,23.87,0,0,0,23.91-23.87v-5.41a13.85,13.85,0,0,1,27.7,0Z"/><path class="cls-2" d="M268.89,365.37H236.51a7,7,0,1,1,0-14.06h2.21l-2.8-13.95a60.73,60.73,0,0,1-49.63-59.86V275L183,271.69a25.22,25.22,0,0,1-7.46-18v-8.54A7,7,0,0,1,186,239.06l36.16,20.63h22.44a11.83,11.83,0,0,0,11.82-11.81v-5.41a25.68,25.68,0,0,1,.26-3.61,20.06,20.06,0,0,1-11-18,16.77,16.77,0,0,1,5.7-12.57,16.41,16.41,0,0,1,11.38-4.15,20.54,20.54,0,0,1,39.28,0,16.42,16.42,0,0,1,11.38,4.15,16.78,16.78,0,0,1,5.7,12.56,20,20,0,0,1-9.73,17.26h8.09a7,7,0,1,1,0,14.07h-9.15v25.3a61.21,61.21,0,0,1-57.84,60.84l2.6,13h15.82a7,7,0,1,1,0,14.06Zm-32.38-10.06a3,3,0,1,0,0,6.06h32.38a3,3,0,1,0,0-6.06h-19.1l-4.18-20.87,2.41,0a57.16,57.16,0,0,0,56.29-56.91V248.2h13.15a3,3,0,1,0,0-6.07H304.38l-.18-1.8c-.07-.73-.18-1.47-.32-2.2l-.31-1.5,2.58-1.29a16.09,16.09,0,0,0,9-14.47,12.75,12.75,0,0,0-4.35-9.56,12.54,12.54,0,0,0-10-3.05l-1.82.23-.39-1.79a16.54,16.54,0,0,0-32.34,0l-.38,1.79-1.83-.23a12.57,12.57,0,0,0-10,3.05,12.76,12.76,0,0,0-4.34,9.57,16.07,16.07,0,0,0,9,14.46l2.57,1.29-.3,1.5a21.89,21.89,0,0,0-.44,4.34v5.41a15.83,15.83,0,0,1-15.82,15.81H221.12l-37.07-21.16a3,3,0,0,0-4.55,2.64v8.54a21.22,21.22,0,0,0,6.29,15.15l4.47,4.47,0,.91v3.26a56.74,56.74,0,0,0,47.65,56.15l1.36.23,4.3,21.43Zm10.79-26.95a51,51,0,0,1-50.93-50.86v-3.26a8.2,8.2,0,0,0-2.4-5.78l-3.89-3.88a15.25,15.25,0,0,1-4.5-10.73l0-3.48,31.76,18.13.08,1.05a35.56,35.56,0,0,0,35.3,32.54h10.8a3,3,0,1,0,0-6.07h-10.8a29.33,29.33,0,0,1-28.83-23.9l-.44-2.37h21.2a21.92,21.92,0,0,0,21.91-21.87v-5.41a15.85,15.85,0,0,1,31.7,0v35A51,51,0,0,1,247.3,328.36Zm-57-70.67a11.38,11.38,0,0,0,2.62,4.06l3.89,3.88a12.25,12.25,0,0,1,3.57,8.61v3.26a46.93,46.93,0,0,0,93.86,0v-35a11.85,11.85,0,0,0-23.7,0v5.41a25.91,25.91,0,0,1-25.91,25.87H228.36A25.33,25.33,0,0,0,252.69,292h10.8a7,7,0,1,1,0,14.07h-10.8a39.59,39.59,0,0,1-39.19-35.16Zm110.87-26.64-1-1.37a21.92,21.92,0,0,0-35.56,0l-1,1.37-2.28-1.13a10.05,10.05,0,0,1-5.59-9,6.66,6.66,0,0,1,8.75-6.31l3.44,1.15a3.08,3.08,0,0,0,2.74-.42,3,3,0,0,0,1.26-2.46v-2.7a10.46,10.46,0,0,1,20.91,0v2.69a3,3,0,0,0,4,2.88l3.43-1.15a6.67,6.67,0,0,1,8.76,6.32,10,10,0,0,1-5.59,9Zm-6.32-11.27a26.07,26.07,0,0,1,7.48,6.17,6.07,6.07,0,0,0,2.71-5.07,2.66,2.66,0,0,0-1.1-2.16,2.7,2.7,0,0,0-2.4-.36l-3.43,1.14A7.11,7.11,0,0,1,294.84,219.78Zm-32.45-1.56a2.65,2.65,0,0,0-2.65,2.65,6.09,6.09,0,0,0,2.7,5.08,26.24,26.24,0,0,1,7.49-6.17,7.09,7.09,0,0,1-3.26-.28l-3.44-1.14A2.64,2.64,0,0,0,262.39,218.22Zm20-14.53a6.45,6.45,0,0,0-6.45,6.44v2.7a7,7,0,0,1-2.46,5.34,26.22,26.22,0,0,1,17.82,0,7.07,7.07,0,0,1-2.45-5.34v-2.69A6.46,6.46,0,0,0,282.38,203.69Z"/></svg>