<svg id="Layer_1" data-name="Layer 1" xmlns="http://www.w3.org/2000/svg" viewBox="0 0 500 500"><defs><style>.cls-1{fill:#37c1ce;}.cls-2{fill:#5b6c7c;}</style></defs><title>V2 Icons for loan application</title><path class="cls-1" d="M192.28,238h0Z"/><path class="cls-1" d="M192.71,238.2l-.35-.2-.2-.05h-.38l.07-.25.23.14.37.11h.33v.13Zm-.22-.17.25.1Z"/><path class="cls-1" d="M192.28,190.46v0Z"/><path class="cls-1" d="M192.75,190.63l-.6-.16h-.37l0-.17.54.16h.43Zm0,0Z"/><path class="cls-1" d="M201.07,198.82a6.54,6.54,0,0,0-4,4.28v0c-.06.21-.11.42-.15.64a5.7,5.7,0,0,1,.15-.62c-1.25,3.91-6.08,22.41,7.55,39.05a32.2,32.2,0,0,0-3.52,1,6.54,6.54,0,0,0-4,4.28v0c-.06.21-.11.42-.15.64a5.43,5.43,0,0,1,.15-.63c-1.33,4.16-6.79,25.06,10.67,42.51a41.25,41.25,0,0,0,29.84,12.55,45,45,0,0,0,5.91-.39v20.34h13.07V302.14a44.23,44.23,0,0,0,6,.4A41.25,41.25,0,0,0,292.35,290c17.44-17.43,12-38.31,10.66-42.54a6.54,6.54,0,0,0-4-4.28,29.79,29.79,0,0,0-3.52-1c13.62-16.64,8.8-35.14,7.54-39.09a6.54,6.54,0,0,0-4-4.28,29.79,29.79,0,0,0-3.52-1c13.62-16.64,8.8-35.14,7.54-39.09a6.54,6.54,0,0,0-4-4.28,43,43,0,0,0-23.91-.63,45.77,45.77,0,0,0,.64-7.62c0-24.65-18.6-35.58-22.55-37.62a6.55,6.55,0,0,0-5.87-.18c-.93.43-22.9,11-22.9,37.8a45.93,45.93,0,0,0,.63,7.63,43,43,0,0,0-24,.62,6.52,6.52,0,0,0-4,4.28v0a6.23,6.23,0,0,0-.15.62c.05-.25.1-.46.14-.59-1.26,3.95-6,22.41,7.56,39A29.79,29.79,0,0,0,201.07,198.82Zm42.39,86.26A29.62,29.62,0,0,1,243,289a29.69,29.69,0,0,1-34.33-34.35,29.92,29.92,0,0,1,14.12.88c.55.21,1.11.41,1.66.59a29.63,29.63,0,0,1,10.28,6.8,28.66,28.66,0,0,1,8.7,19.37Zm0-44.35a29.43,29.43,0,0,1-.43,3.94,29.84,29.84,0,0,1-14.21-.9l-1.53-.54A29.47,29.47,0,0,1,217,236.41a28.89,28.89,0,0,1-8.25-26.09,30,30,0,0,1,14.18.9c.52.2,1,.38,1.55.55a29.67,29.67,0,0,1,10.33,6.82,28.66,28.66,0,0,1,8.7,19.37Zm39.65,40A29,29,0,0,1,257,289a29,29,0,0,1,8.27-26.08,29.63,29.63,0,0,1,10.28-6.8c.55-.18,1.1-.38,1.66-.59a29.92,29.92,0,0,1,14.12-.88A28.89,28.89,0,0,1,283.11,280.76Zm0-44.35a29.63,29.63,0,0,1-10.28,6.8c-.55.18-1.1.38-1.65.58a29.79,29.79,0,0,1-14.15.88,29,29,0,0,1,8.27-26.08,29.69,29.69,0,0,1,10.32-6.82c.52-.17,1.05-.36,1.57-.55a29.79,29.79,0,0,1,14.17-.9A28.89,28.89,0,0,1,283.11,236.41Zm-19.59-60.24c.66-.66,1.31-1.36,2-2.11A29,29,0,0,1,291.36,166a28.86,28.86,0,0,1-8.25,26.08,29.71,29.71,0,0,1-10.33,6.83c-.52.17-1,.35-1.55.55a29.89,29.89,0,0,1-14.2.89A29,29,0,0,1,263.52,176.17ZM250,122A29.78,29.78,0,0,1,256,165.11c-.75.76-1.46,1.52-2.12,2.29a32,32,0,0,1-3.77,3.11,29.61,29.61,0,0,1-4.19-3.53c-.42-.47-.86-.94-1.31-1.41a28.65,28.65,0,0,1-7.1-19.35A29,29,0,0,1,250,122ZM208.7,166a29,29,0,0,1,26.06,8.27c.13.12.24.25.36.38.3.32.59.64.89.94a28.5,28.5,0,0,1,7.45,18.05v2.77a29.62,29.62,0,0,1-.43,3.94,29.8,29.8,0,0,1-14.25-.92l-1.45-.51A29.4,29.4,0,0,1,217,192.05,28.86,28.86,0,0,1,208.7,166Z"/><path class="cls-1" d="M243,323V302.71a45,45,0,0,1-5.42.33,41.92,41.92,0,0,1-30.19-12.69c-17.68-17.68-12.1-38.91-10.8-43h0a7.1,7.1,0,0,1,4.34-4.63,28.74,28.74,0,0,1,2.8-.81c-13.23-16.77-8.28-35.3-7.14-38.9h0a7.08,7.08,0,0,1,4.34-4.63,28.94,28.94,0,0,1,2.8-.81c-13.23-16.77-8.28-35.3-7.14-38.88h0v0A7.08,7.08,0,0,1,200.9,154a43.88,43.88,0,0,1,23.52-.82,45.9,45.9,0,0,1-.52-7c0-27.18,22.25-37.81,23.19-38.25a7.07,7.07,0,0,1,6.32.2c3.8,2,22.8,13,22.8,38.05a47.19,47.19,0,0,1-.51,6.95,43.8,43.8,0,0,1,23.46.83,7,7,0,0,1,4.33,4.61c1.14,3.58,6.11,22.15-7.13,38.93a27.8,27.8,0,0,1,2.8.81,7.08,7.08,0,0,1,4.33,4.61c1.14,3.58,6.11,22.15-7.13,38.93a27.8,27.8,0,0,1,2.8.81,7.08,7.08,0,0,1,4.33,4.61c1.3,4.08,6.9,25.35-10.79,43A41.92,41.92,0,0,1,262.51,303a46,46,0,0,1-5.48-.33V323H243Zm1-21.41V322H256V301.57l.56.08a45.64,45.64,0,0,0,5.92.4A41,41,0,0,0,292,289.64c17.27-17.27,11.81-38,10.54-42a6,6,0,0,0-3.72-4,28.86,28.86,0,0,0-3.46-1l-.79-.18.52-.62c13.53-16.54,8.58-35.08,7.45-38.63a6,6,0,0,0-3.72-4,28.86,28.86,0,0,0-3.46-1l-.79-.18.52-.62c13.54-16.55,8.58-35.08,7.45-38.63a6,6,0,0,0-3.72-4,42.55,42.55,0,0,0-23.61-.62l-.75.2.13-.76a45,45,0,0,0,.63-7.54c0-24.42-18.56-35.25-22.27-37.17a6.09,6.09,0,0,0-5.44-.18c-.92.43-22.62,10.8-22.62,37.35a46.06,46.06,0,0,0,.63,7.55l.13.77-.75-.2a42.54,42.54,0,0,0-23.66.6,6.06,6.06,0,0,0-3.71,3.95,4.58,4.58,0,0,0-.14.56s0,0,0,.05h0c-1.35,4.58-5.32,22.21,7.63,38l.52.62-.79.18a28,28,0,0,0-3.46,1h0a6.06,6.06,0,0,0-3.71,4l-.09.33c0,.08,0,.17-.06.28h0c-1.36,4.61-5.31,22.22,7.63,38l.52.62-.79.18a30.63,30.63,0,0,0-3.46,1,6.06,6.06,0,0,0-3.71,4,4.92,4.92,0,0,0-.15.61h0c-1.5,5.09-5.87,24.86,10.72,41.45a41,41,0,0,0,29.49,12.41,44.46,44.46,0,0,0,5.85-.4ZM262.42,290a32.26,32.26,0,0,1-5.48-.48l-.34-.07-.06-.34A29.39,29.39,0,0,1,265,262.59a30.28,30.28,0,0,1,10.44-6.92c.58-.19,1.13-.38,1.68-.59a30.28,30.28,0,0,1,14.37-.9l.35.06.06.34a29.34,29.34,0,0,1-8.39,26.53h0A29.08,29.08,0,0,1,262.42,290Zm-5-1.41a28.34,28.34,0,0,0,25.3-8.19h0a28.36,28.36,0,0,0,8.17-25.3,29.29,29.29,0,0,0-13.54.92c-.54.21-1.1.41-1.66.59a29.23,29.23,0,0,0-10.08,6.69A28.37,28.37,0,0,0,257.46,288.59ZM237.64,290a30.25,30.25,0,0,1-29.43-35.42l.06-.34.35-.06a30.29,30.29,0,0,1,14.35.89c.57.22,1.12.41,1.67.59a30.38,30.38,0,0,1,10.47,6.93,29.41,29.41,0,0,1,8.85,19.7v2.81a30.94,30.94,0,0,1-.44,4l-.06.34-.34.06A31.08,31.08,0,0,1,237.64,290Zm-28.51-34.9a29.2,29.2,0,0,0,33.47,33.49,31.31,31.31,0,0,0,.37-3.52v-2.76a28.09,28.09,0,0,0-8.56-19,29.32,29.32,0,0,0-10.11-6.7c-.53-.17-1.1-.37-1.66-.58A29.15,29.15,0,0,0,209.13,255.1Zm53.23-9.46a30.53,30.53,0,0,1-5.42-.48l-.34-.06-.06-.34A29.39,29.39,0,0,1,265,218.24a30.13,30.13,0,0,1,10.49-6.93c.54-.18,1.06-.37,1.58-.56a30.28,30.28,0,0,1,14.42-.92l.35.06.06.34a29.35,29.35,0,0,1-8.39,26.53h0A30.32,30.32,0,0,1,273,243.68c-.57.18-1.11.38-1.66.58A29.67,29.67,0,0,1,262.36,245.64Zm-4.9-1.4a29.15,29.15,0,0,0,13.57-.92c.53-.2,1.09-.4,1.64-.58a29.26,29.26,0,0,0,10.09-6.69h0a28.36,28.36,0,0,0,8.17-25.3,29.28,29.28,0,0,0-13.59.94c-.51.19-1,.38-1.56.55a29.35,29.35,0,0,0-10.13,6.7A28.4,28.4,0,0,0,257.46,244.24Zm-19.76,1.4a29.64,29.64,0,0,1-9-1.39c-.53-.2-1-.38-1.54-.54a30.33,30.33,0,0,1-10.54-7,29.36,29.36,0,0,1-8.38-26.53l.06-.34.35-.06a30.27,30.27,0,0,1,14.42.92c.53.2,1,.38,1.54.54a30.2,30.2,0,0,1,10.53,7,29.41,29.41,0,0,1,8.85,19.7v2.82a31,31,0,0,1-.44,4l-.06.34-.34.06A30.53,30.53,0,0,1,237.7,245.64Zm-28.57-34.89a28.36,28.36,0,0,0,8.17,25.3,29.28,29.28,0,0,0,10.17,6.72c.49.16,1,.34,1.52.54a29.2,29.2,0,0,0,13.61.93,31.07,31.07,0,0,0,.37-3.52V238a28.09,28.09,0,0,0-8.56-19,29.34,29.34,0,0,0-10.16-6.72c-.5-.16-1-.34-1.54-.54A29.23,29.23,0,0,0,209.13,210.75Zm53.23-9.46a30.53,30.53,0,0,1-5.42-.48l-.34-.06-.06-.34a29.43,29.43,0,0,1,6.6-24.57l0,0c.64-.64,1.29-1.34,1.94-2.08a29.4,29.4,0,0,1,26.33-8.26l.35.07.06.34a29.33,29.33,0,0,1-8.39,26.52,30.05,30.05,0,0,1-10.5,6.94l-1.56.55A29.47,29.47,0,0,1,262.36,201.29Zm-4.9-1.4a29.41,29.41,0,0,0,13.62-.94c.5-.19,1-.37,1.54-.54a29.28,29.28,0,0,0,10.14-6.71,28.37,28.37,0,0,0,8.17-25.3,28.36,28.36,0,0,0-25.1,8c-.63.72-1.29,1.43-1.94,2.08A28.44,28.44,0,0,0,257.46,199.89Zm-19.76,1.4a29.74,29.74,0,0,1-9.08-1.41c-.5-.19-1-.36-1.45-.51a30.31,30.31,0,0,1-10.58-7,29.34,29.34,0,0,1-8.38-26.52l.06-.34.35-.06a29.33,29.33,0,0,1,26.49,8.41l.37.38.89.95A28.81,28.81,0,0,1,244,193.58v2.8a30.86,30.86,0,0,1-.44,4l-.06.34-.34.06A31.5,31.5,0,0,1,237.7,201.29ZM209.13,166.4a28.37,28.37,0,0,0,8.17,25.3,29.23,29.23,0,0,0,10.21,6.73c.46.15,1,.32,1.44.51a29.28,29.28,0,0,0,13.65.95,31.49,31.49,0,0,0,.37-3.53V193.6a27.87,27.87,0,0,0-7.33-17.7l-.89-1-.34-.36A28.38,28.38,0,0,0,209.13,166.4Zm40.92,4.72-.28-.2a31.4,31.4,0,0,1-4.26-3.59c-.43-.48-.87-1-1.31-1.41a29.08,29.08,0,0,1-7.24-19.7,29.37,29.37,0,0,1,12.79-24.68l.28-.2.29.2a30.29,30.29,0,0,1,6,43.89c-.75.76-1.46,1.52-2.14,2.3a31,31,0,0,1-3.86,3.19Zm0-48.56a29.32,29.32,0,0,0-5.11,42.69c.44.45.88.92,1.31,1.4a29.35,29.35,0,0,0,3.81,3.25,28.89,28.89,0,0,0,3.43-2.86c.66-.76,1.39-1.54,2.12-2.28a29.31,29.31,0,0,0-5.56-42.2Z"/><path class="cls-1" d="M71.86,246.83c-1.31,4.09-6.83,25,10.67,42.54a41.25,41.25,0,0,0,29.84,12.55,45.16,45.16,0,0,0,5.91-.39v21l13.06-.14V301.52a44.35,44.35,0,0,0,6,.4,41.25,41.25,0,0,0,29.85-12.55c17.44-17.43,12-38.31,10.66-42.54a6.54,6.54,0,0,0-4-4.28,30.48,30.48,0,0,0-3.52-1c13.62-16.64,8.8-35.14,7.54-39.09a6.54,6.54,0,0,0-4-4.28,43,43,0,0,0-23.91-.63,45.8,45.8,0,0,0,.63-7.62c0-24.66-18.59-35.58-22.54-37.62a6.52,6.52,0,0,0-5.87-.18c-.94.43-22.91,10.94-22.91,37.8a45.06,45.06,0,0,0,.64,7.64,43,43,0,0,0-24,.61,6.53,6.53,0,0,0-4,4.28c-1.23,3.82-6.14,22.39,7.53,39.09a31.2,31.2,0,0,0-3.52,1A6.57,6.57,0,0,0,71.86,246.83Zm86.07,33.31a29,29,0,0,1-26.08,8.26,29,29,0,0,1,8.27-26.08,29.6,29.6,0,0,1,10.27-6.8c.55-.18,1.11-.38,1.67-.59a29.89,29.89,0,0,1,14.11-.88A28.88,28.88,0,0,1,157.93,280.14Zm-19.56-60.28c.63-.63,1.25-1.31,1.88-2a29,29,0,0,1,25.92-8.14,28.85,28.85,0,0,1-8.24,26.08,29.56,29.56,0,0,1-10.29,6.81l-1.65.58a29.75,29.75,0,0,1-14.14.88A29,29,0,0,1,138.37,219.86Zm-13.52-54.19a29.79,29.79,0,0,1,5.87,43.23q-1.08,1.08-2,2.19a31,31,0,0,1-3.81,3.15,31.21,31.21,0,0,1-4.24-3.59c-.39-.43-.8-.87-1.22-1.3a28.71,28.71,0,0,1-7.14-19.4A29,29,0,0,1,124.85,165.67Zm-41.33,44A29,29,0,0,1,109.58,218l.46.48.69.74a28.53,28.53,0,0,1,7.55,18.15v2.77a29.47,29.47,0,0,1-.44,3.94,29.84,29.84,0,0,1-14.21-.9l-1.52-.54a29.63,29.63,0,0,1-10.35-6.83A28.88,28.88,0,0,1,83.52,209.7Zm0,44.35a29.87,29.87,0,0,1,14.11.88c.56.21,1.12.41,1.67.59a29.72,29.72,0,0,1,10.28,6.8,28.71,28.71,0,0,1,8.7,19.37v2.77a31.39,31.39,0,0,1-.43,3.94,29.68,29.68,0,0,1-34.33-34.35Z"/><path class="cls-1" d="M117.78,323V302.09a44.76,44.76,0,0,1-5.41.33h0a41.94,41.94,0,0,1-30.19-12.69c-17.71-17.71-12.09-39-10.78-43.05a7.07,7.07,0,0,1,4.32-4.6c.21-.07,1.2-.42,2.81-.81-13.27-16.81-8.28-35.36-7.13-38.94a7,7,0,0,1,4.32-4.6,43.76,43.76,0,0,1,23.53-.82,46,46,0,0,1-.53-7c0-27.17,22.25-37.82,23.2-38.26a7.07,7.07,0,0,1,6.32.2c3.8,2,22.8,13.05,22.8,38.06a47.3,47.3,0,0,1-.52,7,43.85,43.85,0,0,1,23.47.83,7.08,7.08,0,0,1,4.33,4.61c1.14,3.58,6.1,22.16-7.14,38.93a27.54,27.54,0,0,1,2.81.81,7.08,7.08,0,0,1,4.33,4.61c1.29,4.08,6.89,25.35-10.79,43a41.94,41.94,0,0,1-30.2,12.69,46,46,0,0,1-5.48-.33v20.75h-.49l-13.06.14Zm1-22v21l12.07-.13V301l.56.07a43.69,43.69,0,0,0,5.91.4A40.94,40.94,0,0,0,166.81,289c17.28-17.27,11.81-38,10.54-42a6.06,6.06,0,0,0-3.71-4,28.86,28.86,0,0,0-3.46-1l-.79-.18.51-.62c13.53-16.53,8.58-35.08,7.45-38.63a6.06,6.06,0,0,0-3.71-4,42.69,42.69,0,0,0-23.62-.62l-.74.2.13-.76A46.12,46.12,0,0,0,150,190c0-24.43-18.55-35.26-22.27-37.18a6.07,6.07,0,0,0-5.43-.17c-.92.43-22.62,10.81-22.62,37.35a45.17,45.17,0,0,0,.63,7.55l.13.77-.75-.2a42.6,42.6,0,0,0-23.66.6,6.05,6.05,0,0,0-3.72,4c-1.14,3.55-6.11,22.07,7.45,38.64l.51.62-.79.18a29.23,29.23,0,0,0-3.46,1A6.06,6.06,0,0,0,72.34,247h0c-1.28,4-6.77,24.73,10.54,42a41.63,41.63,0,0,0,35.33,12Zm18.46-11.58a31.08,31.08,0,0,1-5.48-.49l-.34-.06-.06-.34a29.35,29.35,0,0,1,8.4-26.52,30.32,30.32,0,0,1,10.45-6.92c.57-.19,1.12-.38,1.68-.59a30.28,30.28,0,0,1,14.37-.9l.34.06.06.34a29.36,29.36,0,0,1-8.38,26.53h0A29.1,29.1,0,0,1,137.24,289.38Zm-5-1.41a28.35,28.35,0,0,0,25.3-8.19l.35.36-.35-.36a28.35,28.35,0,0,0,8.16-25.3,29.26,29.26,0,0,0-13.53.92c-.54.21-1.1.41-1.66.59a29.24,29.24,0,0,0-10.08,6.68A28.37,28.37,0,0,0,132.28,288Zm-19.83,1.41A30.25,30.25,0,0,1,83,254l.06-.34.34-.06a30.29,30.29,0,0,1,14.35.89c.58.22,1.13.41,1.67.59A30.32,30.32,0,0,1,109.93,262a29.41,29.41,0,0,1,8.85,19.7v2.79a30.86,30.86,0,0,1-.44,4l-.06.34-.35.06A31.08,31.08,0,0,1,112.45,289.38ZM84,254.48A29.2,29.2,0,0,0,117.41,288a29.31,29.31,0,0,0,.37-3.53v-2.75a28,28,0,0,0-8.56-19A29.31,29.31,0,0,0,99.12,256c-.54-.17-1.1-.37-1.66-.59A29.27,29.27,0,0,0,84,254.48ZM137.18,245a30.44,30.44,0,0,1-5.42-.48l-.34-.06-.06-.34A29.41,29.41,0,0,1,138,219.53l0,0c.6-.61,1.22-1.28,1.85-2a29.38,29.38,0,0,1,26.39-8.3l.34.06.06.34a29.36,29.36,0,0,1-8.38,26.53,30.32,30.32,0,0,1-10.45,6.92c-.57.18-1.12.38-1.66.58A29.72,29.72,0,0,1,137.18,245Zm-4.9-1.4a29.24,29.24,0,0,0,13.56-.92c.54-.2,1.09-.4,1.65-.58a29.26,29.26,0,0,0,10.09-6.69,28.35,28.35,0,0,0,8.16-25.3,28.34,28.34,0,0,0-25.14,8.07c-.62.7-1.25,1.38-1.86,2A28.36,28.36,0,0,0,132.28,243.62ZM112.52,245a29.43,29.43,0,0,1-9-1.4l-1.53-.54a30.3,30.3,0,0,1-10.54-6.94A29.36,29.36,0,0,1,83,209.61l.06-.34.34-.06a29.37,29.37,0,0,1,26.5,8.41l.3.32.17.16q.34.39.69.75a28.85,28.85,0,0,1,7.69,18.46v2.8a30.67,30.67,0,0,1-.44,4l-.07.34-.34.06A30.32,30.32,0,0,1,112.52,245ZM84,210.13a28.33,28.33,0,0,0,8.17,25.3,29.19,29.19,0,0,0,10.17,6.72c.49.16,1,.34,1.52.53a29,29,0,0,0,13.6.94,29.1,29.1,0,0,0,.37-3.53v-2.75a27.9,27.9,0,0,0-7.42-17.82c-.23-.23-.46-.48-.69-.73l-.16-.17-.29-.3A28.37,28.37,0,0,0,84,210.13Zm40.92,4.71-.28-.19a30.4,30.4,0,0,1-4.31-3.65c-.41-.45-.81-.88-1.23-1.3a30.32,30.32,0,0,1,5.52-44.44l.28-.19.29.19a30.31,30.31,0,0,1,6,44q-1.07,1.08-2,2.19a31.75,31.75,0,0,1-3.9,3.24Zm0-48.56A28.39,28.39,0,0,0,112.77,190a28.06,28.06,0,0,0,7,19.07c.4.42.82.86,1.21,1.3a30.35,30.35,0,0,0,3.87,3.31,29.69,29.69,0,0,0,3.46-2.9c.64-.73,1.33-1.48,2-2.18a29.3,29.3,0,0,0-5.51-42.27Z"/><path class="cls-1" d="M71.83,191.15a5.66,5.66,0,0,1,.16-.69A5.73,5.73,0,0,0,71.83,191.15Z"/><path class="cls-1" d="M72.32,191.24l-1-.18c0-.13,0-.25.08-.38s.07-.28.09-.36l1,.28-.09.33C72.36,191,72.34,191.13,72.32,191.24Z"/><path class="cls-1" d="M71.83,238.63A5,5,0,0,1,72,238,5.17,5.17,0,0,0,71.83,238.63Z"/><path class="cls-1" d="M72.32,238.73l-1-.19h0c.06-.33.13-.59.17-.73l1,.27C72.41,238.3,72.36,238.51,72.32,238.73Z"/><path class="cls-1" d="M192.28,143l0,.05,0,0Z"/><polygon class="cls-1" points="192.74 143.17 191.79 142.88 191.96 142.91 191.8 142.85 192.77 143.07 192.74 143.17 192.74 143.17 192.74 143.17"/><path class="cls-1" d="M322.18,247.17c-1.32,4.09-6.84,25,10.66,42.54a41.25,41.25,0,0,0,29.84,12.55,45.16,45.16,0,0,0,5.91-.39v20.54l13.06.08V301.86a44.35,44.35,0,0,0,6,.4,41.25,41.25,0,0,0,29.85-12.55c17.44-17.43,12-38.31,10.66-42.54a6.54,6.54,0,0,0-4-4.28,30.48,30.48,0,0,0-3.52-1c13.62-16.64,8.8-35.14,7.54-39.09a6.54,6.54,0,0,0-4-4.28,43,43,0,0,0-23.91-.63,45.8,45.8,0,0,0,.63-7.62c0-24.66-18.59-35.58-22.54-37.62a6.52,6.52,0,0,0-5.87-.18c-.93.43-22.91,10.94-22.91,37.8a46.11,46.11,0,0,0,.64,7.64,43,43,0,0,0-24,.61,6.53,6.53,0,0,0-4,4.28c-1.23,3.82-6.14,22.39,7.53,39.09a31.2,31.2,0,0,0-3.52,1A6.53,6.53,0,0,0,322.18,247.17Zm86.06,33.31a29,29,0,0,1-26.08,8.26,29,29,0,0,1,8.27-26.08,29.6,29.6,0,0,1,10.27-6.8c.56-.18,1.11-.38,1.67-.59a29.89,29.89,0,0,1,14.11-.88A28.85,28.85,0,0,1,408.24,280.48ZM388.68,220.2c.63-.63,1.26-1.31,1.88-2A29,29,0,0,1,416.48,210a28.82,28.82,0,0,1-8.24,26.08A29.56,29.56,0,0,1,398,242.93c-.54.18-1.09.38-1.64.59a29.9,29.9,0,0,1-14.15.87A29,29,0,0,1,388.68,220.2ZM375.16,166A29.79,29.79,0,0,1,381,209.24q-1.08,1.08-2,2.19a31,31,0,0,1-3.81,3.15,31.21,31.21,0,0,1-4.24-3.59c-.39-.43-.8-.87-1.22-1.3a28.71,28.71,0,0,1-7.13-19.4A29,29,0,0,1,375.16,166Zm-41.33,44a29,29,0,0,1,26.06,8.27l.46.48.69.74a28.53,28.53,0,0,1,7.55,18.15v2.77a31.39,31.39,0,0,1-.43,3.94,29.83,29.83,0,0,1-14.21-.9l-1.53-.54a29.63,29.63,0,0,1-10.35-6.83A28.88,28.88,0,0,1,333.83,210Zm0,44.35a29.87,29.87,0,0,1,14.11.88c.56.21,1.12.41,1.67.59a29.63,29.63,0,0,1,10.28,6.8,28.66,28.66,0,0,1,8.7,19.37v2.77a31.39,31.39,0,0,1-.43,3.94,29.68,29.68,0,0,1-34.33-34.35Z"/><path class="cls-1" d="M382.15,323h-.5l-13.06-.08h-.5V302.43a44.76,44.76,0,0,1-5.41.33h0a41.94,41.94,0,0,1-30.19-12.69c-17.71-17.72-12.09-39-10.78-43a7.07,7.07,0,0,1,4.32-4.6c.21-.07,1.2-.42,2.81-.81-13.27-16.81-8.28-35.36-7.13-38.94a7,7,0,0,1,4.32-4.6,43.83,43.83,0,0,1,23.53-.81,46.23,46.23,0,0,1-.53-7c0-27.17,22.25-37.82,23.2-38.26a7.07,7.07,0,0,1,6.32.2c3.8,2,22.8,13.06,22.8,38.06a46,46,0,0,1-.52,7,43.85,43.85,0,0,1,23.47.83,7.08,7.08,0,0,1,4.33,4.61c1.14,3.58,6.1,22.16-7.13,38.93,1.67.41,2.68.77,2.8.81a7.08,7.08,0,0,1,4.33,4.61c1.3,4.08,6.89,25.35-10.79,43a41.94,41.94,0,0,1-30.2,12.69,46,46,0,0,1-5.48-.33Zm-13.06-1.07,12.07.07v-20.7l.56.08a45.37,45.37,0,0,0,5.91.4,41,41,0,0,0,29.49-12.41c17.28-17.27,11.81-38.05,10.54-42a6.06,6.06,0,0,0-3.71-4,28.86,28.86,0,0,0-3.46-1l-.79-.18.51-.62c13.54-16.54,8.58-35.08,7.45-38.63a6.06,6.06,0,0,0-3.71-4,42.67,42.67,0,0,0-23.61-.62l-.75.2.13-.76a46.12,46.12,0,0,0,.62-7.54c0-24.43-18.55-35.26-22.27-37.18a6.07,6.07,0,0,0-5.43-.17c-.92.43-22.62,10.81-22.62,37.35a45,45,0,0,0,.63,7.55l.13.77-.75-.2a42.61,42.61,0,0,0-23.66.6,6.05,6.05,0,0,0-3.72,4c-1.14,3.55-6.11,22.07,7.45,38.64l.51.62-.79.18a28.11,28.11,0,0,0-3.45,1,6.05,6.05,0,0,0-3.72,3.95h0c-1.28,4-6.77,24.73,10.54,42a40.94,40.94,0,0,0,29.48,12.4h0a44.44,44.44,0,0,0,5.85-.39l.56-.07Zm18.46-32.2a31.08,31.08,0,0,1-5.48-.49l-.34-.06-.06-.34a29.37,29.37,0,0,1,8.4-26.52,30.41,30.41,0,0,1,10.45-6.92c.57-.18,1.12-.38,1.68-.59a30.28,30.28,0,0,1,14.37-.9l.34.06.06.34a29.33,29.33,0,0,1-8.38,26.53h0A29.1,29.1,0,0,1,387.55,289.72Zm-5-1.41a28.34,28.34,0,0,0,25.3-8.19h0a28.32,28.32,0,0,0,8.16-25.3,29.25,29.25,0,0,0-13.53.92c-.54.21-1.1.41-1.66.59A29.13,29.13,0,0,0,390.78,263,28.34,28.34,0,0,0,382.59,288.31Zm-19.83,1.41a30.25,30.25,0,0,1-29.42-35.42l.06-.34.34-.06a30.29,30.29,0,0,1,14.35.89c.58.22,1.13.41,1.67.59a30.32,30.32,0,0,1,10.48,6.93,29.41,29.41,0,0,1,8.85,19.7v2.79a30.86,30.86,0,0,1-.44,4l-.06.34-.34.06A31.2,31.2,0,0,1,362.76,289.72Zm-28.5-34.9a29.2,29.2,0,0,0,33.47,33.49,29.31,29.31,0,0,0,.36-3.53V282a28,28,0,0,0-8.55-19,29.32,29.32,0,0,0-10.11-6.7c-.54-.17-1.1-.37-1.66-.59A29.26,29.26,0,0,0,334.26,254.82Zm53.23-9.46a30.44,30.44,0,0,1-5.42-.48l-.34-.06-.06-.34a29.39,29.39,0,0,1,6.63-24.6l0,0c.6-.61,1.23-1.28,1.85-2a29.38,29.38,0,0,1,26.39-8.3l.34.06.06.34a29.33,29.33,0,0,1-8.38,26.53,30.26,30.26,0,0,1-10.46,6.92c-.56.18-1.1.38-1.65.58A29.72,29.72,0,0,1,387.49,245.36Zm-4.9-1.4a29.1,29.1,0,0,0,13.56-.92c.54-.2,1.1-.4,1.65-.58a29.26,29.26,0,0,0,10.09-6.69,28.33,28.33,0,0,0,8.16-25.3,28.34,28.34,0,0,0-25.14,8.07c-.61.7-1.25,1.38-1.86,2A28.39,28.39,0,0,0,382.59,244Zm-19.76,1.4a29.7,29.7,0,0,1-9-1.39l-1.53-.55a30.16,30.16,0,0,1-10.54-6.94A29.36,29.36,0,0,1,333.34,210l.06-.34.34-.06a29.37,29.37,0,0,1,26.5,8.41l.33.34.14.14c.23.27.46.51.69.75a28.85,28.85,0,0,1,7.69,18.47v2.79a30.86,30.86,0,0,1-.44,4l-.06.34-.35.06A30.32,30.32,0,0,1,362.83,245.36Zm-28.57-34.89a28.36,28.36,0,0,0,8.17,25.3,29.25,29.25,0,0,0,10.16,6.72c.5.16,1,.34,1.53.53a29.06,29.06,0,0,0,13.6.94,27.23,27.23,0,0,0,.37-3.53v-2.75a27.8,27.8,0,0,0-7.42-17.81l-.69-.74-.14-.15-.3-.32A28.41,28.41,0,0,0,334.26,210.47Zm40.92,4.71-.28-.19a31,31,0,0,1-4.31-3.65c-.41-.45-.81-.88-1.22-1.3a29.08,29.08,0,0,1-7.28-19.75,29.38,29.38,0,0,1,12.79-24.69l.28-.19.29.19a30.29,30.29,0,0,1,6,44q-1.07,1.08-2,2.19a31,31,0,0,1-3.9,3.24Zm0-48.56a28.39,28.39,0,0,0-12.08,23.67,28.06,28.06,0,0,0,7,19.07c.41.42.82.86,1.21,1.3a30.35,30.35,0,0,0,3.87,3.31,30.65,30.65,0,0,0,3.47-2.9c.63-.73,1.33-1.48,2-2.18a29.3,29.3,0,0,0-5.51-42.27Z"/><path class="cls-1" d="M322,203.48a5.48,5.48,0,0,1,.15-.65C322.11,203.05,322.06,203.26,322,203.48Z"/><path class="cls-1" d="M322.51,203.57l-1-.18h0a1.42,1.42,0,0,1,0-.2c.05-.21.09-.38.12-.49l1,.28c0,.14-.08.29-.11.43l0,.17Z"/><path class="cls-1" d="M322,247.83a4.78,4.78,0,0,1,.15-.64C322.11,247.4,322.06,247.61,322,247.83Z"/><path class="cls-1" d="M322.51,247.92l-1-.18a5.47,5.47,0,0,1,.16-.7l1,.29A3.9,3.9,0,0,0,322.51,247.92Z"/><path class="cls-2" d="M286,321.46H258v-.13H244.76v.13H144.35v-.13H131.14v.13H88.9a6.61,6.61,0,1,0,0,13.21H286a6.61,6.61,0,0,0,0-13.21Z"/><path class="cls-2" d="M286,337.16H88.9a9.1,9.1,0,1,1,0-18.2h39.75v-.12h18.2V319h95.42v-.12h18.2V319H286a9.1,9.1,0,0,1,0,18.2ZM88.9,324a4.12,4.12,0,1,0,0,8.23H286a4.12,4.12,0,0,0,0-8.23h-30.5v-.13h-8.22V324H141.86v-.13h-8.23V324Z"/><path class="cls-2" d="M413.91,321.46H371.6v-.13H358.39v.13h-22a6.61,6.61,0,1,0,0,13.21h77.51a6.61,6.61,0,1,0,0-13.21Z"/><path class="cls-2" d="M413.91,337.16H336.4a9.1,9.1,0,1,1,0-18.2h19.49v-.12h18.2V319h39.82a9.1,9.1,0,0,1,0,18.2ZM336.4,324a4.12,4.12,0,0,0,0,8.23h77.51a4.12,4.12,0,0,0,0-8.23h-44.8v-.13h-8.23V324Z"/><path class="cls-2" d="M312.3,321.46H312a6.61,6.61,0,0,0,0,13.21h.26a6.61,6.61,0,1,0,0-13.21Z"/><path class="cls-2" d="M312.3,337.16H312a9.1,9.1,0,0,1,0-18.2h.26a9.1,9.1,0,0,1,0,18.2ZM312,324a4.12,4.12,0,0,0,0,8.23h.26a4.12,4.12,0,1,0,0-8.23Z"/></svg>