<svg id="Layer_1" data-name="Layer 1" xmlns="http://www.w3.org/2000/svg" viewBox="0 0 500 500"><defs><style>.cls-1{fill:#5b6c7c;}.cls-2{fill:#37c1ce;}</style></defs><title>V2 Icons for loan application</title><path class="cls-1" d="M298.14,291.75H273.45c0,3.29,0,6.59,0,9.84h24.7c48.9,0,88.69,35.77,88.69,79.73V390H113.17v-8.68c0-44,39.79-79.73,88.69-79.73h23.91a6,6,0,0,0,3-.8c0-2.73,0-5.49,0-8.25a5.91,5.91,0,0,0-3-.79H201.86c-54.94,0-99.64,40.18-99.64,89.57v13.6a5.22,5.22,0,0,0,5.47,4.92H392.31a5.22,5.22,0,0,0,5.47-4.92v-13.6C397.78,331.93,353.08,291.75,298.14,291.75Z"/><path class="cls-1" d="M392.31,403.53H107.69a8.91,8.91,0,0,1-9.16-8.61v-13.6c0-51.42,46.35-93.26,103.33-93.26h23.91a9.65,9.65,0,0,1,4.85,1.3l1.82,1.07v2.11c0,2.76,0,5.52,0,8.24v2.12L230.62,304a9.51,9.51,0,0,1-4.85,1.31H201.86c-46.87,0-85,34.11-85,76v5H383.14v-5c0-41.93-38.13-76-85-76h-28.4v-3.7c0-3.25,0-6.54,0-9.83v-3.69h28.38c57,0,103.33,41.84,103.33,93.26v13.6a8.32,8.32,0,0,1-2.48,5.9A9.5,9.5,0,0,1,392.31,403.53ZM201.86,295.44c-52.9,0-96,38.53-96,85.88v13.6c0,.58.73,1.23,1.78,1.23H392.31a2.06,2.06,0,0,0,1.46-.55,1,1,0,0,0,.32-.67V381.32c0-47.35-43-85.88-95.95-85.88h-21v2.46h21c50.94,0,92.38,37.42,92.38,83.42v12.37h-281V381.32c0-46,41.44-83.42,92.38-83.42h23.2v-2.46Z"/><path class="cls-1" d="M250,336c-13.58,0-24.63-9.93-24.63-22.14V280.32a5.51,5.51,0,0,1,10.95,0v33.57c0,6.78,6.13,12.3,13.68,12.3s13.68-5.52,13.68-12.3V280.75a5.51,5.51,0,0,1,10.95,0v33.14C274.63,326.1,263.58,336,250,336Z"/><path class="cls-1" d="M250,339.72c-15.62,0-28.32-11.59-28.32-25.83V280.32a9.18,9.18,0,0,1,18.33,0v33.57c0,4.75,4.48,8.61,10,8.61s10-3.86,10-8.61V280.75c0-4.74,4.11-8.61,9.17-8.61a8.91,8.91,0,0,1,9.16,8.61v33.14C278.32,328.13,265.62,339.72,250,339.72Zm-19.16-60.63c-1.05,0-1.78.65-1.78,1.23v33.57c0,10.17,9.4,18.45,20.94,18.45s20.94-8.28,20.94-18.45V280.75c0-.58-.73-1.23-1.78-1.23s-1.79.65-1.79,1.23v33.14c0,8.82-7.79,16-17.37,16s-17.37-7.17-17.37-16V280.32C232.63,279.74,231.89,279.09,230.84,279.09Z"/><path class="cls-1" d="M250,286.82c-37.73,0-68.42-27.58-68.42-61.5V170.2a5.51,5.51,0,0,1,10.95,0v55.12c0,28.49,25.78,51.66,57.47,51.66s57.47-23.17,57.47-51.66V170.65a5.51,5.51,0,0,1,10.95,0v54.67C318.42,259.24,287.72,286.82,250,286.82Z"/><path class="cls-1" d="M250,290.52c-39.76,0-72.11-29.25-72.11-65.2V170.2c0-4.74,4.11-8.61,9.17-8.61a8.91,8.91,0,0,1,9.16,8.61v55.12c0,26.45,24.13,48,53.78,48s53.78-21.52,53.78-48V170.65a9.18,9.18,0,0,1,18.33,0v54.67C322.11,261.27,289.76,290.52,250,290.52ZM187.06,169c-1.05,0-1.78.64-1.78,1.22v55.12c0,31.88,29,57.81,64.72,57.81s64.72-25.93,64.72-57.81V170.65c0-.59-.73-1.23-1.78-1.23s-1.78.64-1.78,1.23v54.67c0,30.52-27.44,55.36-61.16,55.36s-61.16-24.84-61.16-55.36V170.2C188.84,169.62,188.11,169,187.06,169Z"/><path class="cls-1" d="M353.78,158.1l-3.17,5.71H149.39l-3.17-5.71a5.37,5.37,0,0,0-4.68-2.74h0a5.34,5.34,0,0,0-4.67,7.94l4.24,7.63a5.56,5.56,0,0,0,4.9,2.72H354a5.56,5.56,0,0,0,4.9-2.72l4.24-7.63a5.34,5.34,0,0,0-4.67-7.94h0A5.37,5.37,0,0,0,353.78,158.1Z"/><path class="cls-1" d="M354,177.34H146a9.23,9.23,0,0,1-8.12-4.61l-4.25-7.63a9,9,0,1,1,15.8-8.79l2.12,3.81H348.44l2.12-3.81a9,9,0,0,1,15.8,8.79l-4.25,7.63A9.23,9.23,0,0,1,354,177.34ZM141.54,159.05a1.65,1.65,0,0,0-1.45,2.46l4.25,7.63A1.91,1.91,0,0,0,146,170H354a1.92,1.92,0,0,0,1.68-.83l4.24-7.62a1.65,1.65,0,0,0-1.45-2.46,1.65,1.65,0,0,0-1.45.85l-4.23,7.6H147.22L143,159.9A1.65,1.65,0,0,0,141.54,159.05Z"/><path class="cls-1" d="M325,173.65H175a5.73,5.73,0,0,1-4.33-1.9,4.53,4.53,0,0,1-1-4.24L188,103.69a5.4,5.4,0,0,1,5.3-3.69H306.73a5.4,5.4,0,0,1,5.3,3.69l18.23,63.82a4.53,4.53,0,0,1-1,4.24A5.73,5.73,0,0,1,325,173.65Zm-142.87-9.84H317.91l-15.42-54h-105Z"/><path class="cls-1" d="M325,177.34H175a9.36,9.36,0,0,1-7.12-3.18,8.22,8.22,0,0,1-1.73-7.67l18.23-63.81a9.1,9.1,0,0,1,8.85-6.37H306.73a9.1,9.1,0,0,1,8.85,6.37l18.23,63.81a8.22,8.22,0,0,1-1.73,7.67A9.37,9.37,0,0,1,325,177.34ZM193.27,103.69a1.78,1.78,0,0,0-1.75,1l-18.24,63.81a.9.9,0,0,0,.23.82A2.07,2.07,0,0,0,175,170H325a2.08,2.08,0,0,0,1.54-.63.9.9,0,0,0,.22-.81l-18.24-63.81a1.78,1.78,0,0,0-1.75-1ZM322.8,167.5H177.2l17.53-61.35H305.27ZM187,160.12H313L299.7,113.53H200.3Z"/><polygon class="cls-1" points="327.31 394.69 327.31 297.79 315.86 297.79 315.86 389.73 298.68 389.73 298.68 297.79 287.23 297.79 287.23 394.69 327.31 394.69"/><path class="cls-1" d="M329.4,396.78H285.13V295.7h15.64v91.93h13V295.7H329.4Zm-40.08-4.18h35.9V299.88H318v91.94H296.59V299.88h-7.27Z"/><polygon class="cls-1" points="212.78 394.69 212.78 297.79 201.32 297.79 201.32 389.73 184.14 389.73 184.14 297.79 172.69 297.79 172.69 394.69 212.78 394.69"/><path class="cls-1" d="M214.87,396.78H170.6V295.7h15.63v91.93h13V295.7h15.64Zm-40.09-4.18h35.9V299.88h-7.27v91.94H182.05V299.88h-7.27Z"/><path class="cls-2" d="M236.32,213a5.23,5.23,0,0,1-5.48-4.92,5.5,5.5,0,0,0-10.94,0,5.51,5.51,0,0,1-11,0c0-8.14,7.37-14.77,16.42-14.77s16.42,6.63,16.42,14.77A5.22,5.22,0,0,1,236.32,213Z"/><path class="cls-2" d="M236.32,215.52a7.73,7.73,0,0,1-8-7.42,3,3,0,0,0-5.94,0,8,8,0,0,1-16,0c0-9.52,8.49-17.27,18.92-17.27s18.92,7.75,18.92,17.27A7.72,7.72,0,0,1,236.32,215.52Zm-10.95-14.84a7.71,7.71,0,0,1,8,7.42,3,3,0,0,0,5.95,0c0-6.77-6.24-12.27-13.92-12.27s-13.92,5.5-13.92,12.27a3,3,0,0,0,6,0A7.71,7.71,0,0,1,225.37,200.68Z"/><path class="cls-2" d="M285.58,213a5.23,5.23,0,0,1-5.48-4.92,5.5,5.5,0,0,0-10.94,0,5.51,5.51,0,0,1-11,0c0-8.14,7.36-14.77,16.42-14.77s16.42,6.63,16.42,14.77A5.22,5.22,0,0,1,285.58,213Z"/><path class="cls-2" d="M285.58,215.52a7.73,7.73,0,0,1-8-7.42,3,3,0,0,0-5.94,0,8,8,0,0,1-16,0c0-9.52,8.49-17.27,18.92-17.27s18.92,7.75,18.92,17.27A7.72,7.72,0,0,1,285.58,215.52Zm-10.95-14.84a7.71,7.71,0,0,1,8,7.42,3,3,0,0,0,5.95,0c0-6.77-6.25-12.27-13.92-12.27s-13.92,5.5-13.92,12.27a3,3,0,0,0,6,0A7.71,7.71,0,0,1,274.63,200.68Z"/><path class="cls-2" d="M248.83,257.3A17.28,17.28,0,0,1,237.21,253a4.57,4.57,0,0,1,0-6.95,5.92,5.92,0,0,1,7.74,0c2.57,2.33,7.48,1.47,8.91-1.57a5.72,5.72,0,0,1,7.17-2.61,4.75,4.75,0,0,1,2.91,6.45C261.38,253.76,255.44,257.3,248.83,257.3Z"/><path class="cls-2" d="M248.83,259.8a19.71,19.71,0,0,1-13.29-5,7.06,7.06,0,0,1,0-10.68,8.37,8.37,0,0,1,11.08,0,3.39,3.39,0,0,0,2.87.6,2.93,2.93,0,0,0,2.1-1.38,8.23,8.23,0,0,1,10.33-3.88,7.65,7.65,0,0,1,4.43,4.24,6.92,6.92,0,0,1-.15,5.6C263.23,255.7,256.4,259.8,248.83,259.8Zm-7.74-12.73a3.29,3.29,0,0,0-2.2.81,2.18,2.18,0,0,0-.78,1.61,2.2,2.2,0,0,0,.78,1.63,14.77,14.77,0,0,0,9.94,3.68c5.65,0,10.7-3,12.86-7.58a1.92,1.92,0,0,0,.05-1.59,2.71,2.71,0,0,0-1.58-1.45,3.25,3.25,0,0,0-4,1.33,7.85,7.85,0,0,1-5.65,4.16,8.27,8.27,0,0,1-7.2-1.79A3.29,3.29,0,0,0,241.09,247.07Z"/></svg>