<svg id="Layer_1" data-name="Layer 1" xmlns="http://www.w3.org/2000/svg" viewBox="0 0 500 500"><defs><style>.cls-1{fill:#5b6c7c;}.cls-2{fill:#37c1ce;}</style></defs><title>V2 Icons for loan application</title><path class="cls-1" d="M417,194.41a6.07,6.07,0,0,0-6-.07l-16.7,9.28L394.2,201c-4,2.24-8,4.49-12,6.71l.07,2.59-40.63,22.57.08-2.79q-5.91,3.22-11.83,6.45l-.5.27-.09,3L310.71,250v-50.4a6.07,6.07,0,0,0-6.07-6.07,6.17,6.17,0,0,0-2.94.77L201.43,250v-50.4a6.08,6.08,0,0,0-6.08-6.07,6.2,6.2,0,0,0-2.94.77L83.13,255.05A6.07,6.07,0,0,0,80,260.36V393.93A6.07,6.07,0,0,0,86.07,400H413.93a6.07,6.07,0,0,0,6.07-6.07V199.64A6.07,6.07,0,0,0,417,194.41ZM243.93,387.86H207.5V357.5h36.43Zm48.57,0H256.07V357.5H292.5Zm115.36,0H304.64V351.43a6.07,6.07,0,0,0-6.07-6.07H201.43a6.07,6.07,0,0,0-6.07,6.07v36.43H92.14V263.93l97.15-54v50.4a6.07,6.07,0,0,0,6.07,6.07,6.17,6.17,0,0,0,2.94-.77L298.57,210v50.4a6.08,6.08,0,0,0,6.08,6.07,6.2,6.2,0,0,0,2.94-.77l57.26-31.8,26.61-14.79,16.4-9.11Z"/><path class="cls-1" d="M413.93,402.5H86.07a8.58,8.58,0,0,1-8.57-8.57V260.36a8.56,8.56,0,0,1,4.42-7.5L191.2,192.15a8.73,8.73,0,0,1,4.15-1.08h0a8.57,8.57,0,0,1,8.57,8.57v46.15l96.55-53.64a8.77,8.77,0,0,1,4.16-1.08h0a8.57,8.57,0,0,1,8.57,8.57v46.15l13.67-7.57.09-3,1.76-.95c3.08-1.67,6.13-3.34,9.18-5l6.47-3.53-.08,2.75,35.47-19.7-.07-2.58,1.32-.74,9.91-5.56,5.65-3.17.08,2.68,13.11-7.29a8.62,8.62,0,0,1,8.5.1h0a8.62,8.62,0,0,1,4.23,7.39V393.93A8.58,8.58,0,0,1,413.93,402.5ZM195.36,196.07h0a3.75,3.75,0,0,0-1.74.45L84.34,257.24a3.58,3.58,0,0,0-1.84,3.12V393.93a3.57,3.57,0,0,0,3.57,3.57H413.93a3.57,3.57,0,0,0,3.57-3.57V199.64a3.58,3.58,0,0,0-1.76-3.08h0a3.6,3.6,0,0,0-3.54,0L391.89,207.8l-.07-2.63-7,4,.08,2.59-45.81,25.44.08-2.83q-3.61,2-7.25,4l-.08,2.93-23.59,13.07V199.64a3.57,3.57,0,0,0-3.57-3.57h0a3.74,3.74,0,0,0-1.73.45l-104,57.76V199.64a3.52,3.52,0,0,0-1.05-2.52A3.56,3.56,0,0,0,195.36,196.07Zm215,194.29H302.14V351.43a3.57,3.57,0,0,0-3.57-3.57H201.43a3.57,3.57,0,0,0-3.57,3.57v38.93H89.64V262.46l102.15-56.74v54.64a3.57,3.57,0,0,0,3.57,3.57h0a3.74,3.74,0,0,0,1.73-.45l104-57.76v54.64a3.52,3.52,0,0,0,1.05,2.52,3.56,3.56,0,0,0,2.52,1.05h0a3.75,3.75,0,0,0,1.74-.45l104-57.76Zm-103.22-5h98.22V214.21L308.8,267.85a8.73,8.73,0,0,1-4.15,1.08h0a8.57,8.57,0,0,1-8.57-8.57V214.21l-96.55,53.64a8.77,8.77,0,0,1-4.16,1.08h0a8.57,8.57,0,0,1-8.57-8.57V214.21L94.64,265.4v120h98.22V351.43a8.57,8.57,0,0,1,8.57-8.57h97.14a8.57,8.57,0,0,1,8.57,8.57Zm-12.14,5H253.57V355H295Zm-36.43-5H290V360H258.57Zm-12.14,5H205V355h41.43Zm-36.43-5h31.43V360H210Z"/><path class="cls-1" d="M340.63,241.12l2.57-89.82h36.39l1.91,67.13q6.78-3.74,13.56-7.43l-2.69-94.31a6.89,6.89,0,0,0-6.89-6.69H337.3a6.88,6.88,0,0,0-6.88,6.69L326.64,249Q333.63,245,340.63,241.12ZM344,123.77h34.8l.4,13.76H343.6Z"/><path class="cls-1" d="M324,253.36l3.91-136.74a9.33,9.33,0,0,1,9.38-9.12h48.19a9.35,9.35,0,0,1,9.38,9.12l2.74,95.84-1.35.73q-6.78,3.7-13.55,7.43l-3.59,2-2-68.79H345.63l-2.54,88.81-1.24.69q-7,3.91-14,7.88ZM337.3,112.5a4.36,4.36,0,0,0-4.38,4.26l-3.65,127.88c3-1.67,5.93-3.35,8.9-5l2.6-90.83H382l1.87,65.46,8.63-4.72-2.65-92.78a4.36,4.36,0,0,0-4.38-4.26H337.3ZM381.77,140H341l.53-18.76h39.66Zm-35.6-5h30.45l-.25-8.76H346.42Z"/><path class="cls-2" d="M169.35,279.39H123.26c-3.18,0-5.76,3.17-5.76,7.08v28.34c0,3.91,2.58,7.08,5.76,7.08h46.09c3.18,0,5.76-3.17,5.76-7.08V286.47C175.11,282.56,172.53,279.39,169.35,279.39Zm-5.76,28.33H129V293.55h34.57Z"/><path class="cls-2" d="M169.35,322.53H123.26c-3.53,0-6.4-3.46-6.4-7.72V286.47c0-4.26,2.87-7.72,6.4-7.72h46.09c3.53,0,6.4,3.46,6.4,7.72v28.34C175.75,319.07,172.88,322.53,169.35,322.53ZM123.26,280c-2.82,0-5.12,2.89-5.12,6.44v28.34c0,3.55,2.3,6.44,5.12,6.44h46.09c2.82,0,5.12-2.89,5.12-6.44V286.47c0-3.55-2.3-6.44-5.12-6.44Zm41,28.33H128.38V292.91h35.85Zm-34.57-1.28H163V294.19H129.66Z"/><path class="cls-2" d="M273,279.39H227c-3.18,0-5.76,3.17-5.76,7.08v28.34c0,3.91,2.58,7.08,5.76,7.08H273c3.18,0,5.76-3.17,5.76-7.08V286.47C278.8,282.56,276.22,279.39,273,279.39Zm-5.76,28.33H232.72V293.55h34.56Z"/><path class="cls-2" d="M273,322.53H227c-3.53,0-6.41-3.46-6.41-7.72V286.47c0-4.26,2.88-7.72,6.41-7.72H273c3.53,0,6.41,3.46,6.41,7.72v28.34C279.45,319.07,276.57,322.53,273,322.53ZM227,280c-2.83,0-5.12,2.89-5.12,6.44v28.34c0,3.55,2.29,6.44,5.12,6.44H273c2.83,0,5.12-2.89,5.12-6.44V286.47c0-3.55-2.29-6.44-5.12-6.44Zm41,28.33H232.08V292.91h35.84Zm-34.56-1.28h33.28V294.19H233.36Z"/><path class="cls-2" d="M376.74,279.39H330.65c-3.18,0-5.76,3.17-5.76,7.08v28.34c0,3.91,2.58,7.08,5.76,7.08h46.09c3.18,0,5.76-3.17,5.76-7.08V286.47C382.5,282.56,379.92,279.39,376.74,279.39ZM371,307.72H336.41V293.55H371Z"/><path class="cls-2" d="M376.74,322.53H330.65c-3.53,0-6.4-3.46-6.4-7.72V286.47c0-4.26,2.87-7.72,6.4-7.72h46.09c3.53,0,6.4,3.46,6.4,7.72v28.34C383.14,319.07,380.27,322.53,376.74,322.53ZM330.65,280c-2.82,0-5.12,2.89-5.12,6.44v28.34c0,3.55,2.3,6.44,5.12,6.44h46.09c2.82,0,5.12-2.89,5.12-6.44V286.47c0-3.55-2.3-6.44-5.12-6.44Zm41,28.33H335.77V292.91h35.85Zm-34.57-1.28h33.29V294.19H337.05Z"/><path class="cls-1" d="M430,403.09H70a7.09,7.09,0,0,1,0-14.18H430a7.09,7.09,0,0,1,0,14.18Z"/></svg>