<svg id="Layer_1" data-name="Layer 1" xmlns="http://www.w3.org/2000/svg" viewBox="0 0 500 500"><defs><style>.cls-1{fill:#5b6c7c;}.cls-2{fill:#37c1ce;}</style></defs><title>V2 Icons for loan application</title><path class="cls-1" d="M213.4,232.09v.07h28.91a23.39,23.39,0,0,0-2.18,2.38c-9.24,11.91-8.24,36.77-8.1,39.56a6.1,6.1,0,0,0,6.19,5.66h.43c2.54-.17,25.08-2,34.66-14.36,6.8-8.74,8-24.41,8.18-33.25h22.7a23.39,23.39,0,0,0-2.18,2.38c-9.24,11.9-8.25,36.76-8.1,39.56a6.09,6.09,0,0,0,6.19,5.66h.43c2.54-.17,25.07-2,34.65-14.36,6.81-8.74,8.05-24.41,8.19-33.26h24.75a6,6,0,1,0,0-11.9H343.36c-.14-8.83-1.39-24.52-8.18-33.26-9.59-12.34-32.13-14.18-34.66-14.35A6.36,6.36,0,0,0,296,174.1a5.91,5.91,0,0,0-2.07,4.17c-.15,2.79-1.14,27.67,8.1,39.55a24.6,24.6,0,0,0,2.18,2.39H281.47c-.13-8.83-1.39-24.52-8.18-33.26-9.59-12.34-32.13-14.19-34.65-14.36a6.36,6.36,0,0,0-4.54,1.49,5.83,5.83,0,0,0-2.07,4.16c-.15,2.79-1.15,27.67,8.09,39.56a23.39,23.39,0,0,0,2.18,2.38H213.4a6,6,0,1,0,0,11.91Zm111.88-38c3.91,5,5.44,16.34,5.7,25.26a33.83,33.83,0,0,1-19.05-8.65c-3.91-5-5.44-16.37-5.7-25.32A33.75,33.75,0,0,1,325.28,194.12ZM311.9,241.69A33.56,33.56,0,0,1,331,233c-.25,8.92-1.79,20.23-5.7,25.27a33.69,33.69,0,0,1-19,8.71C306.47,258.88,307.73,247.07,311.9,241.69Zm-48.5-47.57c3.9,5,5.44,16.34,5.7,25.26A33.86,33.86,0,0,1,250,210.73c-3.91-5-5.44-16.37-5.7-25.32A33.81,33.81,0,0,1,263.4,194.12ZM250,241.69A33.53,33.53,0,0,1,269.1,233c-.26,8.92-1.79,20.23-5.7,25.27A33.74,33.74,0,0,1,244.34,267C244.59,258.88,245.84,247.07,250,241.69Z"/><path class="cls-1" d="M238.21,280.79a7.11,7.11,0,0,1-7.21-6.64c-.15-2.83-1.19-28,8.31-40.25.19-.24.39-.47.59-.71H212.36v-.14a7,7,0,0,1,1-13.9h26.49l-.58-.7C229.8,206.2,230.84,181,231,178.19a7,7,0,0,1,2.44-4.9,7.33,7.33,0,0,1,5.28-1.73c2.58.18,25.56,2.09,35.4,14.76,6.73,8.66,8.16,23.88,8.38,32.85h19.29c-.2-.23-.39-.46-.58-.7-9.52-12.24-8.47-37.43-8.32-40.26a6.91,6.91,0,0,1,2.43-4.89,7.41,7.41,0,0,1,5.28-1.74c2.59.18,25.56,2.09,35.41,14.76,6.72,8.66,8.16,23.89,8.38,32.85h23.74a7,7,0,1,1,0,14H344.38c-.22,9-1.65,24.21-8.38,32.85-9.84,12.68-32.81,14.58-35.4,14.76h-.51a7.11,7.11,0,0,1-7.21-6.64c-.15-2.83-1.19-28,8.31-40.25.19-.24.39-.47.59-.71H282.5c-.22,9-1.65,24.22-8.38,32.86-9.83,12.67-32.81,14.58-35.4,14.75h-.51Zm-23.77-49.67h30.45L243,232.91a21.48,21.48,0,0,0-2.08,2.28c-9,11.63-8,36.1-7.87,38.85a5,5,0,0,0,5.14,4.68h.44c2.42-.16,24.55-2,33.84-14,6.62-8.51,7.83-24.1,8-32.64l0-1h26.3l-1.87,1.79a22.39,22.39,0,0,0-2.08,2.27c-9,11.64-8,36.11-7.87,38.86a5,5,0,0,0,5.15,4.68h.43c2.42-.17,24.55-2,33.84-14,6.62-8.5,7.83-24.09,8-32.63l0-1h25.77a4.93,4.93,0,1,0,0-9.84H342.34l0-1c-.13-8.53-1.34-24.12-8-32.64-9.29-12-31.42-13.79-33.91-14a5.34,5.34,0,0,0-3.79,1.24,4.84,4.84,0,0,0-1.71,3.43c-.15,2.75-1.17,27.23,7.88,38.87a23.3,23.3,0,0,0,2.07,2.27l1.87,1.78H280.46l0-1c-.13-8.53-1.34-24.11-8-32.63-9.3-12-31.42-13.79-33.91-14a5.36,5.36,0,0,0-3.8,1.24,4.87,4.87,0,0,0-1.71,3.42c-.14,2.76-1.17,27.23,7.88,38.87a21.19,21.19,0,0,0,2.08,2.27l1.87,1.79H213.4a4.92,4.92,0,1,0,0,9.83h1Zm90.72,37,0-1.2c.22-7.11,1.26-19.94,5.9-25.91l.11-.12A34.79,34.79,0,0,1,330.87,232l1.18-.13,0,1.19c-.13,4.45-.93,19.45-5.92,25.87l-.11.13a34.9,34.9,0,0,1-19.64,9Zm7.51-25.77c-4.09,5.35-5.11,17.35-5.36,23.42a32.92,32.92,0,0,0,17.21-8.22c4.19-5.5,5.16-18.08,5.39-23.38A32.66,32.66,0,0,0,312.67,242.39Zm-69.4,25.77,0-1.2c.21-7.11,1.26-19.94,5.89-25.91l.11-.12A34.79,34.79,0,0,1,269,232l1.19-.13,0,1.19c-.12,4.45-.92,19.45-5.91,25.87l-.12.13a34.87,34.87,0,0,1-19.64,9Zm7.52-25.77c-4.1,5.35-5.12,17.35-5.37,23.42a32.78,32.78,0,0,0,17.21-8.23c4.19-5.48,5.17-18.07,5.39-23.37A32.63,32.63,0,0,0,250.79,242.39Zm81.26-21.84-1.18-.14a35.07,35.07,0,0,1-19.64-8.92l-.12-.13c-5-6.4-5.79-21.45-5.92-25.92l0-1.19,1.19.14a35,35,0,0,1,19.64,9l.11.13c5,6.41,5.79,21.42,5.92,25.86ZM312.69,210a33.06,33.06,0,0,0,17.21,8.16c-.22-5.31-1.2-17.89-5.38-23.36a32.84,32.84,0,0,0-17.21-8.22C307.54,191.93,308.51,204.55,312.69,210Zm-42.52,10.52-1.19-.14a35.1,35.1,0,0,1-19.64-8.92l-.11-.13c-5-6.4-5.79-21.45-5.92-25.91l0-1.2,1.19.14a35,35,0,0,1,19.64,9l.12.13c5,6.41,5.78,21.42,5.91,25.86ZM250.81,210A33,33,0,0,0,268,218.19c-.23-5.31-1.21-17.89-5.39-23.36a32.81,32.81,0,0,0-17.21-8.22C245.65,191.93,246.63,204.55,250.81,210Z"/><path class="cls-1" d="M427.73,126.34a6.37,6.37,0,0,0-5.16-1.22L392.25,131h-203l-30.33-5.83a6.36,6.36,0,0,0-5.15,1.22,5.88,5.88,0,0,0-2.28,4.61V321.46a6.08,6.08,0,0,0,6.19,6,6.43,6.43,0,0,0,1.24-.12l30.33-5.84h203l30.32,5.84a6.51,6.51,0,0,0,1.24.12,6.08,6.08,0,0,0,6.19-6V131A5.87,5.87,0,0,0,427.73,126.34ZM386.68,309.55H194.83V285.74a6.19,6.19,0,0,0-12.37,0v24.88l-18.57,3.57v-176l18.57,3.57V261.92a6.19,6.19,0,0,0,12.37,0V142.86H386.68V309.55Zm30.94,4.64-18.56-3.57V141.79l18.56-3.57Z"/><path class="cls-1" d="M157.75,328.44h-.06a7.11,7.11,0,0,1-7.21-7V131a6.86,6.86,0,0,1,2.67-5.42,7.42,7.42,0,0,1,6-1.43l30.22,5.82H392.15l30.23-5.82a7.43,7.43,0,0,1,6,1.43h0A6.89,6.89,0,0,1,431,131v190.5a7.08,7.08,0,0,1-7.27,7,6.58,6.58,0,0,1-1.4-.14l-30.22-5.81H189.36l-30.22,5.82A7.12,7.12,0,0,1,157.75,328.44ZM157.7,126a5.22,5.22,0,0,0-3.27,1.12,4.83,4.83,0,0,0-1.88,3.79V321.46a5,5,0,0,0,5.15,4.91,4.39,4.39,0,0,0,1-.1l30.53-5.85H392.35l30.42,5.85a5.16,5.16,0,0,0,1,.1,5,5,0,0,0,5.15-4.91V131a4.82,4.82,0,0,0-1.87-3.8h0a5.32,5.32,0,0,0-4.32-1L392.25,132H189.17l-30.42-5.85A5.41,5.41,0,0,0,157.7,126Zm261,189.41-20.64-4V140.93l20.64-4Zm-18.57-5.68,16.5,3.17V139.47l-16.5,3.18Zm-237.23,5.68V137l20.63,4v121a5.16,5.16,0,0,0,10.31,0V141.83H387.72V310.59H193.8V285.74a5.16,5.16,0,0,0-10.31,0v25.74Zm2.07-176V312.94l16.49-3.17v-24a7.23,7.23,0,0,1,14.45,0v22.77H385.64V143.9H195.87v118a7.23,7.23,0,0,1-14.45,0V142.65Z"/><path class="cls-2" d="M95.87,375c15-.73,26.5-12.95,25.84-27.34,0-14.42-20.4-29.63-22.74-31.33a5.35,5.35,0,0,0-6.2,0C90.44,318,70,333.24,70,347.66,69.37,362.05,80.91,374.27,95.87,375ZM80.36,347.66c0-6.2,8.54-15.25,15.51-21,7,5.71,15.5,14.76,15.5,21,.65,8.9-6.26,16.65-15.5,17.4C86.62,364.31,79.72,356.56,80.36,347.66Z"/><path class="cls-2" d="M95.87,376h-.05c-15.48-.76-27.51-13.51-26.83-28.42,0-6.27,3.63-13.38,10.78-21.09a92.51,92.51,0,0,1,12.39-11,6.42,6.42,0,0,1,7.42,0c2.37,1.73,23.17,17.25,23.17,32.17.68,14.86-11.35,27.61-26.83,28.37Zm0-59.66a4.29,4.29,0,0,0-2.5.79c-2.28,1.66-22.31,16.62-22.31,30.49-.63,13.8,10.49,25.57,24.81,26.3,14.31-.73,25.44-12.5,24.81-26.26,0-13.93-20-28.87-22.32-30.53A4.23,4.23,0,0,0,95.87,316.38Zm0,49.72h-.08C86,365.3,78.67,357,79.33,347.62c0-8.31,13.23-19.55,15.88-21.73l.66-.53.66.53c2.65,2.18,15.88,13.46,15.88,21.77.68,9.34-6.7,17.64-16.46,18.43Zm0-38.06c-6.82,5.72-14.47,14.08-14.47,19.62v.07C80.8,356,87.28,363.28,95.87,364c8.59-.74,15.07-8,14.47-16.29C110.34,342.12,102.69,333.76,95.87,328Z"/><path class="cls-2" d="M104.26,300.42h0a29.47,29.47,0,0,0,20.25-8.33c10.31-9.89,7.15-33.75,6.75-36.43a5.06,5.06,0,0,0-4.39-4.23C124.11,251,99.28,248,89,257.89a27.32,27.32,0,0,0-8.67,19.5,22.44,22.44,0,0,0,6.86,16.41A24.32,24.32,0,0,0,104.26,300.42Zm-13.56-23a17.51,17.51,0,0,1,5.65-12.46c3.36-3.25,11.41-4.29,19-4.29,2.14,0,4.23.09,6.16.23.6,7.85.21,19.94-4.22,24.18a18.94,18.94,0,0,1-13,5.42,13.4,13.4,0,0,1-9.74-3.7A12.37,12.37,0,0,1,90.7,277.4Z"/><path class="cls-2" d="M104,301.46a25.51,25.51,0,0,1-17.47-6.91,23.66,23.66,0,0,1-7.19-17.18,28.22,28.22,0,0,1,9-20.23C99,246.84,124.2,250,127,250.4a6.14,6.14,0,0,1,5.28,5.1c.4,2.74,3.65,27.07-7.06,37.33a30.33,30.33,0,0,1-21,8.63H104Zm11.27-49.72c-8.52,0-19.63,1.23-25.5,6.9A26.14,26.14,0,0,0,81.4,277.4,21.58,21.58,0,0,0,88,293.06a23.46,23.46,0,0,0,16.29,6.33h0a28.32,28.32,0,0,0,19.53-8c4.08-3.91,6.52-10.91,7.08-20.24a80.12,80.12,0,0,0-.63-15.3,4.06,4.06,0,0,0-3.51-3.35A89,89,0,0,0,115.26,251.74Zm-11.43,39.78a14.5,14.5,0,0,1-10-4,13.46,13.46,0,0,1-4.15-10.16,18.44,18.44,0,0,1,6-13.19c3.9-3.77,12.85-4.56,19.67-4.56,2.08,0,4.18.07,6.24.23l.89.06.06.89c.25,3.22,1.19,19.53-4.54,25a19.87,19.87,0,0,1-13.66,5.71Zm11.48-29.83c-9,0-15.62,1.45-18.24,4a16.39,16.39,0,0,0-5.33,11.74v0A11.35,11.35,0,0,0,95.26,286a12.45,12.45,0,0,0,9,3.42,17.88,17.88,0,0,0,12.27-5.12c3.79-3.63,4.52-14.17,4-22.48C118.78,261.74,117,261.69,115.31,261.69Z"/></svg>