<svg id="Layer_1" data-name="Layer 1" xmlns="http://www.w3.org/2000/svg" viewBox="0 0 500 500"><defs><style>.cls-1{fill:#37c1ce;}.cls-2{fill:#5b6c7c;}</style></defs><title>V2 Icons for loan application</title><path class="cls-1" d="M367.44,140.67a5.09,5.09,0,0,0-7.09,1.52,5.21,5.21,0,0,0,1.51,7.16,52.21,52.21,0,0,1,19.85,24.53,5.12,5.12,0,0,0,4.76,3.28,5,5,0,0,0,1.88-.36,5.2,5.2,0,0,0,2.89-6.72A61.75,61.75,0,0,0,367.44,140.67Z"/><path class="cls-1" d="M386.47,179.63a7.56,7.56,0,0,1-7.07-4.86,49.64,49.64,0,0,0-18.9-23.35,7.7,7.7,0,0,1-2.23-10.57,7.57,7.57,0,0,1,10.52-2.25h0a64.23,64.23,0,0,1,24.75,30.58,7.67,7.67,0,0,1-4.28,9.91A7.33,7.33,0,0,1,386.47,179.63ZM364.65,142.3a2.57,2.57,0,0,0-.55.06,2.65,2.65,0,0,0-1.67,1.16,2.75,2.75,0,0,0,.78,3.77A54.71,54.71,0,0,1,384,173a2.63,2.63,0,0,0,2.46,1.71,2.55,2.55,0,0,0,.95-.18,2.73,2.73,0,0,0,1.52-3.53,59.33,59.33,0,0,0-22.86-28.25h0A2.63,2.63,0,0,0,364.65,142.3Z"/><path class="cls-1" d="M367.2,203.18v19.75H336.46V203.18c-3.42,0-6.83,0-10.25-.06v190.7a5.13,5.13,0,1,0,10.25,0v-5.18H367.2v5.18a5.12,5.12,0,1,0,10.24,0V203.11C374,203.14,370.61,203.17,367.2,203.18Zm0,175.11H336.46V357.57H367.2Zm0-31.07H336.46V326.5H367.2Zm0-31.08H336.46V295.43H367.2Zm0-31.07H336.46V264.36H367.2Zm0-31.07H336.46V233.29H367.2Z"/><path class="cls-1" d="M372.32,401.47a7.62,7.62,0,0,1-7.59-7.65v-2.71h-25.8v2.71a7.6,7.6,0,1,1-15.19,0V200.63l3.95,0,8.78.05h2.46v19.74h25.8V200.72h2.46l9.15-.06,3.57,0v193.2A7.63,7.63,0,0,1,372.32,401.47ZM334,386.17h35.68v7.65a2.65,2.65,0,1,0,5.3,0V205.6l-5.3,0V225.4H334V205.64l-5.31,0V393.82a2.66,2.66,0,1,0,5.31,0Zm35.68-5.41H334V355.1h35.68Zm-30.74-4.94h25.8V360h-25.8Zm30.74-26.13H334V324h35.68Zm-30.74-4.94h25.8V329h-25.8Zm30.74-26.14H334V293h35.68Zm-30.74-4.94h25.8V297.9h-25.8Zm30.74-26.13H334V261.89h35.68Zm-30.74-4.94h25.8V266.83h-25.8Zm30.74-26.13H334V230.82h35.68Zm-30.74-4.94h25.8V235.76h-25.8Z"/><path class="cls-1" d="M340,109c-45.19,0-82,37.17-82,82.86V197a5.16,5.16,0,0,0,5.13,5.17h74.47v-.27c0,.06,6.92-.06,14.12-.15v-.32c0-.23,30.09-.21,30.09,0s0,.24,0,.37c5.89-.06,14.55-.09,19.65,0V197a5.16,5.16,0,0,0-5.13-5.18H268.31c0-40,32.17-72.5,71.72-72.5s71.72,32.52,71.72,72.5v11c2.71.22,5.58.35,7.3-.12a28.32,28.32,0,0,1-7.3.47V393.82a5.13,5.13,0,1,0,10.25,0v-202C422,146.17,385.23,109,340,109Z"/><path class="cls-1" d="M416.88,401.47a7.63,7.63,0,0,1-7.6-7.65v-202c0-38.62-31.06-70-69.25-70-37.36,0-67.91,30.08-69.21,67.56H396.38A7.63,7.63,0,0,1,404,197v7.25l-2.5,0c-5.07-.05-13.71,0-19.59,0l-2.5,0v-.49c-5.5-.08-19.7-.09-25.16,0v.39l-2.42,0-6.95.09-4.76.07v.14l-2.43.12H263.19a7.63,7.63,0,0,1-7.6-7.64v-5.18c0-47.05,37.88-85.33,84.44-85.33s84.44,38.28,84.44,85.33v202A7.63,7.63,0,0,1,416.88,401.47Zm-2.66-195.73V393.82a2.66,2.66,0,1,0,5.31,0V205.21A23.14,23.14,0,0,1,414.22,205.74Zm4.17-5.34,1.14,4.13V191.86c0-44.33-35.66-80.39-79.5-80.39s-79.5,36.06-79.5,80.39V197a2.68,2.68,0,0,0,2.66,2.7h74.47v2.2l2.47-.08-2.47.08.18-2.46c.44,0,3.61,0,7-.07l5.81-.08a6.3,6.3,0,0,1,2.37-.41l3.35,0c5.6-.05,15-.05,20.73,0l3.54.06a6.2,6.2,0,0,1,2.54.42c4.89,0,11.2-.06,15.91,0V197a2.68,2.68,0,0,0-2.66-2.71H265.84v-2.47c0-41.34,33.28-75,74.19-75s74.19,33.63,74.19,75v8.73A15.93,15.93,0,0,0,418.39,200.4Zm-64.14,1.07v0Z"/><path class="cls-1" d="M339.85,109c-45.19,0-82,37.17-82,82.86v45.27A89.93,89.93,0,0,1,268.13,248V191.86c0-40,32.17-72.5,71.72-72.5s71.72,32.52,71.72,72.5H283.5a5.15,5.15,0,0,0-5.12,5.18V202h55.53a.62.62,0,0,1,0,.23H416.7a5.15,5.15,0,0,0,5.12-5.17v-5.18C421.82,146.17,385.05,109,339.85,109Z"/><path class="cls-1" d="M270.6,254.84l-4.37-5.29a89.34,89.34,0,0,0-10-10.55l-.85-.74v-46.4c0-47.05,37.88-85.33,84.44-85.33s84.44,38.28,84.44,85.33V197a7.63,7.63,0,0,1-7.59,7.64H331.64l0-.23H275.91V197a7.62,7.62,0,0,1,7.59-7.65H409.06c-1.29-37.48-31.84-67.56-69.21-67.56-38.18,0-69.25,31.41-69.25,70ZM260.35,236c1.91,1.72,3.68,3.53,5.31,5.31V191.86c0-41.34,33.28-75,74.19-75s74.19,33.63,74.19,75v2.47H283.5a2.68,2.68,0,0,0-2.65,2.71v2.47h53.06a2.71,2.71,0,0,1,1,.23H416.7a2.68,2.68,0,0,0,2.65-2.7v-5.18c0-44.33-35.66-80.39-79.5-80.39s-79.5,36.06-79.5,80.39Z"/><path class="cls-2" d="M226.86,292.62a5.44,5.44,0,0,0-2.17-.45H133a5.44,5.44,0,0,0-2.17.45,5.59,5.59,0,0,0-1.86,1.31,6,6,0,0,0-1.25,1.95,6,6,0,0,0-.43,2.26V394a6,6,0,0,0,3.53,5.54,5.57,5.57,0,0,0,6.25-1.31l41.78-43.68,41.77,43.68a5.61,5.61,0,0,0,4,1.76,5.5,5.5,0,0,0,2.2-.46A6,6,0,0,0,230.4,394V298.14a6,6,0,0,0-.43-2.26,6,6,0,0,0-1.25-1.95A5.49,5.49,0,0,0,226.86,292.62Zm-88.11,86.93V312.62l32,33.47Zm8.1-75.4h64l-32,33.46Zm72.1,75.4-32-33.46,32-33.47v66.93Z"/><path class="cls-2" d="M133,401a6.4,6.4,0,0,1-2.59-.54,7,7,0,0,1-4.14-6.45V298.16a7.21,7.21,0,0,1,.5-2.65,6.88,6.88,0,0,1,1.45-2.27,6.8,6.8,0,0,1,2.2-1.54,6.41,6.41,0,0,1,2.56-.53h91.67a6.44,6.44,0,0,1,2.58.53h0a6.92,6.92,0,0,1,2.2,1.53,7,7,0,0,1,1.45,2.28,7,7,0,0,1,.5,2.63V394a7,7,0,0,1-4.13,6.45,6.69,6.69,0,0,1-7.37-1.52L178.85,356l-41.06,42.94A6.61,6.61,0,0,1,133,401Zm45.83-47.89,42.5,44.44a4.63,4.63,0,0,0,5.12,1.08A5,5,0,0,0,229.4,394V298.16a5.11,5.11,0,0,0-.36-1.91,5,5,0,0,0-1-1.63,4.68,4.68,0,0,0-1.54-1.08h0a4.32,4.32,0,0,0-1.77-.37H133a4.35,4.35,0,0,0-1.79.37,4.78,4.78,0,0,0-1.54,1.08,5,5,0,0,0-1,1.63,5.08,5.08,0,0,0-.36,1.89V394a5,5,0,0,0,2.93,4.62,4.55,4.55,0,0,0,5.12-1.08ZM220,382l-34.39-36,34.39-36Zm-31.62-36,29.62,31V315.12Zm-50.58,36V310.13l34.38,36Zm2-66.92v61.94l29.61-31Zm39.1,23.94-34.34-35.91h68.68Zm-29.66-33.91,29.66,31,29.66-31Z"/><path class="cls-2" d="M193.3,276H164.39a4.92,4.92,0,0,1-4.81-5V240.78a4.92,4.92,0,0,1,4.81-5H193.3a4.92,4.92,0,0,1,4.81,5V271A4.92,4.92,0,0,1,193.3,276ZM169.21,266h19.27V245.82H169.21Z"/><path class="cls-2" d="M193.3,277H164.39a5.93,5.93,0,0,1-5.81-6V240.78a5.93,5.93,0,0,1,5.81-6H193.3a5.93,5.93,0,0,1,5.81,6V271A5.93,5.93,0,0,1,193.3,277Zm-28.91-40.29a3.93,3.93,0,0,0-3.81,4V271a3.93,3.93,0,0,0,3.81,4H193.3a3.93,3.93,0,0,0,3.81-4V240.78a3.93,3.93,0,0,0-3.81-4ZM189.48,267H168.21V244.82h21.27Zm-19.27-2h17.27V246.82H170.21Z"/><path class="cls-2" d="M276.12,247.64,274.56,246h0L242,212s0,0,0,0c-1.65-1.85-4.56-1.73-6.8-2.06-3.59-.52-7.31-1-10.9-1.68H121.56a5.57,5.57,0,0,0-4,1.76L83.14,246h0L71.68,258a6.18,6.18,0,0,0,0,8.47,5.53,5.53,0,0,0,8.1,0l1.68-1.75V394a5.74,5.74,0,1,0,11.46,0V252.72l31-32.43H233.76l31,32.43V394a5.73,5.73,0,1,0,11.45,0V272.52C276.1,270.06,276.07,256.63,276.12,247.64Z"/><path class="cls-2" d="M87.19,402.5A8.37,8.37,0,0,1,79,394V270a7.9,7.9,0,0,1-3.23.68,8.05,8.05,0,0,1-5.86-2.53,8.72,8.72,0,0,1,0-11.92l45.83-47.93a8.15,8.15,0,0,1,5.86-2.53h103l.24,0c2.61.51,5.36.9,8,1.27l2.77.39c.41.06.84.1,1.28.15,2.1.21,4.95.5,6.92,2.61h0l34.8,36.38v1c-.05,9.18,0,22.4.11,24.74V394a8.23,8.23,0,1,1-16.45,0V253.72l-29.59-30.93H125L95.42,253.72V394A8.38,8.38,0,0,1,87.19,402.5ZM84,258.47V394a3.24,3.24,0,1,0,6.46,0V251.71l32.44-33.92h112l32.45,33.92V394a3.24,3.24,0,1,0,6.45,0V272.58c-.12-2.55-.16-14.8-.11-23.95l-.87-.9-32.53-34,.38-.36-.41.36c-.67-.76-2.26-.92-3.79-1.08-.52,0-1-.1-1.5-.17l-2.74-.39c-2.64-.37-5.37-.75-8-1.27H121.56a3.09,3.09,0,0,0-2.24,1L85.64,247v1.5H84.2L73.49,259.71a3.68,3.68,0,0,0,0,5,3.12,3.12,0,0,0,4.48,0Z"/><path class="cls-2" d="M276.12,247.63,274.56,246h0l-34.37-35.94a5.57,5.57,0,0,0-4.05-1.76H133.33c-3.59.7-7.31,1.16-10.9,1.68-2.23.33-5.15.21-6.8,2.06,0,0,0,0,0,0L83.14,246h0L71.68,258a6.18,6.18,0,0,0,0,8.47,5.54,5.54,0,0,0,8.1,0l1.68-1.75V394a5.74,5.74,0,1,0,11.46,0V252.72l31-32.43H233.76l31,32.43V394a5.73,5.73,0,1,0,11.45,0V272.53C276.1,270.1,276.07,256.64,276.12,247.63Z"/><path class="cls-2" d="M270.5,402.5a8.37,8.37,0,0,1-8.22-8.49V253.72l-29.59-30.93H125L95.42,253.72V394A8.23,8.23,0,1,1,79,394V270a7.9,7.9,0,0,1-3.23.68,8.05,8.05,0,0,1-5.86-2.53,8.72,8.72,0,0,1,0-11.92l44-46h0c2-2.1,4.83-2.39,6.92-2.6.44,0,.87-.09,1.28-.15l2.77-.39c2.65-.38,5.4-.76,8-1.27l.48,0h102.8a8.12,8.12,0,0,1,5.86,2.54l36.64,38.3v1c-.05,9.21,0,22.44.11,24.75V394A8.37,8.37,0,0,1,270.5,402.5ZM122.86,217.79h112l32.45,33.92V394a3.24,3.24,0,1,0,6.45,0V272.6c-.13-2.72-.15-15.73-.11-24l-.13-.13h-1.43V247l-33.68-35.21a3.08,3.08,0,0,0-2.25-1H133.57c-2.67.52-5.4.9-8,1.27l-2.74.39c-.47.07-1,.12-1.5.17-1.53.16-3.12.32-3.79,1.08l-.41-.36.38.36-44,46a3.68,3.68,0,0,0,0,5,3.13,3.13,0,0,0,4.48,0l6-6.26V394a3.24,3.24,0,1,0,6.46,0V251.71Z"/><path class="cls-2" d="M82.11,247.63,83.67,246h0l34.37-35.94a5.57,5.57,0,0,1,4-1.76H224.9c3.59.7,7.31,1.16,10.9,1.68,2.24.33,5.15.21,6.8,2.06,0,0,0,0,0,0l32.53,34h0l11.45,12a6.18,6.18,0,0,1,0,8.47,5.54,5.54,0,0,1-8.1,0l-1.68-1.75V394a5.73,5.73,0,1,1-11.45,0V252.72l-31-32.43H124.47l-31,32.43V394A5.74,5.74,0,1,1,82,394V272.53C82.13,270.1,82.16,256.64,82.11,247.63Z"/><path class="cls-2" d="M87.73,402.5A8.37,8.37,0,0,1,79.5,394V272.4c.13-2.31.17-15.54.11-24.75v-1l36.63-38.31a8.17,8.17,0,0,1,5.86-2.53h103l.24,0c2.61.51,5.36.9,8,1.27l2.77.39c.4.06.83.1,1.27.15,2.1.21,4.95.5,6.92,2.61h0l44,46a8.72,8.72,0,0,1,0,11.92,8.05,8.05,0,0,1-5.86,2.53,7.9,7.9,0,0,1-3.23-.68V394a8.23,8.23,0,1,1-16.45,0V253.72l-29.59-30.93H125.54L96,253.72V394A8.37,8.37,0,0,1,87.73,402.5ZM84.5,272.6V394A3.24,3.24,0,1,0,91,394V251.71l32.44-33.92h112l32.45,33.92V394a3.24,3.24,0,1,0,6.45,0V258.47l6,6.26a3.14,3.14,0,0,0,4.49,0,3.68,3.68,0,0,0,0-5l-44-46,.38-.36-.4.36c-.68-.76-2.27-.92-3.8-1.08-.52,0-1-.1-1.5-.17l-2.74-.39c-2.64-.37-5.37-.75-8-1.27H122.1a3.09,3.09,0,0,0-2.24,1L86.18,247v1.5H84.74l-.12.13C84.66,256.87,84.63,269.87,84.5,272.6Z"/><path class="cls-2" d="M430,403.5H70a7.5,7.5,0,0,1,0-15H430a7.5,7.5,0,0,1,0,15Z"/></svg>