<svg id="Layer_1" data-name="Layer 1" xmlns="http://www.w3.org/2000/svg" viewBox="0 0 500 500"><defs><style>.cls-1{fill:#5b6c7c;}.cls-2{fill:#fff;}.cls-3{fill:#37c1ce;}</style></defs><title>V2 Icons for loan application</title><path class="cls-1" d="M99.14,266.05l7.42,0V229.66H93.28v36.4Z"/><path class="cls-1" d="M108.06,267.57H91.78v-39.4h16.28Zm-8.92-3h5.92v-33.4H94.78v33.4Z"/><path class="cls-1" d="M401.13,266.05h5.59v-36.4H393.44v36.41Z"/><path class="cls-1" d="M391.94,267.57V228.16h16.28v39.4h-7.09Zm3-36.41v33.4h10.28v-33.4Z"/><path class="cls-1" d="M99.14,244.65h7.42V208.25H93.28v36.4Z"/><path class="cls-1" d="M108.06,246.16H91.78V206.75h16.28Zm-8.92-3h5.92V209.75H94.78v33.4Z"/><path class="cls-1" d="M401.13,244.65h5.59v-36.4H393.44v36.41Z"/><path class="cls-1" d="M391.94,246.16V206.75h16.28v39.41H391.94Zm3-36.41v33.4h10.28v-33.4Z"/><path class="cls-1" d="M292.67,351.64c-4.31-8-15.72-1.74-12.67,5.25a6.92,6.92,0,0,0,2.67,3c5.26,3.32,10.76-.39,10.76-5.37A6.07,6.07,0,0,0,292.67,351.64Z"/><path class="cls-1" d="M286.8,362.66a9.26,9.26,0,0,1-4.93-1.5,8.33,8.33,0,0,1-3.24-3.67c-1.93-4.4.68-8.46,4.25-10.2A8.15,8.15,0,0,1,294,350.93h0a7.49,7.49,0,0,1,.94,3.59,8.14,8.14,0,0,1-8.13,8.14Zm0-13.28a6.1,6.1,0,0,0-2.6.61c-2.21,1.08-4,3.51-2.81,6.3a5.34,5.34,0,0,0,2.09,2.33,5.59,5.59,0,0,0,5.8.4,5.15,5.15,0,0,0,2.66-4.51,4.52,4.52,0,0,0-.58-2.16A5.05,5.05,0,0,0,286.79,349.38Z"/><path class="cls-1" d="M401.13,267.05h-7.69v1.15H326.71c0,4.24,0,8.69.06,13.28h66.67v66.4H326.66c0,4.84-.08,9.31-.13,13.28h66.91v26.57H324.38v-1.24c-4,0-8.49.1-13.29.14v1.1H256.64v-1H243.36v1H188.24v-1.14c-4.82,0-9.33-.09-13.28-.15v1.29h-68.4V361.15h66.18c-.05-4-.09-8.45-.12-13.28H106.56v-66.4h66c0-4.59,0-9,.06-13.28h-66V267H93.28V394.36A6.64,6.64,0,0,0,99.92,401H400.08a6.64,6.64,0,0,0,6.64-6.64V267.05Z"/><path class="cls-1" d="M400.08,402.5H99.92a8.15,8.15,0,0,1-8.14-8.14V265.54h16.28v1.15h66v1.5c0,4.24,0,8.7-.06,13.28V283h-66v63.4h66.05v1.49c0,4.82.07,9.29.12,13.28l0,1.51h-66.2v23.57h65.4v-1.31l1.52,0c4,.06,8.46.11,13.27.15h1.49v1.13h52.12v-1h16.28v1h51.45v-1.09h1.49c4.79,0,9.3-.09,13.27-.14l1.53,0v1.27h66.06V362.65H325l0-1.51c.05-4,.09-8.44.13-13.28v-1.49h66.77V283H325.27v-1.5c0-4.58,0-9-.06-13.28v-1.5h66.74v-1.15h16.28V394.36A8.15,8.15,0,0,1,400.08,402.5ZM94.78,268.55V394.36a5.15,5.15,0,0,0,5.14,5.14H400.08a5.15,5.15,0,0,0,5.14-5.14V268.55H394.94v1.15H328.22c0,3.32,0,6.76,0,10.28h66.68v69.4H328.15c0,3.68-.06,7.12-.1,10.28h66.89v29.57H322.88V388l-10.29.11v1.11H255.14v-1H244.86v1H186.74v-1.15c-3.66,0-7.13-.07-10.28-.12v1.27h-71.4V359.65h66.16c0-3.17-.07-6.61-.09-10.28H105.06V280h66c0-3.53,0-7,0-10.28h-66v-1.14H94.78Z"/><path class="cls-1" d="M175,385.23c3.94-.06,8.46-.11,13.28-.15V254.9h55.12v130h13.28v-130h54.45V385.11c4.79,0,9.31.08,13.29.14v-24.1h1c0-4-.09-8.44-.12-13.28h-.87v-66.4h.78c0-4.59,0-9,.06-13.28h-.84V248.26a6.65,6.65,0,0,0-6.65-6.64H181.6a6.64,6.64,0,0,0-6.64,6.64v19.93h-.88c0,4.24,0,8.69.06,13.28H175v66.4H174c0,4.83-.07,9.29-.12,13.28H175Z"/><path class="cls-1" d="M325.88,386.77l-1.53,0c-4-.06-8.48-.11-13.27-.14l-1.49,0V256.4H258.14v130H241.86v-130H189.74V386.57h-1.49c-4.81,0-9.33.09-13.27.15l-1.52,0v-24.1h-1.07l0-1.51c.05-4,.09-8.46.12-13.28v-1.49h.92V283h-.82v-1.5c0-4.58,0-9-.06-13.28v-1.5h.89V248.26a8.15,8.15,0,0,1,8.14-8.14H317.73a8.16,8.16,0,0,1,8.15,8.14v18.43h.85v1.5c0,4.25-.05,8.7-.06,13.28V283h-.77v63.4h.86v1.49c0,4.84.08,9.3.13,13.28v1.51h-1Zm-13.29-3.15c3.65,0,7.12.06,10.29.11V359.65h1c0-3.16-.07-6.6-.1-10.28h-.88V280h.78c0-3.52,0-7,0-10.28h-.83V248.26a5.15,5.15,0,0,0-5.15-5.14H181.6a5.15,5.15,0,0,0-5.14,5.14v21.43h-.88c0,3.31,0,6.75,0,10.28h.83v69.4h-.94c0,3.67-.06,7.11-.09,10.28h1v24.06c3.15,0,6.62-.08,10.28-.12V253.4h58.12v130h10.28v-130h57.45Z"/><path class="cls-1" d="M286.59,294.75a6.83,6.83,0,0,0-6.44,6.92v26a6.83,6.83,0,0,0,6.44,6.92,6.64,6.64,0,0,0,6.84-6.64V301.39A6.64,6.64,0,0,0,286.59,294.75Z"/><path class="cls-1" d="M286.8,336.09h-.26a8.35,8.35,0,0,1-7.89-8.42v-26a8.35,8.35,0,0,1,7.89-8.42h0a8.12,8.12,0,0,1,5.92,2.3,8,8,0,0,1,2.47,5.84V328a8.14,8.14,0,0,1-8.13,8.14Zm-.17-39.84a5.33,5.33,0,0,0-5,5.42v26a5.33,5.33,0,0,0,5,5.42,5.14,5.14,0,0,0,5.3-5.14V301.39a5.1,5.1,0,0,0-1.56-3.69,5,5,0,0,0-3.74-1.45Z"/><path class="cls-1" d="M430,403.09H70a7.09,7.09,0,0,1,0-14.18H430a7.09,7.09,0,0,1,0,14.18Z"/><path class="cls-2" d="M312,168.18h41.18V188.1c0,10.8-9.43,19.92-20.59,19.92C321.67,208,312,199.18,312,188.1Z"/><path class="cls-3" d="M353.17,168.18V188.1c0,10.8-9.43,19.92-20.59,19.92C321.67,208,312,199.18,312,188.1V168.18h41.18m0-14H312a14,14,0,0,0-14,14V188.1a33.23,33.23,0,0,0,10.56,24.26,34.7,34.7,0,0,0,48.24-.19,33.74,33.74,0,0,0,10.38-24.07V168.18a14,14,0,0,0-14-14Z"/><path class="cls-2" d="M256.94,168.18h41.17V188.1c0,10.8-9.42,19.92-20.58,19.92-10.91,0-20.59-8.84-20.59-19.92Z"/><path class="cls-3" d="M298.11,168.18V188.1c0,10.8-9.42,19.92-20.58,19.92-10.91,0-20.59-8.84-20.59-19.92V168.18h41.17m0-14H256.94a14,14,0,0,0-14,14V188.1a33.23,33.23,0,0,0,10.56,24.26,34.7,34.7,0,0,0,48.24-.19,33.77,33.77,0,0,0,10.37-24.07V168.18a14,14,0,0,0-14-14Z"/><path class="cls-2" d="M201.89,168.18h41.17V188.1c0,10.8-9.43,19.92-20.59,19.92-10.9,0-20.58-8.84-20.58-19.92Z"/><path class="cls-3" d="M243.06,168.18V188.1c0,10.8-9.43,19.92-20.59,19.92-10.9,0-20.58-8.84-20.58-19.92V168.18h41.17m0-14H201.89a14,14,0,0,0-14,14V188.1a33.23,33.23,0,0,0,10.56,24.26,34.7,34.7,0,0,0,48.24-.19,33.77,33.77,0,0,0,10.37-24.07V168.18a14,14,0,0,0-14-14Z"/><path class="cls-2" d="M146.83,168.18H188V188.1c0,10.8-9.43,19.92-20.59,19.92-10.9,0-20.59-8.84-20.59-19.92Z"/><path class="cls-3" d="M188,168.18V188.1c0,10.8-9.43,19.92-20.59,19.92-10.9,0-20.59-8.84-20.59-19.92V168.18H188m0-14H146.83a14,14,0,0,0-14,14V188.1a33.23,33.23,0,0,0,10.56,24.26,34.7,34.7,0,0,0,48.24-.19A33.74,33.74,0,0,0,202,188.1V168.18a14,14,0,0,0-14-14Z"/><path class="cls-2" d="M408.22,188.1c0,11-9.64,19.92-20.59,19.92-11.16,0-20.58-9.12-20.58-19.92V168.18h41.17Z"/><path class="cls-3" d="M408.22,168.18V188.1c0,11-9.64,19.92-20.59,19.92-11.16,0-20.58-9.12-20.58-19.92V168.18h41.17m0-14H367.05a14,14,0,0,0-14,14V188.1a33.77,33.77,0,0,0,10.37,24.07,34.71,34.71,0,0,0,48.27.17,33.26,33.26,0,0,0,10.53-24.24V168.18a14,14,0,0,0-14-14Z"/><path class="cls-2" d="M91.78,168.18H133V188.1c0,10.8-9.42,19.92-20.58,19.92-10.91,0-20.59-8.84-20.59-19.92Z"/><path class="cls-3" d="M133,168.18V188.1c0,10.8-9.42,19.92-20.58,19.92-10.91,0-20.59-8.84-20.59-19.92V168.18H133m0-14H91.78a14,14,0,0,0-14,14V188.1a33.23,33.23,0,0,0,10.56,24.26,34.7,34.7,0,0,0,48.24-.19A33.77,33.77,0,0,0,147,188.1V168.18a14,14,0,0,0-14-14Z"/></svg>