<svg id="Layer_1" data-name="Layer 1" xmlns="http://www.w3.org/2000/svg" viewBox="0 0 500 500"><defs><style>.cls-1{fill:#37c1ce;}.cls-2{fill:#5b6c7c;}</style></defs><title>V2 Icons for loan application</title><path class="cls-1" d="M298.38,287.72h.25c0-3.17.09-9.29.15-12.89h-.4c-.08,0-.11-6.16-.09-11.22l-.1,0a51.07,51.07,0,0,0-24.25.63,40.87,40.87,0,0,0,1-9c0-24.65-21.43-37.34-22.34-37.87a5.93,5.93,0,0,0-5.93,0c-.92.53-22.34,13.22-22.34,37.87a40.79,40.79,0,0,0,1,9,50.52,50.52,0,0,0-24.66-.5,5.88,5.88,0,0,0-4.19,4.19c-.28,1-6.45,25.15,11,42.58,10.18,10.18,22.7,12.36,31.54,12.36a49.7,49.7,0,0,0,10.66-1.1,49.7,49.7,0,0,0,10.66,1.1c8.84,0,21.36-2.18,31.54-12.36a40.64,40.64,0,0,0,6.34-8.18l.12.2C298.26,297.48,298.28,287.72,298.38,287.72Zm-54.64,20.46c-.05,1-.12,1.84-.21,2.61-6.06.67-18.44.62-27.71-8.65s-9.27-21.6-8.54-27.59c6-.72,18.27-.78,27.58,8.54.28.28.55.56.82.85s.35.4.53.59a32,32,0,0,1,7.53,19.79C243.69,305.68,243.69,307,243.74,308.18Zm10.35-31.35a41.54,41.54,0,0,1-4.45,4.14,42.73,42.73,0,0,1-4.35-4c-.34-.39-.68-.78-1-1.16a31.27,31.27,0,0,1-8.09-20.52c0-13.18,8.72-21.82,13.47-25.54,4.75,3.73,13.47,12.37,13.47,25.54a31.26,31.26,0,0,1-8.12,20.6C254.67,276.17,254.38,276.5,254.09,276.83Zm38.18,3.5c-.16,6.4-1.92,14.94-8.79,21.81-9.31,9.3-21.63,9.34-27.7,8.66-.1-.84-.17-1.8-.22-2.86s0-2.16,0-3.32c.25-6.4,2.12-14.79,8.86-21.53,9.31-9.32,21.58-9.26,27.58-8.54.12,1.06.22,2.32.26,3.73C292.26,278.94,292.26,279.63,292.27,280.33Z"/><path class="cls-1" d="M260.31,323.36a50.29,50.29,0,0,1-10.66-1.08A50.29,50.29,0,0,1,239,323.36c-8.84,0-21.56-2.17-31.9-12.5-17.62-17.63-11.38-42-11.11-43.06a6.45,6.45,0,0,1,4.55-4.55,51.83,51.83,0,0,1,24.13.3,42,42,0,0,1-.83-8.3c0-24.92,21.66-37.77,22.59-38.3a6.42,6.42,0,0,1,6.43,0c.92.53,22.59,13.37,22.59,38.3a41.39,41.39,0,0,1-.84,8.31,52,52,0,0,1,23.59-.45l.5-.11.09.6c0,4.79,0,9.34.06,10.72h.44l0,3.19c-.06,3.45-.13,7.73-.1,10.2v.5h-.3c-.06,1.89-.08,9.71,0,14.31v1.84l-.63-1.06a41.36,41.36,0,0,1-6,7.56C281.87,321.19,269.15,323.36,260.31,323.36Zm-10.66-2.1.11,0a49.66,49.66,0,0,0,10.55,1.08c8.66,0,21.1-2.12,31.19-12.21a40.59,40.59,0,0,0,6.26-8.08l0-.08c-.08-9.47,0-14.4.23-14.63l.1-.11c0-2.52.05-6.52.1-9.76l0-2.18h-.09l-.15-.15c-.17-.17-.27-.27-.24-11.13a51,51,0,0,0-23.71.69l-.81.23.19-.82a40.84,40.84,0,0,0,1-8.89c0-24.36-21.19-36.92-22.09-37.44a5.43,5.43,0,0,0-5.43,0c-.91.52-22.1,13.09-22.1,37.44a40.09,40.09,0,0,0,1,8.88l.18.82-.8-.23a50.48,50.48,0,0,0-24.4-.5,5.44,5.44,0,0,0-3.84,3.84c-.27,1-6.38,24.87,10.85,42.1,10.09,10.09,22.53,12.21,31.19,12.21a49.66,49.66,0,0,0,10.55-1.08Zm10.75-9.7a42.31,42.31,0,0,1-4.68-.26l-.4-.05,0-.39c-.1-.92-.17-1.9-.21-2.9s0-2.22,0-3.33c.25-6.14,2-14.9,9-21.89,9.35-9.36,21.55-9.46,28-8.69l.39.05,0,.39c.15,1.22.24,2.49.27,3.78,0,.68,0,1.35,0,2.05v0h0c-.16,6.18-1.84,15-8.94,22.14C276.41,309.91,267.15,311.56,260.4,311.56Zm-4.17-1.21c6.39.65,18,.31,26.89-8.56,6.87-6.87,8.5-15.46,8.65-21.46,0-.71,0-1.39,0-2.06,0-1.1-.1-2.2-.21-3.27-6.35-.7-17.9-.43-26.78,8.44-6.77,6.77-8.48,15.27-8.72,21.2,0,1.09,0,2.22,0,3.31C256.1,308.76,256.15,309.57,256.23,310.35ZM239,311.54c-6.77,0-16.07-1.64-23.49-9.05-9.36-9.36-9.45-21.56-8.68-28l.05-.39.39,0c6.44-.78,18.64-.68,28,8.68.28.28.56.57.82.86l.16.18.37.42c5.87,6.7,7.41,14.63,7.67,20.09q-.08,2,0,3.87v0c-.05.9-.12,1.79-.22,2.64l0,.39-.4.05A44.11,44.11,0,0,1,239,311.54ZM207.73,275c-.71,6.35-.44,17.91,8.44,26.79s20.49,9.19,26.91,8.55c.07-.7.12-1.43.16-2.16-.05-1.28-.05-2.59,0-3.88a31.65,31.65,0,0,0-7.41-19.44l-.38-.43-.15-.16c-.25-.27-.51-.55-.79-.83C225.63,274.56,214.07,274.3,207.73,275Zm41.91,6.61-.31-.25a41.39,41.39,0,0,1-4.4-4.09c-.35-.4-.69-.78-1.05-1.16-5.38-6.23-8.22-13.44-8.22-20.86,0-13.24,8.56-21.93,13.66-25.93l.31-.25.31.25c5.1,4,13.66,12.7,13.66,25.93a31.72,31.72,0,0,1-8.25,20.92c-.31.34-.6.66-.88,1h0a41.45,41.45,0,0,1-4.51,4.19Zm0-51.27c-5,4-13,12.36-13,24.91,0,7.28,2.68,14.07,8,20.19.35.38.71.77,1,1.17a42.31,42.31,0,0,0,4,3.72,39.86,39.86,0,0,0,4.08-3.83l.89-1c5.3-6.1,8-12.92,8-20.26C262.6,242.7,254.62,234.34,249.63,230.34Z"/><path class="cls-1" d="M201.75,302.53l.12-.2a40.64,40.64,0,0,0,6.34,8.18c10.17,10.18,22.7,12.36,31.54,12.36a49.7,49.7,0,0,0,10.66-1.1,49.67,49.67,0,0,0,10.65,1.1c8.85,0,21.37-2.18,31.55-12.36,17.43-17.43,11.25-41.56,11-42.58a5.88,5.88,0,0,0-4.19-4.19,50.52,50.52,0,0,0-24.66.5,40.79,40.79,0,0,0,1-9c0-24.65-21.43-37.34-22.34-37.87a5.93,5.93,0,0,0-5.93,0c-.91.53-22.34,13.22-22.34,37.87a40.87,40.87,0,0,0,1,9,51.07,51.07,0,0,0-24.25-.63l-.1,0c0,5.06,0,11.22-.09,11.22h-.4c.06,3.6.19,9.72.15,12.89h.25C201.78,287.72,201.8,297.48,201.75,302.53Zm54.57,1.79a31.92,31.92,0,0,1,7.53-19.79c.18-.19.35-.39.53-.59s.53-.57.81-.85c9.32-9.32,21.59-9.26,27.59-8.54.72,6,.78,18.27-8.54,27.59s-21.65,9.32-27.71,8.65c-.09-.77-.16-1.65-.21-2.61C256.36,307,256.37,305.68,256.32,304.32Zm-11.24-28.47a31.26,31.26,0,0,1-8.12-20.6c0-13.17,8.72-21.81,13.47-25.54,4.74,3.72,13.47,12.36,13.47,25.54a31.27,31.27,0,0,1-8.09,20.52c-.36.38-.71.77-1,1.16a42.73,42.73,0,0,1-4.35,4,41.54,41.54,0,0,1-4.45-4.14C245.68,276.5,245.39,276.17,245.08,275.85Zm-37.29,2.43c0-1.41.14-2.67.26-3.73,6-.72,18.26-.78,27.58,8.54,6.74,6.74,8.6,15.13,8.86,21.53,0,1.16,0,2.27,0,3.32s-.12,2-.21,2.86c-6.07.68-18.39.64-27.7-8.66-6.87-6.87-8.63-15.41-8.79-21.81C207.8,279.63,207.8,278.94,207.79,278.28Z"/><path class="cls-1" d="M261.06,323.36a50.26,50.26,0,0,1-10.65-1.08,50.29,50.29,0,0,1-10.66,1.08c-8.85,0-21.56-2.17-31.9-12.5a41.7,41.7,0,0,1-6-7.56l-.63,1.06v-1.84c.05-4.59,0-12.42,0-14.31H201l-.07-.5c0-2.46,0-6.74-.1-10.18l-.06-3.21h.44c0-1.38.08-5.93.06-10.72V263l.6.13a52,52,0,0,1,23.59.45,41.39,41.39,0,0,1-.84-8.31c0-24.93,21.67-37.77,22.59-38.3a6.42,6.42,0,0,1,6.43,0c.92.53,22.59,13.38,22.59,38.3a42,42,0,0,1-.83,8.3,51.84,51.84,0,0,1,24.13-.3,6.44,6.44,0,0,1,4.54,4.55c.28,1,6.52,25.43-11.11,43.06C282.63,321.19,269.91,323.36,261.06,323.36Zm-10.65-2.1.11,0a49.63,49.63,0,0,0,10.54,1.08c8.66,0,21.11-2.12,31.2-12.21,17.23-17.23,11.12-41.09,10.85-42.1a5.44,5.44,0,0,0-3.84-3.84,50.49,50.49,0,0,0-24.4.5l-.8.23.18-.82a40.68,40.68,0,0,0,1-8.88c0-24.35-21.19-36.92-22.09-37.44a5.43,5.43,0,0,0-5.43,0c-.9.52-22.09,13.08-22.09,37.44a40.84,40.84,0,0,0,1,8.89l.19.82-.81-.23a51,51,0,0,0-23.71-.69c0,10.86-.07,11-.24,11.13l-.15.15h-.09l0,2.19c.06,3.24.13,7.23.11,9.76l.1.1c.23.23.31,5.16.22,14.63l.05.08a40.51,40.51,0,0,0,6.26,8.08c10.09,10.09,22.53,12.21,31.19,12.21a49.75,49.75,0,0,0,10.55-1.08Zm-10.75-9.7c-6.75,0-16-1.65-23.43-9.07-7.1-7.1-8.78-16-8.94-22.14,0-.73,0-1.4,0-2.06h0c0-1.27.12-2.54.27-3.78l0-.39.39-.05c6.44-.77,18.63-.67,28,8.69,7,7,8.76,15.75,9,21.86,0,1.13,0,2.23,0,3.32s-.11,2-.21,2.94l-.05.39-.39.05A42.31,42.31,0,0,1,239.66,311.56Zm-31.37-33.28c0,.67,0,1.35,0,2.06.15,6,1.78,14.58,8.64,21.45,8.88,8.87,20.5,9.21,26.9,8.56.08-.79.13-1.61.17-2.43,0-1.08,0-2.2,0-3.32-.24-5.89-1.94-14.39-8.71-21.16-8.88-8.87-20.43-9.14-26.78-8.44C208.39,276.08,208.31,277.18,208.29,278.28Zm52.82,33.26a44.31,44.31,0,0,1-4.64-.25l-.39-.05-.05-.39c-.09-.86-.16-1.75-.21-2.64.05-1.31.05-2.6,0-3.88v0c.26-5.46,1.8-13.39,7.66-20.09l.53-.59c.27-.3.55-.59.83-.87,9.36-9.36,21.56-9.46,28-8.68l.39,0,0,.39c.77,6.44.68,18.64-8.69,28C277.18,309.9,267.88,311.54,261.11,311.54Zm-4.13-1.2c6.42.64,18.07.28,26.91-8.55S293,281.35,292.33,275c-6.35-.7-17.91-.44-26.78,8.44-.28.28-.54.56-.8.84l-.53.59a31.61,31.61,0,0,0-7.4,19.45c.05,1.29.05,2.59,0,3.88C256.85,308.9,256.91,309.63,257,310.34Zm-6.56-28.73-.31-.25a41.45,41.45,0,0,1-4.51-4.19c-.29-.34-.58-.66-.88-1v0a31.72,31.72,0,0,1-8.25-20.92c0-13.23,8.56-21.93,13.66-25.93l.31-.25.31.25c5.1,4,13.66,12.69,13.66,25.93a31.74,31.74,0,0,1-8.21,20.84c-.37.4-.71.78-1.05,1.17a41.51,41.51,0,0,1-4.41,4.1Zm-5-6.1c.31.33.6.66.89,1a41,41,0,0,0,4.08,3.83,41.27,41.27,0,0,0,4-3.74c.33-.38.68-.77,1-1.16,5.27-6.11,7.95-12.9,7.95-20.18,0-12.55-8-20.91-13-24.91-5,4-13,12.36-13,24.91C237.46,262.58,240.15,269.4,245.45,275.51Z"/><path class="cls-1" d="M173.2,287.72h.25c0-3.17.09-9.29.14-12.89h-.39c-.08,0-.11-6.16-.1-11.22l-.1,0a51,51,0,0,0-24.24.63,40.87,40.87,0,0,0,1-9c0-24.65-21.43-37.34-22.35-37.87a5.93,5.93,0,0,0-5.93,0c-.91.53-22.34,13.22-22.34,37.87a40.78,40.78,0,0,0,1,9,50.52,50.52,0,0,0-24.66-.5,5.91,5.91,0,0,0-4.2,4.19c-.27,1-6.45,25.15,11,42.58,10.18,10.18,22.7,12.36,31.55,12.36a49.7,49.7,0,0,0,10.66-1.1,49.49,49.49,0,0,0,10.65,1.1c8.85,0,21.37-2.18,31.55-12.36a40.57,40.57,0,0,0,6.33-8.18l.12.2C173.08,297.48,173.1,287.72,173.2,287.72Zm-54.65,20.46c0,1-.12,1.84-.2,2.61-6.06.67-18.44.62-27.72-8.65s-9.26-21.6-8.54-27.59c6-.72,18.27-.78,27.59,8.54.28.28.55.56.81.85l.53.59a31.86,31.86,0,0,1,7.53,19.79C118.5,305.68,118.51,307,118.55,308.18Zm10.36-31.35a41.53,41.53,0,0,1-4.46,4.14,42.75,42.75,0,0,1-4.34-4c-.34-.39-.69-.78-1-1.16A31.27,31.27,0,0,1,111,255.25c0-13.18,8.72-21.82,13.46-25.54,4.76,3.73,13.47,12.37,13.47,25.54a31.26,31.26,0,0,1-8.12,20.6C129.49,276.17,129.19,276.5,128.91,276.83Zm38.18,3.5c-.17,6.4-1.93,14.94-8.8,21.81-9.3,9.3-21.63,9.34-27.7,8.66-.09-.84-.17-1.8-.21-2.86s0-2.16,0-3.32c.26-6.4,2.12-14.79,8.87-21.53,9.31-9.32,21.58-9.26,27.57-8.54.13,1.06.23,2.32.27,3.73C167.07,278.94,167.07,279.63,167.09,280.33Z"/><path class="cls-1" d="M135.12,323.36a50.08,50.08,0,0,1-10.65-1.08,50.29,50.29,0,0,1-10.66,1.08c-8.85,0-21.57-2.17-31.9-12.5-17.63-17.63-11.38-42-11.11-43.06a6.44,6.44,0,0,1,4.55-4.55,51.82,51.82,0,0,1,24.13.3,41.22,41.22,0,0,1-.84-8.3c0-24.92,21.67-37.77,22.59-38.3a6.44,6.44,0,0,1,6.44,0c.92.53,22.58,13.37,22.58,38.3a42.13,42.13,0,0,1-.83,8.31,52.19,52.19,0,0,1,23.59-.45l.59-.13v.62c0,4.71,0,9.33.06,10.72h.44l0,3.21c-.06,3.44-.14,7.72-.11,10.18v.5h-.29c-.07,1.89-.08,9.71,0,14.31l0,1.84L173,303.3a40.85,40.85,0,0,1-6,7.56C156.69,321.19,144,323.36,135.12,323.36Zm-10.65-2.1.11,0a49.63,49.63,0,0,0,10.54,1.08c8.66,0,21.1-2.12,31.2-12.21a40.46,40.46,0,0,0,6.25-8.08l.05-.08c-.09-9.47,0-14.4.22-14.63l.1-.11c0-2.52.05-6.51.11-9.75l0-2.19H173l-.15-.15c-.16-.17-.27-.27-.24-11.13a51,51,0,0,0-23.71.69l-.8.23.18-.82a40.24,40.24,0,0,0,1-8.89c0-24.36-21.19-36.92-22.09-37.44a5.45,5.45,0,0,0-5.44,0c-.9.52-22.09,13.09-22.09,37.44a40.68,40.68,0,0,0,1,8.88l.19.82-.81-.23a50.49,50.49,0,0,0-24.4-.5,5.44,5.44,0,0,0-3.84,3.84c-.27,1-6.37,24.87,10.86,42.1,10.09,10.09,22.53,12.21,31.19,12.21a49.84,49.84,0,0,0,10.55-1.08Zm10.75-9.7a42.16,42.16,0,0,1-4.68-.26l-.4-.05,0-.39c-.11-.94-.18-1.92-.22-2.9s0-2.24,0-3.32c.25-6.15,2-14.91,9-21.9,9.36-9.36,21.56-9.46,28-8.69l.39.05,0,.39c.14,1.23.23,2.5.26,3.78,0,.68,0,1.35,0,2.05v0h0c-.16,6.18-1.83,15-8.93,22.14C151.22,309.91,142,311.56,135.22,311.56Zm-4.17-1.21c6.39.65,18,.31,26.89-8.56,6.86-6.87,8.49-15.46,8.65-21.46,0-.71,0-1.39,0-2.06,0-1.09-.1-2.19-.22-3.27-6.35-.7-17.9-.43-26.77,8.44-6.77,6.77-8.48,15.27-8.72,21.2,0,1.07,0,2.2,0,3.31C130.91,308.75,131,309.56,131.05,310.35Zm-17.29,1.19c-6.76,0-16.07-1.64-23.48-9.05-9.36-9.36-9.46-21.56-8.68-28l0-.39.39,0c6.44-.78,18.64-.68,28,8.68.29.28.56.57.83.86l.15.18.38.42c5.87,6.7,7.4,14.63,7.66,20.09,0,1.32,0,2.61,0,3.88v0c0,.89-.11,1.78-.21,2.64l0,.39-.4.05A44.31,44.31,0,0,1,113.76,311.54ZM82.54,275c-.7,6.35-.43,17.91,8.44,26.79s20.5,9.19,26.91,8.55c.07-.71.13-1.43.16-2.16,0-1.29,0-2.59,0-3.88a31.65,31.65,0,0,0-7.41-19.44,5.3,5.3,0,0,1-.38-.43l-.15-.16-.79-.83C100.45,274.56,88.89,274.3,82.54,275Zm41.91,6.61-.31-.25a43.42,43.42,0,0,1-4.4-4.09c-.34-.4-.69-.78-1-1.16-5.38-6.23-8.22-13.44-8.22-20.86,0-13.23,8.55-21.93,13.66-25.93l.3-.25.31.25c5.1,4,13.66,12.69,13.66,25.93a31.76,31.76,0,0,1-8.24,20.92l-.89,1h0a41.45,41.45,0,0,1-4.51,4.19Zm0-51.27c-5,4-13,12.36-13,24.91,0,7.28,2.68,14.07,8,20.19.35.38.7.77,1,1.17a43.58,43.58,0,0,0,4,3.72,41,41,0,0,0,4.09-3.83c.29-.33.58-.66.89-1,5.29-6.1,8-12.92,8-20.26C137.42,242.7,129.43,234.34,124.44,230.34Z"/><path class="cls-1" d="M76.57,302.53l.12-.2A40.57,40.57,0,0,0,83,310.51c10.18,10.18,22.7,12.36,31.55,12.36a49.49,49.49,0,0,0,10.65-1.1,49.7,49.7,0,0,0,10.66,1.1c8.85,0,21.37-2.18,31.55-12.36,17.43-17.43,11.25-41.56,11-42.58a5.91,5.91,0,0,0-4.2-4.19,50.52,50.52,0,0,0-24.66.5,40.78,40.78,0,0,0,1-9c0-24.65-21.43-37.34-22.34-37.87a6,6,0,0,0-5.94,0c-.91.53-22.34,13.22-22.34,37.87a40.87,40.87,0,0,0,1,9,51.08,51.08,0,0,0-24.25-.63l-.09,0c0,5.06,0,11.22-.1,11.22H76.1c.05,3.6.18,9.72.14,12.89h.25C76.59,287.72,76.61,297.48,76.57,302.53Zm54.57,1.79a31.86,31.86,0,0,1,7.53-19.79l.53-.59c.26-.29.53-.57.81-.85,9.32-9.32,21.59-9.26,27.59-8.54.72,6,.78,18.27-8.54,27.59s-21.66,9.32-27.72,8.65c-.08-.77-.16-1.65-.2-2.61C131.18,307,131.18,305.68,131.14,304.32ZM119.9,275.85a31.22,31.22,0,0,1-8.13-20.6c0-13.17,8.72-21.81,13.48-25.54,4.74,3.72,13.46,12.36,13.46,25.54a31.27,31.27,0,0,1-8.08,20.52c-.36.38-.71.77-1,1.16a42.75,42.75,0,0,1-4.34,4,41.53,41.53,0,0,1-4.46-4.14C120.49,276.5,120.2,276.17,119.9,275.85Zm-37.3,2.43c0-1.41.14-2.67.27-3.73,6-.72,18.26-.78,27.57,8.54,6.75,6.74,8.61,15.13,8.87,21.53,0,1.16,0,2.27,0,3.32s-.12,2-.21,2.86c-6.07.68-18.4.64-27.7-8.66-6.88-6.87-8.63-15.41-8.8-21.81C82.62,279.63,82.62,278.94,82.6,278.28Z"/><path class="cls-1" d="M135.88,323.36a50.29,50.29,0,0,1-10.66-1.08,50.17,50.17,0,0,1-10.65,1.08c-8.85,0-21.57-2.17-31.9-12.5a40.85,40.85,0,0,1-6-7.56l-.64,1.06,0-1.84c0-4.59,0-12.42,0-14.31h-.21l-.07-.5c0-2.46,0-6.74-.11-10.18l0-3.21H76c0-1.38.07-5.93.06-10.72V263l.59.13a52,52,0,0,1,23.59.45,42.14,42.14,0,0,1-.84-8.31c0-24.93,21.67-37.77,22.59-38.3a6.44,6.44,0,0,1,6.44,0c.92.53,22.59,13.38,22.59,38.3a41.3,41.3,0,0,1-.84,8.3,51.82,51.82,0,0,1,24.13-.3,6.44,6.44,0,0,1,4.55,4.55c.27,1,6.52,25.43-11.11,43.06C157.45,321.19,144.73,323.36,135.88,323.36Zm-10.66-2.1.11,0a49.84,49.84,0,0,0,10.55,1.08c8.66,0,21.1-2.12,31.19-12.21,17.23-17.23,11.13-41.09,10.86-42.1a5.43,5.43,0,0,0-3.85-3.84,50.43,50.43,0,0,0-24.39.5l-.81.23.19-.82a40.68,40.68,0,0,0,1-8.88c0-24.35-21.19-36.92-22.09-37.44a5.45,5.45,0,0,0-5.44,0c-.9.52-22.09,13.08-22.09,37.44a40.24,40.24,0,0,0,1,8.89l.18.82-.81-.23a50.9,50.9,0,0,0-23.7-.69c0,10.86-.08,11-.25,11.13l-.14.15h-.1l0,2.19c.06,3.24.12,7.23.11,9.76l.1.1c.23.23.31,5.16.22,14.63l.05.08a40.46,40.46,0,0,0,6.25,8.08c10.1,10.09,22.54,12.21,31.2,12.21a49.63,49.63,0,0,0,10.54-1.08Zm-10.75-9.7c-6.75,0-16-1.65-23.43-9.07-7.1-7.1-8.78-16-8.93-22.14,0-.73,0-1.4,0-2.06h0c0-1.28.12-2.55.26-3.78l0-.39.39-.05c6.44-.77,18.63-.67,28,8.69,7,7,8.76,15.75,9,21.86,0,1.12,0,2.23,0,3.32s-.11,2-.22,2.94l0,.39-.4.05A42.16,42.16,0,0,1,114.47,311.56ZM83.1,278.28c0,.67,0,1.35,0,2.06.16,6,1.78,14.58,8.65,21.45,8.87,8.87,20.5,9.21,26.89,8.56.08-.79.14-1.61.17-2.43,0-1.08,0-2.21,0-3.32-.24-5.89-2-14.39-8.72-21.16-8.87-8.87-20.42-9.14-26.77-8.44C83.2,276.07,83.13,277.18,83.1,278.28Zm52.83,33.26a44.31,44.31,0,0,1-4.64-.25l-.4-.05,0-.39c-.1-.86-.17-1.75-.21-2.64,0-1.31,0-2.6,0-3.88v0a32.62,32.62,0,0,1,7.65-20.09l.53-.59c.28-.3.55-.59.84-.87,9.36-9.36,21.56-9.46,28-8.68l.39,0,0,.39c.78,6.44.68,18.64-8.68,28C152,309.9,142.69,311.54,135.93,311.54Zm-4.13-1.2c6.42.64,18.07.28,26.91-8.55s9.14-20.44,8.44-26.79c-6.35-.7-17.91-.44-26.79,8.44l-.8.84-.52.59c-5.66,6.47-7.15,14.14-7.41,19.45.05,1.29.05,2.59,0,3.88C131.67,308.9,131.72,309.63,131.8,310.34Zm-6.56-28.73-.31-.25a41.45,41.45,0,0,1-4.51-4.19c-.3-.34-.59-.66-.89-1v0a31.76,31.76,0,0,1-8.24-20.92c0-13.23,8.55-21.93,13.66-25.93l.31-.25.3.25c5.1,4,13.66,12.69,13.66,25.93A31.74,31.74,0,0,1,131,276.09c-.36.4-.71.78-1,1.17a43.54,43.54,0,0,1-4.41,4.1Zm-5-6.1.89,1a39.93,39.93,0,0,0,4.08,3.83,42.47,42.47,0,0,0,4-3.74c.33-.38.68-.77,1-1.16,5.28-6.11,8-12.9,8-20.18,0-12.55-8-20.91-13-24.91-5,4-13,12.36-13,24.91C112.27,262.58,115,269.4,120.27,275.51Z"/><path class="cls-1" d="M423.51,287.72h.25c0-3.17.09-9.29.14-12.89h-.39c-.08,0-.11-6.16-.1-11.22l-.09,0a51.08,51.08,0,0,0-24.25.63,40.87,40.87,0,0,0,1-9c0-24.65-21.43-37.34-22.34-37.87a6,6,0,0,0-5.94,0c-.91.53-22.34,13.22-22.34,37.87a40.78,40.78,0,0,0,1,9,50.52,50.52,0,0,0-24.66-.5,5.91,5.91,0,0,0-4.2,4.19c-.27,1-6.45,25.15,11,42.58,10.18,10.18,22.7,12.36,31.55,12.36a49.7,49.7,0,0,0,10.66-1.1,49.49,49.49,0,0,0,10.65,1.1c8.85,0,21.37-2.18,31.55-12.36a40.57,40.57,0,0,0,6.33-8.18l.12.2C423.39,297.48,423.41,287.72,423.51,287.72Zm-53.65,20.46c-.05,1-.12,1.84-.21,2.61-6.06.67-18.44.62-27.71-8.65s-9.26-21.6-8.54-27.59c6-.72,18.27-.78,27.58,8.54.28.28.55.56.82.85s.35.4.53.59a31.92,31.92,0,0,1,7.53,19.79C369.81,305.68,369.81,307,369.86,308.18Zm10.35-31.35a41.54,41.54,0,0,1-4.45,4.14,42.73,42.73,0,0,1-4.35-4c-.34-.39-.68-.78-1-1.16a31.27,31.27,0,0,1-8.09-20.52c0-13.18,8.73-21.82,13.47-25.54,4.75,3.73,13.47,12.37,13.47,25.54a31.26,31.26,0,0,1-8.12,20.6C380.79,276.17,380.5,276.5,380.21,276.83Zm38.18,3.5c-.16,6.4-1.92,14.94-8.79,21.81-9.31,9.3-21.63,9.34-27.7,8.66-.1-.84-.17-1.8-.21-2.86s0-2.16,0-3.32c.26-6.4,2.12-14.79,8.86-21.53,9.32-9.32,21.58-9.26,27.58-8.54.12,1.06.23,2.32.26,3.73C418.38,278.94,418.38,279.63,418.39,280.33Z"/><path class="cls-1" d="M385.43,323.36a50.17,50.17,0,0,1-10.65-1.08,50.29,50.29,0,0,1-10.66,1.08c-8.85,0-21.57-2.17-31.9-12.5-17.63-17.63-11.38-42-11.11-43.06a6.44,6.44,0,0,1,4.55-4.55,51.82,51.82,0,0,1,24.13.3,41.3,41.3,0,0,1-.84-8.3c0-24.92,21.67-37.77,22.59-38.3a6.44,6.44,0,0,1,6.44,0c.92.53,22.59,13.37,22.59,38.3a42.14,42.14,0,0,1-.84,8.31,52,52,0,0,1,23.59-.45l.59-.13v.62c0,4.79,0,9.34.06,10.72h.44l-.05,3.21c-.06,3.44-.14,7.72-.11,10.18v.5H424c-.06,1.89-.08,9.72,0,14.31l0,1.84-.64-1.06a40.85,40.85,0,0,1-6,7.56C407,321.19,394.28,323.36,385.43,323.36Zm-10.65-2.1.11,0a49.63,49.63,0,0,0,10.54,1.08c8.66,0,21.1-2.12,31.2-12.21a40.46,40.46,0,0,0,6.25-8.08l.05-.08c-.09-9.47,0-14.4.22-14.63l.1-.1c0-2.53.05-6.52.11-9.76l0-2.19h-.1l-.14-.15c-.17-.17-.28-.27-.25-11.13a50.9,50.9,0,0,0-23.7.69l-.81.23.18-.82a40.24,40.24,0,0,0,1-8.89c0-24.36-21.19-36.92-22.09-37.44a5.45,5.45,0,0,0-5.44,0c-.9.52-22.09,13.09-22.09,37.44a40.68,40.68,0,0,0,1,8.88l.19.82-.81-.23a50.43,50.43,0,0,0-24.39-.5,5.43,5.43,0,0,0-3.85,3.84c-.27,1-6.37,24.87,10.86,42.1,10.09,10.09,22.53,12.21,31.19,12.21a49.84,49.84,0,0,0,10.55-1.08Zm11.74-9.7a42.31,42.31,0,0,1-4.68-.26l-.39-.05-.05-.39c-.1-.94-.17-1.91-.21-2.9s0-2.22,0-3.33c.25-6.14,2-14.89,9-21.89,9.35-9.36,21.55-9.46,28-8.69l.39.05,0,.39c.15,1.22.24,2.49.27,3.78,0,.68,0,1.35,0,2.05v0h0c-.16,6.18-1.84,15-8.94,22.14C402.53,309.91,393.27,311.56,386.52,311.56Zm-4.17-1.21c6.39.65,18,.31,26.9-8.56,6.86-6.87,8.49-15.46,8.64-21.46,0-.71,0-1.4,0-2.06,0-1.1-.1-2.2-.21-3.27-6.35-.7-17.9-.43-26.78,8.44-6.77,6.77-8.48,15.27-8.72,21.2,0,1.09,0,2.22,0,3.31C382.22,308.75,382.27,309.56,382.35,310.35Zm-17.28,1.19c-6.77,0-16.07-1.64-23.49-9.05-9.36-9.36-9.45-21.56-8.68-28l.05-.39.39,0c6.44-.78,18.64-.68,28,8.68.28.28.56.57.82.86l.18.2.35.4c5.87,6.7,7.41,14.63,7.67,20.09-.05,1.32-.05,2.61,0,3.88v0c-.05.88-.12,1.77-.21,2.64l0,.39-.39.05A44.31,44.31,0,0,1,365.07,311.54ZM333.85,275c-.7,6.35-.44,17.91,8.44,26.79s20.49,9.19,26.91,8.55c.07-.72.12-1.44.16-2.16-.05-1.29-.05-2.59,0-3.88A31.65,31.65,0,0,0,362,284.86l-.35-.4-.17-.19c-.26-.27-.52-.55-.8-.83C351.75,274.56,340.19,274.3,333.85,275Zm41.91,6.61-.31-.25a41.39,41.39,0,0,1-4.4-4.09c-.35-.4-.69-.78-1.05-1.16-5.38-6.23-8.22-13.44-8.22-20.86,0-13.24,8.56-21.93,13.66-25.93l.31-.25.31.25c5.1,4,13.66,12.7,13.66,25.93a31.72,31.72,0,0,1-8.25,20.92c-.31.34-.6.66-.88,1h0a42.4,42.4,0,0,1-4.51,4.19Zm0-51.27c-5,4-13,12.36-13,24.91,0,7.28,2.68,14.07,8,20.19q.54.57,1.05,1.17a42.31,42.31,0,0,0,4,3.72,40.93,40.93,0,0,0,4.08-3.83l.89-1c5.3-6.1,8-12.92,8-20.26C388.72,242.7,380.74,234.34,375.75,230.34Z"/><path class="cls-1" d="M326.88,302.53l.12-.2a40.57,40.57,0,0,0,6.33,8.18c10.18,10.18,22.7,12.36,31.55,12.36a49.49,49.49,0,0,0,10.65-1.1,49.7,49.7,0,0,0,10.66,1.1c8.85,0,21.37-2.18,31.55-12.36,17.43-17.43,11.25-41.56,11-42.58a5.91,5.91,0,0,0-4.2-4.19,50.52,50.52,0,0,0-24.66.5,40.78,40.78,0,0,0,1-9c0-24.65-21.43-37.34-22.34-37.87a5.93,5.93,0,0,0-5.93,0c-.92.53-22.35,13.22-22.35,37.87a40.87,40.87,0,0,0,1,9,51,51,0,0,0-24.24-.63l-.1,0c0,5.06,0,11.22-.1,11.22h-.39c0,3.6.19,9.72.14,12.89h.25C326.9,287.72,326.92,297.48,326.88,302.53Zm54.57,1.79A31.86,31.86,0,0,1,389,284.53l.53-.59c.26-.29.53-.57.81-.85,9.32-9.32,21.59-9.26,27.59-8.54.72,6,.78,18.27-8.54,27.59s-21.66,9.32-27.72,8.65c-.08-.77-.16-1.65-.2-2.61C381.49,307,381.5,305.68,381.45,304.32Zm-11.24-28.47a31.26,31.26,0,0,1-8.12-20.6c0-13.17,8.71-21.81,13.47-25.54,4.74,3.72,13.46,12.36,13.46,25.54a31.27,31.27,0,0,1-8.08,20.52c-.36.38-.71.77-1.05,1.16a42.75,42.75,0,0,1-4.34,4,41.53,41.53,0,0,1-4.46-4.14C370.81,276.5,370.51,276.17,370.21,275.85Zm-37.3,2.43c0-1.41.14-2.67.27-3.73,6-.72,18.26-.78,27.57,8.54,6.75,6.74,8.61,15.13,8.87,21.53,0,1.16,0,2.27,0,3.32s-.12,2-.21,2.86c-6.07.68-18.4.64-27.7-8.66-6.87-6.87-8.63-15.41-8.8-21.81C332.93,279.63,332.93,278.94,332.91,278.28Z"/><path class="cls-1" d="M386.19,323.36a50.29,50.29,0,0,1-10.66-1.08,50.08,50.08,0,0,1-10.65,1.08c-8.85,0-21.57-2.17-31.9-12.5a41.39,41.39,0,0,1-6-7.57l-.58.93,0-1.7c0-4.6,0-12.42,0-14.31h-.21l-.07-.5c0-2.46-.05-6.74-.11-10.18l-.05-3.21h.44c0-1.39.07-6,.06-10.72V263l.59.13a52.19,52.19,0,0,1,23.59.45,42.13,42.13,0,0,1-.83-8.31c0-24.93,21.66-37.77,22.58-38.3a6.44,6.44,0,0,1,6.44,0c.92.53,22.59,13.38,22.59,38.3a41.22,41.22,0,0,1-.84,8.3,51.82,51.82,0,0,1,24.13-.3,6.44,6.44,0,0,1,4.55,4.55c.27,1,6.52,25.43-11.11,43.06C407.76,321.19,395,323.36,386.19,323.36Zm-10.66-2.1.11,0a49.84,49.84,0,0,0,10.55,1.08c8.66,0,21.1-2.12,31.19-12.21,17.23-17.23,11.13-41.09,10.86-42.1a5.44,5.44,0,0,0-3.84-3.84,50.49,50.49,0,0,0-24.4.5l-.81.23.19-.82a40.68,40.68,0,0,0,1-8.88c0-24.35-21.19-36.92-22.09-37.44a5.45,5.45,0,0,0-5.44,0c-.9.52-22.09,13.08-22.09,37.44a40.24,40.24,0,0,0,1,8.89l.18.82-.8-.23A51.08,51.08,0,0,0,327.4,264c0,10.86-.08,11-.24,11.13l-.15.15h-.1l0,2.19c.06,3.24.13,7.23.11,9.76l.1.1c.23.23.31,5.16.22,14.63l.05.08a40.46,40.46,0,0,0,6.25,8.08c10.1,10.09,22.54,12.21,31.2,12.21a49.63,49.63,0,0,0,10.54-1.08Zm-10.75-9.7c-6.74,0-16-1.65-23.43-9.07-7.1-7.1-8.77-16-8.93-22.14,0-.73,0-1.4,0-2.06h0c0-1.28.12-2.55.26-3.78l.05-.39.39-.05c6.44-.77,18.63-.67,28,8.69,7,7,8.76,15.75,9,21.86,0,1.12,0,2.23,0,3.32s-.11,2-.22,2.94l0,.39-.4.05A42.16,42.16,0,0,1,364.78,311.56Zm-31.37-33.28c0,.67,0,1.35,0,2.06.16,6,1.78,14.58,8.65,21.45,8.87,8.87,20.5,9.21,26.89,8.56.08-.79.14-1.61.17-2.43,0-1.08,0-2.21,0-3.32-.24-5.89-1.95-14.39-8.72-21.16-8.87-8.87-20.43-9.14-26.77-8.44C333.51,276.07,333.44,277.18,333.41,278.28Zm52.83,33.26a44.31,44.31,0,0,1-4.64-.25l-.4-.05,0-.39c-.1-.86-.17-1.75-.21-2.64,0-1.31,0-2.6,0-3.88v0c.26-5.46,1.79-13.39,7.65-20.09.14-.14.26-.28.39-.42l.14-.17c.28-.3.55-.59.84-.87,9.36-9.36,21.56-9.46,28-8.68l.39,0,0,.39c.78,6.44.68,18.64-8.68,28C402.31,309.9,393,311.54,386.24,311.54Zm-4.13-1.2c6.41.64,18.07.28,26.91-8.55s9.14-20.44,8.44-26.79c-6.35-.7-17.91-.44-26.79,8.44l-.8.84-.14.15c-.12.15-.25.3-.38.44-5.66,6.47-7.15,14.14-7.41,19.45.05,1.29.05,2.59,0,3.88C382,308.9,382,309.63,382.11,310.34Zm-6.56-28.73-.31-.25a41.45,41.45,0,0,1-4.51-4.19c-.3-.34-.59-.66-.89-1v0a31.76,31.76,0,0,1-8.24-20.92c0-13.24,8.56-21.93,13.66-25.93l.31-.25.3.25c5.11,4,13.66,12.7,13.66,25.93a31.78,31.78,0,0,1-8.2,20.84c-.37.4-.72.78-1.05,1.17a43.54,43.54,0,0,1-4.41,4.1Zm-5-6.1.89,1a39.93,39.93,0,0,0,4.08,3.83,42.47,42.47,0,0,0,4-3.74c.33-.38.68-.77,1-1.16,5.28-6.11,8-12.9,8-20.18,0-12.55-8-20.91-13-24.91-5,4-13,12.36-13,24.91C362.58,262.58,365.27,269.4,370.58,275.51Z"/><path class="cls-1" d="M202.81,243.6v0Z"/><polygon class="cls-1" points="203.26 243.8 202.87 243.63 202.96 243.68 202.31 243.51 202.35 243.4 202.35 243.4 202.36 243.38 202.85 243.61 203.29 243.72 202.95 243.65 203.28 243.76 203.03 243.69 203.26 243.8"/><path class="cls-1" d="M89,244.25c0-.29.12-.52.15-.65C89.12,243.81,89.07,244,89,244.25Z"/><path class="cls-1" d="M89.52,244.34l-1-.18h0c.06-.32.13-.57.17-.71l1,.29C89.61,243.94,89.56,244.14,89.52,244.34Z"/><path class="cls-1" d="M316.27,244.25c.06-.29.12-.52.16-.65C316.37,243.81,316.31,244,316.27,244.25Z"/><path class="cls-1" d="M316.76,244.34l-1-.18h0a6.55,6.55,0,0,1,.17-.7l1,.28Q316.82,244,316.76,244.34Z"/><path class="cls-2" d="M286,321.75H258v-.12H244.76v.12H144.35v-.12H131.14v.12H88.9a6.61,6.61,0,1,0,0,13.21H286a6.61,6.61,0,0,0,0-13.21Z"/><path class="cls-2" d="M286,337.45H88.9a9.1,9.1,0,1,1,0-18.19h39.75v-.13h18.2v.13h95.42v-.13h18.2v.13H286a9.1,9.1,0,0,1,0,18.19ZM88.9,324.24a4.12,4.12,0,1,0,0,8.23H286a4.12,4.12,0,0,0,0-8.23h-30.5v-.12h-8.22v.12H141.86v-.12h-8.23v.12Z"/><path class="cls-2" d="M413.91,321.75H371.6v-.12H358.39v.12h-22a6.61,6.61,0,1,0,0,13.21h77.51a6.61,6.61,0,1,0,0-13.21Z"/><path class="cls-2" d="M413.91,337.45H336.4a9.1,9.1,0,1,1,0-18.19h19.49v-.13h18.2v.13h39.82a9.1,9.1,0,1,1,0,18.19ZM336.4,324.24a4.12,4.12,0,0,0,0,8.23h77.51a4.12,4.12,0,0,0,0-8.23h-44.8v-.12h-8.23v.12Z"/><path class="cls-2" d="M312.3,321.75H312A6.61,6.61,0,0,0,312,335h.26a6.61,6.61,0,1,0,0-13.21Z"/><path class="cls-2" d="M312.3,337.45H312a9.1,9.1,0,1,1,0-18.19h.26a9.1,9.1,0,1,1,0,18.19ZM312,324.24a4.12,4.12,0,0,0,0,8.23h.26a4.12,4.12,0,1,0,0-8.23Z"/></svg>