<?xml version="1.0" encoding="utf-8"?>
<!-- Generator: Adobe Illustrator 23.0.2, SVG Export Plug-In . SVG Version: 6.00 Build 0)  -->
<svg version="1.1" id="Layer_1" xmlns="http://www.w3.org/2000/svg" xmlns:xlink="http://www.w3.org/1999/xlink" x="0px" y="0px"
	 viewBox="0 0 980 296" style="enable-background:new 0 0 980 296;" xml:space="preserve">
<style type="text/css">
	.st0{fill:#E9E9E9;}
	.st1{fill:#BCB7B7;}
	.st2{fill:#BEBDBD;}
	.st3{enable-background:new    ;}
	.st4{fill:#848282;}
	.st5{fill:#DFDFDF;}
</style>
<g>
	<path id="Rectangle_135_4_" class="st0" d="M18,148h943.1c7.73,0,14,6.27,14,14l0,0c0,7.73-6.27,14-14,14H18c-7.73,0-14-6.27-14-14
		l0,0C4,154.27,10.27,148,18,148z"/>
	<path id="Rectangle_138_4_" class="st1" d="M33.2,159h34c1.66,0,3,1.34,3,3l0,0c0,1.66-1.34,3-3,3h-34c-1.66,0-3-1.34-3-3l0,0
		C30.2,160.34,31.55,159,33.2,159z"/>
	<path id="Rectangle_137_4_" class="st1" d="M107.98,159h90.11c1.07,0,1.94,1.34,1.94,3l0,0c0,1.66-0.87,3-1.94,3h-90.11
		c-1.07,0-1.94-1.34-1.94-3l0,0C106.03,160.34,106.9,159,107.98,159z"/>
	<circle id="Ellipse_126_2_" class="st2" cx="950.74" cy="162" r="8"/>
	<path id="Rectangle_137_1_" class="st1" d="M224.98,159h90.11c1.07,0,1.94,1.34,1.94,3l0,0c0,1.66-0.87,3-1.94,3h-90.11
		c-1.07,0-1.94-1.34-1.94-3l0,0C223.03,160.34,223.9,159,224.98,159z"/>
	<path id="Rectangle_137_2_" class="st1" d="M340.98,159h90.11c1.07,0,1.94,1.34,1.94,3l0,0c0,1.66-0.87,3-1.94,3h-90.11
		c-1.07,0-1.94-1.34-1.94-3l0,0C339.03,160.34,339.9,159,340.98,159z"/>
	<path id="Rectangle_137_3_" class="st1" d="M456.98,159h90.11c1.07,0,1.94,1.34,1.94,3l0,0c0,1.66-0.87,3-1.94,3h-90.11
		c-1.07,0-1.94-1.34-1.94-3l0,0C455.03,160.34,455.9,159,456.98,159z"/>
	<path id="Rectangle_137_5_" class="st1" d="M574.98,159h90.11c1.07,0,1.94,1.34,1.94,3l0,0c0,1.66-0.87,3-1.94,3h-90.11
		c-1.07,0-1.94-1.34-1.94-3l0,0C573.03,160.34,573.9,159,574.98,159z"/>
	<path id="Rectangle_137_6_" class="st1" d="M691.98,159h90.11c1.07,0,1.94,1.34,1.94,3l0,0c0,1.66-0.87,3-1.94,3h-90.11
		c-1.07,0-1.94-1.34-1.94-3l0,0C690.03,160.34,690.9,159,691.98,159z"/>
	<circle id="Ellipse_126_1_" class="st2" cx="927.74" cy="162" r="8"/>
	<g>
		<path id="Rectangle_135_1_" class="st0" d="M18,188h943.1c7.73,0,14,6.27,14,14l0,0c0,7.73-6.27,14-14,14H18
			c-7.73,0-14-6.27-14-14l0,0C4,194.27,10.27,188,18,188z"/>
		<path id="Rectangle_138_1_" class="st1" d="M33.2,199h34c1.66,0,3,1.34,3,3l0,0c0,1.66-1.34,3-3,3h-34c-1.66,0-3-1.34-3-3l0,0
			C30.2,200.34,31.55,199,33.2,199z"/>
		<path id="Rectangle_137_12_" class="st1" d="M107.98,199h90.11c1.07,0,1.94,1.34,1.94,3l0,0c0,1.66-0.87,3-1.94,3h-90.11
			c-1.07,0-1.94-1.34-1.94-3l0,0C106.03,200.34,106.9,199,107.98,199z"/>
		<circle id="Ellipse_126_4_" class="st2" cx="950.74" cy="202" r="8"/>
		<path id="Rectangle_137_11_" class="st1" d="M224.98,199h90.11c1.07,0,1.94,1.34,1.94,3l0,0c0,1.66-0.87,3-1.94,3h-90.11
			c-1.07,0-1.94-1.34-1.94-3l0,0C223.03,200.34,223.9,199,224.98,199z"/>
		<path id="Rectangle_137_10_" class="st1" d="M340.98,199h90.11c1.07,0,1.94,1.34,1.94,3l0,0c0,1.66-0.87,3-1.94,3h-90.11
			c-1.07,0-1.94-1.34-1.94-3l0,0C339.03,200.34,339.9,199,340.98,199z"/>
		<path id="Rectangle_137_9_" class="st1" d="M456.98,199h90.11c1.07,0,1.94,1.34,1.94,3l0,0c0,1.66-0.87,3-1.94,3h-90.11
			c-1.07,0-1.94-1.34-1.94-3l0,0C455.03,200.34,455.9,199,456.98,199z"/>
		<path id="Rectangle_137_8_" class="st1" d="M574.98,199h90.11c1.07,0,1.94,1.34,1.94,3l0,0c0,1.66-0.87,3-1.94,3h-90.11
			c-1.07,0-1.94-1.34-1.94-3l0,0C573.03,200.34,573.9,199,574.98,199z"/>
		<path id="Rectangle_137_7_" class="st1" d="M691.98,199h90.11c1.07,0,1.94,1.34,1.94,3l0,0c0,1.66-0.87,3-1.94,3h-90.11
			c-1.07,0-1.94-1.34-1.94-3l0,0C690.03,200.34,690.9,199,691.98,199z"/>
		<circle id="Ellipse_126_3_" class="st2" cx="927.74" cy="202" r="8"/>
	</g>
	<g>
		<path id="Rectangle_135_2_" class="st0" d="M18,228h943.1c7.73,0,14,6.27,14,14l0,0c0,7.73-6.27,14-14,14H18
			c-7.73,0-14-6.27-14-14l0,0C4,234.27,10.27,228,18,228z"/>
		<path id="Rectangle_138_2_" class="st1" d="M33.2,239h34c1.66,0,3,1.34,3,3l0,0c0,1.66-1.34,3-3,3h-34c-1.66,0-3-1.34-3-3l0,0
			C30.2,240.34,31.55,239,33.2,239z"/>
		<path id="Rectangle_137_18_" class="st1" d="M107.98,239h90.11c1.07,0,1.94,1.34,1.94,3l0,0c0,1.66-0.87,3-1.94,3h-90.11
			c-1.07,0-1.94-1.34-1.94-3l0,0C106.03,240.34,106.9,239,107.98,239z"/>
		<circle id="Ellipse_126_6_" class="st2" cx="950.74" cy="242" r="8"/>
		<path id="Rectangle_137_17_" class="st1" d="M224.98,239h90.11c1.07,0,1.94,1.34,1.94,3l0,0c0,1.66-0.87,3-1.94,3h-90.11
			c-1.07,0-1.94-1.34-1.94-3l0,0C223.03,240.34,223.9,239,224.98,239z"/>
		<path id="Rectangle_137_16_" class="st1" d="M340.98,239h90.11c1.07,0,1.94,1.34,1.94,3l0,0c0,1.66-0.87,3-1.94,3h-90.11
			c-1.07,0-1.94-1.34-1.94-3l0,0C339.03,240.34,339.9,239,340.98,239z"/>
		<path id="Rectangle_137_15_" class="st1" d="M456.98,239h90.11c1.07,0,1.94,1.34,1.94,3l0,0c0,1.66-0.87,3-1.94,3h-90.11
			c-1.07,0-1.94-1.34-1.94-3l0,0C455.03,240.34,455.9,239,456.98,239z"/>
		<path id="Rectangle_137_14_" class="st1" d="M574.98,239h90.11c1.07,0,1.94,1.34,1.94,3l0,0c0,1.66-0.87,3-1.94,3h-90.11
			c-1.07,0-1.94-1.34-1.94-3l0,0C573.03,240.34,573.9,239,574.98,239z"/>
		<path id="Rectangle_137_13_" class="st1" d="M691.98,239h90.11c1.07,0,1.94,1.34,1.94,3l0,0c0,1.66-0.87,3-1.94,3h-90.11
			c-1.07,0-1.94-1.34-1.94-3l0,0C690.03,240.34,690.9,239,691.98,239z"/>
		<circle id="Ellipse_126_5_" class="st2" cx="927.74" cy="242" r="8"/>
	</g>
	<g>
		<path id="Rectangle_135_3_" class="st0" d="M19,268h943.1c7.73,0,14,6.27,14,14l0,0c0,7.73-6.27,14-14,14H19
			c-7.73,0-14-6.27-14-14l0,0C5,274.27,11.27,268,19,268z"/>
		<path id="Rectangle_138_3_" class="st1" d="M34.2,279h34c1.66,0,3,1.34,3,3l0,0c0,1.66-1.34,3-3,3h-34c-1.66,0-3-1.34-3-3l0,0
			C31.2,280.34,32.55,279,34.2,279z"/>
		<path id="Rectangle_137_24_" class="st1" d="M108.98,279h90.11c1.07,0,1.94,1.34,1.94,3l0,0c0,1.66-0.87,3-1.94,3h-90.11
			c-1.07,0-1.94-1.34-1.94-3l0,0C107.03,280.34,107.9,279,108.98,279z"/>
		<circle id="Ellipse_126_8_" class="st2" cx="951.74" cy="282" r="8"/>
		<path id="Rectangle_137_23_" class="st1" d="M225.98,279h90.11c1.07,0,1.94,1.34,1.94,3l0,0c0,1.66-0.87,3-1.94,3h-90.11
			c-1.07,0-1.94-1.34-1.94-3l0,0C224.03,280.34,224.9,279,225.98,279z"/>
		<path id="Rectangle_137_22_" class="st1" d="M341.98,279h90.11c1.07,0,1.94,1.34,1.94,3l0,0c0,1.66-0.87,3-1.94,3h-90.11
			c-1.07,0-1.94-1.34-1.94-3l0,0C340.03,280.34,340.9,279,341.98,279z"/>
		<path id="Rectangle_137_21_" class="st1" d="M457.98,279h90.11c1.07,0,1.94,1.34,1.94,3l0,0c0,1.66-0.87,3-1.94,3h-90.11
			c-1.07,0-1.94-1.34-1.94-3l0,0C456.03,280.34,456.9,279,457.98,279z"/>
		<path id="Rectangle_137_20_" class="st1" d="M575.98,279h90.11c1.07,0,1.94,1.34,1.94,3l0,0c0,1.66-0.87,3-1.94,3h-90.11
			c-1.07,0-1.94-1.34-1.94-3l0,0C574.03,280.34,574.9,279,575.98,279z"/>
		<path id="Rectangle_137_19_" class="st1" d="M692.98,279h90.11c1.07,0,1.94,1.34,1.94,3l0,0c0,1.66-0.87,3-1.94,3h-90.11
			c-1.07,0-1.94-1.34-1.94-3l0,0C691.03,280.34,691.9,279,692.98,279z"/>
		<circle id="Ellipse_126_7_" class="st2" cx="928.74" cy="282" r="8"/>
	</g>
</g>
<g class="st3">
	<path class="st4" d="M10.75,108.21c-1.82,0-3.27-0.59-4.36-1.77s-1.64-2.71-1.64-4.6c0-2.03,0.56-3.64,1.67-4.85
		s2.63-1.81,4.54-1.81c1.77,0,3.19,0.59,4.28,1.76s1.62,2.7,1.62,4.6c0,2.06-0.55,3.68-1.66,4.88S12.6,108.21,10.75,108.21z
		 M10.85,97.02c-1.15,0-2.09,0.43-2.82,1.29s-1.09,2-1.09,3.4c0,1.4,0.35,2.53,1.05,3.38s1.62,1.28,2.76,1.28
		c1.21,0,2.16-0.41,2.86-1.22s1.05-1.95,1.05-3.42c0-1.51-0.34-2.67-1.02-3.49S12.04,97.02,10.85,97.02z"/>
	<path class="st4" d="M24.15,100.94c-0.25-0.19-0.6-0.29-1.06-0.29c-0.6,0-1.11,0.27-1.51,0.82s-0.61,1.29-0.61,2.22V108h-2.04v-9
		h2.04v1.85h0.04c0.2-0.63,0.51-1.13,0.92-1.48c0.41-0.35,0.87-0.53,1.38-0.53c0.37,0,0.65,0.06,0.84,0.17V100.94z"/>
	<path class="st4" d="M33.78,108h-2.04v-1.53H31.7c-0.66,1.16-1.67,1.74-3.03,1.74c-1.11,0-1.99-0.4-2.66-1.21
		c-0.67-0.8-1-1.9-1-3.29c0-1.49,0.37-2.68,1.1-3.58s1.72-1.34,2.94-1.34c1.21,0,2.09,0.49,2.65,1.46h0.04v-5.57h2.04V108z
		 M31.76,103.89v-1.18c0-0.64-0.21-1.18-0.62-1.63s-0.95-0.67-1.59-0.67c-0.76,0-1.36,0.28-1.8,0.85s-0.65,1.36-0.65,2.36
		c0,0.91,0.21,1.64,0.63,2.17s0.98,0.79,1.69,0.79c0.7,0,1.26-0.26,1.7-0.77C31.55,105.31,31.76,104.67,31.76,103.89z"/>
	<path class="st4" d="M44.06,104.05h-6.13c0.02,0.83,0.28,1.47,0.77,1.92s1.16,0.68,2.02,0.68c0.96,0,1.84-0.29,2.65-0.86v1.64
		c-0.82,0.52-1.9,0.77-3.25,0.77c-1.32,0-2.36-0.41-3.12-1.23c-0.75-0.82-1.13-1.97-1.13-3.45c0-1.4,0.41-2.54,1.24-3.42
		c0.83-0.88,1.86-1.32,3.09-1.32s2.18,0.4,2.86,1.19s1.01,1.89,1.01,3.3V104.05z M42.09,102.61c-0.01-0.73-0.18-1.3-0.52-1.71
		c-0.34-0.41-0.81-0.61-1.41-0.61c-0.59,0-1.08,0.21-1.49,0.64s-0.66,0.99-0.75,1.68H42.09z"/>
	<path class="st4" d="M51.22,100.94c-0.25-0.19-0.6-0.29-1.06-0.29c-0.6,0-1.11,0.27-1.51,0.82s-0.61,1.29-0.61,2.22V108H46v-9h2.04
		v1.85h0.04c0.2-0.63,0.51-1.13,0.92-1.48c0.41-0.35,0.87-0.53,1.38-0.53c0.37,0,0.65,0.06,0.84,0.17V100.94z"/>
	<path class="st4" d="M52.1,107.72v-1.89c0.76,0.58,1.6,0.87,2.52,0.87c1.23,0,1.85-0.36,1.85-1.09c0-0.21-0.05-0.38-0.16-0.52
		c-0.11-0.14-0.25-0.27-0.43-0.38s-0.39-0.21-0.63-0.3s-0.51-0.19-0.81-0.3c-0.37-0.15-0.7-0.3-1-0.47s-0.54-0.35-0.74-0.56
		c-0.2-0.21-0.34-0.44-0.44-0.71s-0.15-0.57-0.15-0.92c0-0.43,0.1-0.82,0.31-1.15c0.21-0.33,0.48-0.61,0.83-0.83s0.74-0.4,1.18-0.51
		c0.44-0.12,0.89-0.17,1.36-0.17c0.83,0,1.58,0.13,2.23,0.38v1.78c-0.63-0.43-1.36-0.65-2.18-0.65c-0.26,0-0.49,0.03-0.7,0.08
		s-0.39,0.13-0.53,0.22s-0.26,0.21-0.34,0.34c-0.08,0.13-0.12,0.28-0.12,0.44c0,0.19,0.04,0.36,0.12,0.49s0.2,0.25,0.36,0.36
		c0.16,0.1,0.35,0.2,0.58,0.28c0.23,0.09,0.48,0.18,0.78,0.28c0.39,0.16,0.73,0.32,1.04,0.48s0.57,0.35,0.79,0.56
		c0.22,0.21,0.38,0.45,0.5,0.72c0.12,0.27,0.18,0.6,0.18,0.97c0,0.46-0.11,0.86-0.32,1.2s-0.49,0.62-0.84,0.84s-0.76,0.39-1.22,0.5
		c-0.46,0.11-0.94,0.16-1.45,0.16C53.68,108.21,52.82,108.05,52.1,107.72z"/>
	<path class="st4" d="M72.58,108H65.6V95.4h2.09v10.84h4.89V108z"/>
	<path class="st4" d="M75.2,97.11c-0.33,0-0.62-0.11-0.86-0.33s-0.36-0.49-0.36-0.83s0.12-0.61,0.36-0.83s0.52-0.33,0.86-0.33
		c0.35,0,0.64,0.11,0.88,0.33s0.36,0.5,0.36,0.83c0,0.32-0.12,0.59-0.36,0.81C75.84,97,75.55,97.11,75.2,97.11z M76.21,108h-2.04v-9
		h2.04V108z"/>
	<path class="st4" d="M78.31,107.72v-1.89c0.76,0.58,1.6,0.87,2.52,0.87c1.23,0,1.85-0.36,1.85-1.09c0-0.21-0.05-0.39-0.15-0.53
		s-0.24-0.26-0.43-0.37s-0.4-0.21-0.65-0.3s-0.52-0.19-0.8-0.3c-0.38-0.15-0.72-0.29-1.01-0.44c-0.29-0.15-0.53-0.32-0.73-0.51
		s-0.34-0.42-0.44-0.67s-0.15-0.55-0.15-0.91c0-0.43,0.1-0.81,0.31-1.13s0.48-0.59,0.83-0.8c0.34-0.21,0.73-0.37,1.17-0.48
		S81.53,99,81.99,99h3.74v-2.08l2.04-0.58V99h2.15v1.6h-2.15v4.5c0,0.53,0.1,0.91,0.29,1.14s0.52,0.34,0.97,0.34
		c0.35,0,0.64-0.1,0.9-0.3v1.62c-0.39,0.2-0.92,0.3-1.57,0.3c-1.75,0-2.62-0.84-2.62-2.51v-5.09h-3.68c-0.26,0-0.49,0.01-0.7,0.04
		c-0.21,0.03-0.39,0.07-0.53,0.14s-0.26,0.15-0.34,0.26s-0.12,0.24-0.12,0.4s0.04,0.3,0.13,0.42c0.08,0.12,0.21,0.23,0.36,0.33
		s0.35,0.2,0.58,0.29c0.23,0.1,0.49,0.2,0.77,0.3c0.39,0.15,0.74,0.3,1.05,0.47s0.57,0.35,0.79,0.56s0.38,0.45,0.5,0.73
		s0.17,0.6,0.17,0.98c0,0.46-0.11,0.86-0.32,1.2s-0.49,0.62-0.84,0.84s-0.76,0.39-1.22,0.5c-0.46,0.11-0.95,0.16-1.45,0.16
		C79.89,108.21,79.04,108.05,78.31,107.72z"/>
</g>
<path id="Rectangle_151" class="st5" d="M975.1,9v23c0,2.76-2.24,5-5,5H9c-2.76,0-5-2.24-5-5V9c0-2.76,2.24-5,5-5h961.1
	C972.86,4,975.1,6.24,975.1,9z"/>
<circle id="Ellipse_125" class="st2" cx="837.84" cy="20.5" r="9.5"/>
<path id="Rectangle_152" class="st1" d="M862.52,18h81c2.49,0,4.5,1.34,4.5,3l0,0c0,1.66-2.01,3-4.5,3h-81c-2.49,0-4.5-1.34-4.5-3
	l0,0C858.02,19.34,860.03,18,862.52,18z"/>
</svg>
