<?xml version="1.0" encoding="utf-8"?>
<!-- Generator: Adobe Illustrator 23.0.2, SVG Export Plug-In . SVG Version: 6.00 Build 0)  -->
<svg version="1.1" id="Layer_1" xmlns="http://www.w3.org/2000/svg" xmlns:xlink="http://www.w3.org/1999/xlink" x="0px" y="0px"
	 viewBox="0 0 980 323" style="enable-background:new 0 0 980 323;" xml:space="preserve">
<style type="text/css">
	.st0{fill:#E9E9E9;}
	.st1{fill:#BCB7B7;}
	.st2{enable-background:new    ;}
	.st3{fill:#848282;}
	.st4{fill:#DFDFDF;}
	.st5{fill:#BEBDBD;}
	.st6{fill:#F2F2F2;}
	.st7{fill:#37C1CE;}
	.st8{fill:#FFFFFF;}
	.st9{fill:none;}
	.st10{fill:#F8FFFF;}
	.st11{fill:#FF5353;}
	.st12{fill:#FFFAFA;}
</style>
<g>
	<path id="Rectangle_135_4_" class="st0" d="M19,148h943.1c7.73,0,14,7.16,14,16l0,0c0,8.84-6.27,16-14,16H19c-7.73,0-14-7.16-14-16
		l0,0C5,155.16,11.27,148,19,148z"/>
	<path id="Rectangle_138_4_" class="st1" d="M34.2,160.57h34c1.66,0,3,1.54,3,3.43l0,0c0,1.89-1.34,3.43-3,3.43h-34
		c-1.66,0-3-1.54-3-3.43l0,0C31.2,162.11,32.55,160.57,34.2,160.57z"/>
	<path id="Rectangle_137_4_" class="st1" d="M96.89,160.57h102.28c1.22,0,2.21,1.54,2.21,3.43l0,0c0,1.89-0.99,3.43-2.21,3.43H96.89
		c-1.22,0-2.21-1.54-2.21-3.43l0,0C94.68,162.11,95.67,160.57,96.89,160.57z"/>
	<path id="Rectangle_137_3_" class="st1" d="M224.37,160.57h102.28c1.22,0,2.21,1.54,2.21,3.43l0,0c0,1.89-0.99,3.43-2.21,3.43
		H224.37c-1.22,0-2.21-1.54-2.21-3.43l0,0C222.16,162.11,223.15,160.57,224.37,160.57z"/>
	<path id="Rectangle_137_5_" class="st1" d="M351.69,160.57h102.28c1.22,0,2.21,1.54,2.21,3.43l0,0c0,1.89-0.99,3.43-2.21,3.43
		H351.69c-1.22,0-2.21-1.54-2.21-3.43l0,0C349.48,162.11,350.47,160.57,351.69,160.57z"/>
	<path id="Rectangle_137_6_" class="st1" d="M479.21,160.57h102.28c1.22,0,2.21,1.54,2.21,3.43l0,0c0,1.89-0.99,3.43-2.21,3.43
		H479.21c-1.22,0-2.21-1.54-2.21-3.43l0,0C477,162.11,477.99,160.57,479.21,160.57z"/>
	<path id="Rectangle_137_7_" class="st1" d="M606.2,160.57h102.28c1.22,0,2.21,1.54,2.21,3.43l0,0c0,1.89-0.99,3.43-2.21,3.43H606.2
		c-1.22,0-2.21-1.54-2.21-3.43l0,0C603.99,162.11,604.98,160.57,606.2,160.57z"/>
</g>
<g class="st2">
	<path class="st3" d="M8.23,103.94V108H6.38V96.8h3.4c1.29,0,2.28,0.3,2.99,0.9c0.71,0.6,1.06,1.44,1.06,2.53s-0.37,1.98-1.11,2.67
		c-0.74,0.69-1.74,1.04-3,1.04H8.23z M8.23,98.33v4.09h1.2c0.8,0,1.4-0.18,1.82-0.55c0.42-0.37,0.63-0.89,0.63-1.56
		c0-1.32-0.77-1.98-2.3-1.98H8.23z"/>
	<path class="st3" d="M20.17,101.73c-0.22-0.17-0.53-0.26-0.95-0.26c-0.54,0-0.98,0.24-1.34,0.73s-0.54,1.14-0.54,1.98V108h-1.81v-8
		h1.81v1.65h0.03c0.18-0.56,0.45-1,0.82-1.32s0.78-0.47,1.23-0.47c0.33,0,0.58,0.05,0.75,0.15V101.73z"/>
	<path class="st3" d="M25,108.19c-1.23,0-2.22-0.37-2.96-1.12c-0.74-0.75-1.11-1.74-1.11-2.97c0-1.34,0.38-2.39,1.15-3.15
		c0.77-0.75,1.8-1.13,3.11-1.13c1.25,0,2.22,0.37,2.92,1.1c0.7,0.73,1.05,1.75,1.05,3.05c0,1.28-0.38,2.3-1.13,3.07
		C27.28,107.8,26.27,108.19,25,108.19z M25.09,101.26c-0.71,0-1.27,0.25-1.68,0.74c-0.41,0.5-0.62,1.18-0.62,2.05
		c0,0.84,0.21,1.5,0.63,1.98c0.42,0.48,0.97,0.72,1.67,0.72c0.71,0,1.26-0.24,1.64-0.71s0.57-1.15,0.57-2.02
		c0-0.88-0.19-1.56-0.57-2.04S25.8,101.26,25.09,101.26z"/>
	<path class="st3" d="M38.28,108h-1.81v-1.36h-0.03c-0.58,1.03-1.48,1.55-2.7,1.55c-0.98,0-1.77-0.36-2.36-1.07
		c-0.59-0.72-0.89-1.69-0.89-2.93c0-1.32,0.33-2.38,0.98-3.18c0.65-0.8,1.52-1.2,2.61-1.2c1.08,0,1.86,0.43,2.35,1.3h0.03v-4.95
		h1.81V108z M36.49,104.34v-1.05c0-0.57-0.19-1.05-0.55-1.45c-0.37-0.4-0.84-0.59-1.41-0.59c-0.68,0-1.21,0.25-1.6,0.76
		c-0.39,0.5-0.58,1.21-0.58,2.1c0,0.81,0.19,1.45,0.56,1.93c0.37,0.47,0.87,0.71,1.5,0.71c0.62,0,1.12-0.23,1.51-0.68
		C36.3,105.61,36.49,105.04,36.49,104.34z"/>
	<path class="st3" d="M47.63,108h-1.81v-1.27h-0.03c-0.53,0.97-1.34,1.45-2.45,1.45c-1.89,0-2.84-1.14-2.84-3.41V100h1.81v4.59
		c0,1.44,0.55,2.16,1.66,2.16c0.54,0,0.98-0.2,1.32-0.59c0.35-0.4,0.52-0.91,0.52-1.55V100h1.81V108z"/>
	<path class="st3" d="M55.71,107.63c-0.64,0.37-1.4,0.55-2.27,0.55c-1.19,0-2.15-0.37-2.88-1.11c-0.73-0.74-1.09-1.7-1.09-2.89
		c0-1.32,0.39-2.38,1.18-3.18c0.78-0.8,1.83-1.2,3.14-1.2c0.73,0,1.37,0.13,1.93,0.38v1.69c-0.56-0.42-1.15-0.63-1.78-0.63
		c-0.77,0-1.39,0.26-1.88,0.78c-0.49,0.52-0.73,1.2-0.73,2.04c0,0.83,0.23,1.48,0.69,1.96s1.08,0.72,1.86,0.72
		c0.65,0,1.27-0.23,1.84-0.7V107.63z"/>
	<path class="st3" d="M61.73,107.91c-0.35,0.18-0.82,0.27-1.4,0.27c-1.55,0-2.33-0.75-2.33-2.23v-4.52h-1.34V100H58v-1.85l1.81-0.52
		V100h1.91v1.42h-1.91v4c0,0.47,0.09,0.81,0.26,1.02s0.46,0.3,0.86,0.3c0.31,0,0.57-0.09,0.8-0.27V107.91z"/>
	<path class="st3" d="M62.79,107.75v-1.68c0.68,0.52,1.42,0.77,2.24,0.77c1.09,0,1.64-0.32,1.64-0.97c0-0.18-0.05-0.34-0.14-0.46
		s-0.22-0.24-0.38-0.34c-0.16-0.1-0.35-0.19-0.56-0.27c-0.22-0.08-0.46-0.17-0.72-0.27c-0.33-0.13-0.62-0.27-0.89-0.41
		c-0.26-0.15-0.48-0.31-0.66-0.5c-0.17-0.18-0.31-0.39-0.39-0.63c-0.09-0.23-0.13-0.51-0.13-0.82c0-0.39,0.09-0.73,0.27-1.02
		c0.18-0.29,0.43-0.54,0.73-0.74c0.31-0.2,0.66-0.35,1.05-0.45s0.79-0.15,1.21-0.15c0.74,0,1.4,0.11,1.98,0.34v1.59
		c-0.56-0.39-1.21-0.58-1.94-0.58c-0.23,0-0.44,0.02-0.62,0.07c-0.19,0.05-0.34,0.11-0.47,0.2c-0.13,0.08-0.23,0.18-0.3,0.3
		c-0.07,0.12-0.11,0.25-0.11,0.39c0,0.17,0.04,0.32,0.11,0.44c0.07,0.12,0.18,0.23,0.32,0.32c0.14,0.09,0.31,0.17,0.52,0.25
		c0.2,0.08,0.43,0.16,0.69,0.25c0.34,0.14,0.65,0.28,0.93,0.43s0.51,0.31,0.7,0.5c0.19,0.18,0.34,0.4,0.45,0.64
		c0.1,0.24,0.16,0.53,0.16,0.86c0,0.41-0.09,0.76-0.28,1.06s-0.44,0.55-0.75,0.75s-0.67,0.34-1.08,0.44
		c-0.41,0.1-0.84,0.14-1.29,0.14C64.19,108.19,63.43,108.04,62.79,107.75z"/>
	<path class="st3" d="M80.99,108h-6.2V96.8h1.86v9.63h4.34V108z"/>
	<path class="st3" d="M83.32,98.32c-0.3,0-0.55-0.1-0.76-0.29s-0.32-0.44-0.32-0.73s0.11-0.54,0.32-0.74s0.46-0.3,0.76-0.3
		c0.31,0,0.57,0.1,0.78,0.3c0.21,0.2,0.32,0.45,0.32,0.74c0,0.28-0.11,0.52-0.32,0.72C83.89,98.22,83.63,98.32,83.32,98.32z
		 M84.22,108h-1.81v-8h1.81V108z"/>
	<path class="st3" d="M86.09,107.75v-1.68c0.68,0.52,1.42,0.77,2.24,0.77c1.09,0,1.64-0.32,1.64-0.97c0-0.19-0.05-0.34-0.14-0.47
		c-0.09-0.13-0.22-0.24-0.38-0.33c-0.16-0.1-0.35-0.18-0.57-0.27c-0.22-0.08-0.46-0.17-0.71-0.27c-0.34-0.13-0.64-0.26-0.89-0.39
		s-0.47-0.29-0.65-0.46c-0.17-0.17-0.31-0.37-0.39-0.59c-0.09-0.22-0.13-0.49-0.13-0.8c0-0.39,0.09-0.72,0.28-1.01
		c0.18-0.29,0.43-0.52,0.73-0.71s0.65-0.33,1.04-0.43s0.79-0.14,1.21-0.14h3.32v-1.85l1.81-0.52V100h1.91v1.42h-1.91v4
		c0,0.47,0.09,0.81,0.26,1.02s0.46,0.3,0.86,0.3c0.31,0,0.57-0.09,0.8-0.27v1.44c-0.35,0.18-0.82,0.27-1.4,0.27
		c-1.55,0-2.33-0.75-2.33-2.23v-4.52h-3.27c-0.23,0-0.44,0.01-0.62,0.04c-0.19,0.02-0.34,0.06-0.47,0.12
		c-0.13,0.06-0.23,0.13-0.3,0.23c-0.07,0.1-0.11,0.21-0.11,0.36s0.04,0.26,0.11,0.37c0.08,0.11,0.18,0.2,0.32,0.29
		s0.31,0.18,0.52,0.26s0.43,0.18,0.69,0.27c0.34,0.13,0.65,0.27,0.93,0.41c0.28,0.15,0.51,0.31,0.7,0.5
		c0.19,0.19,0.34,0.4,0.44,0.65s0.15,0.53,0.15,0.87c0,0.41-0.09,0.76-0.28,1.06s-0.44,0.55-0.75,0.75s-0.67,0.34-1.09,0.44
		c-0.41,0.1-0.84,0.14-1.29,0.14C87.49,108.19,86.73,108.04,86.09,107.75z"/>
</g>
<path id="Rectangle_151" class="st4" d="M976.55,7v23c0,2.76-2.24,5-5,5H9.56c-2.76,0-5-2.24-5-5V7c0-2.76,2.24-5,5-5h961.99
	C974.31,2,976.55,4.24,976.55,7z"/>
<circle id="Ellipse_125" class="st5" cx="838.84" cy="18.5" r="9.5"/>
<path id="Rectangle_152" class="st1" d="M863.52,16h81c2.49,0,4.5,1.34,4.5,3l0,0c0,1.66-2.01,3-4.5,3h-81c-2.49,0-4.5-1.34-4.5-3
	l0,0C859.02,17.34,861.03,16,863.52,16z"/>
<g>
	<path id="Rectangle_135_1_" class="st0" d="M19,193h943.1c7.73,0,14,7.16,14,16l0,0c0,8.84-6.27,16-14,16H19c-7.73,0-14-7.16-14-16
		l0,0C5,200.16,11.27,193,19,193z"/>
	<path id="Rectangle_138_1_" class="st1" d="M34.2,206h34c1.66,0,3,1.34,3,3l0,0c0,1.66-1.34,3-3,3h-34c-1.66,0-3-1.34-3-3l0,0
		C31.2,207.34,32.55,206,34.2,206z"/>
	<path id="Rectangle_137_12_" class="st1" d="M96.89,206h102.28c1.22,0,2.21,1.34,2.21,3l0,0c0,1.66-0.99,3-2.21,3H96.89
		c-1.22,0-2.21-1.34-2.21-3l0,0C94.68,207.34,95.67,206,96.89,206z"/>
	<path id="Rectangle_137_11_" class="st1" d="M224.37,206h102.28c1.22,0,2.21,1.34,2.21,3l0,0c0,1.66-0.99,3-2.21,3H224.37
		c-1.22,0-2.21-1.34-2.21-3l0,0C222.16,207.34,223.15,206,224.37,206z"/>
	<path id="Rectangle_137_10_" class="st1" d="M351.69,206h102.28c1.22,0,2.21,1.34,2.21,3l0,0c0,1.66-0.99,3-2.21,3H351.69
		c-1.22,0-2.21-1.34-2.21-3l0,0C349.48,207.34,350.47,206,351.69,206z"/>
	<path id="Rectangle_137_9_" class="st1" d="M479.21,206h102.28c1.22,0,2.21,1.34,2.21,3l0,0c0,1.66-0.99,3-2.21,3H479.21
		c-1.22,0-2.21-1.34-2.21-3l0,0C477,207.34,477.99,206,479.21,206z"/>
	<path id="Rectangle_137_2_" class="st1" d="M606.2,206h102.28c1.22,0,2.21,1.34,2.21,3l0,0c0,1.66-0.99,3-2.21,3H606.2
		c-1.22,0-2.21-1.34-2.21-3l0,0C603.99,207.34,604.98,206,606.2,206z"/>
</g>
<g>
	<path id="Rectangle_135_2_" class="st0" d="M19,238h943.1c7.73,0,14,7.16,14,16l0,0c0,8.84-6.27,16-14,16H19c-7.73,0-14-7.16-14-16
		l0,0C5,245.16,11.27,238,19,238z"/>
	<path id="Rectangle_138_2_" class="st1" d="M34.2,251h34c1.66,0,3,1.34,3,3l0,0c0,1.66-1.34,3-3,3h-34c-1.66,0-3-1.34-3-3l0,0
		C31.2,252.34,32.55,251,34.2,251z"/>
	<path id="Rectangle_137_18_" class="st1" d="M96.89,251h102.28c1.22,0,2.21,1.34,2.21,3l0,0c0,1.66-0.99,3-2.21,3H96.89
		c-1.22,0-2.21-1.34-2.21-3l0,0C94.68,252.34,95.67,251,96.89,251z"/>
	<path id="Rectangle_137_17_" class="st1" d="M224.37,251h102.28c1.22,0,2.21,1.34,2.21,3l0,0c0,1.66-0.99,3-2.21,3H224.37
		c-1.22,0-2.21-1.34-2.21-3l0,0C222.16,252.34,223.15,251,224.37,251z"/>
	<path id="Rectangle_137_16_" class="st1" d="M351.69,251h102.28c1.22,0,2.21,1.34,2.21,3l0,0c0,1.66-0.99,3-2.21,3H351.69
		c-1.22,0-2.21-1.34-2.21-3l0,0C349.48,252.34,350.47,251,351.69,251z"/>
	<path id="Rectangle_137_15_" class="st1" d="M479.21,251h102.28c1.22,0,2.21,1.34,2.21,3l0,0c0,1.66-0.99,3-2.21,3H479.21
		c-1.22,0-2.21-1.34-2.21-3l0,0C477,252.34,477.99,251,479.21,251z"/>
	<path id="Rectangle_137_14_" class="st1" d="M606.2,251h102.28c1.22,0,2.21,1.34,2.21,3l0,0c0,1.66-0.99,3-2.21,3H606.2
		c-1.22,0-2.21-1.34-2.21-3l0,0C603.99,252.34,604.98,251,606.2,251z"/>
</g>
<g>
	<path id="Rectangle_135_3_" class="st0" d="M19,282h943.1c7.73,0,14,7.16,14,16l0,0c0,8.84-6.27,16-14,16H19c-7.73,0-14-7.16-14-16
		l0,0C5,289.16,11.27,282,19,282z"/>
	<path id="Rectangle_138_3_" class="st1" d="M34.2,294.9h34c1.66,0,3,1.39,3,3.1l0,0c0,1.71-1.34,3.1-3,3.1h-34
		c-1.66,0-3-1.39-3-3.1l0,0C31.2,296.29,32.55,294.9,34.2,294.9z"/>
	<path id="Rectangle_137_24_" class="st1" d="M96.89,294.9h102.28c1.22,0,2.21,1.39,2.21,3.1l0,0c0,1.71-0.99,3.1-2.21,3.1H96.89
		c-1.22,0-2.21-1.39-2.21-3.1l0,0C94.68,296.29,95.67,294.9,96.89,294.9z"/>
	<path id="Rectangle_137_23_" class="st1" d="M224.37,294.9h102.28c1.22,0,2.21,1.39,2.21,3.1l0,0c0,1.71-0.99,3.1-2.21,3.1H224.37
		c-1.22,0-2.21-1.39-2.21-3.1l0,0C222.16,296.29,223.15,294.9,224.37,294.9z"/>
	<path id="Rectangle_137_22_" class="st1" d="M351.69,294.9h102.28c1.22,0,2.21,1.39,2.21,3.1l0,0c0,1.71-0.99,3.1-2.21,3.1H351.69
		c-1.22,0-2.21-1.39-2.21-3.1l0,0C349.48,296.29,350.47,294.9,351.69,294.9z"/>
	<path id="Rectangle_137_21_" class="st1" d="M479.21,294.9h102.28c1.22,0,2.21,1.39,2.21,3.1l0,0c0,1.71-0.99,3.1-2.21,3.1H479.21
		c-1.22,0-2.21-1.39-2.21-3.1l0,0C477,296.29,477.99,294.9,479.21,294.9z"/>
	<path id="Rectangle_137_20_" class="st1" d="M606.2,294.9h102.28c1.22,0,2.21,1.39,2.21,3.1l0,0c0,1.71-0.99,3.1-2.21,3.1H606.2
		c-1.22,0-2.21-1.39-2.21-3.1l0,0C603.99,296.29,604.98,294.9,606.2,294.9z"/>
</g>
<path class="st0" d="M958.86,116.53h-144.8c-7.81,0-14.14-6.33-14.14-14.14v0c0-7.81,6.33-14.14,14.14-14.14h144.8
	c7.81,0,14.14,6.33,14.14,14.14v0C973,110.2,966.67,116.53,958.86,116.53z"/>
<path class="st0" d="M776.26,117H628.14c-7.81,0-14.14-6.33-14.14-14.14v0c0-7.81,6.33-14.14,14.14-14.14h148.12
	c7.81,0,14.14,6.33,14.14,14.14v0C790.39,110.67,784.06,117,776.26,117z"/>
<path id="Rectangle_137_25_" class="st6" d="M653.37,100.03h97.65c1.16,0,2.11,1.27,2.11,2.83l0,0c0,1.56-0.94,2.83-2.11,2.83
	h-97.65c-1.16,0-2.11-1.27-2.11-2.83l0,0C651.27,101.3,652.21,100.03,653.37,100.03z"/>
<path id="Rectangle_137_26_" class="st6" d="M837.64,99.56h97.65c1.16,0,2.11,1.27,2.11,2.83l0,0c0,1.56-0.94,2.83-2.11,2.83h-97.65
	c-1.16,0-2.11-1.27-2.11-2.83l0,0C835.53,100.83,836.47,99.56,837.64,99.56z"/>
<path id="Path_113" class="st7" d="M887.5,287.75c5.94,0,10.75,4.81,10.75,10.75s-4.81,10.75-10.75,10.75s-10.75-4.81-10.75-10.75
	S881.56,287.75,887.5,287.75z"/>
<g id="baseline-edit-24px_1_" transform="translate(5 5)">
	<path id="Path_104" class="st8" d="M877.58,296.37v2.05h2.05l6.04-6.04l-2.05-2.05L877.58,296.37z M887.26,290.79
		c0.21-0.21,0.21-0.56,0-0.77c0,0,0,0,0,0l-1.28-1.28c-0.21-0.21-0.56-0.21-0.77,0c0,0,0,0,0,0l-1,1l2.05,2.05L887.26,290.79z"/>
	<path id="Path_105" class="st9" d="M876.25,287.25h12.5v12.5h-12.5V287.25z"/>
</g>
<path id="Path_116" class="st7" d="M915.47,287.75c5.94,0,10.75,4.81,10.75,10.75s-4.81,10.75-10.75,10.75s-10.75-4.81-10.75-10.75
	S909.53,287.75,915.47,287.75z"/>
<path class="st10" d="M915.47,294.24c-2.84,0-5.27,1.77-6.25,4.26c0.98,2.49,3.41,4.26,6.25,4.26s5.27-1.77,6.25-4.26
	C920.73,296.01,918.31,294.24,915.47,294.24z M915.47,301.34c-1.57,0-2.84-1.27-2.84-2.84s1.27-2.84,2.84-2.84s2.84,1.27,2.84,2.84
	S917.04,301.34,915.47,301.34z M915.47,296.8c-0.94,0-1.7,0.76-1.7,1.7s0.76,1.7,1.7,1.7s1.7-0.76,1.7-1.7
	S916.41,296.8,915.47,296.8z"/>
<path id="Path_116_1_" class="st11" d="M943.16,287.85c5.94,0,10.75,4.79,10.75,10.7c0,5.91-4.81,10.7-10.75,10.7
	s-10.75-4.79-10.75-10.7C932.41,292.64,937.22,287.85,943.16,287.85z"/>
<path class="st12" d="M939.94,302.5c0,0.59,0.48,1.07,1.07,1.07h4.29c0.59,0,1.07-0.48,1.07-1.07v-5.36c0-0.59-0.48-1.07-1.07-1.07
	h-4.29c-0.59,0-1.07,0.48-1.07,1.07V302.5z M946.37,294.46h-1.34l-0.38-0.38c-0.1-0.1-0.24-0.16-0.38-0.16h-2.24
	c-0.14,0-0.28,0.06-0.38,0.16l-0.38,0.38h-1.34c-0.29,0-0.54,0.24-0.54,0.54s0.24,0.54,0.54,0.54h6.43c0.29,0,0.54-0.24,0.54-0.54
	S946.67,294.46,946.37,294.46z"/>
<path id="Path_113_1_" class="st7" d="M887.5,243.75c5.94,0,10.75,4.81,10.75,10.75c0,5.94-4.81,10.75-10.75,10.75
	s-10.75-4.81-10.75-10.75C876.75,248.56,881.56,243.75,887.5,243.75z"/>
<g id="baseline-edit-24px_2_" transform="translate(5 5)">
	<path id="Path_104_1_" class="st8" d="M877.58,252.37v2.05h2.05l6.04-6.04l-2.05-2.05L877.58,252.37z M887.26,246.79
		c0.21-0.21,0.21-0.56,0-0.77c0,0,0,0,0,0l-1.28-1.28c-0.21-0.21-0.56-0.21-0.77,0c0,0,0,0,0,0l-1,1l2.05,2.05L887.26,246.79z"/>
	<path id="Path_105_1_" class="st9" d="M876.25,243.25h12.5v12.5h-12.5V243.25z"/>
</g>
<path id="Path_116_3_" class="st7" d="M915.47,243.75c5.94,0,10.75,4.81,10.75,10.75c0,5.94-4.81,10.75-10.75,10.75
	s-10.75-4.81-10.75-10.75C904.72,248.56,909.53,243.75,915.47,243.75z"/>
<path class="st10" d="M915.47,250.24c-2.84,0-5.27,1.77-6.25,4.26c0.98,2.49,3.41,4.26,6.25,4.26s5.27-1.77,6.25-4.26
	C920.73,252.01,918.31,250.24,915.47,250.24z M915.47,257.34c-1.57,0-2.84-1.27-2.84-2.84s1.27-2.84,2.84-2.84s2.84,1.27,2.84,2.84
	S917.04,257.34,915.47,257.34z M915.47,252.8c-0.94,0-1.7,0.76-1.7,1.7s0.76,1.7,1.7,1.7s1.7-0.76,1.7-1.7
	S916.41,252.8,915.47,252.8z"/>
<path id="Path_116_2_" class="st11" d="M943.16,243.85c5.94,0,10.75,4.79,10.75,10.7c0,5.91-4.81,10.7-10.75,10.7
	s-10.75-4.79-10.75-10.7C932.41,248.64,937.22,243.85,943.16,243.85z"/>
<path class="st12" d="M939.94,258.5c0,0.59,0.48,1.07,1.07,1.07h4.29c0.59,0,1.07-0.48,1.07-1.07v-5.36c0-0.59-0.48-1.07-1.07-1.07
	h-4.29c-0.59,0-1.07,0.48-1.07,1.07V258.5z M946.37,250.46h-1.34l-0.38-0.38c-0.1-0.1-0.24-0.16-0.38-0.16h-2.24
	c-0.14,0-0.28,0.06-0.38,0.16l-0.38,0.38h-1.34c-0.29,0-0.54,0.24-0.54,0.54s0.24,0.54,0.54,0.54h6.43c0.29,0,0.54-0.24,0.54-0.54
	S946.67,250.46,946.37,250.46z"/>
<path id="Path_113_2_" class="st7" d="M887.5,198.75c5.94,0,10.75,4.81,10.75,10.75s-4.81,10.75-10.75,10.75
	s-10.75-4.81-10.75-10.75S881.56,198.75,887.5,198.75z"/>
<g id="baseline-edit-24px_3_" transform="translate(5 5)">
	<path id="Path_104_2_" class="st8" d="M877.58,207.37v2.05h2.05l6.04-6.04l-2.05-2.05L877.58,207.37z M887.26,201.79
		c0.21-0.21,0.21-0.56,0-0.77c0,0,0,0,0,0l-1.28-1.28c-0.21-0.21-0.56-0.21-0.77,0c0,0,0,0,0,0l-1,1l2.05,2.05L887.26,201.79z"/>
	<path id="Path_105_2_" class="st9" d="M876.25,198.25h12.5v12.5h-12.5V198.25z"/>
</g>
<path id="Path_116_5_" class="st7" d="M915.47,198.75c5.94,0,10.75,4.81,10.75,10.75s-4.81,10.75-10.75,10.75
	s-10.75-4.81-10.75-10.75S909.53,198.75,915.47,198.75z"/>
<path class="st10" d="M915.47,205.24c-2.84,0-5.27,1.77-6.25,4.26c0.98,2.49,3.41,4.26,6.25,4.26s5.27-1.77,6.25-4.26
	C920.73,207.01,918.31,205.24,915.47,205.24z M915.47,212.34c-1.57,0-2.84-1.27-2.84-2.84s1.27-2.84,2.84-2.84s2.84,1.27,2.84,2.84
	S917.04,212.34,915.47,212.34z M915.47,207.8c-0.94,0-1.7,0.76-1.7,1.7s0.76,1.7,1.7,1.7s1.7-0.76,1.7-1.7
	S916.41,207.8,915.47,207.8z"/>
<path id="Path_116_4_" class="st11" d="M943.16,198.85c5.94,0,10.75,4.79,10.75,10.7c0,5.91-4.81,10.7-10.75,10.7
	s-10.75-4.79-10.75-10.7C932.41,203.64,937.22,198.85,943.16,198.85z"/>
<path class="st12" d="M939.94,213.5c0,0.59,0.48,1.07,1.07,1.07h4.29c0.59,0,1.07-0.48,1.07-1.07v-5.36c0-0.59-0.48-1.07-1.07-1.07
	h-4.29c-0.59,0-1.07,0.48-1.07,1.07V213.5z M946.37,205.46h-1.34l-0.38-0.38c-0.1-0.1-0.24-0.16-0.38-0.16h-2.24
	c-0.14,0-0.28,0.06-0.38,0.16l-0.38,0.38h-1.34c-0.29,0-0.54,0.24-0.54,0.54s0.24,0.54,0.54,0.54h6.43c0.29,0,0.54-0.24,0.54-0.54
	S946.67,205.46,946.37,205.46z"/>
<path id="Path_113_3_" class="st7" d="M887.5,153.75c5.94,0,10.75,4.81,10.75,10.75s-4.81,10.75-10.75,10.75
	s-10.75-4.81-10.75-10.75S881.56,153.75,887.5,153.75z"/>
<g id="baseline-edit-24px_4_" transform="translate(5 5)">
	<path id="Path_104_3_" class="st8" d="M877.58,162.37v2.05h2.05l6.04-6.04l-2.05-2.05L877.58,162.37z M887.26,156.79
		c0.21-0.21,0.21-0.56,0-0.77c0,0,0,0,0,0l-1.28-1.28c-0.21-0.21-0.56-0.21-0.77,0c0,0,0,0,0,0l-1,1l2.05,2.05L887.26,156.79z"/>
	<path id="Path_105_3_" class="st9" d="M876.25,153.25h12.5v12.5h-12.5V153.25z"/>
</g>
<path id="Path_116_7_" class="st7" d="M915.47,153.75c5.94,0,10.75,4.81,10.75,10.75s-4.81,10.75-10.75,10.75
	s-10.75-4.81-10.75-10.75S909.53,153.75,915.47,153.75z"/>
<path class="st10" d="M915.47,160.24c-2.84,0-5.27,1.77-6.25,4.26c0.98,2.49,3.41,4.26,6.25,4.26s5.27-1.77,6.25-4.26
	C920.73,162.01,918.31,160.24,915.47,160.24z M915.47,167.34c-1.57,0-2.84-1.27-2.84-2.84s1.27-2.84,2.84-2.84s2.84,1.27,2.84,2.84
	S917.04,167.34,915.47,167.34z M915.47,162.8c-0.94,0-1.7,0.76-1.7,1.7s0.76,1.7,1.7,1.7s1.7-0.76,1.7-1.7
	S916.41,162.8,915.47,162.8z"/>
<path id="Path_116_6_" class="st11" d="M943.16,153.85c5.94,0,10.75,4.79,10.75,10.7c0,5.91-4.81,10.7-10.75,10.7
	s-10.75-4.79-10.75-10.7C932.41,158.64,937.22,153.85,943.16,153.85z"/>
<path class="st12" d="M939.94,168.5c0,0.59,0.48,1.07,1.07,1.07h4.29c0.59,0,1.07-0.48,1.07-1.07v-5.36c0-0.59-0.48-1.07-1.07-1.07
	h-4.29c-0.59,0-1.07,0.48-1.07,1.07V168.5z M946.37,160.46h-1.34l-0.38-0.38c-0.1-0.1-0.24-0.16-0.38-0.16h-2.24
	c-0.14,0-0.28,0.06-0.38,0.16l-0.38,0.38h-1.34c-0.29,0-0.54,0.24-0.54,0.54s0.24,0.54,0.54,0.54h6.43c0.29,0,0.54-0.24,0.54-0.54
	S946.67,160.46,946.37,160.46z"/>
</svg>
