<?xml version="1.0" encoding="utf-8"?>
<!-- Generator: Adobe Illustrator 23.0.2, SVG Export Plug-In . SVG Version: 6.00 Build 0)  -->
<svg version="1.1" id="Layer_1" xmlns="http://www.w3.org/2000/svg" xmlns:xlink="http://www.w3.org/1999/xlink" x="0px" y="0px"
	 viewBox="0 0 980 336" style="enable-background:new 0 0 980 336;" xml:space="preserve">
<style type="text/css">
	.st0{fill:#E9E9E9;}
	.st1{fill:#BCB7B7;}
	.st2{fill:#BEBDBD;}
	.st3{enable-background:new    ;}
	.st4{fill:#848282;}
	.st5{fill:#DFDFDF;}
	.st6{fill:#F2F2F2;}
	.st7{opacity:0.6;}
	.st8{fill:#FFFFFF;}
	.st9{fill:#D8D6D6;}
	.st10{fill:#00B7CF;}
</style>
<g>
	<path id="Rectangle_135_4_" class="st0" d="M57.73,133h857.54c7.03,0,12.73,5.11,12.73,11.41l0,0c0,6.3-5.7,11.41-12.73,11.41
		H57.73c-7.03,0-12.73-5.11-12.73-11.41l0,0C45,138.11,50.7,133,57.73,133z"/>
	<path id="Rectangle_138_4_" class="st1" d="M71.55,141.96h30.92c1.51,0,2.73,1.09,2.73,2.44l0,0c0,1.35-1.22,2.44-2.73,2.44H71.55
		c-1.51,0-2.73-1.09-2.73-2.44l0,0C68.82,143.06,70.05,141.96,71.55,141.96z"/>
	<path id="Rectangle_137_4_" class="st1" d="M128.55,141.96h93c1.11,0,2.01,1.09,2.01,2.44l0,0c0,1.35-0.9,2.44-2.01,2.44h-93
		c-1.11,0-2.01-1.09-2.01-2.44l0,0C126.55,143.06,127.45,141.96,128.55,141.96z"/>
	<path id="Rectangle_137_3_" class="st1" d="M244.47,141.96h93c1.11,0,2.01,1.09,2.01,2.44l0,0c0,1.35-0.9,2.44-2.01,2.44h-93
		c-1.11,0-2.01-1.09-2.01-2.44l0,0C242.46,143.06,243.36,141.96,244.47,141.96z"/>
	<path id="Rectangle_137_5_" class="st1" d="M360.23,141.96h93c1.11,0,2.01,1.09,2.01,2.44l0,0c0,1.35-0.9,2.44-2.01,2.44h-93
		c-1.11,0-2.01-1.09-2.01-2.44l0,0C358.23,143.06,359.12,141.96,360.23,141.96z"/>
	<path id="Rectangle_137_6_" class="st1" d="M476.19,141.96h93c1.11,0,2.01,1.09,2.01,2.44l0,0c0,1.35-0.9,2.44-2.01,2.44h-93
		c-1.11,0-2.01-1.09-2.01-2.44l0,0C474.18,143.06,475.08,141.96,476.19,141.96z"/>
	<ellipse id="Ellipse_126_4_" class="st2" cx="883.11" cy="144.41" rx="7.27" ry="6.52"/>
	<ellipse id="Ellipse_127_4_" class="st2" cx="904.62" cy="144.41" rx="7.27" ry="6.52"/>
</g>
<g class="st3">
	<path class="st4" d="M47.53,102.83V106h-1.45v-8.75h2.66c1,0,1.78,0.23,2.34,0.7c0.55,0.47,0.83,1.13,0.83,1.98
		s-0.29,1.55-0.87,2.09c-0.58,0.54-1.36,0.81-2.34,0.81H47.53z M47.53,98.44v3.2h0.94c0.62,0,1.1-0.14,1.42-0.43
		c0.33-0.29,0.49-0.7,0.49-1.22c0-1.03-0.6-1.54-1.79-1.54H47.53z"/>
	<path class="st4" d="M56.85,101.1c-0.17-0.13-0.42-0.2-0.74-0.2c-0.42,0-0.77,0.19-1.05,0.57c-0.28,0.38-0.42,0.89-0.42,1.54V106
		h-1.42v-6.25h1.42v1.29h0.02c0.14-0.44,0.35-0.78,0.64-1.03c0.29-0.25,0.61-0.37,0.96-0.37c0.26,0,0.45,0.04,0.59,0.12V101.1z"/>
	<path class="st4" d="M60.63,106.15c-0.96,0-1.73-0.29-2.31-0.88s-0.86-1.36-0.86-2.32c0-1.05,0.3-1.87,0.9-2.46
		s1.41-0.88,2.43-0.88c0.98,0,1.74,0.29,2.28,0.86c0.55,0.57,0.82,1.37,0.82,2.39c0,1-0.29,1.8-0.88,2.4
		C62.41,105.85,61.62,106.15,60.63,106.15z M60.69,100.73c-0.55,0-0.99,0.19-1.31,0.58c-0.32,0.39-0.48,0.92-0.48,1.6
		c0,0.65,0.16,1.17,0.49,1.55s0.76,0.56,1.31,0.56c0.56,0,0.99-0.19,1.28-0.56c0.3-0.37,0.45-0.9,0.45-1.58
		c0-0.69-0.15-1.22-0.45-1.59C61.68,100.92,61.25,100.73,60.69,100.73z"/>
	<path class="st4" d="M71,106h-1.42v-1.06h-0.02c-0.46,0.81-1.16,1.21-2.11,1.21c-0.77,0-1.38-0.28-1.85-0.84s-0.69-1.32-0.69-2.29
		c0-1.03,0.26-1.86,0.77-2.48c0.51-0.62,1.19-0.93,2.04-0.93c0.84,0,1.46,0.34,1.84,1.01h0.02v-3.87H71V106z M69.6,103.14v-0.82
		c0-0.44-0.14-0.82-0.43-1.13c-0.29-0.31-0.66-0.46-1.1-0.46c-0.53,0-0.94,0.2-1.25,0.59c-0.3,0.4-0.45,0.94-0.45,1.64
		c0,0.63,0.15,1.14,0.44,1.5c0.29,0.37,0.68,0.55,1.17,0.55c0.48,0,0.88-0.18,1.18-0.53C69.45,104.13,69.6,103.68,69.6,103.14z"/>
	<path class="st4" d="M78.3,106h-1.42v-0.99h-0.02c-0.41,0.76-1.05,1.13-1.92,1.13c-1.48,0-2.22-0.89-2.22-2.66v-3.74h1.42v3.59
		c0,1.12,0.43,1.68,1.3,1.68c0.42,0,0.76-0.15,1.03-0.46c0.27-0.31,0.41-0.71,0.41-1.21v-3.59h1.42V106z"/>
	<path class="st4" d="M84.62,105.71c-0.5,0.29-1.09,0.43-1.78,0.43c-0.93,0-1.68-0.29-2.25-0.87c-0.57-0.58-0.85-1.33-0.85-2.25
		c0-1.03,0.31-1.86,0.92-2.48c0.61-0.62,1.43-0.94,2.46-0.94c0.57,0,1.07,0.1,1.51,0.3v1.32c-0.44-0.33-0.9-0.49-1.39-0.49
		c-0.6,0-1.09,0.2-1.47,0.61c-0.38,0.41-0.57,0.93-0.57,1.59c0,0.65,0.18,1.16,0.54,1.53c0.36,0.37,0.84,0.56,1.45,0.56
		c0.51,0,0.99-0.18,1.44-0.54V105.71z"/>
	<path class="st4" d="M89.32,105.93c-0.28,0.14-0.64,0.21-1.09,0.21c-1.21,0-1.82-0.58-1.82-1.75v-3.53h-1.04v-1.11h1.04V98.3
		l1.42-0.4v1.85h1.5v1.11h-1.5v3.13c0,0.37,0.07,0.63,0.2,0.79c0.13,0.16,0.36,0.24,0.67,0.24c0.24,0,0.45-0.07,0.62-0.21V105.93z"
		/>
	<path class="st4" d="M90.15,105.8v-1.31c0.53,0.4,1.11,0.6,1.75,0.6c0.85,0,1.28-0.25,1.28-0.76c0-0.14-0.04-0.26-0.11-0.36
		s-0.17-0.19-0.3-0.27c-0.12-0.08-0.27-0.15-0.44-0.21c-0.17-0.06-0.36-0.13-0.56-0.21c-0.26-0.1-0.49-0.21-0.69-0.32
		c-0.21-0.11-0.38-0.24-0.51-0.39c-0.14-0.14-0.24-0.31-0.31-0.49c-0.07-0.18-0.1-0.4-0.1-0.64c0-0.3,0.07-0.57,0.21-0.8
		c0.14-0.23,0.33-0.42,0.57-0.58c0.24-0.16,0.51-0.27,0.82-0.35c0.3-0.08,0.62-0.12,0.95-0.12c0.58,0,1.09,0.09,1.55,0.26v1.24
		c-0.44-0.3-0.94-0.45-1.51-0.45c-0.18,0-0.34,0.02-0.49,0.05c-0.14,0.04-0.27,0.09-0.37,0.15c-0.1,0.06-0.18,0.14-0.24,0.23
		c-0.06,0.09-0.08,0.19-0.08,0.3c0,0.13,0.03,0.25,0.08,0.34c0.06,0.09,0.14,0.18,0.25,0.25s0.25,0.14,0.4,0.2
		c0.16,0.06,0.34,0.12,0.54,0.19c0.27,0.11,0.51,0.22,0.72,0.33c0.21,0.11,0.4,0.24,0.55,0.39c0.15,0.14,0.27,0.31,0.35,0.5
		c0.08,0.19,0.12,0.41,0.12,0.67c0,0.32-0.07,0.59-0.22,0.83c-0.15,0.24-0.34,0.43-0.59,0.59c-0.24,0.16-0.53,0.27-0.85,0.34
		c-0.32,0.08-0.66,0.11-1.01,0.11C91.24,106.15,90.65,106.03,90.15,105.8z"/>
	<path class="st4" d="M104.37,106h-4.85v-8.75h1.45v7.53h3.39V106z"/>
	<path class="st4" d="M106.19,98.44c-0.23,0-0.43-0.08-0.6-0.23c-0.16-0.15-0.25-0.34-0.25-0.57c0-0.23,0.08-0.43,0.25-0.58
		c0.17-0.16,0.36-0.23,0.6-0.23c0.24,0,0.44,0.08,0.61,0.23c0.17,0.15,0.25,0.35,0.25,0.58c0,0.22-0.08,0.41-0.25,0.56
		C106.63,98.36,106.43,98.44,106.19,98.44z M106.89,106h-1.42v-6.25h1.42V106z"/>
	<path class="st4" d="M108.35,105.8v-1.31c0.53,0.4,1.11,0.6,1.75,0.6c0.85,0,1.28-0.25,1.28-0.76c0-0.15-0.04-0.27-0.11-0.37
		s-0.17-0.18-0.3-0.26c-0.13-0.08-0.28-0.14-0.45-0.21s-0.36-0.13-0.56-0.21c-0.26-0.1-0.5-0.2-0.7-0.31
		c-0.2-0.1-0.37-0.22-0.51-0.36c-0.14-0.13-0.24-0.29-0.31-0.46c-0.07-0.17-0.1-0.38-0.1-0.63c0-0.3,0.07-0.56,0.22-0.79
		c0.14-0.22,0.34-0.41,0.57-0.56c0.24-0.15,0.51-0.26,0.81-0.33c0.3-0.07,0.62-0.11,0.95-0.11h2.59V98.3l1.42-0.4v1.85h1.5v1.11
		h-1.5v3.13c0,0.37,0.07,0.63,0.2,0.79s0.36,0.24,0.67,0.24c0.24,0,0.45-0.07,0.62-0.21v1.12c-0.27,0.14-0.64,0.21-1.09,0.21
		c-1.21,0-1.82-0.58-1.82-1.75v-3.53h-2.56c-0.18,0-0.34,0.01-0.49,0.03c-0.14,0.02-0.27,0.05-0.37,0.09
		c-0.1,0.04-0.18,0.11-0.24,0.18c-0.06,0.08-0.08,0.17-0.08,0.28c0,0.11,0.03,0.21,0.09,0.29c0.06,0.08,0.14,0.16,0.25,0.23
		c0.11,0.07,0.24,0.14,0.4,0.21c0.16,0.07,0.34,0.14,0.54,0.21c0.27,0.1,0.51,0.21,0.73,0.32c0.22,0.11,0.4,0.24,0.55,0.39
		s0.27,0.32,0.34,0.51c0.08,0.19,0.12,0.42,0.12,0.68c0,0.32-0.07,0.59-0.22,0.83c-0.15,0.24-0.34,0.43-0.59,0.59
		c-0.24,0.16-0.53,0.27-0.85,0.34c-0.32,0.08-0.66,0.11-1.01,0.11C109.44,106.15,108.85,106.03,108.35,105.8z"/>
</g>
<path id="Rectangle_151" class="st5" d="M978.55,7v23c0,2.76-2.25,5-5.03,5H7.58c-2.78,0-5.03-2.24-5.03-5V7c0-2.76,2.25-5,5.03-5
	h965.95C976.3,2,978.55,4.24,978.55,7z"/>
<circle id="Ellipse_125" class="st2" cx="837.84" cy="18.5" r="9.5"/>
<path id="Rectangle_152" class="st1" d="M862.52,16h81c2.49,0,4.5,1.34,4.5,3l0,0c0,1.66-2.01,3-4.5,3h-81c-2.49,0-4.5-1.34-4.5-3
	l0,0C858.02,17.34,860.03,16,862.52,16z"/>
<path class="st0" d="M919.27,99.71H812.9c-4.82,0-8.73-3.91-8.73-8.73v0c0-4.82,3.91-8.73,8.73-8.73h106.37
	c4.82,0,8.73,3.91,8.73,8.73v0C928,95.8,924.09,99.71,919.27,99.71z"/>
<g>
	<path id="Rectangle_135_1_" class="st0" d="M57.73,169.67h857.54c7.03,0,12.73,5.11,12.73,11.41l0,0c0,6.3-5.7,11.41-12.73,11.41
		H57.73c-7.03,0-12.73-5.11-12.73-11.41l0,0C45,174.77,50.7,169.67,57.73,169.67z"/>
	<path id="Rectangle_138_1_" class="st1" d="M71.55,178.63h30.92c1.51,0,2.73,1.09,2.73,2.44l0,0c0,1.35-1.22,2.44-2.73,2.44H71.55
		c-1.51,0-2.73-1.09-2.73-2.44l0,0C68.82,179.72,70.05,178.63,71.55,178.63z"/>
	<path id="Rectangle_137_12_" class="st1" d="M128.55,178.63h93c1.11,0,2.01,1.09,2.01,2.44l0,0c0,1.35-0.9,2.44-2.01,2.44h-93
		c-1.11,0-2.01-1.09-2.01-2.44l0,0C126.55,179.72,127.45,178.63,128.55,178.63z"/>
	<path id="Rectangle_137_11_" class="st1" d="M244.47,178.63h93c1.11,0,2.01,1.09,2.01,2.44l0,0c0,1.35-0.9,2.44-2.01,2.44h-93
		c-1.11,0-2.01-1.09-2.01-2.44l0,0C242.46,179.72,243.36,178.63,244.47,178.63z"/>
	<path id="Rectangle_137_10_" class="st1" d="M360.23,178.63h93c1.11,0,2.01,1.09,2.01,2.44l0,0c0,1.35-0.9,2.44-2.01,2.44h-93
		c-1.11,0-2.01-1.09-2.01-2.44l0,0C358.23,179.72,359.12,178.63,360.23,178.63z"/>
	<path id="Rectangle_137_9_" class="st1" d="M476.19,178.63h93c1.11,0,2.01,1.09,2.01,2.44l0,0c0,1.35-0.9,2.44-2.01,2.44h-93
		c-1.11,0-2.01-1.09-2.01-2.44l0,0C474.18,179.72,475.08,178.63,476.19,178.63z"/>
	<ellipse id="Ellipse_126_1_" class="st2" cx="883.11" cy="181.07" rx="7.27" ry="6.52"/>
	<ellipse id="Ellipse_127_1_" class="st2" cx="904.62" cy="181.07" rx="7.27" ry="6.52"/>
</g>
<g>
	<path id="Rectangle_135_2_" class="st0" d="M57.73,206.33h857.54c7.03,0,12.73,5.11,12.73,11.41l0,0c0,6.3-5.7,11.41-12.73,11.41
		H57.73c-7.03,0-12.73-5.11-12.73-11.41l0,0C45,211.44,50.7,206.33,57.73,206.33z"/>
	<path id="Rectangle_138_2_" class="st1" d="M71.55,215.3h30.92c1.51,0,2.73,1.09,2.73,2.44l0,0c0,1.35-1.22,2.44-2.73,2.44H71.55
		c-1.51,0-2.73-1.09-2.73-2.44l0,0C68.82,216.39,70.05,215.3,71.55,215.3z"/>
	<path id="Rectangle_137_18_" class="st1" d="M128.55,215.3h93c1.11,0,2.01,1.09,2.01,2.44l0,0c0,1.35-0.9,2.44-2.01,2.44h-93
		c-1.11,0-2.01-1.09-2.01-2.44l0,0C126.55,216.39,127.45,215.3,128.55,215.3z"/>
	<path id="Rectangle_137_17_" class="st1" d="M244.47,215.3h93c1.11,0,2.01,1.09,2.01,2.44l0,0c0,1.35-0.9,2.44-2.01,2.44h-93
		c-1.11,0-2.01-1.09-2.01-2.44l0,0C242.46,216.39,243.36,215.3,244.47,215.3z"/>
	<path id="Rectangle_137_16_" class="st1" d="M360.23,215.3h93c1.11,0,2.01,1.09,2.01,2.44l0,0c0,1.35-0.9,2.44-2.01,2.44h-93
		c-1.11,0-2.01-1.09-2.01-2.44l0,0C358.23,216.39,359.12,215.3,360.23,215.3z"/>
	<path id="Rectangle_137_15_" class="st1" d="M476.19,215.3h93c1.11,0,2.01,1.09,2.01,2.44l0,0c0,1.35-0.9,2.44-2.01,2.44h-93
		c-1.11,0-2.01-1.09-2.01-2.44l0,0C474.18,216.39,475.08,215.3,476.19,215.3z"/>
	<ellipse id="Ellipse_126_2_" class="st2" cx="883.11" cy="217.74" rx="7.27" ry="6.52"/>
	<ellipse id="Ellipse_127_2_" class="st2" cx="904.62" cy="217.74" rx="7.27" ry="6.52"/>
</g>
<g>
	<path id="Rectangle_135_3_" class="st0" d="M57.73,242.19h857.54c7.03,0,12.73,5.11,12.73,11.41l0,0c0,6.3-5.7,11.41-12.73,11.41
		H57.73C50.7,265,45,259.89,45,253.59l0,0C45,247.29,50.7,242.19,57.73,242.19z"/>
	<path id="Rectangle_138_3_" class="st1" d="M71.55,251.15h30.92c1.51,0,2.73,1.09,2.73,2.44l0,0c0,1.35-1.22,2.44-2.73,2.44H71.55
		c-1.51,0-2.73-1.09-2.73-2.44l0,0C68.82,252.24,70.05,251.15,71.55,251.15z"/>
	<path id="Rectangle_137_24_" class="st1" d="M128.55,251.15h93c1.11,0,2.01,1.09,2.01,2.44l0,0c0,1.35-0.9,2.44-2.01,2.44h-93
		c-1.11,0-2.01-1.09-2.01-2.44l0,0C126.55,252.24,127.45,251.15,128.55,251.15z"/>
	<path id="Rectangle_137_23_" class="st1" d="M244.47,251.15h93c1.11,0,2.01,1.09,2.01,2.44l0,0c0,1.35-0.9,2.44-2.01,2.44h-93
		c-1.11,0-2.01-1.09-2.01-2.44l0,0C242.46,252.24,243.36,251.15,244.47,251.15z"/>
	<path id="Rectangle_137_22_" class="st1" d="M360.23,251.15h93c1.11,0,2.01,1.09,2.01,2.44l0,0c0,1.35-0.9,2.44-2.01,2.44h-93
		c-1.11,0-2.01-1.09-2.01-2.44l0,0C358.23,252.24,359.12,251.15,360.23,251.15z"/>
	<path id="Rectangle_137_21_" class="st1" d="M476.19,251.15h93c1.11,0,2.01,1.09,2.01,2.44l0,0c0,1.35-0.9,2.44-2.01,2.44h-93
		c-1.11,0-2.01-1.09-2.01-2.44l0,0C474.18,252.24,475.08,251.15,476.19,251.15z"/>
	<ellipse id="Ellipse_126_3_" class="st2" cx="883.11" cy="253.59" rx="7.27" ry="6.52"/>
	<ellipse id="Ellipse_127_3_" class="st2" cx="904.62" cy="253.59" rx="7.27" ry="6.52"/>
</g>
<path class="st0" d="M788.62,100H679.88c-4.82,0-8.73-3.91-8.73-8.73v0c0-4.82,3.91-8.73,8.73-8.73h108.74
	c4.82,0,8.73,3.91,8.73,8.73v0C797.35,96.09,793.45,100,788.62,100z"/>
<path id="Rectangle_137_25_" class="st6" d="M699.32,89.52h69.86c0.83,0,1.51,0.78,1.51,1.75l0,0c0,0.96-0.68,1.75-1.51,1.75h-69.86
	c-0.83,0-1.51-0.78-1.51-1.75l0,0C697.81,90.31,698.49,89.52,699.32,89.52z"/>
<path id="Rectangle_137_26_" class="st6" d="M831.15,89.23h69.86c0.83,0,1.51,0.78,1.51,1.75l0,0c0,0.96-0.68,1.75-1.51,1.75h-69.86
	c-0.83,0-1.51-0.78-1.51-1.75l0,0C829.65,90.02,830.32,89.23,831.15,89.23z"/>
<rect x="0.25" y="0" class="st7" width="979.75" height="336"/>
<g>
	<path class="st8" d="M677.5,320h-374c-1.93,0-3.5-1.57-3.5-3.5v-294c0-1.93,1.57-3.5,3.5-3.5h374c1.93,0,3.5,1.57,3.5,3.5v294
		C681,318.43,679.43,320,677.5,320z"/>
	<path class="st6" d="M676.63,320H304.37c-2.41,0-4.37-1.96-4.37-4.37V46.93h381v268.7C681,318.04,679.04,320,676.63,320z"/>
</g>
<path class="st9" d="M401.5,35h-83c-0.83,0-1.5-0.67-1.5-1.5l0,0c0-0.83,0.67-1.5,1.5-1.5h83c0.83,0,1.5,0.67,1.5,1.5l0,0
	C403,34.33,402.33,35,401.5,35z"/>
<circle class="st9" cx="487.5" cy="79.5" r="20.5"/>
<path class="st9" d="M511,112h-47c-0.83,0-1.5-0.67-1.5-1.5l0,0c0-0.83,0.67-1.5,1.5-1.5h47c0.83,0,1.5,0.67,1.5,1.5l0,0
	C512.5,111.33,511.83,112,511,112z"/>
<path class="st9" d="M380.5,138h-62c-0.83,0-1.5-0.67-1.5-1.5l0,0c0-0.83,0.67-1.5,1.5-1.5h62c0.83,0,1.5,0.67,1.5,1.5l0,0
	C382,137.33,381.33,138,380.5,138z"/>
<path class="st9" d="M567.5,137h-62c-0.83,0-1.5-0.67-1.5-1.5l0,0c0-0.83,0.67-1.5,1.5-1.5h62c0.83,0,1.5,0.67,1.5,1.5l0,0
	C569,136.33,568.33,137,567.5,137z"/>
<path class="st9" d="M380.5,174h-62c-0.83,0-1.5-0.67-1.5-1.5l0,0c0-0.83,0.67-1.5,1.5-1.5h62c0.83,0,1.5,0.67,1.5,1.5l0,0
	C382,173.33,381.33,174,380.5,174z"/>
<path class="st9" d="M567.5,173h-62c-0.83,0-1.5-0.67-1.5-1.5l0,0c0-0.83,0.67-1.5,1.5-1.5h62c0.83,0,1.5,0.67,1.5,1.5l0,0
	C569,172.33,568.33,173,567.5,173z"/>
<path class="st9" d="M380.5,211h-62c-0.83,0-1.5-0.67-1.5-1.5l0,0c0-0.83,0.67-1.5,1.5-1.5h62c0.83,0,1.5,0.67,1.5,1.5l0,0
	C382,210.33,381.33,211,380.5,211z"/>
<path class="st9" d="M567.5,210h-62c-0.83,0-1.5-0.67-1.5-1.5l0,0c0-0.83,0.67-1.5,1.5-1.5h62c0.83,0,1.5,0.67,1.5,1.5l0,0
	C569,209.33,568.33,210,567.5,210z"/>
<g transform="matrix(1, 0, 0, 1, 0, 0)">
	<path id="Rectangle_163-2" class="st8" d="M320.76,142h152.47c2.08,0,3.76,1.79,3.76,4v10c0,2.21-1.69,4-3.76,4H320.76
		c-2.08,0-3.76-1.79-3.76-4v-10C317,143.79,318.69,142,320.76,142z"/>
</g>
<g transform="matrix(1, 0, 0, 1, 0, 0)">
	<path id="Rectangle_164-2" class="st8" d="M507.76,142h152.47c2.08,0,3.76,1.79,3.76,4v10c0,2.21-1.69,4-3.76,4H507.76
		c-2.08,0-3.76-1.79-3.76-4v-10C504,143.79,505.69,142,507.76,142z"/>
</g>
<g transform="matrix(1, 0, 0, 1, 0, 0)">
	<path id="Rectangle_163-2_1_" class="st8" d="M320.76,178h152.47c2.08,0,3.76,1.79,3.76,4v10c0,2.21-1.69,4-3.76,4H320.76
		c-2.08,0-3.76-1.79-3.76-4v-10C317,179.79,318.69,178,320.76,178z"/>
</g>
<g transform="matrix(1, 0, 0, 1, 0, 0)">
	<path id="Rectangle_164-2_1_" class="st8" d="M507.76,178h152.47c2.08,0,3.76,1.79,3.76,4v10c0,2.21-1.69,4-3.76,4H507.76
		c-2.08,0-3.76-1.79-3.76-4v-10C504,179.79,505.69,178,507.76,178z"/>
</g>
<g transform="matrix(1, 0, 0, 1, 0, 0)">
	<path id="Rectangle_163-2_2_" class="st8" d="M320.76,215h152.47c2.08,0,3.76,1.79,3.76,4v10c0,2.21-1.69,4-3.76,4H320.76
		c-2.08,0-3.76-1.79-3.76-4v-10C317,216.79,318.69,215,320.76,215z"/>
</g>
<g transform="matrix(1, 0, 0, 1, 0, 0)">
	<path id="Rectangle_164-2_2_" class="st8" d="M507.76,215h152.47c2.08,0,3.76,1.79,3.76,4v10c0,2.21-1.69,4-3.76,4H507.76
		c-2.08,0-3.76-1.79-3.76-4v-10C504,216.79,505.69,215,507.76,215z"/>
</g>
<path class="st9" d="M381.5,247h-62c-0.83,0-1.5-0.67-1.5-1.5l0,0c0-0.83,0.67-1.5,1.5-1.5h62c0.83,0,1.5,0.67,1.5,1.5l0,0
	C383,246.33,382.33,247,381.5,247z"/>
<path class="st9" d="M568.5,246h-62c-0.83,0-1.5-0.67-1.5-1.5l0,0c0-0.83,0.67-1.5,1.5-1.5h62c0.83,0,1.5,0.67,1.5,1.5l0,0
	C570,245.33,569.33,246,568.5,246z"/>
<g transform="matrix(1, 0, 0, 1, 0, 0)">
	<path id="Rectangle_163-2_3_" class="st8" d="M321.76,251h152.47c2.08,0,3.76,1.79,3.76,4v10c0,2.21-1.69,4-3.76,4H321.76
		c-2.08,0-3.76-1.79-3.76-4v-10C318,252.79,319.69,251,321.76,251z"/>
</g>
<g transform="matrix(1, 0, 0, 1, 0, 0)">
	<path id="Rectangle_164-2_3_" class="st8" d="M508.76,251h152.47c2.08,0,3.76,1.79,3.76,4v10c0,2.21-1.69,4-3.76,4H508.76
		c-2.08,0-3.76-1.79-3.76-4v-10C505,252.79,506.69,251,508.76,251z"/>
</g>
<path class="st10" d="M656.73,304.5h-76c-5.8,0-10.5-4.7-10.5-10.5l0,0c0-5.8,4.7-10.5,10.5-10.5h76c5.8,0,10.5,4.7,10.5,10.5l0,0
	C667.23,299.8,662.53,304.5,656.73,304.5z"/>
<g>
	<path class="st8" d="M593.03,298.39h-1.47l-0.72-2.05h-3.17l-0.7,2.05h-1.46l3.02-8.05h1.5L593.03,298.39z M590.48,295.25
		l-1.12-3.21c-0.03-0.11-0.07-0.27-0.11-0.51h-0.02c-0.03,0.21-0.07,0.38-0.11,0.51l-1.11,3.21H590.48z"/>
	<path class="st8" d="M599.22,298.39h-1.3v-0.98h-0.02c-0.42,0.74-1.06,1.11-1.94,1.11c-0.71,0-1.27-0.26-1.7-0.77
		s-0.64-1.22-0.64-2.1c0-0.95,0.23-1.71,0.7-2.29c0.47-0.57,1.1-0.86,1.88-0.86c0.77,0,1.34,0.31,1.69,0.93h0.02v-3.56h1.3V298.39z
		 M597.93,295.76v-0.75c0-0.41-0.13-0.75-0.4-1.04c-0.27-0.29-0.6-0.43-1.02-0.43c-0.49,0-0.87,0.18-1.15,0.54
		c-0.28,0.36-0.42,0.87-0.42,1.51c0,0.58,0.13,1.05,0.4,1.38s0.63,0.51,1.08,0.51c0.45,0,0.81-0.16,1.08-0.49
		C597.79,296.67,597.93,296.26,597.93,295.76z"/>
	<path class="st8" d="M606.15,298.39h-1.3v-0.98h-0.02c-0.42,0.74-1.06,1.11-1.94,1.11c-0.71,0-1.27-0.26-1.7-0.77
		s-0.64-1.22-0.64-2.1c0-0.95,0.23-1.71,0.7-2.29c0.47-0.57,1.1-0.86,1.88-0.86c0.77,0,1.34,0.31,1.69,0.93h0.02v-3.56h1.3V298.39z
		 M604.86,295.76v-0.75c0-0.41-0.13-0.75-0.4-1.04c-0.27-0.29-0.6-0.43-1.02-0.43c-0.49,0-0.87,0.18-1.15,0.54
		c-0.28,0.36-0.42,0.87-0.42,1.51c0,0.58,0.13,1.05,0.4,1.38s0.63,0.51,1.08,0.51c0.45,0,0.81-0.16,1.08-0.49
		C604.72,296.67,604.86,296.26,604.86,295.76z"/>
	<path class="st8" d="M612.48,295.47v2.92h-1.33v-8.05h2.44c0.92,0,1.64,0.22,2.15,0.65c0.51,0.43,0.76,1.04,0.76,1.82
		s-0.27,1.42-0.8,1.92c-0.53,0.5-1.25,0.75-2.16,0.75H612.48z M612.48,291.44v2.94h0.87c0.57,0,1.01-0.13,1.31-0.4
		c0.3-0.27,0.45-0.64,0.45-1.12c0-0.95-0.55-1.42-1.65-1.42H612.48z"/>
	<path class="st8" d="M621.07,293.88c-0.16-0.12-0.38-0.19-0.68-0.19c-0.39,0-0.71,0.17-0.97,0.52c-0.26,0.35-0.39,0.82-0.39,1.42
		v2.75h-1.3v-5.75h1.3v1.18h0.02c0.13-0.4,0.32-0.72,0.59-0.95s0.56-0.34,0.88-0.34c0.24,0,0.42,0.04,0.54,0.11V293.88z"/>
	<path class="st8" d="M624.54,298.52c-0.89,0-1.6-0.27-2.13-0.81c-0.53-0.54-0.79-1.25-0.79-2.14c0-0.97,0.28-1.72,0.83-2.26
		c0.55-0.54,1.3-0.81,2.23-0.81c0.9,0,1.6,0.26,2.1,0.79c0.5,0.53,0.75,1.26,0.75,2.2c0,0.92-0.27,1.65-0.81,2.2
		C626.18,298.25,625.45,298.52,624.54,298.52z M624.6,293.54c-0.51,0-0.91,0.18-1.21,0.53s-0.44,0.85-0.44,1.47
		c0,0.6,0.15,1.08,0.45,1.42c0.3,0.35,0.7,0.52,1.2,0.52c0.51,0,0.91-0.17,1.18-0.51c0.28-0.34,0.41-0.83,0.41-1.45
		c0-0.63-0.14-1.12-0.41-1.47C625.5,293.71,625.11,293.54,624.6,293.54z"/>
	<path class="st8" d="M634.08,298.39h-1.3v-0.98h-0.02c-0.42,0.74-1.06,1.11-1.94,1.11c-0.71,0-1.27-0.26-1.7-0.77
		s-0.64-1.22-0.64-2.1c0-0.95,0.23-1.71,0.7-2.29c0.47-0.57,1.1-0.86,1.88-0.86c0.77,0,1.34,0.31,1.69,0.93h0.02v-3.56h1.3V298.39z
		 M632.8,295.76v-0.75c0-0.41-0.13-0.75-0.4-1.04c-0.27-0.29-0.6-0.43-1.02-0.43c-0.49,0-0.87,0.18-1.15,0.54
		c-0.28,0.36-0.42,0.87-0.42,1.51c0,0.58,0.13,1.05,0.4,1.38s0.63,0.51,1.08,0.51c0.45,0,0.81-0.16,1.08-0.49
		C632.66,296.67,632.8,296.26,632.8,295.76z"/>
	<path class="st8" d="M640.8,298.39h-1.3v-0.91h-0.02c-0.38,0.7-0.97,1.04-1.76,1.04c-1.36,0-2.04-0.82-2.04-2.45v-3.44h1.3v3.3
		c0,1.03,0.4,1.55,1.2,1.55c0.39,0,0.7-0.14,0.95-0.43s0.37-0.66,0.37-1.12v-3.31h1.3V298.39z"/>
	<path class="st8" d="M646.61,298.13c-0.46,0.27-1,0.4-1.63,0.4c-0.85,0-1.54-0.27-2.07-0.8c-0.52-0.53-0.79-1.23-0.79-2.08
		c0-0.95,0.28-1.71,0.84-2.28c0.56-0.58,1.32-0.86,2.26-0.86c0.52,0,0.99,0.09,1.39,0.28v1.21c-0.4-0.3-0.83-0.45-1.28-0.45
		c-0.55,0-1,0.19-1.35,0.56c-0.35,0.37-0.53,0.86-0.53,1.46c0,0.59,0.17,1.06,0.5,1.41c0.33,0.34,0.78,0.52,1.33,0.52
		c0.47,0,0.91-0.17,1.33-0.5V298.13z"/>
	<path class="st8" d="M650.93,298.33c-0.25,0.13-0.59,0.19-1,0.19c-1.12,0-1.67-0.54-1.67-1.61v-3.25h-0.96v-1.02h0.96v-1.33
		l1.3-0.37v1.7h1.38v1.02h-1.38v2.88c0,0.34,0.06,0.58,0.19,0.73c0.12,0.15,0.33,0.22,0.62,0.22c0.22,0,0.41-0.06,0.57-0.19V298.33z
		"/>
</g>
</svg>
