<?xml version="1.0" encoding="utf-8"?>
<!-- Generator: Adobe Illustrator 23.0.2, SVG Export Plug-In . SVG Version: 6.00 Build 0)  -->
<svg version="1.1" id="Layer_1" xmlns="http://www.w3.org/2000/svg" xmlns:xlink="http://www.w3.org/1999/xlink" x="0px" y="0px"
	 viewBox="0 0 980 335" style="enable-background:new 0 0 980 335;" xml:space="preserve">
<style type="text/css">
	.st0{fill:#DFDFDF;}
	.st1{fill:#BEBDBD;}
	.st2{fill:#BCB7B7;}
	.st3{enable-background:new    ;}
	.st4{fill:#848484;}
	.st5{fill:none;}
	.st6{fill:#707070;}
	.st7{fill:#E9E9E9;}
	.st8{fill:#F1F1F1;}
	.st9{fill:#00B7CF;}
	.st10{fill:#FCFCFC;}
	.st11{font-family:'SegoeUI-Semibold';}
	.st12{font-size:10.5px;}
	.st13{fill:#BFBFBF;}
</style>
<path id="Rectangle_151" class="st0" d="M976.1,6v23c0,2.76-2.24,5-5,5H10c-2.76,0-5-2.24-5-5V6c0-2.76,2.24-5,5-5h961.1
	C973.86,1,976.1,3.24,976.1,6z"/>
<circle id="Ellipse_125" class="st1" cx="838.84" cy="17.5" r="9.5"/>
<path id="Rectangle_152" class="st2" d="M863.52,15h81c2.49,0,4.5,1.34,4.5,3l0,0c0,1.66-2.01,3-4.5,3h-81c-2.49,0-4.5-1.34-4.5-3
	l0,0C859.02,16.34,861.03,15,863.52,15z"/>
<g class="st3">
	<path class="st4" d="M33.5,63.14c-1.21,0-2.18-0.39-2.91-1.18s-1.09-1.81-1.09-3.06c0-1.35,0.37-2.43,1.11-3.23
		s1.75-1.21,3.02-1.21c1.18,0,2.13,0.39,2.85,1.17s1.08,1.8,1.08,3.06c0,1.37-0.37,2.46-1.11,3.25S34.73,63.14,33.5,63.14z
		 M33.56,55.68c-0.77,0-1.4,0.29-1.88,0.86s-0.72,1.33-0.72,2.27c0,0.93,0.23,1.69,0.7,2.26s1.08,0.86,1.84,0.86
		c0.8,0,1.44-0.27,1.9-0.81s0.7-1.3,0.7-2.28c0-1-0.23-1.78-0.68-2.33S34.36,55.68,33.56,55.68z"/>
	<path class="st4" d="M42.44,58.29c-0.16-0.13-0.4-0.19-0.71-0.19c-0.4,0-0.74,0.18-1.01,0.54s-0.4,0.86-0.4,1.48V63h-1.36v-6h1.36
		v1.24h0.02c0.13-0.42,0.34-0.75,0.61-0.99s0.58-0.35,0.92-0.35c0.25,0,0.43,0.04,0.56,0.11V58.29z"/>
	<path class="st4" d="M48.85,63h-1.36v-1.02h-0.02c-0.44,0.77-1.11,1.16-2.02,1.16c-0.74,0-1.33-0.27-1.77-0.81
		s-0.67-1.27-0.67-2.19c0-0.99,0.25-1.79,0.74-2.38s1.14-0.9,1.96-0.9c0.81,0,1.4,0.32,1.76,0.97h0.02v-3.71h1.36V63z M47.51,60.26
		v-0.79c0-0.43-0.14-0.79-0.42-1.08s-0.63-0.45-1.06-0.45c-0.51,0-0.91,0.19-1.2,0.57s-0.44,0.9-0.44,1.58
		c0,0.61,0.14,1.09,0.42,1.44s0.66,0.53,1.13,0.53c0.46,0,0.84-0.17,1.13-0.51S47.51,60.78,47.51,60.26z"/>
	<path class="st4" d="M55.71,60.37h-4.09c0.02,0.55,0.19,0.98,0.51,1.28s0.77,0.45,1.34,0.45c0.64,0,1.23-0.19,1.76-0.57v1.1
		c-0.55,0.34-1.27,0.52-2.17,0.52c-0.88,0-1.58-0.27-2.08-0.82s-0.75-1.31-0.75-2.3c0-0.93,0.28-1.69,0.83-2.28s1.24-0.88,2.06-0.88
		s1.46,0.26,1.9,0.79s0.67,1.26,0.67,2.2V60.37z M54.39,59.41c0-0.49-0.12-0.87-0.35-1.14s-0.54-0.41-0.94-0.41
		c-0.39,0-0.72,0.14-0.99,0.43s-0.44,0.66-0.5,1.12H54.39z"/>
	<path class="st4" d="M60.48,58.29c-0.16-0.13-0.4-0.19-0.71-0.19c-0.4,0-0.74,0.18-1.01,0.54s-0.4,0.86-0.4,1.48V63H57v-6h1.36
		v1.24h0.02c0.13-0.42,0.34-0.75,0.61-0.99s0.58-0.35,0.92-0.35c0.25,0,0.43,0.04,0.56,0.11V58.29z"/>
	<path class="st4" d="M61.07,62.81v-1.26c0.51,0.39,1.07,0.58,1.68,0.58c0.82,0,1.23-0.24,1.23-0.73c0-0.14-0.04-0.25-0.11-0.35
		s-0.17-0.18-0.28-0.25s-0.26-0.14-0.42-0.2s-0.34-0.13-0.54-0.2c-0.25-0.1-0.47-0.2-0.67-0.31s-0.36-0.23-0.49-0.37
		s-0.23-0.3-0.3-0.47s-0.1-0.38-0.1-0.62c0-0.29,0.07-0.54,0.21-0.76s0.32-0.41,0.55-0.56s0.49-0.26,0.79-0.34s0.6-0.11,0.91-0.11
		c0.55,0,1.05,0.08,1.49,0.25v1.19c-0.42-0.29-0.91-0.43-1.45-0.43c-0.17,0-0.33,0.02-0.47,0.05s-0.26,0.08-0.35,0.15
		s-0.17,0.14-0.23,0.23s-0.08,0.18-0.08,0.29c0,0.13,0.03,0.24,0.08,0.33s0.14,0.17,0.24,0.24s0.24,0.13,0.39,0.19
		s0.32,0.12,0.52,0.18c0.26,0.11,0.49,0.21,0.69,0.32s0.38,0.23,0.52,0.37s0.26,0.3,0.33,0.48s0.12,0.4,0.12,0.65
		c0,0.3-0.07,0.57-0.21,0.8s-0.33,0.41-0.56,0.56s-0.5,0.26-0.81,0.33s-0.63,0.11-0.97,0.11C62.12,63.14,61.55,63.03,61.07,62.81z"
		/>
</g>
<g id="baseline-arrow_back-24px">
	<path id="Path_57" class="st5" d="M3.5,49.5h19v18h-19V49.5z"/>
	<path id="Path_58" class="st6" d="M18.7,57.85h-8.67l3.98-3.64L13,53.29L7.3,58.5l5.7,5.21l1-0.92l-3.98-3.64h8.67V57.85z"/>
</g>
<path id="Rectangle_95" class="st7" d="M977,139.55v190.91c0,2.51-2.24,4.55-5,4.55H11c-2.76,0-5-2.04-5-4.55V139.55
	c0-2.51,2.24-4.55,5-4.55h961C974.76,135,977,137.04,977,139.55z"/>
<path id="Rectangle_91" class="st8" d="M319,86v23c0,2.76-2.24,5-5,5H11c-2.76,0-5-2.24-5-5V86c0-2.76,2.24-5,5-5h303
	C316.76,81,319,83.24,319,86z"/>
<path id="Rectangle_92" class="st8" d="M648,86v23c0,2.76-2.24,5-5,5H340c-2.76,0-5-2.24-5-5V86c0-2.76,2.24-5,5-5h303
	C645.76,81,648,83.24,648,86z"/>
<path id="Rectangle_93" class="st8" d="M977,86v23c0,2.76-2.24,5-5,5H669c-2.76,0-5-2.24-5-5V86c0-2.76,2.24-5,5-5h303
	C974.76,81,977,83.24,977,86z"/>
<circle id="Ellipse_104" class="st9" cx="30.25" cy="98.25" r="10"/>
<circle id="Ellipse_105" class="st9" cx="358.58" cy="98.25" r="10"/>
<circle id="Ellipse_106" class="st9" cx="687.08" cy="98.25" r="10"/>
<text transform="matrix(1 0 0 1 28 102)" class="st10 st11 st12">1</text>
<text transform="matrix(1 0 0 1 355.6678 102)" class="st10 st11 st12">2</text>
<text transform="matrix(1 0 0 1 684.1677 102)" class="st10 st11 st12">3</text>
<g class="st3">
	<path class="st4" d="M48.22,100.21V103h-1.27v-7.7h2.34c0.88,0,1.57,0.21,2.06,0.62c0.49,0.41,0.73,0.99,0.73,1.74
		c0,0.75-0.25,1.36-0.76,1.84c-0.51,0.48-1.2,0.71-2.06,0.71H48.22z M48.22,96.35v2.81h0.83c0.55,0,0.96-0.13,1.25-0.38
		c0.29-0.25,0.43-0.61,0.43-1.07c0-0.91-0.53-1.36-1.58-1.36H48.22z"/>
	<path class="st4" d="M58.04,103h-1.25v-0.87h-0.02c-0.36,0.67-0.92,1-1.69,1c-1.3,0-1.95-0.78-1.95-2.34V97.5h1.25v3.16
		c0,0.99,0.38,1.48,1.14,1.48c0.37,0,0.67-0.14,0.91-0.41c0.24-0.27,0.36-0.63,0.36-1.07V97.5h1.25V103z"/>
	<path class="st4" d="M62.85,98.69c-0.15-0.12-0.37-0.18-0.65-0.18c-0.37,0-0.68,0.17-0.92,0.5c-0.25,0.33-0.37,0.79-0.37,1.36V103
		h-1.25v-5.5h1.25v1.13h0.02c0.12-0.39,0.31-0.69,0.56-0.9c0.25-0.22,0.53-0.33,0.85-0.33c0.23,0,0.4,0.03,0.52,0.1V98.69z"/>
	<path class="st4" d="M67.67,102.75c-0.44,0.25-0.96,0.38-1.56,0.38c-0.82,0-1.48-0.25-1.98-0.77c-0.5-0.51-0.75-1.17-0.75-1.98
		c0-0.91,0.27-1.63,0.81-2.18c0.54-0.55,1.26-0.82,2.16-0.82c0.5,0,0.94,0.09,1.33,0.26v1.16c-0.38-0.29-0.79-0.43-1.22-0.43
		c-0.53,0-0.96,0.18-1.29,0.53s-0.5,0.82-0.5,1.4c0,0.57,0.16,1.02,0.48,1.35c0.32,0.33,0.74,0.49,1.28,0.49
		c0.45,0,0.87-0.16,1.27-0.48V102.75z"/>
	<path class="st4" d="M73.79,103h-1.25v-3.01c0-1.09-0.36-1.63-1.09-1.63c-0.37,0-0.67,0.16-0.92,0.47s-0.38,0.72-0.38,1.21V103
		H68.9v-8.14h1.25v3.56h0.02c0.42-0.69,1.01-1.04,1.78-1.04c1.22,0,1.83,0.75,1.83,2.24V103z"/>
	<path class="st4" d="M79.53,103h-1.21v-0.86H78.3c-0.38,0.66-0.94,0.99-1.67,0.99c-0.54,0-0.96-0.15-1.27-0.44
		c-0.31-0.29-0.46-0.68-0.46-1.17c0-1.04,0.6-1.64,1.79-1.82l1.63-0.23c0-0.78-0.37-1.18-1.12-1.18c-0.66,0-1.25,0.22-1.77,0.68
		v-1.09c0.58-0.34,1.25-0.52,2.01-0.52c1.39,0,2.08,0.68,2.08,2.05V103z M78.32,100.3l-1.15,0.16c-0.36,0.05-0.63,0.13-0.81,0.26
		c-0.18,0.13-0.27,0.35-0.27,0.67c0,0.23,0.08,0.42,0.25,0.57c0.17,0.15,0.39,0.22,0.67,0.22c0.38,0,0.69-0.13,0.94-0.4
		c0.25-0.27,0.37-0.6,0.37-1.01V100.3z"/>
	<path class="st4" d="M80.7,102.83v-1.15c0.47,0.35,0.98,0.53,1.54,0.53c0.75,0,1.13-0.22,1.13-0.67c0-0.13-0.03-0.23-0.1-0.32
		s-0.15-0.17-0.26-0.23c-0.11-0.07-0.24-0.13-0.39-0.18c-0.15-0.05-0.31-0.11-0.5-0.18c-0.23-0.09-0.43-0.18-0.61-0.29
		c-0.18-0.1-0.33-0.21-0.45-0.34c-0.12-0.13-0.21-0.27-0.27-0.43s-0.09-0.35-0.09-0.56c0-0.26,0.06-0.5,0.19-0.7s0.29-0.37,0.5-0.51
		s0.45-0.24,0.72-0.31c0.27-0.07,0.55-0.1,0.83-0.1c0.51,0,0.96,0.08,1.36,0.23v1.09c-0.39-0.26-0.83-0.4-1.33-0.4
		c-0.16,0-0.3,0.02-0.43,0.05c-0.13,0.03-0.24,0.08-0.33,0.13s-0.16,0.13-0.21,0.21c-0.05,0.08-0.08,0.17-0.08,0.27
		c0,0.12,0.02,0.22,0.08,0.3s0.12,0.16,0.22,0.22c0.1,0.06,0.22,0.12,0.35,0.17c0.14,0.05,0.3,0.11,0.48,0.17
		c0.24,0.1,0.45,0.2,0.64,0.3c0.19,0.1,0.35,0.21,0.48,0.34s0.23,0.27,0.31,0.44c0.07,0.17,0.11,0.36,0.11,0.59
		c0,0.28-0.06,0.52-0.19,0.73c-0.13,0.21-0.3,0.38-0.52,0.52c-0.21,0.14-0.46,0.24-0.74,0.3c-0.28,0.07-0.58,0.1-0.89,0.1
		C81.66,103.13,81.14,103.03,80.7,102.83z"/>
	<path class="st4" d="M90.45,100.59H86.7c0.01,0.51,0.17,0.9,0.47,1.18c0.3,0.28,0.71,0.41,1.23,0.41c0.59,0,1.13-0.17,1.62-0.53v1
		c-0.5,0.32-1.16,0.47-1.99,0.47c-0.81,0-1.44-0.25-1.9-0.75c-0.46-0.5-0.69-1.2-0.69-2.11c0-0.86,0.25-1.55,0.76-2.09
		c0.51-0.54,1.14-0.81,1.89-0.81s1.33,0.24,1.75,0.72c0.41,0.48,0.62,1.16,0.62,2.01V100.59z M89.24,99.71
		c0-0.45-0.11-0.79-0.32-1.04s-0.49-0.37-0.86-0.37c-0.36,0-0.66,0.13-0.91,0.39c-0.25,0.26-0.4,0.6-0.46,1.03H89.24z"/>
	<path class="st4" d="M97.1,103.13c-0.85,0-1.53-0.26-2.03-0.77c-0.51-0.51-0.76-1.2-0.76-2.04c0-0.92,0.26-1.65,0.79-2.16
		c0.53-0.52,1.24-0.78,2.13-0.78c0.86,0,1.53,0.25,2.01,0.76c0.48,0.5,0.72,1.2,0.72,2.1c0,0.88-0.26,1.58-0.78,2.11
		C98.66,102.87,97.97,103.13,97.1,103.13z M97.15,98.37c-0.49,0-0.87,0.17-1.15,0.51s-0.42,0.81-0.42,1.41
		c0,0.58,0.14,1.03,0.43,1.36s0.67,0.5,1.15,0.5c0.49,0,0.87-0.16,1.13-0.49c0.26-0.33,0.39-0.79,0.39-1.39
		c0-0.61-0.13-1.07-0.39-1.4C98.02,98.53,97.65,98.37,97.15,98.37z"/>
	<path class="st4" d="M104.42,98.69c-0.15-0.12-0.37-0.18-0.65-0.18c-0.37,0-0.68,0.17-0.92,0.5c-0.25,0.33-0.37,0.79-0.37,1.36V103
		h-1.25v-5.5h1.25v1.13h0.02c0.12-0.39,0.31-0.69,0.56-0.9c0.25-0.22,0.53-0.33,0.85-0.33c0.23,0,0.4,0.03,0.52,0.1V98.69z"/>
	<path class="st4" d="M110.3,103h-1.25v-0.93h-0.02c-0.4,0.71-1.02,1.06-1.85,1.06c-0.68,0-1.22-0.25-1.62-0.74
		c-0.41-0.49-0.61-1.16-0.61-2.01c0-0.91,0.22-1.64,0.67-2.19c0.45-0.55,1.05-0.82,1.8-0.82c0.74,0,1.28,0.3,1.62,0.89h0.02v-3.41
		h1.25V103z M109.07,100.49v-0.72c0-0.39-0.13-0.72-0.38-0.99c-0.25-0.27-0.58-0.41-0.97-0.41c-0.47,0-0.83,0.17-1.1,0.52
		c-0.27,0.35-0.4,0.83-0.4,1.44c0,0.56,0.13,1,0.38,1.32c0.26,0.32,0.6,0.49,1.03,0.49c0.43,0,0.77-0.16,1.04-0.47
		S109.07,100.96,109.07,100.49z"/>
	<path class="st4" d="M116.58,100.59h-3.75c0.01,0.51,0.17,0.9,0.47,1.18c0.3,0.28,0.71,0.41,1.23,0.41c0.59,0,1.13-0.17,1.62-0.53
		v1c-0.5,0.32-1.16,0.47-1.99,0.47c-0.81,0-1.44-0.25-1.9-0.75c-0.46-0.5-0.69-1.2-0.69-2.11c0-0.86,0.25-1.55,0.76-2.09
		c0.51-0.54,1.14-0.81,1.89-0.81s1.33,0.24,1.75,0.72c0.41,0.48,0.62,1.16,0.62,2.01V100.59z M115.38,99.71
		c0-0.45-0.11-0.79-0.32-1.04s-0.49-0.37-0.86-0.37c-0.36,0-0.66,0.13-0.91,0.39c-0.25,0.26-0.4,0.6-0.46,1.03H115.38z"/>
	<path class="st4" d="M120.96,98.69c-0.15-0.12-0.37-0.18-0.65-0.18c-0.37,0-0.68,0.17-0.92,0.5c-0.25,0.33-0.37,0.79-0.37,1.36V103
		h-1.25v-5.5h1.25v1.13h0.02c0.12-0.39,0.31-0.69,0.56-0.9c0.25-0.22,0.53-0.33,0.85-0.33c0.23,0,0.4,0.03,0.52,0.1V98.69z"/>
	<path class="st4" d="M128.05,98.69c-0.15-0.12-0.37-0.18-0.65-0.18c-0.37,0-0.68,0.17-0.92,0.5c-0.25,0.33-0.37,0.79-0.37,1.36V103
		h-1.25v-5.5h1.25v1.13h0.02c0.12-0.39,0.31-0.69,0.56-0.9c0.25-0.22,0.53-0.33,0.85-0.33c0.23,0,0.4,0.03,0.52,0.1V98.69z"/>
	<path class="st4" d="M133.59,100.59h-3.75c0.01,0.51,0.17,0.9,0.47,1.18c0.3,0.28,0.71,0.41,1.23,0.41c0.59,0,1.13-0.17,1.62-0.53
		v1c-0.5,0.32-1.16,0.47-1.99,0.47c-0.81,0-1.44-0.25-1.9-0.75c-0.46-0.5-0.69-1.2-0.69-2.11c0-0.86,0.25-1.55,0.76-2.09
		c0.51-0.54,1.14-0.81,1.89-0.81s1.33,0.24,1.75,0.72c0.41,0.48,0.62,1.16,0.62,2.01V100.59z M132.39,99.71
		c0-0.45-0.11-0.79-0.32-1.04s-0.49-0.37-0.86-0.37c-0.36,0-0.66,0.13-0.91,0.39c-0.25,0.26-0.4,0.6-0.46,1.03H132.39z"/>
	<path class="st4" d="M138.72,102.75c-0.44,0.25-0.96,0.38-1.56,0.38c-0.82,0-1.48-0.25-1.98-0.77c-0.5-0.51-0.75-1.17-0.75-1.98
		c0-0.91,0.27-1.63,0.81-2.18c0.54-0.55,1.26-0.82,2.16-0.82c0.5,0,0.94,0.09,1.33,0.26v1.16c-0.38-0.29-0.79-0.43-1.22-0.43
		c-0.53,0-0.96,0.18-1.29,0.53s-0.5,0.82-0.5,1.4c0,0.57,0.16,1.02,0.48,1.35c0.32,0.33,0.74,0.49,1.28,0.49
		c0.45,0,0.87-0.16,1.27-0.48V102.75z"/>
	<path class="st4" d="M144.61,100.59h-3.75c0.01,0.51,0.17,0.9,0.47,1.18c0.3,0.28,0.71,0.41,1.23,0.41c0.59,0,1.13-0.17,1.62-0.53
		v1c-0.5,0.32-1.16,0.47-1.99,0.47c-0.81,0-1.44-0.25-1.9-0.75c-0.46-0.5-0.69-1.2-0.69-2.11c0-0.86,0.25-1.55,0.76-2.09
		c0.51-0.54,1.14-0.81,1.89-0.81s1.33,0.24,1.75,0.72c0.41,0.48,0.62,1.16,0.62,2.01V100.59z M143.4,99.71
		c0-0.45-0.11-0.79-0.32-1.04s-0.49-0.37-0.86-0.37c-0.36,0-0.66,0.13-0.91,0.39c-0.25,0.26-0.4,0.6-0.46,1.03H143.4z"/>
	<path class="st4" d="M146.42,96.35c-0.2,0-0.38-0.07-0.52-0.2c-0.15-0.13-0.22-0.3-0.22-0.5s0.07-0.37,0.22-0.51
		c0.14-0.14,0.32-0.2,0.52-0.2c0.21,0,0.39,0.07,0.54,0.2c0.15,0.14,0.22,0.31,0.22,0.51c0,0.19-0.07,0.36-0.22,0.5
		S146.63,96.35,146.42,96.35z M147.04,103h-1.25v-5.5h1.25V103z"/>
	<path class="st4" d="M153.41,97.5l-2.13,5.5h-1.35l-2.02-5.5h1.35l1.22,3.85c0.09,0.28,0.15,0.53,0.17,0.74h0.02
		c0.03-0.26,0.08-0.5,0.15-0.72l1.28-3.87H153.41z"/>
	<path class="st4" d="M158.91,100.59h-3.75c0.01,0.51,0.17,0.9,0.47,1.18c0.3,0.28,0.71,0.41,1.23,0.41c0.59,0,1.13-0.17,1.62-0.53
		v1c-0.5,0.32-1.16,0.47-1.99,0.47c-0.81,0-1.44-0.25-1.9-0.75c-0.46-0.5-0.69-1.2-0.69-2.11c0-0.86,0.25-1.55,0.76-2.09
		c0.51-0.54,1.14-0.81,1.89-0.81s1.33,0.24,1.75,0.72c0.41,0.48,0.62,1.16,0.62,2.01V100.59z M157.7,99.71
		c0-0.45-0.11-0.79-0.32-1.04s-0.49-0.37-0.86-0.37c-0.36,0-0.66,0.13-0.91,0.39c-0.25,0.26-0.4,0.6-0.46,1.03H157.7z"/>
	<path class="st4" d="M165.09,103h-1.25v-0.93h-0.02c-0.4,0.71-1.02,1.06-1.85,1.06c-0.68,0-1.22-0.25-1.62-0.74
		c-0.41-0.49-0.61-1.16-0.61-2.01c0-0.91,0.22-1.64,0.67-2.19c0.45-0.55,1.05-0.82,1.8-0.82c0.74,0,1.28,0.3,1.62,0.89h0.02v-3.41
		h1.25V103z M163.86,100.49v-0.72c0-0.39-0.13-0.72-0.38-0.99c-0.25-0.27-0.58-0.41-0.97-0.41c-0.47,0-0.83,0.17-1.1,0.52
		c-0.27,0.35-0.4,0.83-0.4,1.44c0,0.56,0.13,1,0.38,1.32c0.26,0.32,0.6,0.49,1.03,0.49c0.43,0,0.77-0.16,1.04-0.47
		S163.86,100.96,163.86,100.49z"/>
</g>
<g class="st3">
	<path class="st4" d="M382.96,102.47c-0.8,0.44-1.7,0.66-2.68,0.66c-1.14,0-2.06-0.35-2.77-1.06s-1.06-1.65-1.06-2.81
		c0-1.19,0.39-2.17,1.16-2.94c0.77-0.76,1.75-1.15,2.94-1.15c0.86,0,1.58,0.13,2.16,0.38v1.32c-0.59-0.39-1.29-0.59-2.11-0.59
		c-0.82,0-1.49,0.27-2.02,0.81c-0.52,0.54-0.79,1.24-0.79,2.1c0,0.88,0.23,1.58,0.68,2.09s1.06,0.76,1.84,0.76
		c0.53,0,0.99-0.1,1.38-0.31v-1.83h-1.62v-1.07h2.9V102.47z"/>
	<path class="st4" d="M389.14,100.59h-3.75c0.01,0.51,0.17,0.9,0.47,1.18c0.3,0.28,0.71,0.41,1.23,0.41c0.59,0,1.13-0.17,1.62-0.53
		v1c-0.5,0.32-1.16,0.47-1.99,0.47c-0.81,0-1.44-0.25-1.9-0.75c-0.46-0.5-0.69-1.2-0.69-2.11c0-0.86,0.25-1.55,0.76-2.09
		c0.51-0.54,1.14-0.81,1.89-0.81s1.33,0.24,1.75,0.72c0.41,0.48,0.62,1.16,0.62,2.01V100.59z M387.93,99.71
		c0-0.45-0.11-0.79-0.32-1.04s-0.49-0.37-0.86-0.37c-0.36,0-0.66,0.13-0.91,0.39c-0.25,0.26-0.4,0.6-0.46,1.03H387.93z"/>
	<path class="st4" d="M395.22,103h-1.25v-3.1c0-1.03-0.36-1.54-1.09-1.54c-0.38,0-0.69,0.14-0.94,0.43
		c-0.25,0.29-0.37,0.64-0.37,1.08V103h-1.25v-5.5h1.25v0.91h0.02c0.41-0.69,1.01-1.04,1.78-1.04c0.6,0,1.05,0.19,1.37,0.58
		s0.47,0.95,0.47,1.68V103z"/>
	<path class="st4" d="M401.4,100.59h-3.75c0.01,0.51,0.17,0.9,0.47,1.18c0.3,0.28,0.71,0.41,1.23,0.41c0.59,0,1.13-0.17,1.62-0.53v1
		c-0.5,0.32-1.16,0.47-1.99,0.47c-0.81,0-1.44-0.25-1.9-0.75c-0.46-0.5-0.69-1.2-0.69-2.11c0-0.86,0.25-1.55,0.76-2.09
		c0.51-0.54,1.14-0.81,1.89-0.81s1.33,0.24,1.75,0.72c0.41,0.48,0.62,1.16,0.62,2.01V100.59z M400.2,99.71
		c0-0.45-0.11-0.79-0.32-1.04s-0.49-0.37-0.86-0.37c-0.36,0-0.66,0.13-0.91,0.39c-0.25,0.26-0.4,0.6-0.46,1.03H400.2z"/>
	<path class="st4" d="M405.78,98.69c-0.15-0.12-0.37-0.18-0.65-0.18c-0.37,0-0.68,0.17-0.92,0.5c-0.25,0.33-0.37,0.79-0.37,1.36V103
		h-1.25v-5.5h1.25v1.13h0.02c0.12-0.39,0.31-0.69,0.56-0.9c0.25-0.22,0.53-0.33,0.85-0.33c0.23,0,0.4,0.03,0.52,0.1V98.69z"/>
	<path class="st4" d="M410.88,103h-1.21v-0.86h-0.02c-0.38,0.66-0.94,0.99-1.67,0.99c-0.54,0-0.96-0.15-1.27-0.44
		c-0.31-0.29-0.46-0.68-0.46-1.17c0-1.04,0.6-1.64,1.79-1.82l1.63-0.23c0-0.78-0.37-1.18-1.12-1.18c-0.66,0-1.25,0.22-1.77,0.68
		v-1.09c0.58-0.34,1.25-0.52,2.01-0.52c1.39,0,2.08,0.68,2.08,2.05V103z M409.68,100.3l-1.15,0.16c-0.36,0.05-0.63,0.13-0.81,0.26
		c-0.18,0.13-0.27,0.35-0.27,0.67c0,0.23,0.08,0.42,0.25,0.57c0.17,0.15,0.39,0.22,0.67,0.22c0.38,0,0.69-0.13,0.94-0.4
		c0.25-0.27,0.37-0.6,0.37-1.01V100.3z"/>
	<path class="st4" d="M415.3,102.94c-0.24,0.12-0.56,0.18-0.96,0.18c-1.07,0-1.6-0.51-1.6-1.54v-3.11h-0.92V97.5h0.92v-1.27
		l1.25-0.35v1.63h1.32v0.98h-1.32v2.75c0,0.33,0.06,0.56,0.18,0.7s0.31,0.21,0.59,0.21c0.21,0,0.39-0.06,0.55-0.18V102.94z"/>
	<path class="st4" d="M421.03,100.59h-3.75c0.01,0.51,0.17,0.9,0.47,1.18c0.3,0.28,0.71,0.41,1.23,0.41c0.59,0,1.13-0.17,1.62-0.53
		v1c-0.5,0.32-1.16,0.47-1.99,0.47c-0.81,0-1.44-0.25-1.9-0.75c-0.46-0.5-0.69-1.2-0.69-2.11c0-0.86,0.25-1.55,0.76-2.09
		c0.51-0.54,1.14-0.81,1.89-0.81s1.33,0.24,1.75,0.72c0.41,0.48,0.62,1.16,0.62,2.01V100.59z M419.83,99.71
		c0-0.45-0.11-0.79-0.32-1.04s-0.49-0.37-0.86-0.37c-0.36,0-0.66,0.13-0.91,0.39c-0.25,0.26-0.4,0.6-0.46,1.03H419.83z"/>
	<path class="st4" d="M426.51,102.19h-0.02v3.34h-1.25V97.5h1.25v0.97h0.02c0.43-0.73,1.05-1.1,1.87-1.1c0.7,0,1.24,0.25,1.63,0.74
		c0.39,0.49,0.59,1.15,0.59,1.98c0,0.92-0.22,1.65-0.66,2.2c-0.44,0.55-1.04,0.83-1.8,0.83
		C427.43,103.11,426.89,102.8,426.51,102.19z M426.48,100.02v0.68c0,0.4,0.13,0.74,0.38,1.02c0.26,0.28,0.58,0.42,0.97,0.42
		c0.46,0,0.82-0.18,1.09-0.54c0.26-0.36,0.39-0.86,0.39-1.51c0-0.54-0.12-0.96-0.37-1.27c-0.25-0.31-0.58-0.46-1-0.46
		c-0.44,0-0.8,0.16-1.07,0.47C426.61,99.15,426.48,99.55,426.48,100.02z"/>
	<path class="st4" d="M435.06,98.69c-0.15-0.12-0.37-0.18-0.65-0.18c-0.37,0-0.68,0.17-0.92,0.5c-0.25,0.33-0.37,0.79-0.37,1.36V103
		h-1.25v-5.5h1.25v1.13h0.02c0.12-0.39,0.31-0.69,0.56-0.9c0.25-0.22,0.53-0.33,0.85-0.33c0.23,0,0.4,0.03,0.52,0.1V98.69z"/>
	<path class="st4" d="M438.38,103.13c-0.85,0-1.53-0.26-2.03-0.77c-0.51-0.51-0.76-1.2-0.76-2.04c0-0.92,0.26-1.65,0.79-2.16
		c0.53-0.52,1.24-0.78,2.13-0.78c0.86,0,1.53,0.25,2.01,0.76c0.48,0.5,0.72,1.2,0.72,2.1c0,0.88-0.26,1.58-0.78,2.11
		C439.95,102.87,439.25,103.13,438.38,103.13z M438.44,98.37c-0.49,0-0.87,0.17-1.15,0.51s-0.42,0.81-0.42,1.41
		c0,0.58,0.14,1.03,0.43,1.36s0.67,0.5,1.15,0.5c0.49,0,0.87-0.16,1.13-0.49c0.26-0.33,0.39-0.79,0.39-1.39
		c0-0.61-0.13-1.07-0.39-1.4C439.31,98.53,438.93,98.37,438.44,98.37z"/>
	<path class="st4" d="M445.62,95.87c-0.17-0.1-0.36-0.15-0.57-0.15c-0.6,0-0.91,0.34-0.91,1.03v0.75h1.28v0.98h-1.27V103h-1.25
		v-4.52h-0.94V97.5h0.94v-0.89c0-0.58,0.19-1.04,0.57-1.37s0.85-0.5,1.42-0.5c0.31,0,0.55,0.03,0.73,0.1V95.87z"/>
	<path class="st4" d="M448.74,103.13c-0.85,0-1.53-0.26-2.03-0.77c-0.51-0.51-0.76-1.2-0.76-2.04c0-0.92,0.26-1.65,0.79-2.16
		c0.53-0.52,1.24-0.78,2.13-0.78c0.86,0,1.53,0.25,2.01,0.76c0.48,0.5,0.72,1.2,0.72,2.1c0,0.88-0.26,1.58-0.78,2.11
		C450.31,102.87,449.61,103.13,448.74,103.13z M448.8,98.37c-0.49,0-0.87,0.17-1.15,0.51s-0.42,0.81-0.42,1.41
		c0,0.58,0.14,1.03,0.43,1.36s0.67,0.5,1.15,0.5c0.49,0,0.87-0.16,1.13-0.49c0.26-0.33,0.39-0.79,0.39-1.39
		c0-0.61-0.13-1.07-0.39-1.4C449.67,98.53,449.29,98.37,448.8,98.37z"/>
	<path class="st4" d="M456.06,98.69c-0.15-0.12-0.37-0.18-0.65-0.18c-0.37,0-0.68,0.17-0.92,0.5c-0.25,0.33-0.37,0.79-0.37,1.36V103
		h-1.25v-5.5h1.25v1.13h0.02c0.12-0.39,0.31-0.69,0.56-0.9c0.25-0.22,0.53-0.33,0.85-0.33c0.23,0,0.4,0.03,0.52,0.1V98.69z"/>
	<path class="st4" d="M465.17,103h-1.25v-3c0-0.58-0.08-0.99-0.24-1.25c-0.16-0.26-0.44-0.39-0.82-0.39c-0.33,0-0.6,0.16-0.83,0.49
		c-0.23,0.33-0.34,0.72-0.34,1.17V103h-1.25v-3.1c0-1.02-0.36-1.54-1.08-1.54c-0.34,0-0.61,0.15-0.83,0.46
		c-0.22,0.31-0.32,0.71-0.32,1.2V103h-1.25v-5.5h1.25v0.87h0.02c0.4-0.67,0.98-1,1.73-1c0.38,0,0.71,0.1,1,0.31
		c0.29,0.21,0.48,0.48,0.58,0.82c0.41-0.76,1.02-1.14,1.83-1.14c1.21,0,1.82,0.75,1.82,2.24V103z"/>
	<path class="st4" d="M470.91,103h-1.21v-0.86h-0.02c-0.38,0.66-0.94,0.99-1.67,0.99c-0.54,0-0.96-0.15-1.27-0.44
		c-0.31-0.29-0.46-0.68-0.46-1.17c0-1.04,0.6-1.64,1.79-1.82l1.63-0.23c0-0.78-0.37-1.18-1.12-1.18c-0.66,0-1.25,0.22-1.77,0.68
		v-1.09c0.58-0.34,1.25-0.52,2.01-0.52c1.39,0,2.08,0.68,2.08,2.05V103z M469.7,100.3l-1.15,0.16c-0.36,0.05-0.63,0.13-0.81,0.26
		c-0.18,0.13-0.27,0.35-0.27,0.67c0,0.23,0.08,0.42,0.25,0.57c0.17,0.15,0.39,0.22,0.67,0.22c0.38,0,0.69-0.13,0.94-0.4
		c0.25-0.27,0.37-0.6,0.37-1.01V100.3z"/>
	<path class="st4" d="M476.08,96.35c-0.2,0-0.38-0.07-0.52-0.2c-0.15-0.13-0.22-0.3-0.22-0.5s0.07-0.37,0.22-0.51
		c0.14-0.14,0.32-0.2,0.52-0.2c0.21,0,0.39,0.07,0.54,0.2c0.15,0.14,0.22,0.31,0.22,0.51c0,0.19-0.07,0.36-0.22,0.5
		S476.29,96.35,476.08,96.35z M476.7,103h-1.25v-5.5h1.25V103z"/>
	<path class="st4" d="M483.22,103h-1.25v-3.1c0-1.03-0.36-1.54-1.09-1.54c-0.38,0-0.69,0.14-0.94,0.43
		c-0.25,0.29-0.37,0.64-0.37,1.08V103h-1.25v-5.5h1.25v0.91h0.02c0.41-0.69,1.01-1.04,1.78-1.04c0.6,0,1.05,0.19,1.37,0.58
		s0.47,0.95,0.47,1.68V103z"/>
	<path class="st4" d="M489.48,97.5l-2.13,5.5h-1.35l-2.02-5.5h1.35l1.22,3.85c0.09,0.28,0.15,0.53,0.17,0.74h0.02
		c0.03-0.26,0.08-0.5,0.15-0.72l1.28-3.87H489.48z"/>
	<path class="st4" d="M492.76,103.13c-0.85,0-1.53-0.26-2.03-0.77s-0.76-1.2-0.76-2.04c0-0.92,0.26-1.65,0.79-2.16
		c0.53-0.52,1.24-0.78,2.13-0.78c0.86,0,1.53,0.25,2.01,0.76c0.48,0.5,0.72,1.2,0.72,2.1c0,0.88-0.26,1.58-0.78,2.11
		C494.33,102.87,493.64,103.13,492.76,103.13z M492.82,98.37c-0.49,0-0.87,0.17-1.16,0.51c-0.28,0.34-0.42,0.81-0.42,1.41
		c0,0.58,0.14,1.03,0.43,1.36s0.67,0.5,1.15,0.5c0.49,0,0.87-0.16,1.13-0.49c0.26-0.33,0.39-0.79,0.39-1.39
		c0-0.61-0.13-1.07-0.39-1.4C493.69,98.53,493.31,98.37,492.82,98.37z"/>
	<path class="st4" d="M497.52,96.35c-0.21,0-0.38-0.07-0.52-0.2c-0.15-0.13-0.22-0.3-0.22-0.5s0.07-0.37,0.22-0.51
		c0.14-0.14,0.32-0.2,0.52-0.2c0.21,0,0.39,0.07,0.54,0.2c0.15,0.14,0.22,0.31,0.22,0.51c0,0.19-0.07,0.36-0.22,0.5
		C497.91,96.28,497.73,96.35,497.52,96.35z M498.14,103h-1.25v-5.5h1.25V103z"/>
	<path class="st4" d="M503.7,102.75c-0.44,0.25-0.96,0.38-1.56,0.38c-0.82,0-1.48-0.25-1.98-0.77c-0.5-0.51-0.75-1.17-0.75-1.98
		c0-0.91,0.27-1.63,0.81-2.18c0.54-0.55,1.26-0.82,2.16-0.82c0.5,0,0.94,0.09,1.33,0.26v1.16c-0.38-0.29-0.79-0.43-1.22-0.43
		c-0.53,0-0.96,0.18-1.29,0.53s-0.5,0.82-0.5,1.4c0,0.57,0.16,1.02,0.48,1.35c0.32,0.33,0.74,0.49,1.28,0.49
		c0.45,0,0.87-0.16,1.27-0.48V102.75z"/>
	<path class="st4" d="M509.6,100.59h-3.75c0.01,0.51,0.17,0.9,0.47,1.18s0.71,0.41,1.23,0.41c0.59,0,1.13-0.17,1.62-0.53v1
		c-0.5,0.32-1.16,0.47-1.99,0.47c-0.81,0-1.44-0.25-1.9-0.75c-0.46-0.5-0.69-1.2-0.69-2.11c0-0.86,0.25-1.55,0.76-2.09
		c0.51-0.54,1.14-0.81,1.89-0.81s1.33,0.24,1.75,0.72c0.41,0.48,0.62,1.16,0.62,2.01V100.59z M508.39,99.71
		c0-0.45-0.11-0.79-0.32-1.04s-0.49-0.37-0.86-0.37c-0.36,0-0.66,0.13-0.91,0.39c-0.25,0.26-0.4,0.6-0.46,1.03H508.39z"/>
</g>
<g class="st3">
	<path class="st4" d="M710.9,103h-1.49l-1.23-2.06c-0.11-0.19-0.22-0.35-0.33-0.49c-0.11-0.13-0.21-0.24-0.32-0.33
		s-0.23-0.15-0.36-0.19c-0.13-0.04-0.27-0.06-0.43-0.06h-0.52V103h-1.27v-7.7h2.54c0.36,0,0.69,0.04,1,0.13
		c0.3,0.09,0.57,0.22,0.79,0.39c0.23,0.17,0.4,0.39,0.53,0.65s0.19,0.56,0.19,0.91c0,0.27-0.04,0.52-0.12,0.75
		c-0.08,0.23-0.2,0.43-0.34,0.61c-0.15,0.18-0.33,0.33-0.54,0.45c-0.21,0.13-0.45,0.22-0.71,0.29v0.02
		c0.14,0.08,0.26,0.17,0.37,0.26c0.1,0.09,0.2,0.19,0.3,0.29c0.09,0.1,0.19,0.21,0.28,0.34c0.09,0.13,0.19,0.27,0.3,0.44L710.9,103z
		 M706.22,96.33v2.5h1.06c0.2,0,0.38-0.03,0.54-0.09c0.17-0.06,0.31-0.15,0.43-0.26c0.12-0.11,0.22-0.25,0.28-0.42
		c0.07-0.17,0.1-0.35,0.1-0.55c0-0.37-0.12-0.66-0.35-0.86c-0.23-0.21-0.57-0.31-1-0.31H706.22z"/>
	<path class="st4" d="M716.32,100.59h-3.75c0.01,0.51,0.17,0.9,0.47,1.18s0.71,0.41,1.23,0.41c0.59,0,1.13-0.17,1.62-0.53v1
		c-0.5,0.32-1.16,0.47-1.99,0.47c-0.81,0-1.44-0.25-1.9-0.75c-0.46-0.5-0.69-1.2-0.69-2.11c0-0.86,0.25-1.55,0.76-2.09
		c0.51-0.54,1.14-0.81,1.89-0.81s1.33,0.24,1.75,0.72c0.41,0.48,0.62,1.16,0.62,2.01V100.59z M715.11,99.71
		c0-0.45-0.11-0.79-0.32-1.04s-0.49-0.37-0.86-0.37c-0.36,0-0.66,0.13-0.91,0.39c-0.25,0.26-0.4,0.6-0.46,1.03H715.11z"/>
	<path class="st4" d="M722.24,97.5l-2.13,5.5h-1.35l-2.03-5.5h1.35l1.22,3.85c0.09,0.28,0.15,0.53,0.17,0.74h0.02
		c0.03-0.26,0.08-0.5,0.15-0.72l1.28-3.87H722.24z"/>
	<path class="st4" d="M723.71,96.35c-0.2,0-0.38-0.07-0.52-0.2c-0.15-0.13-0.22-0.3-0.22-0.5s0.07-0.37,0.22-0.51
		c0.14-0.14,0.32-0.2,0.52-0.2c0.21,0,0.39,0.07,0.54,0.2c0.15,0.14,0.22,0.31,0.22,0.51c0,0.19-0.07,0.36-0.22,0.5
		S723.92,96.35,723.71,96.35z M724.33,103h-1.25v-5.5h1.25V103z"/>
	<path class="st4" d="M730.61,100.59h-3.75c0.01,0.51,0.17,0.9,0.47,1.18c0.3,0.28,0.71,0.41,1.23,0.41c0.59,0,1.13-0.17,1.62-0.53
		v1c-0.5,0.32-1.16,0.47-1.99,0.47c-0.81,0-1.44-0.25-1.9-0.75c-0.46-0.5-0.69-1.2-0.69-2.11c0-0.86,0.25-1.55,0.76-2.09
		c0.51-0.54,1.13-0.81,1.89-0.81s1.33,0.24,1.75,0.72c0.41,0.48,0.62,1.16,0.62,2.01V100.59z M729.41,99.71
		c0-0.45-0.11-0.79-0.32-1.04s-0.49-0.37-0.86-0.37c-0.36,0-0.66,0.13-0.91,0.39c-0.25,0.26-0.4,0.6-0.46,1.03H729.41z"/>
	<path class="st4" d="M739.2,97.5l-1.62,5.5h-1.3l-1-3.73c-0.04-0.14-0.06-0.3-0.08-0.48h-0.02c-0.01,0.12-0.04,0.28-0.1,0.47
		l-1.08,3.74h-1.28l-1.62-5.5h1.29l1,3.96c0.03,0.12,0.05,0.28,0.06,0.47h0.04c0.01-0.15,0.04-0.31,0.09-0.48l1.11-3.95h1.17
		l0.99,3.98c0.03,0.13,0.06,0.28,0.07,0.47h0.04c0.01-0.13,0.04-0.29,0.08-0.47l0.98-3.98H739.2z"/>
	<path class="st4" d="M747.37,103h-1.21v-0.86h-0.02c-0.38,0.66-0.94,0.99-1.67,0.99c-0.54,0-0.96-0.15-1.27-0.44
		s-0.46-0.68-0.46-1.17c0-1.04,0.6-1.64,1.79-1.82l1.63-0.23c0-0.78-0.37-1.18-1.12-1.18c-0.66,0-1.25,0.22-1.77,0.68v-1.09
		c0.58-0.34,1.25-0.52,2.01-0.52c1.39,0,2.08,0.68,2.08,2.05V103z M746.16,100.3l-1.16,0.16c-0.36,0.05-0.63,0.13-0.81,0.26
		c-0.18,0.13-0.27,0.35-0.27,0.67c0,0.23,0.08,0.42,0.25,0.57c0.17,0.15,0.39,0.22,0.67,0.22c0.38,0,0.69-0.13,0.94-0.4
		c0.25-0.27,0.37-0.6,0.37-1.01V100.3z"/>
	<path class="st4" d="M753.79,103h-1.25v-3.1c0-1.03-0.36-1.54-1.09-1.54c-0.38,0-0.69,0.14-0.94,0.43
		c-0.25,0.29-0.37,0.64-0.37,1.08V103h-1.25v-5.5h1.25v0.91h0.02c0.41-0.69,1.01-1.04,1.78-1.04c0.6,0,1.05,0.19,1.37,0.58
		c0.31,0.39,0.47,0.95,0.47,1.68V103z"/>
	<path class="st4" d="M760.3,103h-1.25v-0.93h-0.02c-0.4,0.71-1.02,1.06-1.85,1.06c-0.68,0-1.22-0.25-1.62-0.74
		c-0.41-0.49-0.61-1.16-0.61-2.01c0-0.91,0.22-1.64,0.67-2.19c0.45-0.55,1.05-0.82,1.8-0.82c0.74,0,1.28,0.3,1.62,0.89h0.02v-3.41
		h1.25V103z M759.08,100.49v-0.72c0-0.39-0.13-0.72-0.38-0.99c-0.25-0.27-0.58-0.41-0.97-0.41c-0.47,0-0.83,0.17-1.1,0.52
		c-0.27,0.35-0.4,0.83-0.4,1.44c0,0.56,0.13,1,0.38,1.32s0.6,0.49,1.03,0.49c0.43,0,0.77-0.16,1.04-0.47
		S759.08,100.96,759.08,100.49z"/>
	<path class="st4" d="M768.89,102.75c-0.44,0.25-0.96,0.38-1.56,0.38c-0.82,0-1.47-0.25-1.98-0.77c-0.5-0.51-0.75-1.17-0.75-1.98
		c0-0.91,0.27-1.63,0.81-2.18s1.26-0.82,2.16-0.82c0.5,0,0.94,0.09,1.33,0.26v1.16c-0.38-0.29-0.79-0.43-1.22-0.43
		c-0.53,0-0.96,0.18-1.29,0.53s-0.5,0.82-0.5,1.4c0,0.57,0.16,1.02,0.48,1.35c0.32,0.33,0.74,0.49,1.28,0.49
		c0.45,0,0.87-0.16,1.27-0.48V102.75z"/>
	<path class="st4" d="M772.57,103.13c-0.85,0-1.53-0.26-2.03-0.77c-0.51-0.51-0.76-1.2-0.76-2.04c0-0.92,0.26-1.65,0.79-2.16
		c0.53-0.52,1.24-0.78,2.13-0.78c0.86,0,1.53,0.25,2.01,0.76c0.48,0.5,0.72,1.2,0.72,2.1c0,0.88-0.26,1.58-0.78,2.11
		S773.44,103.13,772.57,103.13z M772.63,98.37c-0.49,0-0.87,0.17-1.16,0.51s-0.42,0.81-0.42,1.41c0,0.58,0.14,1.03,0.43,1.36
		c0.29,0.33,0.67,0.5,1.15,0.5c0.49,0,0.87-0.16,1.13-0.49c0.26-0.33,0.39-0.79,0.39-1.39c0-0.61-0.13-1.07-0.39-1.4
		C773.49,98.53,773.12,98.37,772.63,98.37z"/>
	<path class="st4" d="M781.6,103h-1.25v-3.1c0-1.03-0.36-1.54-1.09-1.54c-0.38,0-0.69,0.14-0.94,0.43
		c-0.25,0.29-0.37,0.64-0.37,1.08V103h-1.25v-5.5h1.25v0.91h0.02c0.41-0.69,1.01-1.04,1.78-1.04c0.6,0,1.05,0.19,1.37,0.58
		c0.32,0.39,0.47,0.95,0.47,1.68V103z"/>
	<path class="st4" d="M786.22,95.87c-0.17-0.1-0.36-0.15-0.57-0.15c-0.61,0-0.91,0.34-0.91,1.03v0.75h1.28v0.98h-1.27V103h-1.25
		v-4.52h-0.94V97.5h0.94v-0.89c0-0.58,0.19-1.04,0.57-1.37c0.38-0.33,0.85-0.5,1.42-0.5c0.31,0,0.55,0.03,0.73,0.1V95.87z
		 M787.54,96.35c-0.2,0-0.38-0.07-0.52-0.2c-0.14-0.13-0.22-0.3-0.22-0.5s0.07-0.37,0.22-0.51c0.15-0.14,0.32-0.2,0.52-0.2
		c0.21,0,0.39,0.07,0.54,0.2c0.15,0.14,0.22,0.31,0.22,0.51c0,0.19-0.07,0.36-0.22,0.5S787.75,96.35,787.54,96.35z M788.16,103
		h-1.25v-5.5h1.25V103z"/>
	<path class="st4" d="M792.96,98.69c-0.15-0.12-0.37-0.18-0.65-0.18c-0.37,0-0.68,0.17-0.92,0.5c-0.25,0.33-0.37,0.79-0.37,1.36V103
		h-1.25v-5.5h1.25v1.13h0.02c0.12-0.39,0.31-0.69,0.56-0.9c0.25-0.22,0.54-0.33,0.85-0.33c0.23,0,0.4,0.03,0.52,0.1V98.69z"/>
	<path class="st4" d="M802.07,103h-1.25v-3c0-0.58-0.08-0.99-0.24-1.25s-0.44-0.39-0.83-0.39c-0.33,0-0.6,0.16-0.83,0.49
		s-0.34,0.72-0.34,1.17V103h-1.25v-3.1c0-1.02-0.36-1.54-1.08-1.54c-0.34,0-0.61,0.15-0.83,0.46c-0.22,0.31-0.33,0.71-0.33,1.2V103
		h-1.25v-5.5h1.25v0.87h0.02c0.4-0.67,0.98-1,1.74-1c0.38,0,0.71,0.1,1,0.31c0.29,0.21,0.48,0.48,0.58,0.82
		c0.41-0.76,1.02-1.14,1.83-1.14c1.21,0,1.82,0.75,1.82,2.24V103z"/>
</g>
<path id="Rectangle_96" class="st2" d="M35,150.91h44c1.66,0,3,1.23,3,2.74l0,0c0,1.51-1.34,2.74-3,2.74H35c-1.66,0-3-1.23-3-2.74
	l0,0C32,152.14,33.34,150.91,35,150.91z"/>
<path id="Rectangle_97" class="st2" d="M881,150h44c1.66,0,3,1.23,3,2.74l0,0c0,1.51-1.34,2.74-3,2.74h-44c-1.66,0-3-1.23-3-2.74
	l0,0C878,151.23,879.34,150,881,150z"/>
<path id="Rectangle_101" class="st13" d="M881,170.11h64c1.66,0,3,1.23,3,2.74l0,0c0,1.51-1.34,2.74-3,2.74h-64
	c-1.66,0-3-1.23-3-2.74l0,0C878,171.34,879.34,170.11,881,170.11z"/>
<path id="Rectangle_102" class="st13" d="M881,184.73h64c1.66,0,3,1.23,3,2.74l0,0c0,1.51-1.34,2.74-3,2.74h-64
	c-1.66,0-3-1.23-3-2.74l0,0C878,185.96,879.34,184.73,881,184.73z"/>
<path id="Rectangle_103" class="st13" d="M881,199.35h64c1.66,0,3,1.23,3,2.74l0,0c0,1.51-1.34,2.74-3,2.74h-64
	c-1.66,0-3-1.23-3-2.74l0,0C878,200.58,879.34,199.35,881,199.35z"/>
<path id="Rectangle_98" class="st13" d="M35,170.11h64c1.66,0,3,1.23,3,2.74l0,0c0,1.51-1.34,2.74-3,2.74H35c-1.66,0-3-1.23-3-2.74
	l0,0C32,171.34,33.34,170.11,35,170.11z"/>
<path id="Rectangle_99" class="st13" d="M35,184.73h64c1.66,0,3,1.23,3,2.74l0,0c0,1.51-1.34,2.74-3,2.74H35c-1.66,0-3-1.23-3-2.74
	l0,0C32,185.96,33.34,184.73,35,184.73z"/>
<path id="Rectangle_100" class="st13" d="M35,199.35h64c1.66,0,3,1.23,3,2.74l0,0c0,1.51-1.34,2.74-3,2.74H35c-1.66,0-3-1.23-3-2.74
	l0,0C32,200.58,33.34,199.35,35,199.35z"/>
<path id="Rectangle_104" class="st2" d="M35,227.69h819c1.66,0,3,1.23,3,2.74l0,0c0,1.51-1.34,2.74-3,2.74H35c-1.66,0-3-1.23-3-2.74
	l0,0C32,228.92,33.34,227.69,35,227.69z"/>
<path id="Rectangle_105" class="st13" d="M35,240.94h819c1.66,0,3,1.23,3,2.74l0,0c0,1.51-1.34,2.74-3,2.74H35
	c-1.66,0-3-1.23-3-2.74l0,0C32,242.17,33.34,240.94,35,240.94z"/>
<path id="Rectangle_106" class="st2" d="M35,266.08h44c1.66,0,3,1.23,3,2.74l0,0c0,1.51-1.34,2.74-3,2.74H35c-1.66,0-3-1.23-3-2.74
	l0,0C32,267.3,33.34,266.08,35,266.08z"/>
<path id="Rectangle_107" class="st2" d="M881,265.16h44c1.66,0,3,1.23,3,2.74l0,0c0,1.51-1.34,2.74-3,2.74h-44
	c-1.66,0-3-1.23-3-2.74l0,0C878,266.39,879.34,265.16,881,265.16z"/>
<path id="Rectangle_108" class="st13" d="M881,285.27h64c1.66,0,3,1.23,3,2.74l0,0c0,1.51-1.34,2.74-3,2.74h-64
	c-1.66,0-3-1.23-3-2.74l0,0C878,286.5,879.34,285.27,881,285.27z"/>
<path id="Rectangle_109" class="st13" d="M881,299.89h64c1.66,0,3,1.23,3,2.74l0,0c0,1.51-1.34,2.74-3,2.74h-64
	c-1.66,0-3-1.23-3-2.74l0,0C878,301.12,879.34,299.89,881,299.89z"/>
<path id="Rectangle_110" class="st13" d="M881,314.52h64c1.66,0,3,1.23,3,2.74l0,0c0,1.51-1.34,2.74-3,2.74h-64
	c-1.66,0-3-1.23-3-2.74l0,0C878,315.74,879.34,314.52,881,314.52z"/>
<path id="Rectangle_111" class="st13" d="M35,285.27h64c1.66,0,3,1.23,3,2.74l0,0c0,1.51-1.34,2.74-3,2.74H35c-1.66,0-3-1.23-3-2.74
	l0,0C32,286.5,33.34,285.27,35,285.27z"/>
<path id="Rectangle_112" class="st13" d="M35,299.89h64c1.66,0,3,1.23,3,2.74l0,0c0,1.51-1.34,2.74-3,2.74H35c-1.66,0-3-1.23-3-2.74
	l0,0C32,301.12,33.34,299.89,35,299.89z"/>
<path id="Rectangle_113" class="st13" d="M35,314.52h64c1.66,0,3,1.23,3,2.74l0,0c0,1.51-1.34,2.74-3,2.74H35c-1.66,0-3-1.23-3-2.74
	l0,0C32,315.74,33.34,314.52,35,314.52z"/>
</svg>
